<?xml version="1.0" encoding="UTF-8" standalone="no"?>
<!-- Created with Inkscape (http://www.inkscape.org/) -->

<svg
   xmlns:dc="http://purl.org/dc/elements/1.1/"
   xmlns:cc="http://creativecommons.org/ns#"
   xmlns:rdf="http://www.w3.org/1999/02/22-rdf-syntax-ns#"
   xmlns:svg="http://www.w3.org/2000/svg"
   xmlns="http://www.w3.org/2000/svg"
   xmlns:sodipodi="http://sodipodi.sourceforge.net/DTD/sodipodi-0.dtd"
   xmlns:inkscape="http://www.inkscape.org/namespaces/inkscape"
   width="48"
   height="48"
   id="svg4169"
   version="1.1"
   inkscape:version="0.48.4 r9939"
   sodipodi:docname="system-upgrade.svg">
  <defs
     id="defs4171">
    <linearGradient
       id="linearGradient3764"
       x1="1"
       x2="47"
       gradientUnits="userSpaceOnUse"
       gradientTransform="matrix(0,-1,1,0,-1.5e-6,47.999998)">
      <stop
         stop-color="#48a1e0"
         stop-opacity="1"
         id="stop7" />
      <stop
         offset="1"
         stop-color="#5aa9e3"
         stop-opacity="1"
         id="stop9" />
    </linearGradient>
    <clipPath
       id="clipPath-764797814">
      <g
         transform="translate(0,-1004.3622)"
         id="g12">
        <path
           d="m -24 13 c 0 1.105 -0.672 2 -1.5 2 -0.828 0 -1.5 -0.895 -1.5 -2 0 -1.105 0.672 -2 1.5 -2 0.828 0 1.5 0.895 1.5 2 z"
           transform="matrix(15.333333,0,0,11.5,414.99999,878.8622)"
           fill="#1890d0"
           id="path14" />
      </g>
    </clipPath>
    <clipPath
       id="clipPath-774341736">
      <g
         transform="translate(0,-1004.3622)"
         id="g17">
        <path
           d="m -24 13 c 0 1.105 -0.672 2 -1.5 2 -0.828 0 -1.5 -0.895 -1.5 -2 0 -1.105 0.672 -2 1.5 -2 0.828 0 1.5 0.895 1.5 2 z"
           transform="matrix(15.333333,0,0,11.5,414.99999,878.8622)"
           fill="#1890d0"
           id="path19" />
      </g>
    </clipPath>
  </defs>
  <sodipodi:namedview
     id="base"
     pagecolor="#ffffff"
     bordercolor="#666666"
     borderopacity="1.0"
     inkscape:pageopacity="0.0"
     inkscape:pageshadow="2"
     inkscape:zoom="5.6811595"
     inkscape:cx="42.047287"
     inkscape:cy="24.450407"
     inkscape:document-units="px"
     inkscape:current-layer="layer1"
     showgrid="false"
     inkscape:window-width="1318"
     inkscape:window-height="719"
     inkscape:window-x="42"
     inkscape:window-y="24"
     inkscape:window-maximized="1">
    <sodipodi:guide
       position="9,39.000017"
       orientation="30,0"
       id="guide3264" />
    <sodipodi:guide
       position="9,9.0000174"
       orientation="0,30"
       id="guide3266" />
    <sodipodi:guide
       position="39,9.0000174"
       orientation="-30,0"
       id="guide3268" />
    <sodipodi:guide
       position="39,39.000017"
       orientation="0,-30"
       id="guide3270" />
  </sodipodi:namedview>
  <metadata
     id="metadata4174">
    <rdf:RDF>
      <cc:Work
         rdf:about="">
        <dc:format>image/svg+xml</dc:format>
        <dc:type
           rdf:resource="http://purl.org/dc/dcmitype/StillImage" />
        <dc:title></dc:title>
      </cc:Work>
    </rdf:RDF>
  </metadata>
  <g
     inkscape:label="Capa 1"
     inkscape:groupmode="layer"
     id="layer1"
     transform="translate(0,-1004.3622)">
    <g
       id="g3081"
       transform="matrix(1.6409439,0,0,1.6313776,-14.876829,989.06034)"
       style="fill:#ffffff">
      <g
         transform="translate(72.517949,-8.0254239)"
         id="g33"
         style="fill:#ffffff" />
      <g
         transform="translate(13.694915,14.138797)"
         id="g3366"
         style="fill:#ffffff">
        <g
           id="icomoon-ignore"
           style="fill:#ffffff" />
        <path
           style="fill:#ffffff"
           inkscape:connector-curvature="0"
           d="M 10.001,19.2 C 15.082,19.2 19.2,15.081 19.2,10 19.2,4.919 15.082,0.8 10.001,0.8 4.919,0.8 0.8,4.919 0.8,10 c 0,5.081 4.119,9.2 9.201,9.2 z m 0,-16.4 c 3.977,0 7.199,3.224 7.199,7.2 0,3.976 -3.223,7.2 -7.199,7.2 C 6.023,17.2 2.8,13.977 2.8,10 2.8,6.023 6.023,2.8 10.001,2.8 z M 8.2,13.85 h 3.601 V 9.76 h 2.25 L 10.001,5.95 5.95,9.76 H 8.2 v 4.09 z"
           id="path3358" />
      </g>
    </g>
  </g>
</svg>
