<?xml version="1.0" encoding="UTF-8" standalone="no"?>
<svg
   xmlns:ooo="http://xml.openoffice.org/svg/export"
   xmlns:dc="http://purl.org/dc/elements/1.1/"
   xmlns:cc="http://creativecommons.org/ns#"
   xmlns:rdf="http://www.w3.org/1999/02/22-rdf-syntax-ns#"
   xmlns:svg="http://www.w3.org/2000/svg"
   xmlns="http://www.w3.org/2000/svg"
   xmlns:sodipodi="http://sodipodi.sourceforge.net/DTD/sodipodi-0.dtd"
   xmlns:inkscape="http://www.inkscape.org/namespaces/inkscape"
   version="1.2"
   width="17.64mm"
   height="17.64mm"
   viewBox="0 0 1764 1764"
   preserveAspectRatio="xMidYMid"
   fill-rule="evenodd"
   stroke-width="28.222"
   stroke-linejoin="round"
   xml:space="preserve"
   id="svg2"
   inkscape:version="0.91 r13725"
   sodipodi:docname="applications-science.svg"><metadata
     id="metadata108"><rdf:RDF><cc:Work
         rdf:about=""><dc:format>image/svg+xml</dc:format><dc:type
           rdf:resource="http://purl.org/dc/dcmitype/StillImage" /></cc:Work></rdf:RDF></metadata><sodipodi:namedview
     pagecolor="#ffffff"
     bordercolor="#666666"
     borderopacity="1"
     objecttolerance="10"
     gridtolerance="10"
     guidetolerance="10"
     inkscape:pageopacity="0"
     inkscape:pageshadow="2"
     inkscape:window-width="796"
     inkscape:window-height="831"
     id="namedview106"
     showgrid="false"
     inkscape:zoom="5.3397343"
     inkscape:cx="36.87829"
     inkscape:cy="30.235153"
     inkscape:window-x="0"
     inkscape:window-y="39"
     inkscape:window-maximized="0"
     inkscape:current-layer="svg2" /><defs
     class="ClipPathGroup"
     id="defs4"><clipPath
       id="presentation_clip_path"
       clipPathUnits="userSpaceOnUse"><rect
         x="0"
         y="0"
         width="1764"
         height="1764"
         id="rect7" /></clipPath><marker
       inkscape:stockid="Arrow2Mend"
       orient="auto"
       refY="0"
       refX="0"
       id="Arrow2Mend"
       style="overflow:visible"><path
         inkscape:connector-curvature="0"
         sodipodi:nodetypes="cccc"
         id="path2928"
         style="font-size:12px;fill-rule:evenodd;stroke-width:0.625;stroke-linejoin:round"
         d="M 8.7185878,4.0337352 -2.2072895,0.01601326 8.7185884,-4.0017078 c -1.7454984,2.3720609 -1.7354408,5.6174519 -6e-7,8.035443 z"
         transform="matrix(-0.6,0,0,-0.6,3,0)" /></marker></defs><defs
     class="TextShapeIndex"
     id="defs9"><g
       ooo:slide="id1"
       ooo:id-list="id3 id4 id5 id6 id7 id8 id9 id10"
       id="g11" /></defs><defs
     class="EmbeddedBulletChars"
     id="defs13"><g
       id="bullet-char-template(57356)"
       transform="scale(0.00048828125,-0.00048828125)"><path
         d="M 580,1141 L 1163,571 580,0 -4,571 580,1141 Z"
         id="path16" /></g><g
       id="bullet-char-template(57354)"
       transform="scale(0.00048828125,-0.00048828125)"><path
         d="M 8,1128 L 1137,1128 1137,0 8,0 8,1128 Z"
         id="path19" /></g><g
       id="bullet-char-template(10146)"
       transform="scale(0.00048828125,-0.00048828125)"><path
         d="M 174,0 L 602,739 174,1481 1456,739 174,0 Z M 1358,739 L 309,1346 659,739 1358,739 Z"
         id="path22" /></g><g
       id="bullet-char-template(10132)"
       transform="scale(0.00048828125,-0.00048828125)"><path
         d="M 2015,739 L 1276,0 717,0 1260,543 174,543 174,936 1260,936 717,1481 1274,1481 2015,739 Z"
         id="path25" /></g><g
       id="bullet-char-template(10007)"
       transform="scale(0.00048828125,-0.00048828125)"><path
         d="M 0,-2 C -7,14 -16,27 -25,37 L 356,567 C 262,823 215,952 215,954 215,979 228,992 255,992 264,992 276,990 289,987 310,991 331,999 354,1012 L 381,999 492,748 772,1049 836,1024 860,1049 C 881,1039 901,1025 922,1006 886,937 835,863 770,784 769,783 710,716 594,584 L 774,223 C 774,196 753,168 711,139 L 727,119 C 717,90 699,76 672,76 641,76 570,178 457,381 L 164,-76 C 142,-110 111,-127 72,-127 30,-127 9,-110 8,-76 1,-67 -2,-52 -2,-32 -2,-23 -1,-13 0,-2 Z"
         id="path28" /></g><g
       id="bullet-char-template(10004)"
       transform="scale(0.00048828125,-0.00048828125)"><path
         d="M 285,-33 C 182,-33 111,30 74,156 52,228 41,333 41,471 41,549 55,616 82,672 116,743 169,778 240,778 293,778 328,747 346,684 L 369,508 C 377,444 397,411 428,410 L 1163,1116 C 1174,1127 1196,1133 1229,1133 1271,1133 1292,1118 1292,1087 L 1292,965 C 1292,929 1282,901 1262,881 L 442,47 C 390,-6 338,-33 285,-33 Z"
         id="path31" /></g><g
       id="bullet-char-template(9679)"
       transform="scale(0.00048828125,-0.00048828125)"><path
         d="M 813,0 C 632,0 489,54 383,161 276,268 223,411 223,592 223,773 276,916 383,1023 489,1130 632,1184 813,1184 992,1184 1136,1130 1245,1023 1353,916 1407,772 1407,592 1407,412 1353,268 1245,161 1136,54 992,0 813,0 Z"
         id="path34" /></g><g
       id="bullet-char-template(8226)"
       transform="scale(0.00048828125,-0.00048828125)"><path
         d="M 346,457 C 273,457 209,483 155,535 101,586 74,649 74,723 74,796 101,859 155,911 209,963 273,989 346,989 419,989 480,963 531,910 582,859 608,796 608,723 608,648 583,586 532,535 482,483 420,457 346,457 Z"
         id="path37" /></g><g
       id="bullet-char-template(8211)"
       transform="scale(0.00048828125,-0.00048828125)"><path
         d="M -4,459 L 1135,459 1135,606 -4,606 -4,459 Z"
         id="path40" /></g></defs><defs
     class="TextEmbeddedBitmaps"
     id="defs42" /><g
     id="g44"><g
       id="id2"
       class="Master_Slide"><g
         id="bg-id2"
         class="Background" /><g
         id="bo-id2"
         class="BackgroundObjects" /></g></g><g
     class="SlideGroup"
     id="g49"><g
       id="g51"><g
         id="id1"
         class="Slide"
         clip-path="url(#presentation_clip_path)"><g
           class="Page"
           id="g54"><g
             class="com.sun.star.drawing.PolyPolygonShape"
             id="g56"><g
               id="id3"><path
                 d="M 756,1780 L 332,1550 985,1223 1409,1453 756,1780 Z"
                 id="path59"
                 stroke="none"
                 fill="rgb(192,192,192)" /></g></g><g
             class="com.sun.star.drawing.PolyPolygonShape"
             id="g61"><g
               id="id4"><path
                 d="M 332,1371 L 396,343 1050,16 974,1059 332,1371 Z"
                 id="path64"
                 stroke="none"
                 fill="rgb(255,255,255)" /><path
                 d="M 332,1371 L 396,343 1050,16 974,1059 332,1371 Z"
                 id="path66"
                 stroke-linejoin="miter"
                 stroke-width="18"
                 stroke="rgb(0,0,0)"
                 fill="none" /></g></g><g
             class="com.sun.star.drawing.PolyPolygonShape"
             id="g68"><g
               id="id5"><path
                 d="M 540,1478 L 395,343 1049,16 1189,1153 540,1478 Z"
                 id="path71"
                 stroke="none"
                 fill="rgb(255,255,255)" /><path
                 d="M 540,1478 L 395,343 1049,16 1189,1153 540,1478 Z"
                 id="path73"
                 stroke-linejoin="miter"
                 stroke-width="18"
                 stroke="rgb(0,0,0)"
                 fill="none" /></g></g><g
             class="com.sun.star.drawing.PolyPolygonShape"
             id="g75"><g
               id="id6"><path
                 d="M 541,1479 L 581,433 1223,111 1190,1154 541,1479 Z"
                 id="path78"
                 stroke="none"
                 fill="rgb(255,255,255)" /><path
                 d="M 541,1479 L 581,433 1223,111 1190,1154 541,1479 Z"
                 id="path80"
                 stroke-linejoin="miter"
                 stroke-width="18"
                 stroke="rgb(0,0,0)"
                 fill="none" /></g></g><g
             class="com.sun.star.drawing.PolyPolygonShape"
             id="g82"><g
               id="id7"><path
                 d="M 755,1599 L 581,433 1222,111 1411,1264 755,1599 Z"
                 id="path85"
                 stroke="none"
                 fill="rgb(255,255,255)" /><path
                 d="M 755,1599 L 581,433 1222,111 1411,1264 755,1599 Z"
                 id="path87"
                 stroke-linejoin="miter"
                 stroke-width="18"
                 stroke="rgb(0,0,0)"
                 fill="none" /></g></g><g
             class="com.sun.star.drawing.PolyPolygonShape"
             id="g89"><g
               id="id8"><path
                 d="M 755,1598 L 755,521 1411,198 1411,1264 755,1598 Z"
                 id="path92"
                 stroke="none"
                 fill="rgb(255,255,255)" /><path
                 d="M 755,1598 L 755,521 1411,198 1411,1264 755,1598 Z"
                 id="path94"
                 stroke-linejoin="miter"
                 stroke-width="18"
                 stroke="rgb(0,0,0)"
                 fill="none" /></g></g><g
             class="com.sun.star.drawing.LineShape"
             id="g96"><g
               id="id9"><path
                 d="M 900,1217 L 1313,1020"
                 id="path99"
                 stroke-linejoin="miter"
                 stroke-width="18"
                 stroke="rgb(0,0,0)"
                 fill="none" /></g></g><g
             class="com.sun.star.drawing.LineShape"
             id="g101"><g
               id="id10"><path
                 d="M 904,1343 L 1315,1153"
                 id="path104"
                 stroke-linejoin="miter"
                 stroke-width="18"
                 stroke="rgb(0,0,0)"
                 fill="none" /></g></g></g></g></g></g><g
     transform="matrix(13.193475,-20.319965,13.231048,7.014493,682.19748,1030.8183)"
     id="lab_1_"><path
       style="fill:#333333"
       inkscape:connector-curvature="0"
       d="M 20.682,3.732 C 20.209,3.26 19.582,3 18.914,3 18.246,3 17.619,3.26 17.144,3.733 l -1.41,1.412 C 15.261,5.617 15,6.245 15,6.914 c 0,0.471 0.129,0.922 0.371,1.313 L 1.794,13.666 c -0.908,0.399 -1.559,1.218 -1.742,2.189 -0.185,0.977 0.125,1.979 0.834,2.687 l 12.72,12.58 c 0.548,0.548 1.276,0.859 2.045,0.877 C 15.669,32 15.711,32 15.729,32 c 0.202,0 0.407,-0.021 0.61,-0.062 0.994,-0.206 1.808,-0.893 2.177,-1.828 l 5.342,-13.376 c 0.402,0.265 0.875,0.407 1.367,0.407 0.67,0 1.297,-0.261 1.768,-0.733 L 28.4,15 c 0.477,-0.474 0.738,-1.103 0.738,-1.773 0,-0.67 -0.262,-1.3 -0.732,-1.768 L 20.682,3.732 Z m -4.023,25.635 c -0.124,0.313 -0.397,0.544 -0.727,0.612 -0.076,0.016 -0.153,0.022 -0.229,0.021 -0.254,-0.006 -0.499,-0.108 -0.682,-0.292 L 2.293,17.12 C 2.059,16.887 1.956,16.553 2.018,16.227 2.079,15.903 2.297,15.629 2.6,15.497 l 6.217,-2.49 c 4.189,1.393 8.379,0.051 12.57,4.522 L 16.659,29.367 Z M 26.992,13.58 25.578,14.993 c -0.195,0.196 -0.512,0.196 -0.707,0 l -1.768,-1.767 -1.432,3.589 0.119,-0.303 C 18.78,13.507 15.721,13.128 12.961,12.789 12.074,12.68 11.214,12.566 10.369,12.384 L 18.86,8.983 17.145,7.268 c -0.195,-0.195 -0.195,-0.512 0,-0.707 l 1.414,-1.415 c 0.195,-0.195 0.512,-0.195 0.707,0 l 7.725,7.727 c 0.198,0.195 0.198,0.512 0.001,0.707 z"
       id="path4" /><path
       style="fill:#333333"
       inkscape:connector-curvature="0"
       d="M 16.5,21 C 17.878,21 19,19.879 19,18.5 19,17.121 17.879,16 16.5,16 15.121,16 14,17.121 14,18.5 c 0,1.379 1.122,2.5 2.5,2.5 z m 0,-4 C 17.328,17 18,17.672 18,18.5 18,19.328 17.328,20 16.5,20 15.671,20 15,19.328 15,18.5 15,17.672 15.671,17 16.5,17 Z"
       id="path6" /><path
       style="fill:#333333"
       inkscape:connector-curvature="0"
       d="M 29.5,0 C 28.121,0 27,1.121 27,2.5 27,3.879 28.121,5 29.5,5 30.879,5 32,3.879 32,2.5 32,1.121 30.879,0 29.5,0 Z m 0,4 C 28.672,4 28,3.328 28,2.5 28,1.672 28.672,1 29.5,1 30.328,1 31,1.672 31,2.5 31,3.328 30.328,4 29.5,4 Z"
       id="path8" /><path
       style="fill:#333333"
       inkscape:connector-curvature="0"
       d="m 8,17 c 0,1.103 0.897,2 2,2 1.103,0 2,-0.897 2,-2 0,-1.103 -0.897,-2 -2,-2 -1.103,0 -2,0.897 -2,2 z m 2,-1 c 0.552,0 1,0.447 1,1 0,0.553 -0.448,1 -1,1 -0.552,0 -1,-0.447 -1,-1 0,-0.553 0.448,-1 1,-1 z"
       id="path10" /><circle
       style="fill:#333333"
       cx="13"
       cy="23"
       r="1"
       id="circle12" /><circle
       style="fill:#333333"
       cx="29"
       cy="8"
       r="1"
       id="circle14" /></g><path
     style="fill:#00ff00"
     d="m 32.757234,39.070157 c -0.05723,-0.05723 -0.104047,-0.186972 -0.104047,-0.288324 0,-0.101353 0.397454,-1.347586 0.883232,-2.769406 l 0.883231,-2.585128 0.471136,-0.519901 c 0.51908,-0.572809 0.945365,-1.103877 2.229581,-2.777624 1.12519,-1.466484 2.628589,-2.9842 3.610659,-3.645044 0.821187,-0.552583 1.594752,-0.972944 1.659214,-0.901628 0.123629,0.136773 3.372687,6.3927 3.371429,6.491545 -0.0025,0.196283 -0.238265,0.636297 -0.437127,0.815819 -0.232332,0.209738 -12.15628,6.283739 -12.335686,6.283739 -0.07017,0 -0.174396,-0.04682 -0.231622,-0.104048 z m 4.169749,-4.194016 c 0.700031,-0.401531 1.156092,-1.121853 1.207598,-1.907332 0.03117,-0.475399 0.03004,-0.479383 -0.202353,-0.711777 -0.200208,-0.200207 -0.277669,-0.233701 -0.540477,-0.233701 -0.679047,0 -1.49917,0.700239 -1.797855,1.535049 -0.201611,0.563491 -0.09549,1.254899 0.220903,1.439177 0.237202,0.138158 0.758941,0.0812 1.112184,-0.121416 z m 4.130503,-1.294455 c 0.589612,-0.3049 0.874095,-1.237904 0.438032,-1.436587 -0.32518,-0.148162 -0.818197,0.154561 -1.037307,0.636928 -0.15858,0.349114 -0.155962,0.600245 0.008,0.764175 0.157145,0.157144 0.335361,0.167839 0.591307,0.03548 z m -0.479298,-2.617995 c 0.547525,-0.273602 1.086566,-0.853998 1.393593,-1.50051 0.208554,-0.439156 0.244049,-0.581038 0.245065,-0.979599 0.0014,-0.544448 -0.124448,-0.835363 -0.446199,-1.031546 -0.82249,-0.501501 -2.341027,0.55663 -2.768109,1.928845 -0.429465,1.379873 0.371535,2.184513 1.57565,1.58281 z"
     id="path3420"
     inkscape:connector-curvature="0"
     transform="scale(28.222224,28.222224)" /></svg>