<?xml version="1.0" encoding="UTF-8" standalone="no"?>
<svg
   xmlns:ooo="http://xml.openoffice.org/svg/export"
   xmlns:dc="http://purl.org/dc/elements/1.1/"
   xmlns:cc="http://creativecommons.org/ns#"
   xmlns:rdf="http://www.w3.org/1999/02/22-rdf-syntax-ns#"
   xmlns:svg="http://www.w3.org/2000/svg"
   xmlns="http://www.w3.org/2000/svg"
   xmlns:sodipodi="http://sodipodi.sourceforge.net/DTD/sodipodi-0.dtd"
   xmlns:inkscape="http://www.inkscape.org/namespaces/inkscape"
   version="1.2"
   width="17.64mm"
   height="17.64mm"
   viewBox="0 0 1764 1764"
   preserveAspectRatio="xMidYMid"
   fill-rule="evenodd"
   stroke-width="28.222"
   stroke-linejoin="round"
   xml:space="preserve"
   id="svg2"
   inkscape:version="0.91 r13725"
   sodipodi:docname="applications-electronics.svg"><metadata
     id="metadata108"><rdf:RDF><cc:Work
         rdf:about=""><dc:format>image/svg+xml</dc:format><dc:type
           rdf:resource="http://purl.org/dc/dcmitype/StillImage" /></cc:Work></rdf:RDF></metadata><sodipodi:namedview
     pagecolor="#ffffff"
     bordercolor="#666666"
     borderopacity="1"
     objecttolerance="10"
     gridtolerance="10"
     guidetolerance="10"
     inkscape:pageopacity="0"
     inkscape:pageshadow="2"
     inkscape:window-width="1596"
     inkscape:window-height="831"
     id="namedview106"
     showgrid="false"
     inkscape:zoom="7.5515246"
     inkscape:cx="32.081478"
     inkscape:cy="29.50345"
     inkscape:window-x="0"
     inkscape:window-y="39"
     inkscape:window-maximized="0"
     inkscape:current-layer="svg2" /><defs
     class="ClipPathGroup"
     id="defs4"><clipPath
       id="presentation_clip_path"
       clipPathUnits="userSpaceOnUse"><rect
         x="0"
         y="0"
         width="1764"
         height="1764"
         id="rect7" /></clipPath><marker
       inkscape:stockid="Arrow2Mend"
       orient="auto"
       refY="0"
       refX="0"
       id="Arrow2Mend"
       style="overflow:visible"><path
         inkscape:connector-curvature="0"
         sodipodi:nodetypes="cccc"
         id="path2928"
         style="font-size:12px;fill-rule:evenodd;stroke-width:0.625;stroke-linejoin:round"
         d="M 8.7185878,4.0337352 -2.2072895,0.01601326 8.7185884,-4.0017078 c -1.7454984,2.3720609 -1.7354408,5.6174519 -6e-7,8.035443 z"
         transform="matrix(-0.6,0,0,-0.6,3,0)" /></marker></defs><defs
     class="TextShapeIndex"
     id="defs9"><g
       ooo:slide="id1"
       ooo:id-list="id3 id4 id5 id6 id7 id8 id9 id10"
       id="g11" /></defs><defs
     class="EmbeddedBulletChars"
     id="defs13"><g
       id="bullet-char-template(57356)"
       transform="scale(0.00048828125,-0.00048828125)"><path
         d="M 580,1141 L 1163,571 580,0 -4,571 580,1141 Z"
         id="path16" /></g><g
       id="bullet-char-template(57354)"
       transform="scale(0.00048828125,-0.00048828125)"><path
         d="M 8,1128 L 1137,1128 1137,0 8,0 8,1128 Z"
         id="path19" /></g><g
       id="bullet-char-template(10146)"
       transform="scale(0.00048828125,-0.00048828125)"><path
         d="M 174,0 L 602,739 174,1481 1456,739 174,0 Z M 1358,739 L 309,1346 659,739 1358,739 Z"
         id="path22" /></g><g
       id="bullet-char-template(10132)"
       transform="scale(0.00048828125,-0.00048828125)"><path
         d="M 2015,739 L 1276,0 717,0 1260,543 174,543 174,936 1260,936 717,1481 1274,1481 2015,739 Z"
         id="path25" /></g><g
       id="bullet-char-template(10007)"
       transform="scale(0.00048828125,-0.00048828125)"><path
         d="M 0,-2 C -7,14 -16,27 -25,37 L 356,567 C 262,823 215,952 215,954 215,979 228,992 255,992 264,992 276,990 289,987 310,991 331,999 354,1012 L 381,999 492,748 772,1049 836,1024 860,1049 C 881,1039 901,1025 922,1006 886,937 835,863 770,784 769,783 710,716 594,584 L 774,223 C 774,196 753,168 711,139 L 727,119 C 717,90 699,76 672,76 641,76 570,178 457,381 L 164,-76 C 142,-110 111,-127 72,-127 30,-127 9,-110 8,-76 1,-67 -2,-52 -2,-32 -2,-23 -1,-13 0,-2 Z"
         id="path28" /></g><g
       id="bullet-char-template(10004)"
       transform="scale(0.00048828125,-0.00048828125)"><path
         d="M 285,-33 C 182,-33 111,30 74,156 52,228 41,333 41,471 41,549 55,616 82,672 116,743 169,778 240,778 293,778 328,747 346,684 L 369,508 C 377,444 397,411 428,410 L 1163,1116 C 1174,1127 1196,1133 1229,1133 1271,1133 1292,1118 1292,1087 L 1292,965 C 1292,929 1282,901 1262,881 L 442,47 C 390,-6 338,-33 285,-33 Z"
         id="path31" /></g><g
       id="bullet-char-template(9679)"
       transform="scale(0.00048828125,-0.00048828125)"><path
         d="M 813,0 C 632,0 489,54 383,161 276,268 223,411 223,592 223,773 276,916 383,1023 489,1130 632,1184 813,1184 992,1184 1136,1130 1245,1023 1353,916 1407,772 1407,592 1407,412 1353,268 1245,161 1136,54 992,0 813,0 Z"
         id="path34" /></g><g
       id="bullet-char-template(8226)"
       transform="scale(0.00048828125,-0.00048828125)"><path
         d="M 346,457 C 273,457 209,483 155,535 101,586 74,649 74,723 74,796 101,859 155,911 209,963 273,989 346,989 419,989 480,963 531,910 582,859 608,796 608,723 608,648 583,586 532,535 482,483 420,457 346,457 Z"
         id="path37" /></g><g
       id="bullet-char-template(8211)"
       transform="scale(0.00048828125,-0.00048828125)"><path
         d="M -4,459 L 1135,459 1135,606 -4,606 -4,459 Z"
         id="path40" /></g></defs><defs
     class="TextEmbeddedBitmaps"
     id="defs42" /><g
     id="g44"><g
       id="id2"
       class="Master_Slide"><g
         id="bg-id2"
         class="Background" /><g
         id="bo-id2"
         class="BackgroundObjects" /></g></g><g
     class="SlideGroup"
     id="g49"><g
       id="g51"><g
         id="id1"
         class="Slide"
         clip-path="url(#presentation_clip_path)"><g
           class="Page"
           id="g54"><g
             class="com.sun.star.drawing.PolyPolygonShape"
             id="g56"><g
               id="id3"><path
                 fill="rgb(192,192,192)"
                 stroke="none"
                 d="M 756,1780 L 332,1550 985,1223 1409,1453 756,1780 Z"
                 id="path59" /></g></g><g
             class="com.sun.star.drawing.PolyPolygonShape"
             id="g61"><g
               id="id4"><path
                 fill="rgb(255,255,255)"
                 stroke="none"
                 d="M 332,1371 L 396,343 1050,16 974,1059 332,1371 Z"
                 id="path64" /><path
                 fill="none"
                 stroke="rgb(0,0,0)"
                 stroke-width="18"
                 stroke-linejoin="miter"
                 d="M 332,1371 L 396,343 1050,16 974,1059 332,1371 Z"
                 id="path66" /></g></g><g
             class="com.sun.star.drawing.PolyPolygonShape"
             id="g68"><g
               id="id5"><path
                 fill="rgb(255,255,255)"
                 stroke="none"
                 d="M 540,1478 L 395,343 1049,16 1189,1153 540,1478 Z"
                 id="path71" /><path
                 fill="none"
                 stroke="rgb(0,0,0)"
                 stroke-width="18"
                 stroke-linejoin="miter"
                 d="M 540,1478 L 395,343 1049,16 1189,1153 540,1478 Z"
                 id="path73" /></g></g><g
             class="com.sun.star.drawing.PolyPolygonShape"
             id="g75"><g
               id="id6"><path
                 fill="rgb(255,255,255)"
                 stroke="none"
                 d="M 541,1479 L 581,433 1223,111 1190,1154 541,1479 Z"
                 id="path78" /><path
                 fill="none"
                 stroke="rgb(0,0,0)"
                 stroke-width="18"
                 stroke-linejoin="miter"
                 d="M 541,1479 L 581,433 1223,111 1190,1154 541,1479 Z"
                 id="path80" /></g></g><g
             class="com.sun.star.drawing.PolyPolygonShape"
             id="g82"><g
               id="id7"><path
                 fill="rgb(255,255,255)"
                 stroke="none"
                 d="M 755,1599 L 581,433 1222,111 1411,1264 755,1599 Z"
                 id="path85" /><path
                 fill="none"
                 stroke="rgb(0,0,0)"
                 stroke-width="18"
                 stroke-linejoin="miter"
                 d="M 755,1599 L 581,433 1222,111 1411,1264 755,1599 Z"
                 id="path87" /></g></g><g
             class="com.sun.star.drawing.PolyPolygonShape"
             id="g89"><g
               id="id8"><path
                 fill="rgb(255,255,255)"
                 stroke="none"
                 d="M 755,1598 L 755,521 1411,198 1411,1264 755,1598 Z"
                 id="path92" /><path
                 fill="none"
                 stroke="rgb(0,0,0)"
                 stroke-width="18"
                 stroke-linejoin="miter"
                 d="M 755,1598 L 755,521 1411,198 1411,1264 755,1598 Z"
                 id="path94" /></g></g><g
             class="com.sun.star.drawing.LineShape"
             id="g96"><g
               id="id9"><path
                 fill="none"
                 stroke="rgb(0,0,0)"
                 stroke-width="18"
                 stroke-linejoin="miter"
                 d="M 900,1217 L 1313,1020"
                 id="path99" /></g></g><g
             class="com.sun.star.drawing.LineShape"
             id="g101"><g
               id="id10"><path
                 fill="none"
                 stroke="rgb(0,0,0)"
                 stroke-width="18"
                 stroke-linejoin="miter"
                 d="M 904,1343 L 1315,1153"
                 id="path104" /></g></g></g></g></g></g><g
     id="g3345"
     transform="matrix(5.8632666,-3.4420459,0,5.8462656,772.62066,550.57515)"><ellipse
       style="fill:none;fill-opacity:0.4375;stroke:#000000;stroke-width:2.75958705;stroke-linecap:square;stroke-linejoin:miter;stroke-miterlimit:4;stroke-dasharray:none;stroke-dashoffset:0;stroke-opacity:1"
       id="path1291"
       transform="matrix(0.848584,0,0,0.967157,13.21102,9.750322)"
       cx="58.083771"
       cy="54.541859"
       rx="43.436558"
       ry="38.133259" /><path
       style="fill:none;fill-opacity:0.75;fill-rule:evenodd;stroke:#000000;stroke-width:2.5;stroke-linecap:butt;stroke-linejoin:miter;stroke-miterlimit:4;stroke-dasharray:none;stroke-opacity:1"
       d="m 43.75,43.75 0,37.5"
       id="path2052"
       sodipodi:nodetypes="cc"
       inkscape:connector-curvature="0" /><path
       style="fill:none;fill-opacity:0.75;fill-rule:evenodd;stroke:#000000;stroke-width:2.5;stroke-linecap:round;stroke-linejoin:round;stroke-miterlimit:4;stroke-dasharray:none;stroke-opacity:1"
       d="m 6.25,62.5 37.5,0"
       id="path2054"
       sodipodi:nodetypes="cc"
       inkscape:connector-curvature="0" /><path
       style="fill:none;fill-opacity:0.75;fill-rule:evenodd;stroke:#000000;stroke-width:2.5;stroke-linecap:round;stroke-linejoin:round;stroke-miterlimit:4;stroke-dasharray:none;stroke-opacity:1;marker-mid:none"
       d="m 43.75,56.25 31.25,-25 0,-25"
       id="path2056"
       sodipodi:nodetypes="ccc"
       inkscape:connector-curvature="0" /><path
       style="fill:none;fill-opacity:0.75;fill-rule:evenodd;stroke:#000000;stroke-width:2.5;stroke-linecap:round;stroke-linejoin:round;stroke-miterlimit:4;stroke-dasharray:none;stroke-opacity:1;marker-mid:url(#Arrow2Mend)"
       d="M 43.75,68.75 59.375,81.25 75,93.75"
       id="path2058"
       sodipodi:nodetypes="ccc"
       inkscape:connector-curvature="0" /><path
       style="fill:none;fill-opacity:0.75;fill-rule:evenodd;stroke:#000000;stroke-width:2.5;stroke-linecap:round;stroke-linejoin:round;stroke-miterlimit:4;stroke-dasharray:none;stroke-opacity:1"
       d="m 75,118.75 0,-25"
       id="path9839"
       sodipodi:nodetypes="cc"
       inkscape:connector-curvature="0" /></g></svg>