<?xml version="1.0" encoding="UTF-8" standalone="no"?>
<!-- Generator: Adobe Illustrator 13.0.0, SVG Export Plug-In . SVG Version: 6.00 Build 14948)  -->

<svg
   xmlns:dc="http://purl.org/dc/elements/1.1/"
   xmlns:cc="http://creativecommons.org/ns#"
   xmlns:rdf="http://www.w3.org/1999/02/22-rdf-syntax-ns#"
   xmlns:svg="http://www.w3.org/2000/svg"
   xmlns="http://www.w3.org/2000/svg"
   xmlns:sodipodi="http://sodipodi.sourceforge.net/DTD/sodipodi-0.dtd"
   xmlns:inkscape="http://www.inkscape.org/namespaces/inkscape"
   version="1.1"
   id="Layer_1"
   x="0px"
   y="0px"
   width="295.5px"
   height="127.973px"
   viewBox="0 0 295.5 127.973"
   style="enable-background:new 0 0 295.5 127.973;"
   xml:space="preserve"
   inkscape:version="0.91 r13725"
   sodipodi:docname="Sun_Microsystems_logo.svg"><metadata
     id="metadata59"><rdf:RDF><cc:Work
         rdf:about=""><dc:format>image/svg+xml</dc:format><dc:type
           rdf:resource="http://purl.org/dc/dcmitype/StillImage" /><dc:title></dc:title></cc:Work></rdf:RDF></metadata><defs
     id="defs57" /><sodipodi:namedview
     pagecolor="#ffffff"
     bordercolor="#666666"
     borderopacity="1"
     objecttolerance="10"
     gridtolerance="10"
     guidetolerance="10"
     inkscape:pageopacity="0"
     inkscape:pageshadow="2"
     inkscape:window-width="796"
     inkscape:window-height="859"
     id="namedview55"
     showgrid="false"
     inkscape:zoom="1.4247039"
     inkscape:cx="147.75"
     inkscape:cy="63.9865"
     inkscape:window-x="800"
     inkscape:window-y="39"
     inkscape:window-maximized="0"
     inkscape:current-layer="g3" /><g
     id="g3"><g
       id="g5" /><g
       id="g3405"><path
         id="path9"
         d="M19.388,60.402c-3.524,3.534-9.222,3.534-12.746,0c-3.524-3.52-3.524-9.222,0-12.73l20.86-20.866    l5.577,5.577L12.082,53.386l1.571,1.587l21.002-21.014l5.597,5.593L19.388,60.402"
         style="enable-background:new 0 0 295.50000000000000000 127.97299999999999898;fill:#5D87A1" /><path
         id="path11"
         d="M35.626,47.449c3.53-3.523,9.222-3.523,12.743,0c3.512,3.509,3.523,9.211,0,12.735L27.503,81.048   l-5.579-5.579l21.02-21.003l-1.593-1.588L20.354,73.893l-5.596-5.588L35.626,47.449"
         style="fill:#5D87A1;" /><path
         id="path13"
         d="M62.676,90.74c3.523,3.51,3.523,9.211,0,12.714c-3.52,3.524-9.227,3.524-12.747,0l-20.85-20.859   l5.577-5.566l21.007,21.003l1.584-1.577L36.233,75.443l5.577-5.578L62.676,90.74"
         style="fill:#5D87A1;" /><path
         id="path15"
         d="M49.707,74.492c-3.518-3.524-3.518-9.239,0-12.736c3.521-3.539,9.227-3.539,12.75,0l20.865,20.849   l-5.585,5.579L56.723,67.182l-1.576,1.575L76.15,89.762l-5.578,5.58L49.707,74.492"
         style="fill:#5D87A1;" /><path
         id="path17"
         d="M76.761,60.402c-3.507,3.507-9.211,3.507-12.734,0c-3.515-3.52-3.515-9.222,0-12.742l20.865-20.865   l5.58,5.578L69.465,53.386l1.577,1.577L92.045,33.96l5.592,5.576L76.761,60.402"
         style="fill:#5D87A1;" /><path
         id="path19"
         d="M93.015,47.438c3.52-3.523,9.223-3.523,12.732,0c3.517,3.505,3.533,9.223,0,12.746L84.891,81.031   l-5.588-5.579l21.014-21.013l-1.574-1.561L77.737,73.865l-5.588-5.561L93.015,47.438"
         style="fill:#5D87A1;" /><g
         id="g21"><path
           id="path23"
           d="M62.676,33.35c3.523,3.523,3.523,9.21,0,12.75c-3.52,3.507-9.227,3.507-12.747,0l-20.85-20.865    l5.577-5.593l21.007,21.013l1.584-1.573L36.233,18.08l5.577-5.591L62.676,33.35"
           style="fill:#5D87A1;" /><path
           id="path25"
           d="M49.707,17.113c-3.518-3.523-3.518-9.221,0-12.745c3.521-3.507,9.227-3.523,12.75,0l20.865,20.865    l-5.585,5.579L56.723,9.797l-1.576,1.588L76.15,32.399l-5.578,5.56L49.707,17.113"
           style="fill:#5D87A1;" /></g></g></g></svg>