<?xml version="1.0" encoding="UTF-8" standalone="no"?>
<svg
   xmlns:dc="http://purl.org/dc/elements/1.1/"
   xmlns:cc="http://creativecommons.org/ns#"
   xmlns:rdf="http://www.w3.org/1999/02/22-rdf-syntax-ns#"
   xmlns:svg="http://www.w3.org/2000/svg"
   xmlns="http://www.w3.org/2000/svg"
   xmlns:sodipodi="http://sodipodi.sourceforge.net/DTD/sodipodi-0.dtd"
   xmlns:inkscape="http://www.inkscape.org/namespaces/inkscape"
   width="50pt"
   height="50pt"
   viewBox="0 0 50 50"
   xml:space="preserve"
   id="svg2"
   version="1.1"
   inkscape:version="0.91 r13725"
   sodipodi:docname="computer.svg"><metadata
     id="metadata97"><rdf:RDF><cc:Work
         rdf:about=""><dc:format>image/svg+xml</dc:format><dc:type
           rdf:resource="http://purl.org/dc/dcmitype/StillImage" /></cc:Work></rdf:RDF></metadata><defs
     id="defs95" /><sodipodi:namedview
     pagecolor="#ffffff"
     bordercolor="#666666"
     borderopacity="1"
     objecttolerance="10"
     gridtolerance="10"
     guidetolerance="10"
     inkscape:pageopacity="0"
     inkscape:pageshadow="2"
     inkscape:window-width="529"
     inkscape:window-height="859"
     id="namedview93"
     showgrid="false"
     inkscape:zoom="2.639014"
     inkscape:cx="47.056018"
     inkscape:cy="50.699173"
     inkscape:window-x="1067"
     inkscape:window-y="39"
     inkscape:window-maximized="0"
     inkscape:current-layer="svg2" /><rect
     style="fill:#cccccc"
     id="rect3427"
     width="26.687124"
     height="10.301448"
     x="13.978449"
     y="44.646854"
     transform="matrix(0.90987504,-0.41488242,0,1,0,0)" /><g
     transform="matrix(0.5,0,0,0.5,8.0714816,1.3754986)"
     id="g4"><g
       id="Path_0"
       style="clip-rule:nonzero;fill:#ffffff;fill-opacity:1;fill-rule:nonzero;stroke:none;stroke-miterlimit:4"><path
         d="m 47.43,16.4 -2.11,18.58 -1.84,-0.37 -0.01,-10.37 0.75,-3.95 2.27,-4.48 z"
         id="path10"
         inkscape:connector-curvature="0" /></g><g
       id="Path_10"
       style="clip-rule:nonzero;fill:none;fill-opacity:1;stroke:#000000;stroke-miterlimit:4"><path
         d="m 68.52,30.42 0,0"
         id="path40"
         inkscape:connector-curvature="0" /></g><g
       id="Path_14"
       style="clip-rule:nonzero;fill:none;fill-opacity:1;stroke:#000000;stroke-miterlimit:4"><path
         d="m 68.52,30.42 0,0"
         id="path54"
         inkscape:connector-curvature="0" /></g><g
       id="Monitor Stand"
       style="clip-rule:nonzero;fill:#ffffff;fill-opacity:1;fill-rule:nonzero;stroke:none;stroke-miterlimit:4"><path
         d="m 28.71,74.18 -11.85,-6.06 0,-3.25 2.68,-1.27 31.6,-9.59 0,2.68 z"
         id="path61"
         inkscape:connector-curvature="0" /></g><g
       id="g63"
       style="clip-rule:nonzero;fill:#ffffff;fill-opacity:1;fill-rule:nonzero;stroke:none;stroke-miterlimit:4"><path
         d="m 28.71,74.18 -11.85,-6.06 0,-3.25 2.68,-1.27 31.6,-6.91 3.67,1.83 -0.14,2.26 z"
         id="path65"
         inkscape:connector-curvature="0" /></g><g
       id="g74"
       style="clip-rule:nonzero;fill:none;fill-opacity:1;stroke:#000000;stroke-miterlimit:4"><path
         d="m 28.71,74.18 -11.85,-6.06 0,-3.25 2.68,-1.27 31.6,-9.59 0,2.68 3.67,1.83 -0.14,2.26 z"
         id="path76"
         inkscape:connector-curvature="0" /></g><g
       id="Monitor Back"
       style="clip-rule:nonzero;fill:#ffffff;fill-opacity:1;stroke:#000000;stroke-miterlimit:4"><path
         d="m 12.49,52.6 -4.65,-6.63 -0.99,-2.26 -0.57,-3.1 0,-13.69 0.57,-2.11 1.69,-1.41 18.9,-10.02 1.98,-0.7 2.12,0 8.04,0 z"
         id="path79"
         inkscape:connector-curvature="0" /></g><g
       id="Monitor Shell"
       style="clip-rule:nonzero;fill:#ffffff;fill-opacity:1;stroke:#000000;stroke-miterlimit:4"><path
         d="m 22.79,65.3 -8.04,-4.09 -1.27,-1.13 -0.85,-1.7 -0.14,-2.11 0.14,-25.96 0.14,-2.12 1.13,-1.97 1.84,-1.13 24.97,-13.12 1.69,-0.7 1.55,-0.15 1.69,0.43 9.31,5.08 1.84,1.41 0.99,1.97 0.42,2.4 -0.14,23.84 -0.28,2.4 -1.13,2.12 -1.84,1.27 -25.11,13.26 -2.26,0.98 -2.82,-0.14 z"
         id="path82"
         inkscape:connector-curvature="0" /></g><g
       id="Screen"
       style="clip-rule:nonzero;fill:#ffffff;fill-opacity:1;stroke:#000000;stroke-miterlimit:4"><path
         d="m 28.71,58.1 0,-20.17 0.29,-2.12 1.27,-1.13 21.72,-11.56 1.69,0.14 0.71,1.97 0,20.03 -0.42,2.12 -1.41,1.27 -21.59,11.57 -1.69,0 z"
         id="path85"
         inkscape:connector-curvature="0" /></g></g></svg>