<?xml version="1.0" encoding="UTF-8" standalone="no"?>
<!-- Created with Inkscape (http://www.inkscape.org/) -->

<svg
   xmlns:dc="http://purl.org/dc/elements/1.1/"
   xmlns:cc="http://creativecommons.org/ns#"
   xmlns:rdf="http://www.w3.org/1999/02/22-rdf-syntax-ns#"
   xmlns:svg="http://www.w3.org/2000/svg"
   xmlns="http://www.w3.org/2000/svg"
   xmlns:xlink="http://www.w3.org/1999/xlink"
   xmlns:sodipodi="http://sodipodi.sourceforge.net/DTD/sodipodi-0.dtd"
   xmlns:inkscape="http://www.inkscape.org/namespaces/inkscape"
   id="svg3428"
   height="48"
   width="48"
   version="1.0"
   inkscape:version="0.91 r"
   sodipodi:docname="cs-extensions.svg">
  <metadata
     id="metadata61">
    <rdf:RDF>
      <cc:Work
         rdf:about="">
        <dc:format>image/svg+xml</dc:format>
        <dc:type
           rdf:resource="http://purl.org/dc/dcmitype/StillImage" />
      </cc:Work>
    </rdf:RDF>
  </metadata>
  <sodipodi:namedview
     pagecolor="#ffffff"
     bordercolor="#666666"
     borderopacity="1"
     objecttolerance="10"
     gridtolerance="10"
     guidetolerance="10"
     inkscape:pageopacity="0"
     inkscape:pageshadow="2"
     inkscape:window-width="760"
     inkscape:window-height="480"
     id="namedview59"
     showgrid="false"
     inkscape:zoom="4.9166667"
     inkscape:cx="24"
     inkscape:cy="24"
     inkscape:window-x="0"
     inkscape:window-y="0"
     inkscape:window-maximized="0"
     inkscape:current-layer="svg3428" />
  <defs
     id="defs3430">
    <linearGradient
       id="XMLID_5_"
       y2="104.06"
       gradientUnits="userSpaceOnUse"
       x2="64"
       y1="21.941"
       x1="64">
      <stop
         id="stop24"
         style="stop-color:#dadada"
         offset="0" />
      <stop
         id="stop26"
         style="stop-color:#ccc"
         offset="1" />
    </linearGradient>
    <linearGradient
       id="XMLID_6_"
       y2="103.07"
       xlink:href="#XMLID_5_"
       gradientUnits="userSpaceOnUse"
       x2="64"
       y1="21.523"
       x1="64">
      <stop
         id="stop31"
         style="stop-color:#d9d9d9"
         offset="0" />
      <stop
         id="stop33"
         style="stop-color:#ccc"
         offset="1" />
    </linearGradient>
    <linearGradient
       id="linearGradient3511"
       y2="44.14"
       gradientUnits="userSpaceOnUse"
       x2="-9.7747"
       gradientTransform="matrix(-.50045 -.49965 -.84917 .84785 49.112 -9.0091)"
       y1="44.229"
       x1="-6.3078">
      <stop
         id="stop6223"
         offset="0" />
      <stop
         id="stop6225"
         style="stop-opacity:0"
         offset="1" />
    </linearGradient>
    <linearGradient
       id="linearGradient3514"
       y2="35.079"
       gradientUnits="userSpaceOnUse"
       x2="90.221"
       gradientTransform="matrix(-.82274 -.82219 -.71961 .71912 121.1 81.547)"
       y1="35.152"
       x1="97.442">
      <stop
         id="stop4958"
         style="stop-color:#f8b17e"
         offset="0" />
      <stop
         id="stop4960"
         style="stop-color:#e35d4f"
         offset=".26238" />
      <stop
         id="stop4962"
         style="stop-color:#c6262e"
         offset=".66347" />
      <stop
         id="stop4964"
         style="stop-color:#690b54"
         offset="1" />
    </linearGradient>
    <linearGradient
       id="linearGradient3516"
       y2="27.273"
       gradientUnits="userSpaceOnUse"
       x2="36.001"
       gradientTransform="matrix(-1 0 0 1 49.001 .00054986)"
       y1="34.023"
       x1="29.278">
      <stop
         id="stop2492"
         style="stop-color:#791235"
         offset="0" />
      <stop
         id="stop2494"
         style="stop-color:#dd3b27"
         offset="1" />
    </linearGradient>
    <linearGradient
       id="linearGradient3533"
       y2="88.006"
       gradientUnits="userSpaceOnUse"
       x2="317.16"
       gradientTransform="matrix(-1.363 0 0 1.3617 452.82 -67.958)"
       y1="75.575"
       x1="326.6">
      <stop
         id="stop7423-0"
         style="stop-color:#fff"
         offset="0" />
      <stop
         id="stop7425-2"
         style="stop-color:#fff;stop-opacity:0"
         offset="1" />
    </linearGradient>
    <linearGradient
       id="linearGradient3536"
       y2="60.768"
       gradientUnits="userSpaceOnUse"
       x2="308.65"
       gradientTransform="matrix(-1.363 0 0 1.3617 452.82 -67.958)"
       y1="58.443"
       x1="302.29">
      <stop
         id="stop7383"
         style="stop-color:#babdb6"
         offset="0" />
      <stop
         id="stop7385"
         style="stop-color:#fff"
         offset="1" />
    </linearGradient>
    <linearGradient
       id="linearGradient3539"
       y2="81.926"
       gradientUnits="userSpaceOnUse"
       x2="335.3"
       gradientTransform="matrix(-1.363 0 0 1.3617 452.82 -67.958)"
       y1="64.295"
       x1="304.76">
      <stop
         id="stop4436"
         style="stop-color:#d3d7cf"
         offset="0" />
      <stop
         id="stop4438"
         style="stop-color:#babdb6"
         offset=".18304" />
      <stop
         id="stop4440"
         style="stop-color:#fff"
         offset=".31893" />
      <stop
         id="stop4442"
         style="stop-color:#babdb6"
         offset=".87644" />
      <stop
         id="stop4444"
         style="stop-color:#eeeeec"
         offset="1" />
    </linearGradient>
    <linearGradient
       id="linearGradient3541"
       y2="58.612"
       gradientUnits="userSpaceOnUse"
       x2="305.67"
       gradientTransform="matrix(-1.363 0 0 1.3617 452.82 -67.958)"
       y1="52.787"
       x1="301.32">
      <stop
         id="stop7446"
         style="stop-color:#888a85"
         offset="0" />
      <stop
         id="stop7448"
         style="stop-color:#555753"
         offset="1" />
    </linearGradient>
    <linearGradient
       id="linearGradient3591"
       y2="103.07"
       xlink:href="#XMLID_6_"
       gradientUnits="userSpaceOnUse"
       x2="64"
       gradientTransform="matrix(.37137 0 0 .37075 .23836 -.35744)"
       y1="21.523"
       x1="64" />
    <linearGradient
       id="linearGradient3593"
       y2="102.05"
       xlink:href="#XMLID_6_"
       gradientUnits="userSpaceOnUse"
       x2="49.374"
       gradientTransform="matrix(.37137 0 0 .37075 .23836 -.35744)"
       y1="22.275"
       x1="49.273" />
    <linearGradient
       id="linearGradient3596"
       y2="104.06"
       xlink:href="#XMLID_5_"
       gradientUnits="userSpaceOnUse"
       x2="64"
       gradientTransform="matrix(.32178 0 0 .32124 3.4122 3.0428)"
       y1="21.941"
       x1="64" />
    <linearGradient
       id="linearGradient3598"
       y2="20.895"
       gradientUnits="userSpaceOnUse"
       x2="84.639"
       gradientTransform="matrix(.32178 0 0 .32124 3.4122 3.0428)"
       y1="105.1"
       x1="86.133">
      <stop
         id="stop5130"
         style="stop-color:#fff"
         offset="0" />
      <stop
         id="stop5132"
         style="stop-color:#959595"
         offset="1" />
    </linearGradient>
    <linearGradient
       id="linearGradient3601"
       y2="117.23"
       gradientUnits="userSpaceOnUse"
       x2="64"
       gradientTransform="scale(.375)"
       y1="6.8743"
       x1="64">
      <stop
         id="stop11"
         style="stop-color:#f2f2f2"
         offset="0" />
      <stop
         id="stop13"
         style="stop-color:#d8d8d8"
         offset="1" />
    </linearGradient>
    <radialGradient
       id="radialGradient3605"
       gradientUnits="userSpaceOnUse"
       cy="73.616"
       cx="6.7027"
       gradientTransform="matrix(3.0435 0 0 .96975 3.6 -30.399)"
       r="7.2284">
      <stop
         id="stop10693"
         offset="0" />
      <stop
         id="stop10695"
         style="stop-opacity:0"
         offset="1" />
    </radialGradient>
  </defs>
  <path
     id="path10689"
     style="opacity:.4;fill:url(#radialGradient3605)"
     d="m46 40.99c0 3.872-9.85 7.01-22 7.01s-22-3.138-22-7.01c0-3.8714 9.8497-7.0098 22-7.0098s22 3.1384 22 7.0098z" />
  <path
     id="path6"
     style="opacity:.1;stroke-width:2.6667;fill:#030303"
     d="m44.042 18.203h-1.6964c-0.45786 0-0.98727-0.38039-1.1328-0.81356-0.0081-0.02252-1.0528-2.5473-1.0528-2.5473-0.21501-0.43176-0.11103-1.0733 0.21254-1.3966l1.1995-1.1975c0.27563-0.27553 0.4279-0.6429 0.4279-1.0345 0-0.39165-0.15226-0.75902-0.4279-1.0342l-4.723-4.7142c-0.276-0.2751-0.644-0.4268-1.036-0.4272-0.3923 0-0.76028 0.15166-1.0359 0.42719l-1.199 1.1975c-0.324 0.3227-0.967 0.4268-1.376 0.2227-0.023-0.0105-2.552-1.0532-2.552-1.0532-0.457-0.1537-0.838-0.6823-0.838-1.1394v-1.694c-0.001-0.8068-0.658-1.4631-1.466-1.4631h-6.6786c-0.80822 0-1.4656 0.65627-1.4656 1.4631v1.694c0 0.4571-0.38102 0.98563-0.81491 1.131-0.02256 0.00845-2.5515 1.0511-2.5515 1.0511-0.43248 0.21465-1.0754 0.11049-1.399-0.21254l-1.199-1.1972c-0.276-0.2755-0.644-0.4272-1.036-0.4272-0.3923 0-0.76028 0.15201-1.0359 0.42719l-4.7235 4.7152c-0.57136 0.57041-0.57136 1.4983 0 2.0687l1.1995 1.1975c0.32322 0.32303 0.42755 0.96487 0.22311 1.3734-0.010575 0.02287-1.0553 2.5477-1.0553 2.5477-0.15403 0.45604-0.68309 0.83608-1.1409 0.83608h-1.2569c-0.8079 0-1.9052 0.657-1.9052 1.464v6.6672c0 0.80687 0.65736 1.4631 1.4656 1.4631h1.6968c0.45786 0 0.98727 0.38004 1.1325 0.81356 0.00846 0.02252 1.0532 2.5473 1.0532 2.5473 0.21501 0.43176 0.11068 1.0733-0.21254 1.3966l-1.1995 1.1975c-0.57136 0.57041-0.57136 1.4983 0 2.0687l4.7231 4.7149c0.27563 0.27518 0.64361 0.4272 1.0359 0.4272 0.39265 0 0.76063-0.15202 1.0363-0.4272l1.1995-1.1975c0.32357-0.32268 0.96648-0.42684 1.3757-0.22275 0.02291 0.01054 2.5519 1.0535 2.5519 1.0535 0.45645 0.15377 0.83747 0.68196 0.83747 1.1391v1.6936c0 0.80687 0.65736 1.4631 1.4656 1.4631h6.6783c0.80786 0 1.4652-0.65626 1.4652-1.4631v-1.6936c0-0.4571 0.38102-0.98564 0.81527-1.131 0.02256-0.0081 2.5515-1.0511 2.5515-1.0511 0.43248-0.21465 1.0757-0.11084 1.399 0.21219l1.1995 1.1975c0.27563 0.27518 0.64361 0.4272 1.0359 0.4272 0.3923 0 0.76028-0.15202 1.0359-0.4272l4.7228-4.7149c0.27564-0.27518 0.4279-0.64254 0.4279-1.0342 0-0.39165-0.15226-0.75902-0.4279-1.0342l-1.1995-1.1975c-0.32357-0.32303-0.42755-0.96487-0.22311-1.3734 0.01057-0.02287 1.0553-2.5477 1.0553-2.5477 0.15403-0.45569 0.68309-0.83608 1.141-0.83608h1.6964c0.80822 0 1.4656-0.65627 1.4656-1.4631v-6.6679c0.0011-0.80687-0.6563-1.4631-1.4645-1.4631zm-20.035 11.022c-3.4384 0-6.2359-2.7926-6.2359-6.2252s2.7976-6.2256 6.2359-6.2256c3.4387 0 6.2356 2.7929 6.2356 6.2256 0 3.433-2.7969 6.2252-6.2356 6.2252z" />
  <path
     id="path8"
     style="stroke-linejoin:round;stroke:#888;stroke-linecap:round;stroke-width:.99957;fill:url(#linearGradient3601)"
     d="m44.036 18.195h-1.6964c-0.45786 0-0.98727-0.38109-1.1328-0.81497-0.0081-0.02252-1.0528-2.5512-1.0528-2.5512-0.21501-0.43247-0.11103-1.075 0.21254-1.3987l1.1995-1.1996c0.27563-0.27588 0.4279-0.64395 0.4279-1.0363 0-0.392-0.15227-0.76007-0.4279-1.036l-4.723-4.722c-0.27563-0.27588-0.64361-0.42789-1.0359-0.42789-0.3923 0-0.76028 0.15201-1.0359 0.42789l-1.199 1.1992c-0.324 0.3234-0.967 0.4275-1.376 0.2231-0.023-0.0106-2.552-1.055-2.552-1.055-0.457-0.1541-0.838-0.6833-0.838-1.1411v-1.6968c-0.001-0.8083-0.658-1.4656-1.466-1.4656h-6.6786c-0.80822 0-1.4656 0.65732-1.4656 1.4656v1.6968c0 0.4578-0.38102 0.98739-0.81491 1.1327-0.02256 0.00845-2.5515 1.0528-2.5515 1.0528-0.43248 0.215-1.0754 0.11084-1.399-0.21254l-1.199-1.1992c-0.27598-0.27588-0.64396-0.42789-1.0363-0.42789-0.3923 0-0.76028 0.15237-1.0359 0.42789l-4.7235 4.723c-0.57136 0.57146-0.57136 1.5011 0 2.0723l1.1995 1.1996c0.32322 0.32338 0.42755 0.96628 0.22311 1.3759-0.010575 0.02287-1.0553 2.5519-1.0553 2.5519-0.15403 0.45675-0.68309 0.83749-1.1409 0.83749h-1.2569c-0.80786-0.000351-1.9051 0.65697-1.9051 1.4653v6.6784c0 0.80793 0.65736 1.4653 1.4656 1.4653h1.6968c0.45786 0 0.98727 0.38074 1.1325 0.81497 0.00846 0.02252 1.0532 2.5512 1.0532 2.5512 0.21501 0.43247 0.11068 1.0754-0.21254 1.3991l-1.1995 1.1996c-0.57136 0.57111-0.57136 1.5011 0 2.0723l4.7231 4.7227c0.27563 0.27588 0.64361 0.42789 1.0359 0.42789 0.39265 0 0.76063-0.15201 1.0363-0.42789l1.1995-1.1992c0.32357-0.32338 0.96648-0.4279 1.3757-0.2231 0.02291 0.0102 2.5519 1.055 2.5519 1.055 0.45645 0.15412 0.83747 0.68301 0.83747 1.1412v1.6964c0 0.80828 0.65736 1.4656 1.4656 1.4656h6.6783c0.80786 0 1.4652-0.65733 1.4652-1.4656v-1.6964c0-0.45816 0.38102-0.98739 0.81526-1.1331 0.02256-0.0081 2.5515-1.0528 2.5515-1.0528 0.43248-0.21501 1.0757-0.11049 1.399 0.21254l1.1995 1.1992c0.27563 0.27588 0.64361 0.42789 1.0359 0.42789 0.3923 0 0.76028-0.15201 1.0359-0.42789l4.7228-4.7227c0.27564-0.27553 0.4279-0.6436 0.4279-1.036 0-0.39235-0.15226-0.76042-0.4279-1.036l-1.1995-1.1996c-0.32356-0.32338-0.42755-0.96663-0.22311-1.3755 0.01058-0.02322 1.0553-2.5519 1.0553-2.5519 0.15403-0.4571 0.68309-0.83784 1.141-0.83784h1.6964c0.80821 0 1.4656-0.65732 1.4656-1.4653v-6.6784c0.0011-0.80828-0.6563-1.4656-1.4645-1.4656zm-20.035 11.523c-3.7302 0-6.7646-3.0294-6.7646-6.753 0-3.724 3.0344-6.7534 6.7646-6.7534 3.7298 0 6.7643 3.0294 6.7643 6.7534 0 3.7237-3.0344 6.753-6.7643 6.753z" />
  <path
     id="path28"
     style="stroke:url(#linearGradient3598);stroke-width:.99957;fill:url(#linearGradient3596)"
     d="m24.006 9.9158c-7.3819 0-13.388 5.9957-13.388 13.365 0 7.3697 6.0057 13.365 13.388 13.365 7.3819 0 13.388-5.9957 13.388-13.365 0-7.3697-6.0057-13.365-13.388-13.365zm0 23.195c-5.4384 0-9.8464-4.4004-9.8464-9.8301s4.4081-9.8301 9.8464-9.8301c5.4384 0 9.8464 4.4007 9.8464 9.8301s-4.4081 9.8301-9.8464 9.8301z" />
  <path
     id="path35"
     style="stroke:url(#linearGradient3593);stroke-width:.99957;fill:url(#linearGradient3591)"
     d="m24.006 11.507c-6.3582 0-11.512 5.1457-11.512 11.493 0 6.3477 5.1542 11.493 11.512 11.493 6.3582 0 11.512-5.1457 11.512-11.493 0-6.3477-5.1542-11.493-11.512-11.493zm0 19.094c-4.205 0-7.6131-3.4028-7.6131-7.6004 0-4.198 3.4081-7.6004 7.6131-7.6004 4.2046 0 7.6131 3.4024 7.6131 7.6004 0 4.1977-3.4084 7.6004-7.6131 7.6004z" />
</svg>
