<?xml version="1.0" encoding="UTF-8" standalone="no"?>
<!-- Created with Inkscape (http://www.inkscape.org/) -->

<svg
   xmlns:dc="http://purl.org/dc/elements/1.1/"
   xmlns:cc="http://creativecommons.org/ns#"
   xmlns:rdf="http://www.w3.org/1999/02/22-rdf-syntax-ns#"
   xmlns:svg="http://www.w3.org/2000/svg"
   xmlns="http://www.w3.org/2000/svg"
   xmlns:xlink="http://www.w3.org/1999/xlink"
   xmlns:sodipodi="http://sodipodi.sourceforge.net/DTD/sodipodi-0.dtd"
   xmlns:inkscape="http://www.inkscape.org/namespaces/inkscape"
   version="1.1"
   width="48"
   height="48"
   id="svg5572"
   inkscape:version="0.48.4 r9939"
   sodipodi:docname="preferences-desktop-peripherals.svg">
  <sodipodi:namedview
     pagecolor="#ffffff"
     bordercolor="#666666"
     borderopacity="1"
     objecttolerance="10"
     gridtolerance="10"
     guidetolerance="10"
     inkscape:pageopacity="0"
     inkscape:pageshadow="2"
     inkscape:window-width="1855"
     inkscape:window-height="1056"
     id="namedview32"
     showgrid="false"
     inkscape:zoom="19.25"
     inkscape:cx="24"
     inkscape:cy="24"
     inkscape:window-x="65"
     inkscape:window-y="24"
     inkscape:window-maximized="1"
     inkscape:current-layer="svg5572" />
  <metadata
     id="metadata33">
    <rdf:RDF>
      <cc:Work
         rdf:about="">
        <dc:format>image/svg+xml</dc:format>
        <dc:type
           rdf:resource="http://purl.org/dc/dcmitype/StillImage" />
        <dc:title />
      </cc:Work>
    </rdf:RDF>
  </metadata>
  <defs
     id="defs5574">
    <linearGradient
       x1="14"
       y1="2"
       x2="32"
       y2="40"
       id="linearGradient5011"
       xlink:href="#linearGradient3208"
       gradientUnits="userSpaceOnUse"
       gradientTransform="matrix(2.1460849,0,0,1.0156771,-23.23498,-3.5595864)" />
    <linearGradient
       id="linearGradient3208">
      <stop
         id="stop3210"
         style="stop-color:#ffffff;stop-opacity:1"
         offset="0" />
      <stop
         id="stop3212"
         style="stop-color:#ffffff;stop-opacity:0"
         offset="1" />
    </linearGradient>
    <linearGradient
       x1="24.117819"
       y1="33.657772"
       x2="-32.011677"
       y2="33.657784"
       id="linearGradient4431"
       xlink:href="#linearGradient3775"
       gradientUnits="userSpaceOnUse"
       gradientTransform="matrix(1.6404588e-7,-0.71176883,0.77331967,3.5230759e-7,-2.0282201,21.190684)" />
    <linearGradient
       id="linearGradient3775">
      <stop
         id="stop3777"
         style="stop-color:#ffffff;stop-opacity:1"
         offset="0" />
      <stop
         id="stop3779"
         style="stop-color:#ffffff;stop-opacity:0"
         offset="1" />
    </linearGradient>
    <linearGradient
       x1="18.601307"
       y1="0.85446119"
       x2="18.601307"
       y2="49.956139"
       id="linearGradient5466-8"
       xlink:href="#linearGradient3600-8"
       gradientUnits="userSpaceOnUse"
       gradientTransform="matrix(1,0,0,0.89491027,221.92948,418.08675)" />
    <linearGradient
       id="linearGradient3600-8">
      <stop
         id="stop3602-2"
         style="stop-color:#f4f4f4;stop-opacity:1"
         offset="0" />
      <stop
         id="stop3604-5"
         style="stop-color:#dbdbdb;stop-opacity:1"
         offset="1" />
    </linearGradient>
    <linearGradient
       x1="-74.784531"
       y1="54.702854"
       x2="-74.784531"
       y2="2.103905"
       id="linearGradient5468-1"
       xlink:href="#linearGradient3104-5"
       gradientUnits="userSpaceOnUse"
       gradientTransform="matrix(0.8074968,0,0,0.83750269,281.33971,417.08939)" />
    <linearGradient
       id="linearGradient3104-5">
      <stop
         id="stop3106-2"
         style="stop-color:#979797;stop-opacity:1;"
         offset="0" />
      <stop
         id="stop3108-2"
         style="stop-color:#acacac;stop-opacity:1;"
         offset="1" />
    </linearGradient>
    <linearGradient
       id="linearGradient23419-5">
      <stop
         id="stop23421-7"
         style="stop-color:#000000;stop-opacity:1"
         offset="0" />
      <stop
         id="stop23423-0"
         style="stop-color:#000000;stop-opacity:0"
         offset="1" />
    </linearGradient>
    <radialGradient
       cx="23.334524"
       cy="41.63604"
       r="22.627417"
       fx="23.334524"
       fy="41.63604"
       id="radialGradient5570"
       xlink:href="#linearGradient23419-5"
       gradientUnits="userSpaceOnUse"
       gradientTransform="matrix(0.61871836,0,0,0.17676017,9.5625,35.640404)" />
    <linearGradient
       x1="23.99999"
       y1="4.999989"
       x2="23.99999"
       y2="43"
       id="linearGradient3095"
       xlink:href="#linearGradient3924"
       gradientUnits="userSpaceOnUse"
       gradientTransform="matrix(0.78371441,0,0,0.67836664,9.7714935,9.0387146)" />
    <linearGradient
       id="linearGradient3924">
      <stop
         id="stop3926"
         style="stop-color:#000000;stop-opacity:0.11728395"
         offset="0" />
      <stop
         id="stop3928"
         style="stop-color:#ffffff;stop-opacity:0"
         offset="0.06316455" />
      <stop
         id="stop3930"
         style="stop-color:#ffffff;stop-opacity:0.15686275"
         offset="0.95056331" />
      <stop
         id="stop3932"
         style="stop-color:#ffffff;stop-opacity:0.39215687"
         offset="1" />
    </linearGradient>
    <linearGradient
       x1="30.643436"
       y1="3.915791"
       x2="30.643436"
       y2="30.093096"
       id="linearGradient3102"
       xlink:href="#linearGradient4549"
       gradientUnits="userSpaceOnUse"
       gradientTransform="matrix(1.4149244,0,0,1.1348248,-34.703098,5.6898182)" />
    <linearGradient
       id="linearGradient4549">
      <stop
         id="stop4551"
         style="stop-color:#000000;stop-opacity:0.30246913"
         offset="0" />
      <stop
         id="stop4553"
         style="stop-color:#000000;stop-opacity:0.37037036"
         offset="1" />
    </linearGradient>
    <linearGradient
       gradientTransform="matrix(1.5081143,0,0,1.5285787,0.26921076,-2.5325775)"
       x1="18.387106"
       y1="26.209101"
       x2="18.387106"
       y2="8.4976816"
       id="linearGradient4097"
       xlink:href="#linearGradient4099"
       gradientUnits="userSpaceOnUse" />
    <linearGradient
       id="linearGradient4099">
      <stop
         id="stop4101"
         style="stop-color:#a7a7a7;stop-opacity:1"
         offset="0" />
      <stop
         id="stop4103"
         style="stop-color:#d1d1d1;stop-opacity:1"
         offset="1" />
    </linearGradient>
    <radialGradient
       cx="4.9929786"
       cy="43.5"
       r="2.5"
       fx="4.9929786"
       fy="43.5"
       id="radialGradient3163"
       xlink:href="#linearGradient3688-166-749"
       gradientUnits="userSpaceOnUse"
       gradientTransform="matrix(2.003784,0,0,1.4,27.98813,-17.4)" />
    <linearGradient
       id="linearGradient3688-166-749">
      <stop
         id="stop2883"
         style="stop-color:#181818;stop-opacity:1"
         offset="0" />
      <stop
         id="stop2885"
         style="stop-color:#181818;stop-opacity:0"
         offset="1" />
    </linearGradient>
    <radialGradient
       cx="4.9929786"
       cy="43.5"
       r="2.5"
       fx="4.9929786"
       fy="43.5"
       id="radialGradient3165"
       xlink:href="#linearGradient3688-464-309"
       gradientUnits="userSpaceOnUse"
       gradientTransform="matrix(2.003784,0,0,1.4,-20.01187,-104.4)" />
    <linearGradient
       id="linearGradient3688-464-309">
      <stop
         id="stop2889"
         style="stop-color:#181818;stop-opacity:1"
         offset="0" />
      <stop
         id="stop2891"
         style="stop-color:#181818;stop-opacity:0"
         offset="1" />
    </linearGradient>
    <linearGradient
       x1="25.058096"
       y1="47.027729"
       x2="25.058096"
       y2="39.999443"
       id="linearGradient3167"
       xlink:href="#linearGradient3702-501-757"
       gradientUnits="userSpaceOnUse" />
    <linearGradient
       id="linearGradient3702-501-757">
      <stop
         id="stop2895"
         style="stop-color:#181818;stop-opacity:0"
         offset="0" />
      <stop
         id="stop2897"
         style="stop-color:#181818;stop-opacity:1"
         offset="0.5" />
      <stop
         id="stop2899"
         style="stop-color:#181818;stop-opacity:0"
         offset="1" />
    </linearGradient>
  </defs>
  <g
     transform="matrix(1.0276679,0,0,0.66397695,2.4360764,10.208357)"
     id="g2036"
     style="opacity:0.5;display:inline">
    <g
       transform="matrix(1.052632,0,0,1.285713,-1.263158,-13.42854)"
       id="g3712"
       style="opacity:0.4">
      <rect
         width="5"
         height="7"
         x="38"
         y="40"
         id="rect2801"
         style="fill:url(#radialGradient3163);fill-opacity:1;stroke:none" />
      <rect
         width="5"
         height="7"
         x="-10"
         y="-47"
         transform="scale(-1,-1)"
         id="rect3696"
         style="fill:url(#radialGradient3165);fill-opacity:1;stroke:none" />
      <rect
         width="28"
         height="7.0000005"
         x="10"
         y="40"
         id="rect3700"
         style="fill:url(#linearGradient3167);fill-opacity:1;stroke:none" />
    </g>
  </g>
  <rect
     width="33.178516"
     height="27.514416"
     rx="2.2621715"
     ry="2.2928681"
     x="10.666703"
     y="11.224629"
     id="rect5505"
     style="color:#000000;fill:url(#linearGradient4097);fill-opacity:1;fill-rule:nonzero;stroke:none;stroke-width:1;marker:none;visibility:visible;display:inline;overflow:visible;enable-background:accumulate" />
  <path
     d="m 24.826251,39.167151 16.388901,0 c 1.704061,0 3.075923,-1.331926 3.075923,-2.986381 l 0,-22.397859 c 0,-1.654455 -1.371862,-2.986381 -3.075923,-2.986381 l -14.85094,0"
     inkscape:connector-curvature="0"
     id="rect5505-6-6"
     style="color:#000000;fill:none;stroke:url(#linearGradient3102);stroke-width:1;stroke-linecap:round;stroke-linejoin:round;stroke-miterlimit:4;stroke-opacity:1;stroke-dasharray:none;stroke-dashoffset:0;marker:none;visibility:visible;display:inline;overflow:visible;enable-background:accumulate" />
  <rect
     width="29.121876"
     height="26.443481"
     rx="1.7633994"
     ry="1.8228254"
     x="14.186301"
     y="11.743314"
     id="rect6741-7"
     style="opacity:0.4;fill:none;stroke:#ffffff;stroke-width:1.0023545;stroke-linecap:round;stroke-linejoin:round;stroke-miterlimit:4;stroke-opacity:1;stroke-dasharray:none;stroke-dashoffset:0" />
  <g
     id="layer1"
     transform="translate(-9.1525424,-0.61016949)">
    <path
       d="m 38,43.000004 c 6.3e-4,2.20908 -6.2675,4 -14,4 -7.7325,0 -14.00072,-1.79092 -14,-4 -6.3e-4,-2.20907 6.2675,-4 14,-4 7.7325,0 14.00071,1.79093 14,4 l 0,0 z"
       inkscape:connector-curvature="0"
       id="path23417-6"
       style="opacity:0.3;fill:url(#radialGradient5570);fill-opacity:1;fill-rule:evenodd;stroke:none;stroke-width:2;marker:none;visibility:visible;display:inline;overflow:visible" />
    <path
       d="m 228.53125,419.375 c -2.70614,0.0642 -5.75407,0.22949 -8.3125,2 a 0.95849657,0.95849657 0 0 0 -0.1875,0.15625 c -2.65781,3.1027 -2.17523,7.21832 -2.59375,10.375 a 0.95849657,0.95849657 0 0 0 -0.0312,0.0625 c -0.48068,8.08983 -0.4541,16.29274 0.78125,24.375 a 0.95849657,0.95849657 0 0 0 0,0.0312 c 0.40182,2.13983 1.73411,4.41108 4.1875,5 0.0239,0.006 0.0384,0.0258 0.0625,0.0312 l 0,-0.0312 c 3.72248,1.14125 7.7422,1.14156 11.46875,0.28125 1.93011,-0.44625 3.92992,-1.64187 4.625,-3.8125 0.003,-0.009 -0.003,-0.0219 0,-0.0312 0.90722,-2.59327 0.88965,-5.26291 1.15625,-7.6875 a 0.95849657,0.95849657 0 0 0 0.0312,-0.0312 c 0.49677,-7.77751 0.46278,-15.62946 -0.53125,-23.40625 -0.13762,-1.10289 -0.36084,-2.31684 -0.90625,-3.4375 -0.5395,-1.10851 -1.42187,-2.11121 -2.71875,-2.65625 -0.006,-0.002 0.006,-0.0288 0,-0.0312 -0.009,-0.004 -0.0218,0.004 -0.0312,0 -2.26737,-1.0178 -4.74431,-1.10029 -6.9375,-1.1875 a 0.95849657,0.95849657 0 0 0 -0.0625,0 z"
       inkscape:connector-curvature="0"
       transform="matrix(1.0036581,0,0,0.95581245,-205.4107,-397.34336)"
       id="path4487"
       style="color:#000000;fill:url(#linearGradient5466-8);fill-opacity:1;fill-rule:nonzero;stroke:url(#linearGradient5468-1);stroke-width:1.02090859;stroke-linecap:butt;stroke-linejoin:round;stroke-miterlimit:4;stroke-opacity:1;stroke-dasharray:none;stroke-dashoffset:0;marker:none;visibility:visible;display:inline;overflow:visible;enable-background:accumulate" />
    <path
       d="m 24.00115,4.5000036 c -2.68108,0.0605 -5.54829,0.24154 -7.82558,1.74062 -2.33446,2.5923 -1.93646,6.2128104 -2.37749,9.3770104 -0.47838,7.65842 -0.48031,15.39521 0.74047,22.99257 0.3576,1.81145 1.54533,3.65159 3.5524,4.08004 3.54719,1.04671 7.41342,1.02744 11.01589,0.23635 1.71882,-0.37802 3.38324,-1.36245 3.93756,-3.04279 0.84594,-2.28189 0.85972,-4.74783 1.13511,-7.13017 0.49411,-7.35848 0.48228,-14.78193 -0.50155,-22.10346 -0.26047,-1.9856104 -0.95856,-4.2722104 -3.09499,-5.1036004 -2.04341,-0.88004 -4.37588,-0.96313 -6.58182,-1.04657 z"
       inkscape:connector-curvature="0"
       id="rect1320-6-9-3"
       style="fill:none;stroke:url(#linearGradient4431);stroke-width:0.99999976;stroke-linecap:round;stroke-linejoin:round;stroke-miterlimit:4;stroke-opacity:1;stroke-dasharray:none;stroke-dashoffset:0;marker:none;visibility:visible;display:inline;overflow:visible" />
    <path
       d="m 24,4.5000036 c -2.68108,0.0605 -5.53521,0.25092 -7.8125,1.75 -2.33446,2.5923 -1.93397,6.2108004 -2.375,9.3750004 -0.342342,5.480577 -0.450406,10.987724 -0.03125,16.46875 l 20,-20.6875 C 33.74991,11.156107 33.72108,10.90617 33.6875,10.656254 33.42703,8.6706436 32.73018,6.3626436 30.59375,5.5312536 28.55034,4.6512136 26.20594,4.5834436 24,4.5000036 z"
       inkscape:connector-curvature="0"
       id="rect3238"
       style="opacity:0.4;fill:url(#linearGradient5011);fill-opacity:1;fill-rule:nonzero;stroke:none;stroke-width:0.99992186;marker:none;visibility:visible;display:inline;overflow:visible;enable-background:accumulate" />
    <path
       d="m 23.75,34.000004 c -0.1385,0 -0.25,0.1115 -0.25,0.25 l 0,0.5625 c -0.25135,0.0572 -0.48371,0.1554 -0.69531,0.28906 l -0.39844,-0.39844 c -0.0979,-0.0979 -0.25363,-0.0979 -0.35156,0 l -0.35156,0.35157 c -0.0979,0.0979 -0.0979,0.25362 0,0.35156 l 0.39843,0.39844 c -0.13365,0.21159 -0.23182,0.44396 -0.28906,0.69531 l -0.5625,0 c -0.1385,0 -0.25,0.1115 -0.25,0.25 l 0,0.5 c 0,0.1385 0.1115,0.25 0.25,0.25 l 0.5625,0 c 0.0572,0.25135 0.15541,0.48372 0.28906,0.69531 l -0.39843,0.39844 c -0.0979,0.0979 -0.0979,0.25363 0,0.35156 l 0.35156,0.35156 c 0.0979,0.0979 0.25363,0.0979 0.35156,0 l 0.39844,-0.39843 c 0.2116,0.13365 0.44396,0.23182 0.69531,0.28906 l 0,0.5625 c 0,0.1385 0.1115,0.25 0.25,0.25 l 0.5,0 c 0.1385,0 0.25,-0.1115 0.25,-0.25 l 0,-0.5625 c 0.25135,-0.0572 0.48372,-0.1554 0.69531,-0.28906 l 0.39844,0.39843 c 0.0979,0.0979 0.25363,0.0979 0.35156,0 l 0.35157,-0.35156 c 0.0979,-0.0979 0.0979,-0.25362 0,-0.35156 l -0.39844,-0.39844 c 0.13366,-0.21159 0.23182,-0.44396 0.28906,-0.69531 l 0.5625,0 c 0.1385,0 0.25,-0.1115 0.25,-0.25 l 0,-0.5 c 0,-0.1385 -0.1115,-0.25 -0.25,-0.25 l -0.5625,0 c -0.0572,-0.25135 -0.1554,-0.48372 -0.28906,-0.69531 l 0.39844,-0.39844 c 0.0979,-0.0979 0.0979,-0.25363 0,-0.35156 l -0.35157,-0.35157 c -0.0979,-0.0979 -0.25362,-0.0979 -0.35156,0 l -0.39844,0.39844 C 24.98372,34.967904 24.75135,34.869744 24.5,34.812504 l 0,-0.5625 c 0,-0.1385 -0.1115,-0.25 -0.25,-0.25 l -0.5,0 z m 0.25,2 c 0.552,0 1,0.448 1,1 0,0.552 -0.448,1 -1,1 -0.552,0 -1,-0.448 -1,-1 0,-0.552 0.448,-1 1,-1 z"
       inkscape:connector-curvature="0"
       id="path3576-2"
       style="opacity:0.3;fill:#ffffff;fill-opacity:1;fill-rule:nonzero;stroke:none;stroke-width:1.70000005;marker:none;visibility:visible;display:inline;overflow:visible;enable-background:accumulate" />
    <path
       d="m 23.75,33.000004 c -0.1385,0 -0.25,0.1115 -0.25,0.25 l 0,0.5625 c -0.25135,0.0572 -0.48371,0.1554 -0.69531,0.28906 l -0.39844,-0.39844 c -0.0979,-0.0979 -0.25363,-0.0979 -0.35156,0 l -0.35156,0.35157 c -0.0979,0.0979 -0.0979,0.25362 0,0.35156 l 0.39843,0.39844 c -0.13365,0.21159 -0.23182,0.44396 -0.28906,0.69531 l -0.5625,0 c -0.1385,0 -0.25,0.1115 -0.25,0.25 l 0,0.5 c 0,0.1385 0.1115,0.25 0.25,0.25 l 0.5625,0 c 0.0572,0.25135 0.15541,0.48372 0.28906,0.69531 l -0.39843,0.39844 c -0.0979,0.0979 -0.0979,0.25363 0,0.35156 l 0.35156,0.35156 c 0.0979,0.0979 0.25363,0.0979 0.35156,0 l 0.39844,-0.39843 c 0.2116,0.13365 0.44396,0.23182 0.69531,0.28906 l 0,0.5625 c 0,0.1385 0.1115,0.25 0.25,0.25 l 0.5,0 c 0.1385,0 0.25,-0.1115 0.25,-0.25 l 0,-0.5625 c 0.25135,-0.0572 0.48372,-0.1554 0.69531,-0.28906 l 0.39844,0.39843 c 0.0979,0.0979 0.25363,0.0979 0.35156,0 l 0.35157,-0.35156 c 0.0979,-0.0979 0.0979,-0.25362 0,-0.35156 l -0.39844,-0.39844 c 0.13366,-0.21159 0.23182,-0.44396 0.28906,-0.69531 l 0.5625,0 c 0.1385,0 0.25,-0.1115 0.25,-0.25 l 0,-0.5 c 0,-0.1385 -0.1115,-0.25 -0.25,-0.25 l -0.5625,0 c -0.0572,-0.25135 -0.1554,-0.48372 -0.28906,-0.69531 l 0.39844,-0.39844 c 0.0979,-0.0979 0.0979,-0.25363 0,-0.35156 l -0.35157,-0.35157 c -0.0979,-0.0979 -0.25362,-0.0979 -0.35156,0 l -0.39844,0.39844 C 24.98372,33.967904 24.75135,33.869744 24.5,33.812504 l 0,-0.5625 c 0,-0.1385 -0.1115,-0.25 -0.25,-0.25 l -0.5,0 z m 0.25,2 c 0.552,0 1,0.448 1,1 0,0.552 -0.448,1 -1,1 -0.552,0 -1,-0.448 -1,-1 0,-0.552 0.448,-1 1,-1 z"
       inkscape:connector-curvature="0"
       id="path3576"
       style="opacity:0.3;fill:#000000;fill-opacity:1;fill-rule:nonzero;stroke:none;stroke-width:1.70000005000000010;marker:none;visibility:visible;display:inline;overflow:visible;enable-background:accumulate" />
  </g>
</svg>
