<?xml version="1.0" encoding="UTF-8" standalone="no"?>
<!-- Created with Inkscape (http://www.inkscape.org/) -->

<svg
   xmlns:dc="http://purl.org/dc/elements/1.1/"
   xmlns:cc="http://creativecommons.org/ns#"
   xmlns:rdf="http://www.w3.org/1999/02/22-rdf-syntax-ns#"
   xmlns:svg="http://www.w3.org/2000/svg"
   xmlns="http://www.w3.org/2000/svg"
   xmlns:sodipodi="http://sodipodi.sourceforge.net/DTD/sodipodi-0.dtd"
   xmlns:inkscape="http://www.inkscape.org/namespaces/inkscape"
   id="svg3833"
   height="22"
   width="22"
   version="1.1"
   inkscape:version="0.48.4 r9939"
   sodipodi:docname="emblem-dropbox-uptodate.svg">
  <defs
     id="defs8" />
  <sodipodi:namedview
     pagecolor="#ffffff"
     bordercolor="#666666"
     borderopacity="1"
     objecttolerance="10"
     gridtolerance="10"
     guidetolerance="10"
     inkscape:pageopacity="0"
     inkscape:pageshadow="2"
     inkscape:window-width="1855"
     inkscape:window-height="1056"
     id="namedview6"
     showgrid="true"
     inkscape:zoom="38.274629"
     inkscape:cx="6.2203613"
     inkscape:cy="12.354445"
     inkscape:window-x="65"
     inkscape:window-y="24"
     inkscape:window-maximized="1"
     inkscape:current-layer="svg3833">
    <inkscape:grid
       type="xygrid"
       id="grid2985" />
  </sodipodi:namedview>
  <metadata
     id="metadata13">
    <rdf:RDF>
      <cc:Work
         rdf:about="">
        <dc:format>image/svg+xml</dc:format>
        <dc:type
           rdf:resource="http://purl.org/dc/dcmitype/StillImage" />
        <dc:title></dc:title>
      </cc:Work>
    </rdf:RDF>
  </metadata>
  <g
     style="opacity:0.3;fill:#ffffff;fill-opacity:1"
     id="g5"
     transform="matrix(0.03337271,0,0,0.03337271,-0.0497062,1.053671)" />
  <path
     id="path7"
     d="M 13.750291,8.911987 17.053455,6.1594393 12.020516,2.9438118 8.5605672,5.8452353 5.1784436,2.9438118 2e-7,6.3169251 3.5661412,9.029793 2e-7,11.743061 l 3.5481865,2.101646 0,0 1.6302902,0.965506 3.3821243,-2.595028 3.3810218,2.595028 1.652684,-0.991703 0,0 3.459148,-2.075449 -3.303164,-2.831074 z M 8.5710802,5.9955793 13.455877,8.801991 8.5265602,12.068478 3.6278807,8.98227 8.5710802,5.9955793 z m 3.5167818,9.2917637 1.506445,-0.9038 v 0.82187 L 8.5149802,18.5 3.5481867,15.182953 v -0.774714 l 1.4855194,0.880205 0.1653618,0.09765 0.1526134,-0.116705 3.2088859,-2.462238 3.2077848,2.462238 0.153748,0.117472 0.165762,-0.09952 z"
     display="inline"
     inkscape:connector-curvature="0"
     style="opacity:0.3;fill:#ffffff;fill-opacity:1;display:inline" />
  <g
     id="g3768"
     style="fill:#dfdbd2;fill-opacity:1"
     transform="matrix(0.03337271,0,0,0.03337271,-0.0166864,1.061671)" />
  <path
     style="fill:#7c7c7c;fill-opacity:0.5529412;display:inline"
     inkscape:connector-curvature="0"
     display="inline"
     d="M 13.75029,7.9119871 17.053455,5.1594393 12.020516,1.9438118 8.5605672,4.8452353 5.1784434,1.9438118 0,5.3169251 3.566141,8.0297927 0,10.743061 l 3.5481865,2.101646 0,0 1.6302902,0.965506 3.3821235,-2.595028 3.3810228,2.595028 1.652683,-0.991703 0,0 3.459149,-2.075449 L 13.75029,7.9119871 z M 8.5710792,4.9955793 13.455876,7.8019906 8.5265602,11.068478 3.6278805,7.98227 8.5710792,4.9955793 z m 3.5167828,9.2917637 1.506444,-0.9038 v 0.82187 L 8.5149802,17.5 3.5481865,14.182953 v -0.774714 l 1.4855194,0.880205 0.1653618,0.09765 0.1526134,-0.116705 3.2088861,-2.462238 3.2077848,2.462238 0.153748,0.117472 0.165762,-0.09952 z"
     id="path3770" />
</svg>
