<?xml version="1.0" encoding="UTF-8" standalone="no"?>
<!-- Created with Inkscape (http://www.inkscape.org/) -->
<svg xmlns:svg="http://www.w3.org/2000/svg" xmlns="http://www.w3.org/2000/svg" version="1.0" width="800" height="664.94702" viewBox="0 0 800 664.947" id="Layer_1" xml:space="preserve"><defs id="defs12"/>
<g id="g3">
	<g id="g5">
		<g id="g7">
			<path d="M 529.123,572.254 C 529.123,594.93 513.42,614.608 487.178,617.6 C 475.958,618.402 469.234,618.402 458.687,617.6 C 431.773,616.137 415.24,594.93 415.24,572.254 C 415.24,548.85 431.773,526.97 459.426,526.173 C 466.993,525.439 476.711,525.439 486.429,526.173 C 514.169,527.699 529.123,549.579 529.123,572.254 M 253.839,394.776 C 253.839,330.279 212.478,295.901 154.662,279.475 C 150.93,278.68 126.168,271.23 121.686,269.768 C 107.394,265.25 76.659,254.008 76.659,218.167 C 76.659,190.441 102.91,174.015 130.652,174.015 C 159.975,174.015 177.169,191.238 187.717,200.945 C 193.703,206.931 201.259,212.916 211.728,212.916 C 229,212.916 237.317,199.421 237.317,185.987 C 237.317,174.75 230.581,161.983 218.542,150.678 C 186.227,119.826 142.702,116.765 128.41,116.765 C 67.691,116.765 13.529,155.93 13.529,220.365 C 13.529,288.454 58.634,313.854 117.201,332.539 C 129.911,336.266 141.199,339.259 147.185,341.517 C 175.679,350.496 190.71,366.917 190.71,397.041 C 190.71,432.882 158.395,452.363 124.677,452.363 C 88.707,452.363 66.94,424.173 54.901,392.518 L 0,415.127 C 17.274,471.911 61.627,509.552 126.92,509.552 C 195.195,509.552 253.839,465.13 253.839,394.776 z M 596.489,71.284 C 596.489,56.988 584.529,46.479 568.075,46.479 C 550.879,46.479 523.137,56.253 502.872,71.284 C 485.676,83.318 471.476,99.279 460.927,119.03 C 454.943,118.295 448.967,117.561 442.983,117.561 C 371.053,117.561 309.495,175.545 309.495,247.294 L 309.495,296.636 C 309.495,328.818 321.455,359.469 341.81,382.015 L 308.002,472.645 C 305.01,480.958 302.769,486.208 302.769,492.99 C 302.769,502.764 306.512,526.174 341.058,526.174 L 372.545,526.174 C 364.317,537.54 356.012,553.367 356.012,570.792 C 356.012,635.687 406.273,664.947 450.458,664.947 L 490.16,664.947 C 548.638,664.947 586.771,628.176 586.771,571.52 C 586.771,513.34 544.076,477.964 485.675,477.964 L 365.819,477.964 L 388.326,415.854 C 404.77,423.37 422.794,426.429 442.23,426.429 C 513.419,426.429 575.55,367.717 575.55,296.635 L 575.55,247.293 C 575.55,198.686 549.388,161.981 514.921,138.644 C 525.379,124.348 538.089,108.453 568.824,98.543 C 592.004,90.967 596.489,81.787 596.489,71.284 z M 800,476.434 C 800,467.388 797.758,459.077 781.975,450.9 C 774.498,447.307 766.271,445.116 758.794,437.936 C 752.07,431.486 746.757,421.111 746.757,404.556 L 746.757,128.865 L 629.957,128.865 L 629.957,182.993 L 677.643,182.993 L 677.643,403.088 C 677.643,471.911 727.982,504.295 767.763,504.295 L 768.513,504.295 C 788.701,504.295 800,491.459 800,476.434 z M 751.241,39.03 C 751.241,17.223 734.045,0 712.2,0 C 691.182,0 673.237,17.223 673.237,39.03 C 673.237,60.776 691.182,77.998 712.2,77.998 C 734.045,77.998 751.241,60.776 751.241,39.03 z M 507.354,237.587 C 508.106,262.986 508.106,280.209 507.354,304.88 C 505.864,344.509 479.702,369.18 442.23,369.18 C 404.03,369.18 380.098,345.238 378.608,304.88 C 377.856,280.943 377.856,259.993 378.608,237.587 C 379.358,199.42 404.77,174.749 443.732,174.749 C 482.683,174.75 505.864,201.678 507.354,237.587 z " style="fill:#30007c" id="path9"/>
		</g>
	</g>
</g>
</svg>