<?xml version="1.0" encoding="UTF-8" standalone="no"?>
<!-- Created with Inkscape (http://www.inkscape.org/) -->

<svg
   xmlns:dc="http://purl.org/dc/elements/1.1/"
   xmlns:cc="http://creativecommons.org/ns#"
   xmlns:rdf="http://www.w3.org/1999/02/22-rdf-syntax-ns#"
   xmlns:svg="http://www.w3.org/2000/svg"
   xmlns="http://www.w3.org/2000/svg"
   xmlns:xlink="http://www.w3.org/1999/xlink"
   xmlns:sodipodi="http://sodipodi.sourceforge.net/DTD/sodipodi-0.dtd"
   xmlns:inkscape="http://www.inkscape.org/namespaces/inkscape"
   version="1.1"
   width="32"
   height="32"
   id="svg2422"
   inkscape:version="0.48.3.1 r9886"
   sodipodi:docname="stock_scores.svg">
  <metadata
     id="metadata87">
    <rdf:RDF>
      <cc:Work
         rdf:about="">
        <dc:format>image/svg+xml</dc:format>
        <dc:type
           rdf:resource="http://purl.org/dc/dcmitype/StillImage" />
        <dc:title></dc:title>
      </cc:Work>
    </rdf:RDF>
  </metadata>
  <sodipodi:namedview
     pagecolor="#ffffff"
     bordercolor="#666666"
     borderopacity="1"
     objecttolerance="10"
     gridtolerance="10"
     guidetolerance="10"
     inkscape:pageopacity="0"
     inkscape:pageshadow="2"
     inkscape:window-width="807"
     inkscape:window-height="574"
     id="namedview85"
     showgrid="false"
     inkscape:zoom="4.9166667"
     inkscape:cx="24"
     inkscape:cy="24"
     inkscape:window-x="429"
     inkscape:window-y="74"
     inkscape:window-maximized="0"
     inkscape:current-layer="svg2422" />
  <defs
     id="defs2424">
    <linearGradient
       id="linearGradient4566">
      <stop
         id="stop4568"
         style="stop-color:#ffffff;stop-opacity:1"
         offset="0" />
      <stop
         id="stop4570"
         style="stop-color:#ffffff;stop-opacity:0"
         offset="1" />
    </linearGradient>
    <linearGradient
       id="linearGradient4556">
      <stop
         id="stop4558"
         style="stop-color:#ffffff;stop-opacity:1"
         offset="0" />
      <stop
         id="stop4560"
         style="stop-color:#ffffff;stop-opacity:0"
         offset="1" />
    </linearGradient>
    <linearGradient
       id="linearGradient4546">
      <stop
         id="stop4548"
         style="stop-color:#ffffff;stop-opacity:1"
         offset="0" />
      <stop
         id="stop4550"
         style="stop-color:#ffffff;stop-opacity:0"
         offset="1" />
    </linearGradient>
    <linearGradient
       id="linearGradient4536">
      <stop
         id="stop4538"
         style="stop-color:#ffffff;stop-opacity:1"
         offset="0" />
      <stop
         id="stop4540"
         style="stop-color:#ffffff;stop-opacity:0"
         offset="1" />
    </linearGradient>
    <linearGradient
       id="linearGradient4526">
      <stop
         id="stop4528"
         style="stop-color:#ffffff;stop-opacity:1"
         offset="0" />
      <stop
         id="stop4530"
         style="stop-color:#ffffff;stop-opacity:0"
         offset="1" />
    </linearGradient>
    <linearGradient
       id="linearGradient4516">
      <stop
         id="stop4518"
         style="stop-color:#ffffff;stop-opacity:1"
         offset="0" />
      <stop
         id="stop4520"
         style="stop-color:#ffffff;stop-opacity:0"
         offset="1" />
    </linearGradient>
    <linearGradient
       id="linearGradient4506">
      <stop
         id="stop4508"
         style="stop-color:#ffffff;stop-opacity:1"
         offset="0" />
      <stop
         id="stop4510"
         style="stop-color:#ffffff;stop-opacity:0"
         offset="1" />
    </linearGradient>
    <linearGradient
       id="linearGradient4496">
      <stop
         id="stop4498"
         style="stop-color:#ffffff;stop-opacity:1"
         offset="0" />
      <stop
         id="stop4500"
         style="stop-color:#ffffff;stop-opacity:0"
         offset="1" />
    </linearGradient>
    <linearGradient
       id="linearGradient4374">
      <stop
         id="stop4376"
         style="stop-color:#545454;stop-opacity:1"
         offset="0" />
      <stop
         id="stop4378"
         style="stop-color:#000000;stop-opacity:1"
         offset="1" />
    </linearGradient>
    <linearGradient
       id="linearGradient4366">
      <stop
         id="stop4368"
         style="stop-color:#b5b5b5;stop-opacity:1"
         offset="0" />
      <stop
         id="stop4370"
         style="stop-color:#000000;stop-opacity:1"
         offset="1" />
    </linearGradient>
    <linearGradient
       id="linearGradient4103-96-5">
      <stop
         id="stop4105-2-4"
         style="stop-color:#f4f4f4;stop-opacity:1"
         offset="0" />
      <stop
         id="stop4107-1-4"
         style="stop-color:#bebebe;stop-opacity:1"
         offset="1" />
    </linearGradient>
    <linearGradient
       id="linearGradient6493-1-9">
      <stop
         id="stop6495-7-3"
         style="stop-color:#c4c4c4;stop-opacity:1"
         offset="0" />
      <stop
         id="stop6497-5-6"
         style="stop-color:#8c8c8c;stop-opacity:1"
         offset="1" />
    </linearGradient>
    <radialGradient
       cx="20.038782"
       cy="12.610249"
       r="22.463524"
       fx="20.038782"
       fy="12.610249"
       id="radialGradient3521"
       xlink:href="#linearGradient4103-96-5"
       gradientUnits="userSpaceOnUse"
       gradientTransform="matrix(1.3401233,-0.03444322,0.02505914,0.97566915,-14.685355,-5.4284722)" />
    <linearGradient
       x1="29.01346"
       y1="29"
       x2="29.75"
       y2="50"
       id="linearGradient3523"
       xlink:href="#linearGradient6493-1-9"
       gradientUnits="userSpaceOnUse"
       gradientTransform="matrix(0.68637432,0,0,0.68637432,-4.1094707,-5.4909947)" />
    <linearGradient
       id="linearGradient8838-78-4">
      <stop
         id="stop8840-5-4"
         style="stop-color:#000000;stop-opacity:1"
         offset="0" />
      <stop
         id="stop8842-7-3"
         style="stop-color:#000000;stop-opacity:0"
         offset="1" />
    </linearGradient>
    <radialGradient
       cx="62.625"
       cy="4.625"
       r="10.625"
       fx="62.625"
       fy="4.625"
       id="radialGradient4343"
       xlink:href="#linearGradient8838-78-4"
       gradientUnits="userSpaceOnUse"
       gradientTransform="matrix(1.3221088,0,0,0.49383354,-66.893733,24.469028)" />
    <linearGradient
       x1="75.436081"
       y1="22.037416"
       x2="88.948273"
       y2="29.803606"
       id="linearGradient4372"
       xlink:href="#linearGradient4366"
       gradientUnits="userSpaceOnUse"
       gradientTransform="matrix(0.68637432,0,0,0.68637432,-35.270995,-0.16443481)" />
    <linearGradient
       x1="75.436081"
       y1="25.345238"
       x2="88.948273"
       y2="29.803606"
       id="linearGradient4380"
       xlink:href="#linearGradient4374"
       gradientUnits="userSpaceOnUse"
       gradientTransform="matrix(0.68637432,0,0,0.68637432,-35.270995,-0.16443481)" />
    <linearGradient
       x1="69.771187"
       y1="5.2853189"
       x2="84.601692"
       y2="5.2853189"
       id="linearGradient4390"
       xlink:href="#linearGradient4374"
       gradientUnits="userSpaceOnUse"
       gradientTransform="matrix(0.68637432,0,0,0.68637432,-34.259618,-0.1813711)" />
    <linearGradient
       x1="69.771187"
       y1="5.2853189"
       x2="84.601692"
       y2="5.2853189"
       id="linearGradient4400"
       xlink:href="#linearGradient4366"
       gradientUnits="userSpaceOnUse"
       gradientTransform="matrix(0.68637432,0,0,0.68637432,-34.259618,-0.1813711)" />
    <linearGradient
       id="linearGradient4366-6">
      <stop
         id="stop4368-6"
         style="stop-color:#b5b5b5;stop-opacity:1"
         offset="0" />
      <stop
         id="stop4370-1"
         style="stop-color:#000000;stop-opacity:1"
         offset="1" />
    </linearGradient>
    <linearGradient
       id="linearGradient4374-8">
      <stop
         id="stop4376-2"
         style="stop-color:#545454;stop-opacity:1"
         offset="0" />
      <stop
         id="stop4378-9"
         style="stop-color:#000000;stop-opacity:1"
         offset="1" />
    </linearGradient>
    <linearGradient
       x1="87.763306"
       y1="24.518595"
       x2="73.057274"
       y2="28.069227"
       id="linearGradient4423"
       xlink:href="#linearGradient4366-6"
       gradientUnits="userSpaceOnUse"
       gradientTransform="matrix(-0.53347841,-0.31753378,-0.31117513,0.54437967,59.028087,25.55333)" />
    <linearGradient
       x1="87.763306"
       y1="24.518595"
       x2="73.057274"
       y2="28.069227"
       id="linearGradient4425-6"
       xlink:href="#linearGradient4374-8"
       gradientUnits="userSpaceOnUse"
       gradientTransform="matrix(-0.53347841,-0.31753378,-0.31117513,0.54437967,59.028087,25.55333)" />
    <linearGradient
       x1="18.822033"
       y1="31.322035"
       x2="17.644068"
       y2="40.474575"
       id="linearGradient4464"
       xlink:href="#linearGradient4374-8"
       gradientUnits="userSpaceOnUse"
       gradientTransform="matrix(0.68637432,0,0,0.68637432,-1.1740494,-1.1585821)" />
    <linearGradient
       x1="18.291357"
       y1="21.101694"
       x2="27.661016"
       y2="30.661016"
       id="linearGradient4502"
       xlink:href="#linearGradient4496"
       gradientUnits="userSpaceOnUse"
       gradientTransform="matrix(0.68637432,0,0,0.68637432,-1.1740494,-1.1585823)" />
    <linearGradient
       x1="25.220339"
       y1="26.64407"
       x2="37.932205"
       y2="38.237289"
       id="linearGradient4512"
       xlink:href="#linearGradient4506"
       gradientUnits="userSpaceOnUse"
       gradientTransform="matrix(0.68637432,0,0,0.68637432,-1.1740494,-1.1585823)" />
    <linearGradient
       x1="21.050848"
       y1="11.008474"
       x2="30.254238"
       y2="25.423729"
       id="linearGradient4522"
       xlink:href="#linearGradient4516"
       gradientUnits="userSpaceOnUse"
       gradientTransform="matrix(0.68637432,0,0,0.68637432,-1.1740494,-1.1585823)" />
    <linearGradient
       x1="31.627119"
       y1="24.813559"
       x2="44.745762"
       y2="28.576271"
       id="linearGradient4532"
       xlink:href="#linearGradient4526"
       gradientUnits="userSpaceOnUse"
       gradientTransform="matrix(0.68637432,0,0,0.68637432,-1.1740494,-1.1585823)" />
    <linearGradient
       x1="12.508474"
       y1="23.135592"
       x2="9.6101694"
       y2="36.305084"
       id="linearGradient4542"
       xlink:href="#linearGradient4536"
       gradientUnits="userSpaceOnUse"
       gradientTransform="matrix(0.68637432,0,0,0.68637432,-1.1740494,-1.1585823)" />
    <linearGradient
       x1="15.355932"
       y1="9.3813591"
       x2="17.584753"
       y2="10.963361"
       id="linearGradient4552"
       xlink:href="#linearGradient4546"
       gradientUnits="userSpaceOnUse"
       gradientTransform="matrix(0.68637432,0,0,0.68637432,-1.1740494,-1.1585823)" />
    <linearGradient
       x1="31.728813"
       y1="15.711864"
       x2="43.881355"
       y2="15.711864"
       id="linearGradient4562"
       xlink:href="#linearGradient4556"
       gradientUnits="userSpaceOnUse"
       gradientTransform="matrix(0.68637432,0,0,0.68637432,-1.1740494,-1.1585823)" />
    <linearGradient
       x1="7.1949153"
       y1="15.48305"
       x2="11.898306"
       y2="25.70339"
       id="linearGradient4572"
       xlink:href="#linearGradient4566"
       gradientUnits="userSpaceOnUse"
       gradientTransform="matrix(0.68637432,0,0,0.68637432,-1.1740494,-1.1585823)" />
  </defs>
  <path
     d="M 29.950742,26.753011 C 29.950742,29.650843 23.661505,32 15.903335,32 8.1451657,32 1.8559291,29.650843 1.8559291,26.753011 c 0,-2.897832 6.2892366,-5.246989 14.0474059,-5.246989 7.75817,0 14.047407,2.349157 14.047407,5.246989 l 0,0 z"
     id="path8836-8"
     style="opacity:0.4;fill:url(#radialGradient4343);fill-opacity:1;fill-rule:evenodd;stroke:none;stroke-width:0.49589729;marker:none;visibility:visible;display:inline;overflow:visible"
     inkscape:connector-curvature="0" />
  <path
     d="m 29.866694,14.41386 c 0,7.767364 -6.299812,14.071307 -14.062074,14.071307 -7.7622623,0 -14.062066,-6.303943 -14.062066,-14.071307 0,-7.7673607 6.2998037,-14.071306 14.062066,-14.071306 7.762262,0 14.062074,6.3039453 14.062074,14.071306 z"
     id="path1307-0"
     style="fill:url(#radialGradient3521);fill-opacity:1;stroke:url(#linearGradient3523);stroke-width:0.68510801;stroke-linecap:round;stroke-linejoin:round;stroke-miterlimit:4;stroke-opacity:1;stroke-dasharray:none;stroke-dashoffset:0"
     inkscape:connector-curvature="0" />
  <path
     d="m 16.849579,16.39514 c 0,0 3.37963,-3.762555 4.442095,-4.047242 1.062464,-0.284686 4.145955,3.257536 4.145955,3.257536 0,0 -1.48247,5.623584 -2.171691,6.021506 -0.689221,0.397922 -4.688878,0.740349 -5.133087,0.29614 -0.444209,-0.44421 -1.184558,-5.429227 -1.283272,-5.52794 z"
     id="path4364"
     style="fill:url(#linearGradient4372);fill-opacity:1;stroke:url(#linearGradient4380);stroke-width:0.68637431px;stroke-linecap:butt;stroke-linejoin:miter;stroke-opacity:1"
     inkscape:connector-curvature="0" />
  <path
     d="m 14.531127,4.0066749 c 0,0 1.868759,0.1289972 3.210836,0.4886055 1.342076,0.3596083 2.861831,1.6054181 2.861831,1.6054181 l 3.420238,-2.3383263 c 0,0 -2.512828,-1.9893221 -4.53705,-2.4779273 -1.978884,-0.60264696 -3.640542,-0.73322212 -5.514262,0.0698 l 0.558407,2.6524299 z"
     id="path4382"
     style="fill:url(#linearGradient4400);fill-opacity:1;stroke:url(#linearGradient4390);stroke-width:0.68637431px;stroke-linecap:butt;stroke-linejoin:miter;stroke-opacity:1"
     inkscape:connector-curvature="0" />
  <path
     d="m 11.010365,14.574849 c 0,0 -0.920994,-4.547672 -1.6177203,-5.2649854 C 8.6959197,8.5925496 4.6933994,9.97547 4.6933994,9.97547 c 0,0 -1.3972752,5.146025 -1.0419868,5.780477 0.355289,0.634451 3.3087443,2.756379 3.8553886,2.609569 0.5466455,-0.146811 3.3820858,-3.758042 3.5035638,-3.790667 z"
     id="path4364-5"
     style="fill:url(#linearGradient4423);fill-opacity:1;stroke:url(#linearGradient4425-6);stroke-width:0.6238777px;stroke-linecap:butt;stroke-linejoin:miter;stroke-opacity:1"
     inkscape:connector-curvature="0" />
  <path
     d="m 6.8864252,24.627874 1.3781145,-1.183197 c 0,0 1.9047893,1.252696 2.7952063,1.4624 0.890418,0.209705 3.127969,0.350977 3.127969,0.350977 l 0.850981,2.543097 -1.837484,-0.235197 C 11.791844,27.286657 10.143959,26.685524 8.7093307,25.84893 L 6.8864252,24.627874 z"
     id="path4456"
     style="fill:url(#linearGradient4464);fill-opacity:1;stroke:#000000;stroke-width:0.6135447px;stroke-linecap:butt;stroke-linejoin:miter;stroke-opacity:1"
     inkscape:connector-curvature="0" />
  <path
     d="m 28.736054,10.49001 0.172748,2.319761 0.542922,1.283271 c 0,0 0.0173,-1.597271 -0.123391,-2.122334 -0.14069,-0.525062 -0.592279,-1.530054 -0.592279,-1.480698 z"
     id="path4466"
     style="fill:#000000;fill-opacity:1;stroke:none"
     inkscape:connector-curvature="0" />
  <path
     d="m 26.121243,23.571374 -1.17208,0.467569 -1.595951,1.947388 c 0,0 1.39372,-0.780459 1.778975,-1.163947 0.385253,-0.383488 1.031856,-1.27559 0.989056,-1.25101 z"
     id="path4466-6"
     style="fill:#000000;fill-opacity:1;stroke:none"
     inkscape:connector-curvature="0" />
  <path
     d="m 2.2424468,16.765049 0.3221021,0.69691 0.1743247,1.36714 c 0,0 -0.2980661,-0.748579 -0.3178394,-1.027082 -0.019773,-0.278502 -0.2084573,-0.964871 -0.1785874,-1.036968 z"
     id="path4490"
     style="fill:#000000;fill-opacity:1;stroke:none"
     inkscape:connector-curvature="0" />
  <path
     d="M 4.3292123,6.6401949 5.5137708,6.0479157 7.3399649,3.5800857 5.5878059,5.0854622 C 5.2758296,5.3534976 4.9214916,5.9245241 4.8227779,5.9738813 4.7240649,6.0232384 4.3045337,6.6401949 4.3292123,6.6401949 z"
     id="path4492"
     style="fill:#000000;fill-opacity:1;stroke:none"
     inkscape:connector-curvature="0" />
  <path
     d="m 7.6114259,18.658528 c -0.039453,1.769088 0.6909928,4.540808 0.6909928,4.540808 0,0 1.573746,1.039303 2.4594653,1.328768 1.138482,0.372072 3.55984,0.488606 3.55984,0.488606 0,0 1.081912,-0.314104 1.954422,-1.186613 0.87251,-0.87251 1.535617,-1.814821 1.535617,-1.814821 L 16.485548,16.361413 11.32029,14.755995 c 0,0 -3.3929653,3.893274 -3.7088641,3.902533 z"
     id="path4494"
     style="fill:url(#linearGradient4502);fill-opacity:1;stroke:none"
     inkscape:connector-curvature="0" />
  <path
     d="m 14.461325,25.08651 3.420239,-2.72223 2.443027,0.0698 2.792031,-0.418805 0.488605,-0.0698 1.256415,1.954422 -1.396016,1.884621 -2.024222,1.186614 -2.094024,0.767808 -2.792031,0.418804 -1.116813,0.0698 -0.977211,-3.141035 z"
     id="path4504"
     style="fill:url(#linearGradient4512);fill-opacity:1;stroke:none"
     inkscape:connector-curvature="0" />
  <path
     d="M 9.7846727,9.0323309 C 9.9787097,9.324712 11.32029,14.616394 11.32029,14.616394 l 5.112908,1.675218 3.891393,-3.839043 0.593307,-0.314103 0.349004,-0.122152 c 0,0 -0.60908,-5.3593654 -0.698008,-5.5317112 -0.169346,-0.3282002 -1.386312,-1.2356026 -2.896733,-1.6403185 -1.51042,-0.404716 -3.385337,-0.5235059 -3.385337,-0.5235059 0,0 -3.353761,1.7415697 -4.5021513,4.7115525 z"
     id="path4514"
     style="fill:url(#linearGradient4522);fill-opacity:1;stroke:none"
     inkscape:connector-curvature="0" />
  <path
     d="m 23.500526,21.910575 1.396016,2.128924 1.151713,-0.488606 c 0,0 1.081912,-1.361115 1.465817,-1.919521 0.383904,-0.558407 1.012111,-1.849721 1.047011,-1.989322 0.0349,-0.139602 0.628207,-2.163825 0.628207,-2.163825 l 0.349004,-2.268525 -0.0698,-1.116812 -0.593306,-1.221514 -3.036334,2.757131 -0.628208,2.198725 -0.488605,1.570517 -0.698008,1.710119 -0.418805,0.628207 -0.104701,0.174502 z"
     id="path4524"
     style="fill:url(#linearGradient4532);fill-opacity:1;stroke:none"
     inkscape:connector-curvature="0" />
  <path
     d="m 2.6300931,17.338624 0.7329082,-1.430916 1.256414,1.291314 1.1866135,0.663108 1.0819119,0.663107 c 0,0 0.643896,0.209683 0.6631076,0.139602 0.086953,2.308611 0.6631074,4.432349 0.6631074,4.432349 L 6.5040364,24.563004 5.1429211,23.097188 4.1657102,21.701173 3.4677024,20.340058 2.804595,18.76954 2.6300931,17.338624 z"
     id="path4534"
     style="fill:url(#linearGradient4542);fill-opacity:1;stroke:none"
     inkscape:connector-curvature="0" />
  <path
     d="m 4.4798137,9.5907376 3.769242,-0.8376093 0.802709,0.034902 0.383904,0.069801 0.244303,0.2443026 L 14.251923,4.3905813 13.553915,1.1099445 13.204912,0.9703428 11.006187,1.4938488 9.5752707,2.1569564 8.2141557,2.8898648 7.2020441,3.6576731 5.5268254,6.0657998 4.4798137,9.5907397 z"
     id="path4544"
     style="fill:url(#linearGradient4552);fill-opacity:1;stroke:none"
     inkscape:connector-curvature="0" />
  <path
     d="m 20.603794,6.449702 c 0.526126,1.8137346 0.698008,5.444461 0.698008,5.444461 l 0.628207,0.139602 0.732908,0.418804 3.106135,3.036334 3.175935,-2.65243 L 28.805386,10.218944 28.456382,9.0323309 27.339569,6.9383079 26.257657,5.4724913 25.105944,4.2509777 24.617339,3.7623722 c 0,0 -3.98892,2.6035894 -4.013545,2.6873298 z"
     id="path4554"
     style="fill:url(#linearGradient4562);fill-opacity:1;stroke:none"
     inkscape:connector-curvature="0" />
  <path
     d="M 2.5253919,17.303724 3.3630013,15.907708 3.2583001,15.523803 3.9563079,11.370657 4.4100129,9.765239 5.4570246,6.1704994 4.4798137,6.5893037 3.432802,8.5437258 2.804595,10.009542 l -0.4537051,1.640319 -0.2792031,1.535617 0,1.396015 0,1.396015 0.4537051,1.326216 z"
     id="path4564"
     style="fill:url(#linearGradient4572);fill-opacity:1;stroke:none"
     inkscape:connector-curvature="0" />
</svg>
