<?xml version="1.0" encoding="UTF-8" standalone="no"?>
<!-- Created with Inkscape (http://www.inkscape.org/) -->

<svg
   xmlns:dc="http://purl.org/dc/elements/1.1/"
   xmlns:cc="http://creativecommons.org/ns#"
   xmlns:rdf="http://www.w3.org/1999/02/22-rdf-syntax-ns#"
   xmlns:svg="http://www.w3.org/2000/svg"
   xmlns="http://www.w3.org/2000/svg"
   xmlns:xlink="http://www.w3.org/1999/xlink"
   xmlns:sodipodi="http://sodipodi.sourceforge.net/DTD/sodipodi-0.dtd"
   xmlns:inkscape="http://www.inkscape.org/namespaces/inkscape"
   version="1.1"
   width="48"
   height="48"
   id="svg4296"
   inkscape:version="0.48.4 r9939"
   sodipodi:docname="libreoffice-base.svg">
  <sodipodi:namedview
     pagecolor="#ffffff"
     bordercolor="#666666"
     borderopacity="1"
     objecttolerance="10"
     gridtolerance="10"
     guidetolerance="10"
     inkscape:pageopacity="0"
     inkscape:pageshadow="2"
     inkscape:window-width="1855"
     inkscape:window-height="1056"
     id="namedview66"
     showgrid="true"
     inkscape:zoom="17.493573"
     inkscape:cx="4.1660338"
     inkscape:cy="31.08678"
     inkscape:window-x="65"
     inkscape:window-y="24"
     inkscape:window-maximized="1"
     inkscape:current-layer="svg4296"
     showguides="true"
     inkscape:guide-bbox="true"
     inkscape:snap-global="false">
    <inkscape:grid
       type="xygrid"
       id="grid3069" />
  </sodipodi:namedview>
  <defs
     id="defs4298">
    <linearGradient
       id="linearGradient3882">
      <stop
         offset="0"
         style="stop-color:#505050;stop-opacity:1"
         id="stop3884" />
      <stop
         offset="0.27499998"
         style="stop-color:#2b2b2b;stop-opacity:1"
         id="stop3886" />
      <stop
         offset="0.80000001"
         style="stop-color:#0a0a0a;stop-opacity:1"
         id="stop3888" />
      <stop
         offset="1"
         style="stop-color:#000000;stop-opacity:1"
         id="stop3890" />
    </linearGradient>
    <linearGradient
       id="linearGradient3895">
      <stop
         id="stop3897"
         style="stop-color:#ffffff;stop-opacity:1"
         offset="0" />
      <stop
         id="stop3899"
         style="stop-color:#ffffff;stop-opacity:0.23529412"
         offset="0.05263157" />
      <stop
         id="stop3901"
         style="stop-color:#ffffff;stop-opacity:0.15686275"
         offset="0.95056331" />
      <stop
         id="stop3903"
         style="stop-color:#ffffff;stop-opacity:0.39215687"
         offset="1" />
    </linearGradient>
    <linearGradient
       x1="20"
       y1="26.000008"
       x2="20"
       y2="13.000008"
       id="linearGradient4183"
       xlink:href="#linearGradient3680-6-6-6-3"
       gradientUnits="userSpaceOnUse"
       gradientTransform="translate(0,0.9999922)" />
    <linearGradient
       id="linearGradient3680-6-6-6-3">
      <stop
         id="stop3682-4-6-1-3"
         style="stop-color:#dcdcdc;stop-opacity:1"
         offset="0" />
      <stop
         id="stop3684-8-5-8-0"
         style="stop-color:#ffffff;stop-opacity:1"
         offset="1" />
    </linearGradient>
    <linearGradient
       x1="23.99999"
       y1="4.999989"
       x2="23.99999"
       y2="43"
       id="linearGradient3982"
       xlink:href="#linearGradient3924-1"
       gradientUnits="userSpaceOnUse"
       gradientTransform="translate(4e-6,1.0000062)" />
    <linearGradient
       id="linearGradient3924-1">
      <stop
         id="stop3926-3"
         style="stop-color:#ffffff;stop-opacity:1"
         offset="0" />
      <stop
         id="stop3928-91"
         style="stop-color:#ffffff;stop-opacity:0.23529412"
         offset="0.06316455" />
      <stop
         id="stop3930-6"
         style="stop-color:#ffffff;stop-opacity:0.15686275"
         offset="0.95056331" />
      <stop
         id="stop3932-6"
         style="stop-color:#ffffff;stop-opacity:0.39215687"
         offset="1" />
    </linearGradient>
    <radialGradient
       cx="4.9929786"
       cy="43.5"
       r="2.5"
       fx="4.9929786"
       fy="43.5"
       id="radialGradient3963"
       xlink:href="#linearGradient3688-166-749"
       gradientUnits="userSpaceOnUse"
       gradientTransform="matrix(2.003784,0,0,1.4,27.98813,-17.4)" />
    <linearGradient
       id="linearGradient3688-166-749">
      <stop
         id="stop2883"
         style="stop-color:#181818;stop-opacity:1"
         offset="0" />
      <stop
         id="stop2885"
         style="stop-color:#181818;stop-opacity:0"
         offset="1" />
    </linearGradient>
    <radialGradient
       cx="4.9929786"
       cy="43.5"
       r="2.5"
       fx="4.9929786"
       fy="43.5"
       id="radialGradient3965"
       xlink:href="#linearGradient3688-464-309"
       gradientUnits="userSpaceOnUse"
       gradientTransform="matrix(2.003784,0,0,1.4,-20.01187,-104.4)" />
    <linearGradient
       id="linearGradient3688-464-309">
      <stop
         id="stop2889"
         style="stop-color:#181818;stop-opacity:1"
         offset="0" />
      <stop
         id="stop2891"
         style="stop-color:#181818;stop-opacity:0"
         offset="1" />
    </linearGradient>
    <linearGradient
       x1="25.058096"
       y1="47.027729"
       x2="25.058096"
       y2="39.999443"
       id="linearGradient3967"
       xlink:href="#linearGradient3702-501-757"
       gradientUnits="userSpaceOnUse" />
    <linearGradient
       id="linearGradient3702-501-757">
      <stop
         id="stop2895"
         style="stop-color:#181818;stop-opacity:0"
         offset="0" />
      <stop
         id="stop2897"
         style="stop-color:#181818;stop-opacity:1"
         offset="0.5" />
      <stop
         id="stop2899"
         style="stop-color:#181818;stop-opacity:0"
         offset="1" />
    </linearGradient>
    <linearGradient
       x1="20"
       y1="26.000008"
       x2="20"
       y2="13.000008"
       id="linearGradient3018"
       xlink:href="#linearGradient3680-6-6-6-3"
       gradientUnits="userSpaceOnUse"
       gradientTransform="translate(0,0.9999922)" />
    <linearGradient
       x1="23.99999"
       y1="4.9999938"
       x2="23.99999"
       y2="43"
       id="linearGradient3024"
       xlink:href="#linearGradient3895"
       gradientUnits="userSpaceOnUse"
       gradientTransform="translate(6.9947737,-2.8731308)" />
    <radialGradient
       cx="4.9929786"
       cy="43.5"
       r="2.5"
       fx="4.9929786"
       fy="43.5"
       id="radialGradient3038"
       xlink:href="#linearGradient3688-166-749"
       gradientUnits="userSpaceOnUse"
       gradientTransform="matrix(2.003784,0,0,1.4,27.98813,-17.4)" />
    <radialGradient
       cx="4.9929786"
       cy="43.5"
       r="2.5"
       fx="4.9929786"
       fy="43.5"
       id="radialGradient3040"
       xlink:href="#linearGradient3688-464-309"
       gradientUnits="userSpaceOnUse"
       gradientTransform="matrix(2.003784,0,0,1.4,-20.01187,-104.4)" />
    <linearGradient
       x1="25.058096"
       y1="47.027729"
       x2="25.058096"
       y2="39.999443"
       id="linearGradient3042"
       xlink:href="#linearGradient3702-501-757"
       gradientUnits="userSpaceOnUse" />
    <radialGradient
       cx="6.7304144"
       cy="9.9571075"
       r="12.671875"
       fx="6.2001843"
       fy="9.9571075"
       id="radialGradient3031"
       xlink:href="#linearGradient2867-449-88-871-390-598-476-591-434-148-57-177-8-3-3-6-4-8-8-8"
       gradientUnits="userSpaceOnUse"
       gradientTransform="matrix(0,9.4975523,-11.65996,0,140.93055,-79.160978)" />
    <linearGradient
       id="linearGradient2867-449-88-871-390-598-476-591-434-148-57-177-8-3-3-6-4-8-8-8">
      <stop
         id="stop3750-1-0-7-6-6-1-3-9"
         style="stop-color:#ffcd7d;stop-opacity:1"
         offset="0" />
      <stop
         id="stop3752-3-7-4-0-32-8-923-0"
         style="stop-color:#fc8f36;stop-opacity:1"
         offset="0.26238" />
      <stop
         id="stop3754-1-8-5-2-7-6-7-1"
         style="stop-color:#e23a0e;stop-opacity:1"
         offset="0.704952" />
      <stop
         id="stop3756-1-6-2-6-6-1-96-6"
         style="stop-color:#ac441f;stop-opacity:1"
         offset="1" />
    </linearGradient>
    <radialGradient
       cx="7.1183534"
       cy="9.9571075"
       r="12.671875"
       fx="7.1183534"
       fy="9.9571075"
       id="radialGradient3054-6"
       xlink:href="#linearGradient2867-449-88-871-390-598-476-591-434-148-57-177-8-3-3-6-4-8-8-8-5"
       gradientUnits="userSpaceOnUse"
       gradientTransform="matrix(0,9.1402449,-11.221301,0,136.56278,-77.887535)" />
    <linearGradient
       id="linearGradient2867-449-88-871-390-598-476-591-434-148-57-177-8-3-3-6-4-8-8-8-5">
      <stop
         id="stop3750-1-0-7-6-6-1-3-9-3"
         style="stop-color:#505050;stop-opacity:1"
         offset="0" />
      <stop
         id="stop3752-3-7-4-0-32-8-923-0-7"
         style="stop-color:#2b2b2b;stop-opacity:1"
         offset="0.26238" />
      <stop
         id="stop3754-1-8-5-2-7-6-7-1-9"
         style="stop-color:#0a0a0a;stop-opacity:1"
         offset="0.704952" />
      <stop
         id="stop3756-1-6-2-6-6-1-96-6-0"
         style="stop-color:#000000;stop-opacity:1"
         offset="1" />
    </linearGradient>
    <radialGradient
       cx="6.7304144"
       cy="9.9571075"
       r="12.671875"
       fx="6.2001843"
       fy="9.9571075"
       id="radialGradient3077"
       xlink:href="#linearGradient2867-449-88-871-390-598-476-591-434-148-57-177-8-3-3-6-4-8-8-8-5"
       gradientUnits="userSpaceOnUse"
       gradientTransform="matrix(0,9.4975523,-11.65996,0,136.43054,-84.660973)" />
    <linearGradient
       x1="20"
       y1="26.000008"
       x2="20"
       y2="13.000008"
       id="linearGradient3018-5"
       xlink:href="#linearGradient3680-6-6-6-3-7"
       gradientUnits="userSpaceOnUse"
       gradientTransform="translate(0,0.9999922)" />
    <linearGradient
       id="linearGradient3680-6-6-6-3-7">
      <stop
         id="stop3682-4-6-1-3-7"
         style="stop-color:#dcdcdc;stop-opacity:1"
         offset="0" />
      <stop
         id="stop3684-8-5-8-0-2"
         style="stop-color:#ffffff;stop-opacity:1"
         offset="1" />
    </linearGradient>
    <linearGradient
       x1="20"
       y1="26.000008"
       x2="20"
       y2="13.000008"
       id="linearGradient3950"
       xlink:href="#linearGradient3680-6-6-6-3-7"
       gradientUnits="userSpaceOnUse"
       gradientTransform="translate(-20,-24.000008)" />
    <radialGradient
       cx="7.1183534"
       cy="9.9571075"
       r="12.671875"
       fx="7.1183534"
       fy="9.9571075"
       id="radialGradient3054-6-8"
       xlink:href="#linearGradient2867-449-88-871-390-598-476-591-434-148-57-177-8-3-3-6-4-8-8-8-5-8"
       gradientUnits="userSpaceOnUse"
       gradientTransform="matrix(0,9.1402449,-11.221301,0,136.56278,-77.887535)" />
    <linearGradient
       id="linearGradient2867-449-88-871-390-598-476-591-434-148-57-177-8-3-3-6-4-8-8-8-5-8">
      <stop
         id="stop3750-1-0-7-6-6-1-3-9-3-8"
         style="stop-color:#505050;stop-opacity:1"
         offset="0" />
      <stop
         id="stop3752-3-7-4-0-32-8-923-0-7-6"
         style="stop-color:#2b2b2b;stop-opacity:1"
         offset="0.26238" />
      <stop
         id="stop3754-1-8-5-2-7-6-7-1-9-3"
         style="stop-color:#0a0a0a;stop-opacity:1"
         offset="0.704952" />
      <stop
         id="stop3756-1-6-2-6-6-1-96-6-0-3"
         style="stop-color:#000000;stop-opacity:1"
         offset="1" />
    </linearGradient>
    <radialGradient
       cx="7.1183534"
       cy="9.9571075"
       r="12.671875"
       fx="7.1183534"
       fy="9.9571075"
       id="radialGradient3054-6-0"
       xlink:href="#linearGradient2867-449-88-871-390-598-476-591-434-148-57-177-8-3-3-6-4-8-8-8-5-6"
       gradientUnits="userSpaceOnUse"
       gradientTransform="matrix(0,9.1402449,-11.221301,0,136.56278,-77.887535)" />
    <linearGradient
       id="linearGradient2867-449-88-871-390-598-476-591-434-148-57-177-8-3-3-6-4-8-8-8-5-6">
      <stop
         id="stop3750-1-0-7-6-6-1-3-9-3-2"
         style="stop-color:#505050;stop-opacity:1"
         offset="0" />
      <stop
         id="stop3752-3-7-4-0-32-8-923-0-7-1"
         style="stop-color:#2b2b2b;stop-opacity:1"
         offset="0.26238" />
      <stop
         id="stop3754-1-8-5-2-7-6-7-1-9-5"
         style="stop-color:#0a0a0a;stop-opacity:1"
         offset="0.704952" />
      <stop
         id="stop3756-1-6-2-6-6-1-96-6-0-6"
         style="stop-color:#000000;stop-opacity:1"
         offset="1" />
    </linearGradient>
    <linearGradient
       inkscape:collect="always"
       xlink:href="#linearGradient3924-1-2"
       id="linearGradient3851-0"
       x1="65"
       y1="6"
       x2="65"
       y2="50"
       gradientUnits="userSpaceOnUse"
       gradientTransform="matrix(1.0007118,0,0,1.0007117,-48.147587,-3.0259508)" />
    <linearGradient
       id="linearGradient3924-1-2">
      <stop
         id="stop3926-3-8"
         style="stop-color:#ffffff;stop-opacity:1"
         offset="0" />
      <stop
         id="stop3928-91-2"
         style="stop-color:#ffffff;stop-opacity:0.23529412"
         offset="0.06316455" />
      <stop
         id="stop3930-6-8"
         style="stop-color:#ffffff;stop-opacity:0.15686275"
         offset="0.95056331" />
      <stop
         id="stop3932-6-6"
         style="stop-color:#ffffff;stop-opacity:0.39215687"
         offset="1" />
    </linearGradient>
    <radialGradient
       inkscape:collect="always"
       xlink:href="#linearGradient3242-7-5-0-3"
       id="radialGradient3880-0"
       cx="-11.470183"
       cy="25.883497"
       fx="-11.470183"
       fy="25.883497"
       r="19.459459"
       gradientUnits="userSpaceOnUse"
       gradientTransform="matrix(3.1408481e-7,5.7736826,-5.7736827,8.6873673e-8,175.19382,55.035924)" />
    <linearGradient
       id="linearGradient3882-6">
      <stop
         offset="0"
         style="stop-color:#505050;stop-opacity:1"
         id="stop3884-2" />
      <stop
         offset="0.27272725"
         style="stop-color:#2b2b2b;stop-opacity:1"
         id="stop3886-2" />
      <stop
         offset="0.69565219"
         style="stop-color:#0a0a0a;stop-opacity:1"
         id="stop3888-0" />
      <stop
         offset="1"
         style="stop-color:#000000;stop-opacity:1"
         id="stop3890-8" />
    </linearGradient>
    <radialGradient
       cx="4.9929786"
       cy="43.5"
       r="2.5"
       fx="4.9929786"
       fy="43.5"
       id="radialGradient3038-6"
       xlink:href="#linearGradient3688-166-749-4"
       gradientUnits="userSpaceOnUse"
       gradientTransform="matrix(2.003784,0,0,1.4,27.98813,-17.4)" />
    <linearGradient
       id="linearGradient3688-166-749-4">
      <stop
         id="stop2883-1"
         style="stop-color:#181818;stop-opacity:1"
         offset="0" />
      <stop
         id="stop2885-5"
         style="stop-color:#181818;stop-opacity:0"
         offset="1" />
    </linearGradient>
    <radialGradient
       cx="4.9929786"
       cy="43.5"
       r="2.5"
       fx="4.9929786"
       fy="43.5"
       id="radialGradient3040-2"
       xlink:href="#linearGradient3688-464-309-9"
       gradientUnits="userSpaceOnUse"
       gradientTransform="matrix(2.003784,0,0,1.4,-20.01187,-104.4)" />
    <linearGradient
       id="linearGradient3688-464-309-9">
      <stop
         id="stop2889-2"
         style="stop-color:#181818;stop-opacity:1"
         offset="0" />
      <stop
         id="stop2891-2"
         style="stop-color:#181818;stop-opacity:0"
         offset="1" />
    </linearGradient>
    <linearGradient
       y2="39.999443"
       x2="25.058096"
       y1="47.027729"
       x1="25.058096"
       gradientUnits="userSpaceOnUse"
       id="linearGradient3974"
       xlink:href="#linearGradient3702-501-757-0"
       inkscape:collect="always" />
    <linearGradient
       id="linearGradient3702-501-757-0">
      <stop
         id="stop2895-2"
         style="stop-color:#181818;stop-opacity:0"
         offset="0" />
      <stop
         id="stop2897-9"
         style="stop-color:#181818;stop-opacity:1"
         offset="0.5" />
      <stop
         id="stop2899-8"
         style="stop-color:#181818;stop-opacity:0"
         offset="1" />
    </linearGradient>
    <linearGradient
       y2="39.999443"
       x2="25.058096"
       y1="47.027729"
       x1="25.058096"
       gradientUnits="userSpaceOnUse"
       id="linearGradient3986"
       xlink:href="#linearGradient3702-501-757-0"
       inkscape:collect="always" />
    <linearGradient
       y2="609.50507"
       x2="302.85715"
       y1="366.64789"
       x1="302.85715"
       gradientTransform="matrix(0.06732476,0,0,0.01468289,-0.34189201,37.050412)"
       gradientUnits="userSpaceOnUse"
       id="linearGradient4438"
       xlink:href="#linearGradient5048-9"
       inkscape:collect="always" />
    <linearGradient
       id="linearGradient5048-9">
      <stop
         id="stop5050-4"
         style="stop-color:#000000;stop-opacity:0"
         offset="0" />
      <stop
         id="stop5056-8"
         style="stop-color:#000000;stop-opacity:1"
         offset="0.5" />
      <stop
         id="stop5052-3"
         style="stop-color:#000000;stop-opacity:0"
         offset="1" />
    </linearGradient>
    <radialGradient
       cx="605.71429"
       cy="486.64789"
       r="117.14286"
       fx="605.71429"
       fy="486.64789"
       id="radialGradient3330"
       xlink:href="#linearGradient5060-4"
       gradientUnits="userSpaceOnUse"
       gradientTransform="matrix(-0.0230399,0,0,0.01468289,16.753612,37.053552)" />
    <linearGradient
       id="linearGradient5060-4">
      <stop
         id="stop5062-5"
         style="stop-color:#000000;stop-opacity:1"
         offset="0" />
      <stop
         id="stop5064-7"
         style="stop-color:#000000;stop-opacity:0"
         offset="1" />
    </linearGradient>
    <radialGradient
       cx="605.71429"
       cy="486.64789"
       r="117.14286"
       fx="605.71429"
       fy="486.64789"
       id="radialGradient3327"
       xlink:href="#linearGradient5060-4"
       gradientUnits="userSpaceOnUse"
       gradientTransform="matrix(0.02303991,0,0,0.01468289,21.491375,37.053552)" />
    <linearGradient
       id="linearGradient3216">
      <stop
         id="stop3218"
         style="stop-color:#000000;stop-opacity:1"
         offset="0" />
      <stop
         id="stop3220"
         style="stop-color:#000000;stop-opacity:0"
         offset="1" />
    </linearGradient>
    <radialGradient
       inkscape:collect="always"
       xlink:href="#linearGradient2867-449-88-871-390-598-476-591-434-148-57-177-8-3-5-6"
       id="radialGradient4367"
       gradientUnits="userSpaceOnUse"
       gradientTransform="matrix(7.2759681e-8,4.5321663,-4.4942924,5.2649749e-8,-2.083329,-96.775425)"
       cx="19.556362"
       cy="-3.8301377"
       fx="19.556362"
       fy="-3.8301377"
       r="18.246725" />
    <linearGradient
       id="linearGradient2867-449-88-871-390-598-476-591-434-148-57-177-8-3-5-6">
      <stop
         id="stop3750-1-0-6-9"
         style="stop-color:#ffffff;stop-opacity:1;"
         offset="0" />
      <stop
         id="stop3752-3-7-8-3"
         style="stop-color:#dfdfdf;stop-opacity:1;"
         offset="0.26238" />
      <stop
         id="stop3754-1-8-5-8"
         style="stop-color:#cacaca;stop-opacity:1;"
         offset="0.704952" />
      <stop
         id="stop3756-1-6-3-7"
         style="stop-color:#afafaf;stop-opacity:1;"
         offset="1" />
    </linearGradient>
    <linearGradient
       gradientTransform="translate(-4.8687058,0.00310967)"
       inkscape:collect="always"
       xlink:href="#linearGradient2490-3-9-0-3"
       id="linearGradient4771"
       x1="25"
       y1="43"
       x2="25"
       y2="0.11503056"
       gradientUnits="userSpaceOnUse" />
    <linearGradient
       id="linearGradient2490-3-9-0-3">
      <stop
         id="stop2492-7-7-4-7"
         style="stop-color:#000000;stop-opacity:1;"
         offset="0" />
      <stop
         id="stop2494-4-8-6-8"
         style="stop-color:#3f3f3f;stop-opacity:1;"
         offset="1" />
    </linearGradient>
    <linearGradient
       y2="43"
       x2="23.99999"
       y1="5.5641499"
       x1="23.99999"
       gradientTransform="matrix(0.89189031,0,0,1.1337975,-2.274396,-4.680621)"
       gradientUnits="userSpaceOnUse"
       id="linearGradient4386"
       xlink:href="#linearGradient3977"
       inkscape:collect="always" />
    <linearGradient
       id="linearGradient3977">
      <stop
         id="stop3979"
         style="stop-color:#ffffff;stop-opacity:1"
         offset="0" />
      <stop
         id="stop3981"
         style="stop-color:#ffffff;stop-opacity:0.23529412"
         offset="0.03626217" />
      <stop
         id="stop3983"
         style="stop-color:#ffffff;stop-opacity:0.15686275"
         offset="0.95056331" />
      <stop
         id="stop3985"
         style="stop-color:#ffffff;stop-opacity:0.39215687"
         offset="1" />
    </linearGradient>
    <linearGradient
       y2="609.50507"
       x2="302.85715"
       y1="366.64789"
       x1="302.85715"
       gradientTransform="matrix(0.06732476,0,0,0.01468289,-5.2105978,37.053522)"
       gradientUnits="userSpaceOnUse"
       id="linearGradient3244"
       xlink:href="#linearGradient5048-9"
       inkscape:collect="always" />
    <linearGradient
       inkscape:collect="always"
       xlink:href="#linearGradient5048-9"
       id="linearGradient4601"
       gradientUnits="userSpaceOnUse"
       gradientTransform="matrix(0.06732476,0,0,0.01468289,1.671095,42.063399)"
       x1="302.85715"
       y1="366.64789"
       x2="302.85715"
       y2="609.50507" />
    <radialGradient
       inkscape:collect="always"
       xlink:href="#linearGradient5060-4"
       id="radialGradient4603"
       gradientUnits="userSpaceOnUse"
       gradientTransform="matrix(-0.0230399,0,0,0.01468289,23.635305,42.063429)"
       cx="605.71429"
       cy="486.64789"
       fx="605.71429"
       fy="486.64789"
       r="117.14286" />
    <radialGradient
       inkscape:collect="always"
       xlink:href="#linearGradient5060-4"
       id="radialGradient4605"
       gradientUnits="userSpaceOnUse"
       gradientTransform="matrix(0.02303991,0,0,0.01468289,28.373068,42.063429)"
       cx="605.71429"
       cy="486.64789"
       fx="605.71429"
       fy="486.64789"
       r="117.14286" />
    <radialGradient
       inkscape:collect="always"
       xlink:href="#linearGradient2867-449-88-871-390-598-476-591-434-148-57-177-8-3-5-6"
       id="radialGradient4607"
       gradientUnits="userSpaceOnUse"
       gradientTransform="matrix(7.2759681e-8,4.5321663,-4.4942924,5.2649749e-8,4.7983638,-91.765553)"
       cx="19.556362"
       cy="-3.8301377"
       fx="19.556362"
       fy="-3.8301377"
       r="18.246725" />
    <linearGradient
       inkscape:collect="always"
       xlink:href="#linearGradient2490-3-9-0-3"
       id="linearGradient4609"
       gradientUnits="userSpaceOnUse"
       gradientTransform="translate(2.012987,5.012987)"
       x1="25"
       y1="43"
       x2="25"
       y2="0.11503056" />
    <linearGradient
       inkscape:collect="always"
       xlink:href="#linearGradient3977"
       id="linearGradient4611"
       gradientUnits="userSpaceOnUse"
       gradientTransform="matrix(0.89189031,0,0,1.1337975,4.6072968,0.32925602)"
       x1="23.99999"
       y1="5.5641499"
       x2="23.99999"
       y2="43" />
    <linearGradient
       id="linearGradient3977-5-4">
      <stop
         id="stop3979-6-0"
         style="stop-color:#ffffff;stop-opacity:1"
         offset="0" />
      <stop
         id="stop3981-7-4"
         style="stop-color:#ffffff;stop-opacity:0.23529412"
         offset="0.03626217" />
      <stop
         id="stop3983-4-4"
         style="stop-color:#ffffff;stop-opacity:0.15686275"
         offset="0.95056331" />
      <stop
         id="stop3985-8-4"
         style="stop-color:#ffffff;stop-opacity:0.39215687"
         offset="1" />
    </linearGradient>
    <linearGradient
       id="linearGradient3962">
      <stop
         offset="0"
         style="stop-color:#bdff69;stop-opacity:1;"
         id="stop3964" />
      <stop
         offset="0.25862265"
         style="stop-color:#8ed451;stop-opacity:1;"
         id="stop3966" />
      <stop
         offset="0.70788121"
         style="stop-color:#58aa30;stop-opacity:1;"
         id="stop3968" />
      <stop
         offset="1"
         style="stop-color:#2a6c1f;stop-opacity:1;"
         id="stop3970" />
    </linearGradient>
    <linearGradient
       id="linearGradient4039-9-8">
      <stop
         id="stop4041-5-5"
         style="stop-color:#126400;stop-opacity:1;"
         offset="0" />
      <stop
         id="stop4043-8-8"
         style="stop-color:#48bc2e;stop-opacity:1;"
         offset="1" />
    </linearGradient>
    <radialGradient
       cx="4.9929786"
       cy="43.5"
       r="2.5"
       fx="4.9929786"
       fy="43.5"
       id="radialGradient3038-6-1"
       xlink:href="#linearGradient3688-166-749-4-0"
       gradientUnits="userSpaceOnUse"
       gradientTransform="matrix(2.003784,0,0,1.4,27.98813,-17.4)" />
    <linearGradient
       id="linearGradient3688-166-749-4-0">
      <stop
         id="stop2883-1-6"
         style="stop-color:#181818;stop-opacity:1"
         offset="0" />
      <stop
         id="stop2885-5-9"
         style="stop-color:#181818;stop-opacity:0"
         offset="1" />
    </linearGradient>
    <radialGradient
       cx="4.9929786"
       cy="43.5"
       r="2.5"
       fx="4.9929786"
       fy="43.5"
       id="radialGradient3040-2-2"
       xlink:href="#linearGradient3688-464-309-9-1"
       gradientUnits="userSpaceOnUse"
       gradientTransform="matrix(2.003784,0,0,1.4,-20.01187,-104.4)" />
    <linearGradient
       id="linearGradient3688-464-309-9-1">
      <stop
         id="stop2889-2-8"
         style="stop-color:#181818;stop-opacity:1"
         offset="0" />
      <stop
         id="stop2891-2-0"
         style="stop-color:#181818;stop-opacity:0"
         offset="1" />
    </linearGradient>
    <linearGradient
       id="linearGradient3702-501-757-0-3">
      <stop
         id="stop2895-2-5"
         style="stop-color:#181818;stop-opacity:0"
         offset="0" />
      <stop
         id="stop2897-9-3"
         style="stop-color:#181818;stop-opacity:1"
         offset="0.5" />
      <stop
         id="stop2899-8-0"
         style="stop-color:#181818;stop-opacity:0"
         offset="1" />
    </linearGradient>
    <linearGradient
       y2="609.50507"
       x2="302.85715"
       y1="366.64789"
       x1="302.85715"
       gradientTransform="matrix(0.06732476,0,0,0.01468289,-0.34189201,37.050412)"
       gradientUnits="userSpaceOnUse"
       id="linearGradient4438-3"
       xlink:href="#linearGradient5048-9-1"
       inkscape:collect="always" />
    <linearGradient
       id="linearGradient5048-9-1">
      <stop
         id="stop5050-4-9"
         style="stop-color:#000000;stop-opacity:0"
         offset="0" />
      <stop
         id="stop5056-8-7"
         style="stop-color:#000000;stop-opacity:1"
         offset="0.5" />
      <stop
         id="stop5052-3-0"
         style="stop-color:#000000;stop-opacity:0"
         offset="1" />
    </linearGradient>
    <radialGradient
       cx="605.71429"
       cy="486.64789"
       r="117.14286"
       fx="605.71429"
       fy="486.64789"
       id="radialGradient3330-1"
       xlink:href="#linearGradient5060-4-3"
       gradientUnits="userSpaceOnUse"
       gradientTransform="matrix(-0.0230399,0,0,0.01468289,-20.914338,35.247052)" />
    <linearGradient
       id="linearGradient5060-4-3">
      <stop
         id="stop5062-5-0"
         style="stop-color:#000000;stop-opacity:1"
         offset="0" />
      <stop
         id="stop5064-7-6"
         style="stop-color:#000000;stop-opacity:0"
         offset="1" />
    </linearGradient>
    <radialGradient
       cx="605.71429"
       cy="486.64789"
       r="117.14286"
       fx="605.71429"
       fy="486.64789"
       id="radialGradient3327-1"
       xlink:href="#linearGradient5060-4-3"
       gradientUnits="userSpaceOnUse"
       gradientTransform="matrix(0.02303991,0,0,0.01468289,-16.176575,35.247052)" />
    <linearGradient
       id="linearGradient3300">
      <stop
         id="stop3302"
         style="stop-color:#000000;stop-opacity:1"
         offset="0" />
      <stop
         id="stop3304"
         style="stop-color:#000000;stop-opacity:0"
         offset="1" />
    </linearGradient>
    <radialGradient
       inkscape:collect="always"
       xlink:href="#linearGradient3242-7-5-0-3"
       id="radialGradient4367-1"
       gradientUnits="userSpaceOnUse"
       gradientTransform="matrix(7.2759681e-8,4.5321663,-4.4942924,5.2649749e-8,-39.751279,-98.581925)"
       cx="19.556362"
       cy="-3.8301377"
       fx="19.556362"
       fy="-3.8301377"
       r="18.246725" />
    <linearGradient
       id="linearGradient3242-7-5-0-3">
      <stop
         id="stop3244-6-7-3-3"
         style="stop-color:#f89b7e;stop-opacity:1"
         offset="0" />
      <stop
         id="stop3246-5-0-7-8"
         style="stop-color:#e35d4f;stop-opacity:1"
         offset="0.26238" />
      <stop
         id="stop3248-6-8-8-3"
         style="stop-color:#c6262e;stop-opacity:1"
         offset="0.66093999" />
      <stop
         id="stop3250-9-1-8-7"
         style="stop-color:#690b2c;stop-opacity:1"
         offset="1" />
    </linearGradient>
    <linearGradient
       gradientTransform="translate(-42.536656,-1.8033911)"
       inkscape:collect="always"
       xlink:href="#linearGradient2490-3-9-0-3-6"
       id="linearGradient4771-0"
       x1="25"
       y1="43"
       x2="25"
       y2="0.11503056"
       gradientUnits="userSpaceOnUse" />
    <linearGradient
       id="linearGradient2490-3-9-0-3-6">
      <stop
         id="stop2492-7-7-4-7-9"
         style="stop-color:#791235;stop-opacity:1"
         offset="0" />
      <stop
         id="stop2494-4-8-6-8-4"
         style="stop-color:#dd3b27;stop-opacity:1"
         offset="1" />
    </linearGradient>
    <linearGradient
       y2="43"
       x2="23.99999"
       y1="5.5641499"
       x1="23.99999"
       gradientTransform="matrix(0.89189031,0,0,1.1337975,-39.942346,-6.4871221)"
       gradientUnits="userSpaceOnUse"
       id="linearGradient4386-4"
       xlink:href="#linearGradient3977-5"
       inkscape:collect="always" />
    <linearGradient
       id="linearGradient3977-5">
      <stop
         id="stop3979-0"
         style="stop-color:#ffffff;stop-opacity:1"
         offset="0" />
      <stop
         id="stop3981-2"
         style="stop-color:#ffffff;stop-opacity:0.23529412"
         offset="0.03626217" />
      <stop
         id="stop3983-3"
         style="stop-color:#ffffff;stop-opacity:0.15686275"
         offset="0.95056331" />
      <stop
         id="stop3985-3"
         style="stop-color:#ffffff;stop-opacity:0.39215687"
         offset="1" />
    </linearGradient>
    <linearGradient
       y2="609.50507"
       x2="302.85715"
       y1="366.64789"
       x1="302.85715"
       gradientTransform="matrix(0.06732476,0,0,0.01468289,-42.878548,35.247022)"
       gradientUnits="userSpaceOnUse"
       id="linearGradient3331"
       xlink:href="#linearGradient5048-9-1"
       inkscape:collect="always" />
  </defs>
  <metadata
     id="metadata4301">
    <rdf:RDF>
      <cc:Work
         rdf:about="">
        <dc:format>image/svg+xml</dc:format>
        <dc:type
           rdf:resource="http://purl.org/dc/dcmitype/StillImage" />
        <dc:title />
      </cc:Work>
    </rdf:RDF>
  </metadata>
  <path
     sodipodi:nodetypes="ccccccc"
     id="path4572"
     d="m 33.535978,5.5514722 7.164051,7.2642408 2.760359,2.798955 0,-2.236258 -0.01558,-5.6218021 c -0.0089,-2.019363 0.0014,-2.2179291 0.0014,-2.2179291 z"
     style="color:#000000;fill:#791235;fill-opacity:1;stroke:#791235;stroke-width:0.99898480999999995;stroke-linecap:round;stroke-linejoin:round;stroke-miterlimit:4;stroke-opacity:1;stroke-dasharray:none;stroke-dashoffset:0;marker:none;visibility:visible;display:inline;overflow:visible;enable-background:accumulate"
     inkscape:connector-curvature="0" />
  <g
     transform="matrix(1.1578952,0,0,0.6428571,-3.789476,16.035716)"
     id="g3712-5-5"
     style="opacity:0.6">
    <rect
       width="5"
       height="7"
       x="38"
       y="40"
       id="rect2801-3-7"
       style="fill:url(#radialGradient3038-6);fill-opacity:1;stroke:none" />
    <rect
       width="5"
       height="7"
       x="-10"
       y="-47"
       transform="scale(-1,-1)"
       id="rect3696-6-3"
       style="fill:url(#radialGradient3040-2);fill-opacity:1;stroke:none" />
    <rect
       width="28"
       height="7.0000005"
       x="10"
       y="40"
       id="rect3700-4-2"
       style="fill:url(#linearGradient3986);fill-opacity:1;stroke:none" />
  </g>
  <path
     style="opacity:0.7;fill:none;stroke:#000000;stroke-width:1;stroke-linecap:round;stroke-linejoin:round;stroke-miterlimit:4;stroke-opacity:1;stroke-dasharray:none"
     d="m 4.514567,5.9041774 1.015e-4,0.1506966 0.025873,38.404585 38.892945,0.363636 0,-22.446472 -0.02597,-0.584415 L 33.38961,11.61039 27.285714,5.5194805 C 19.80461,5.4990265 12.032976,5.5158505 4.540541,5.5405405 l 0,0"
     id="path3071"
     inkscape:connector-curvature="0"
     sodipodi:nodetypes="cccccccccc" />
  <path
     inkscape:connector-curvature="0"
     id="path3841"
     d="m 5.02949,5.9474893 0,38.0230207 38.02302,0 0,-21.957523 -9.857143,-9.79277 -5.883481,-5.9444865 -0.324873,-0.3282412 -21.957523,0 0,0"
     style="opacity:0.9;fill:url(#radialGradient3880-0);fill-opacity:1;stroke:#791235;stroke-width:1;stroke-miterlimit:4;stroke-opacity:1;stroke-dasharray:none;stroke-linejoin:round;stroke-linecap:round"
     sodipodi:nodetypes="ccccccccc" />
  <path
     inkscape:connector-curvature="0"
     id="path3843"
     d="m 5.5003559,6.500355 0,36.999289 36.9992881,0 0,-21.21393 -9.701299,-9.928216 -5.824319,-5.857143 -21.4736701,0 0,0"
     style="opacity:1;fill:none;stroke:url(#linearGradient3851-0);stroke-width:1.00071179999999993;stroke-linecap:round;stroke-linejoin:round;stroke-miterlimit:4;stroke-opacity:1;stroke-dasharray:none"
     sodipodi:nodetypes="cccccccc" />
  <path
     inkscape:connector-curvature="0"
     d="m 24.23047,18.256515 a 0.61936085,0.61938456 0 0 0 -0.09766,0.01953 L 13.507812,20.151117 A 0.61936085,0.61938456 0 0 0 13,20.756609 l 0,13.750526 a 0.61936085,0.61938456 0 0 0 0.507812,0.605491 l 10.624998,1.875072 a 0.61936085,0.61938456 0 0 0 0.742187,-0.605493 l 0,-2.578222 0.429687,0.03906 a 0.61936085,0.61938456 0 0 0 0.01953,0 c 1.006206,0.07121 1.423197,0.05458 2.636718,-0.03906 1.052867,-0.08125 1.991441,-0.244121 2.753905,-0.449237 0.762465,-0.205115 1.359563,-0.4187 1.777344,-0.859406 l 0.273437,-0.292981 a 0.61936085,0.61938456 0 0 0 0.175781,-0.410171 l 0.03906,-1.26958 a 0.61936085,0.61938456 0 0 0 0,-0.01953 l 0.01953,-1.269579 a 0.61936085,0.61938456 0 0 0 -0.05859,-0.195321 0.61936085,0.61938456 0 0 0 0,-0.01953 l 0,-0.01953 0.03906,-1.26958 a 0.61936085,0.61938456 0 0 0 0,-0.01953 l 0.01953,-1.289111 a 0.61936085,0.61938456 0 0 0 -0.07813,-0.273448 0.61936085,0.61938456 0 0 0 0,-0.01953 0.61936085,0.61938456 0 0 0 0.01953,-0.03906 l 0.03906,-1.269579 a 0.61936085,0.61938456 0 0 0 0,-0.01953 l 0.01953,-1.269582 A 0.61936085,0.61938456 0 0 0 32.86328,23.139519 c 0.02409,-0.172726 0.04183,-0.343151 -0.01953,-0.507831 -0.168566,-0.452391 -0.530067,-0.702384 -0.9375,-0.918003 -0.407432,-0.215621 -0.913299,-0.387913 -1.484374,-0.527364 -1.142151,-0.278904 -2.576418,-0.442896 -4.121093,-0.429705 -0.216319,0.0021 -0.427046,0.01201 -0.625,0.01953 l -0.800781,0.01953 0,-1.914136 a 0.61936085,0.61938456 0 0 0 -0.644531,-0.625024 z m -5.292967,6.992457 0.136718,0 c 0.112795,0 0.109543,-0.0034 0.175781,0 0.01491,0.05441 0.03329,0.142131 0.05859,0.234383 a 0.61936085,0.61938456 0 0 0 -0.429687,-0.05859 c -3e-5,8e-6 -0.01549,-0.0015 -0.01953,0 0.0048,-0.01698 0.03558,-0.124493 0.03906,-0.136724 a 0.61936085,0.61938456 0 0 0 0.01953,0 l 0.01953,-0.03906 z m -0.917969,3.281375 c 0.07816,0.09302 0.151469,0.173166 0.234375,0.214851 l -0.05859,0 a 0.61936085,0.61938456 0 0 0 -0.253906,0.05859 c 0.02606,-0.09491 0.05112,-0.174747 0.07813,-0.273447 z m 2.128906,0.01953 c 0.03321,0.119556 0.06603,0.218381 0.09766,0.332044 a 0.61936085,0.61938456 0 0 0 -0.253906,-0.117191 0.61936085,0.61938456 0 0 0 0.15625,-0.214853 z"
     id="path3097"
     style="opacity:0.15;color:#000000;fill:#661215;fill-opacity:1;fill-rule:evenodd;stroke:none;stroke-width:1;marker:none;visibility:visible;display:inline;overflow:visible;enable-background:accumulate" />
  <path
     inkscape:connector-curvature="0"
     d="m 24.250001,18.881539 -10.624997,1.875072 0,13.750526 10.624997,1.87507 0,-17.500668 z m 2.050781,2.500096 c -0.19993,0.0019 -0.403053,0.01184 -0.605469,0.01953 l -0.820312,0.01953 0,1.582091 0,1.582092 0.3125,0.03906 c 0.623,0.07821 2.088637,0.05476 3.066406,-0.03906 2.63035,-0.25233 4.288314,-0.975058 4.003905,-1.738348 -0.319083,-0.856341 -2.958076,-1.49051 -5.95703,-1.4649 z m 6.074217,2.148519 -0.234375,0.273449 c -0.308779,0.371232 -1.161209,0.766255 -2.20703,0.996133 -0.646191,0.142033 -1.344309,0.195797 -2.949218,0.234384 l -2.109375,0.03906 0,1.230516 0,1.210984 2.050781,-0.05859 c 1.624589,-0.03846 2.258127,-0.09414 2.98828,-0.253916 1.053562,-0.230534 1.874365,-0.561699 2.1875,-0.898472 l 0.214844,-0.234383 0.03906,-1.26958 0.01953,-1.269582 z m -13.925778,1.093793 0.625,0 c 0.520588,0 0.644475,0.02431 0.683594,0.156257 0.026,0.08773 0.390075,1.434299 0.820312,2.988395 0.430238,1.554095 0.798519,2.867133 0.820312,2.929799 0.02887,0.08299 -0.108612,0.122433 -0.488281,0.117191 -0.286675,-0.0039 -0.565912,-0.0345 -0.625,-0.05859 -0.05906,-0.02409 -0.165974,-0.34968 -0.253906,-0.722684 l -0.175781,-0.664088 -0.820312,0 -0.839844,0 -0.136718,0.605492 -0.117188,0.625024 -0.585937,0.01953 -0.566406,0.01953 0.03906,-0.156255 c 0.02744,-0.09023 0.348881,-1.235725 0.703125,-2.53916 0.354244,-1.303435 0.706187,-2.568944 0.78125,-2.832138 l 0.136718,-0.488301 z m 0.585938,1.406304 c -0.02569,0.0071 -0.145631,0.402578 -0.273438,0.918004 -0.136318,0.549788 -0.266612,1.064656 -0.292968,1.152387 -0.04219,0.140396 0.02879,0.175789 0.546875,0.175789 l 0.585937,0 -0.273438,-1.07426 c -0.146918,-0.589053 -0.278831,-1.123453 -0.292968,-1.17192 z m 13.33984,0.39064 -0.273437,0.29298 c -0.713035,0.772187 -3.014208,1.258401 -5.839842,1.230515 l -1.328125,-0.01953 -0.03906,1.171919 -0.01953,1.17192 0.15625,0.05859 c 0.341499,0.103088 3.599998,-0.02834 4.414061,-0.175788 1.13641,-0.205838 2.177724,-0.557539 2.558594,-0.87894 l 0.3125,-0.273447 0.03906,-1.289113 0.01953,-1.289111 z m 0,2.812608 -0.273437,0.332043 c -0.665763,0.767083 -2.712075,1.219476 -5.585936,1.230515 l -1.640625,0 0,1.191452 0,1.191452 0.488281,0.03906 c 0.989134,0.07 1.34915,0.05427 2.558593,-0.03906 2.04673,-0.157948 3.609533,-0.573689 4.121093,-1.113324 l 0.273438,-0.29298 0.03906,-1.269579 0.01953,-1.269579 z"
     id="path4255-7"
     style="opacity:0.3;color:#000000;fill:#661215;fill-opacity:1;fill-rule:evenodd;stroke:none;stroke-width:1;marker:none;visibility:visible;display:inline;overflow:visible;enable-background:accumulate" />
  <path
     inkscape:connector-curvature="0"
     d="m 24.250001,18.256515 -10.624997,1.875072 0,13.750526 10.624997,1.87507 0,-17.500668 z m 2.050781,2.500096 c -0.19993,0.0019 -0.403053,0.01184 -0.605469,0.01953 l -0.820312,0.01953 0,1.582092 0,1.582092 0.3125,0.03906 c 0.623,0.07821 2.088637,0.05476 3.066406,-0.03906 2.63035,-0.25233 4.288314,-0.975057 4.003905,-1.738348 -0.319083,-0.856341 -2.958076,-1.490511 -5.95703,-1.4649 z m 6.074217,2.148519 -0.234375,0.273449 c -0.308779,0.371233 -1.161209,0.766254 -2.20703,0.996131 -0.646191,0.142034 -1.344309,0.195797 -2.949218,0.234384 l -2.109375,0.03906 0,1.230518 0,1.210983 2.050781,-0.05859 c 1.624589,-0.03846 2.258127,-0.09414 2.98828,-0.253916 1.053562,-0.230534 1.874365,-0.561699 2.1875,-0.898471 l 0.214844,-0.234384 0.03906,-1.269582 0.01953,-1.26958 z m -13.925778,1.093792 0.625,0 c 0.520588,0 0.644475,0.02431 0.683594,0.156256 0.026,0.08773 0.390075,1.434301 0.820312,2.988397 0.430238,1.554095 0.798519,2.867134 0.820312,2.929799 0.02887,0.08299 -0.108612,0.122433 -0.488281,0.117192 -0.286675,-0.0039 -0.565912,-0.0345 -0.625,-0.05859 -0.05906,-0.02409 -0.165974,-0.34968 -0.253906,-0.722684 l -0.175781,-0.664088 -0.820312,0 -0.839844,0 -0.136718,0.605492 -0.117188,0.625024 -0.585937,0.01953 -0.566406,0.01953 0.03906,-0.156256 c 0.02744,-0.09023 0.348881,-1.235725 0.703125,-2.539159 0.354244,-1.303436 0.706187,-2.568945 0.78125,-2.832141 l 0.136718,-0.4883 z m 0.585938,1.406306 c -0.02569,0.0071 -0.145631,0.402578 -0.273438,0.918003 -0.136318,0.549788 -0.266612,1.064656 -0.292968,1.152388 -0.04219,0.140395 0.02879,0.175788 0.546875,0.175788 l 0.585937,0 -0.273438,-1.07426 c -0.146918,-0.589053 -0.278831,-1.123453 -0.292968,-1.171919 z m 13.33984,0.390639 -0.273437,0.29298 c -0.713035,0.772187 -3.014208,1.258402 -5.839842,1.230516 l -1.328125,-0.01953 -0.03906,1.171919 -0.01953,1.17192 0.15625,0.05859 c 0.341499,0.103089 3.599998,-0.02834 4.414061,-0.175788 1.13641,-0.205838 2.177724,-0.557538 2.558594,-0.87894 l 0.3125,-0.273447 0.03906,-1.289112 0.01953,-1.289112 z m 0,2.812608 -0.273437,0.332043 c -0.665763,0.767083 -2.712075,1.219477 -5.585936,1.230516 l -1.640625,0 0,1.191451 0,1.191452 0.488281,0.03906 c 0.989134,0.07 1.34915,0.05427 2.558593,-0.03906 2.04673,-0.157948 3.609533,-0.573689 4.121093,-1.113324 l 0.273438,-0.292979 0.03906,-1.26958 0.01953,-1.269579 z"
     id="path4255"
     style="color:#000000;fill:#ffffff;fill-opacity:1;fill-rule:nonzero;stroke:none;stroke-width:0.99999994;marker:none;visibility:visible;display:inline;overflow:visible;enable-background:accumulate" />
</svg>
