<?xml version="1.0" encoding="UTF-8" standalone="no"?>
<!-- Created with Inkscape (http://www.inkscape.org/) -->

<svg
   xmlns:dc="http://purl.org/dc/elements/1.1/"
   xmlns:cc="http://creativecommons.org/ns#"
   xmlns:rdf="http://www.w3.org/1999/02/22-rdf-syntax-ns#"
   xmlns:svg="http://www.w3.org/2000/svg"
   xmlns="http://www.w3.org/2000/svg"
   xmlns:xlink="http://www.w3.org/1999/xlink"
   xmlns:sodipodi="http://sodipodi.sourceforge.net/DTD/sodipodi-0.dtd"
   xmlns:inkscape="http://www.inkscape.org/namespaces/inkscape"
   version="1.1"
   width="48"
   height="48"
   id="svg4296"
   inkscape:version="0.48.4 r9939"
   sodipodi:docname="libreoffice-calc.svg">
  <sodipodi:namedview
     pagecolor="#ffffff"
     bordercolor="#666666"
     borderopacity="1"
     objecttolerance="10"
     gridtolerance="10"
     guidetolerance="10"
     inkscape:pageopacity="0"
     inkscape:pageshadow="2"
     inkscape:window-width="1855"
     inkscape:window-height="1056"
     id="namedview66"
     showgrid="true"
     inkscape:zoom="19.25"
     inkscape:cx="24"
     inkscape:cy="3.2207792"
     inkscape:window-x="65"
     inkscape:window-y="24"
     inkscape:window-maximized="1"
     inkscape:current-layer="svg4296"
     showguides="true"
     inkscape:guide-bbox="true"
     inkscape:snap-global="false">
    <inkscape:grid
       type="xygrid"
       id="grid3069" />
  </sodipodi:namedview>
  <defs
     id="defs4298">
    <linearGradient
       id="linearGradient3882">
      <stop
         offset="0"
         style="stop-color:#505050;stop-opacity:1"
         id="stop3884" />
      <stop
         offset="0.27499998"
         style="stop-color:#2b2b2b;stop-opacity:1"
         id="stop3886" />
      <stop
         offset="0.80000001"
         style="stop-color:#0a0a0a;stop-opacity:1"
         id="stop3888" />
      <stop
         offset="1"
         style="stop-color:#000000;stop-opacity:1"
         id="stop3890" />
    </linearGradient>
    <linearGradient
       id="linearGradient3895">
      <stop
         id="stop3897"
         style="stop-color:#ffffff;stop-opacity:1"
         offset="0" />
      <stop
         id="stop3899"
         style="stop-color:#ffffff;stop-opacity:0.23529412"
         offset="0.05263157" />
      <stop
         id="stop3901"
         style="stop-color:#ffffff;stop-opacity:0.15686275"
         offset="0.95056331" />
      <stop
         id="stop3903"
         style="stop-color:#ffffff;stop-opacity:0.39215687"
         offset="1" />
    </linearGradient>
    <linearGradient
       x1="20"
       y1="26.000008"
       x2="20"
       y2="13.000008"
       id="linearGradient4183"
       xlink:href="#linearGradient3680-6-6-6-3"
       gradientUnits="userSpaceOnUse"
       gradientTransform="translate(0,0.9999922)" />
    <linearGradient
       id="linearGradient3680-6-6-6-3">
      <stop
         id="stop3682-4-6-1-3"
         style="stop-color:#dcdcdc;stop-opacity:1"
         offset="0" />
      <stop
         id="stop3684-8-5-8-0"
         style="stop-color:#ffffff;stop-opacity:1"
         offset="1" />
    </linearGradient>
    <linearGradient
       x1="23.99999"
       y1="4.999989"
       x2="23.99999"
       y2="43"
       id="linearGradient3982"
       xlink:href="#linearGradient3924-1"
       gradientUnits="userSpaceOnUse"
       gradientTransform="translate(4e-6,1.0000062)" />
    <linearGradient
       id="linearGradient3924-1">
      <stop
         id="stop3926-3"
         style="stop-color:#ffffff;stop-opacity:1"
         offset="0" />
      <stop
         id="stop3928-91"
         style="stop-color:#ffffff;stop-opacity:0.23529412"
         offset="0.06316455" />
      <stop
         id="stop3930-6"
         style="stop-color:#ffffff;stop-opacity:0.15686275"
         offset="0.95056331" />
      <stop
         id="stop3932-6"
         style="stop-color:#ffffff;stop-opacity:0.39215687"
         offset="1" />
    </linearGradient>
    <radialGradient
       cx="4.9929786"
       cy="43.5"
       r="2.5"
       fx="4.9929786"
       fy="43.5"
       id="radialGradient3963"
       xlink:href="#linearGradient3688-166-749"
       gradientUnits="userSpaceOnUse"
       gradientTransform="matrix(2.003784,0,0,1.4,27.98813,-17.4)" />
    <linearGradient
       id="linearGradient3688-166-749">
      <stop
         id="stop2883"
         style="stop-color:#181818;stop-opacity:1"
         offset="0" />
      <stop
         id="stop2885"
         style="stop-color:#181818;stop-opacity:0"
         offset="1" />
    </linearGradient>
    <radialGradient
       cx="4.9929786"
       cy="43.5"
       r="2.5"
       fx="4.9929786"
       fy="43.5"
       id="radialGradient3965"
       xlink:href="#linearGradient3688-464-309"
       gradientUnits="userSpaceOnUse"
       gradientTransform="matrix(2.003784,0,0,1.4,-20.01187,-104.4)" />
    <linearGradient
       id="linearGradient3688-464-309">
      <stop
         id="stop2889"
         style="stop-color:#181818;stop-opacity:1"
         offset="0" />
      <stop
         id="stop2891"
         style="stop-color:#181818;stop-opacity:0"
         offset="1" />
    </linearGradient>
    <linearGradient
       x1="25.058096"
       y1="47.027729"
       x2="25.058096"
       y2="39.999443"
       id="linearGradient3967"
       xlink:href="#linearGradient3702-501-757"
       gradientUnits="userSpaceOnUse" />
    <linearGradient
       id="linearGradient3702-501-757">
      <stop
         id="stop2895"
         style="stop-color:#181818;stop-opacity:0"
         offset="0" />
      <stop
         id="stop2897"
         style="stop-color:#181818;stop-opacity:1"
         offset="0.5" />
      <stop
         id="stop2899"
         style="stop-color:#181818;stop-opacity:0"
         offset="1" />
    </linearGradient>
    <linearGradient
       x1="20"
       y1="26.000008"
       x2="20"
       y2="13.000008"
       id="linearGradient3018"
       xlink:href="#linearGradient3680-6-6-6-3"
       gradientUnits="userSpaceOnUse"
       gradientTransform="translate(0,0.9999922)" />
    <linearGradient
       x1="23.99999"
       y1="4.9999938"
       x2="23.99999"
       y2="43"
       id="linearGradient3024"
       xlink:href="#linearGradient3895"
       gradientUnits="userSpaceOnUse"
       gradientTransform="translate(6.9947737,-2.8731308)" />
    <radialGradient
       cx="4.9929786"
       cy="43.5"
       r="2.5"
       fx="4.9929786"
       fy="43.5"
       id="radialGradient3038"
       xlink:href="#linearGradient3688-166-749"
       gradientUnits="userSpaceOnUse"
       gradientTransform="matrix(2.003784,0,0,1.4,27.98813,-17.4)" />
    <radialGradient
       cx="4.9929786"
       cy="43.5"
       r="2.5"
       fx="4.9929786"
       fy="43.5"
       id="radialGradient3040"
       xlink:href="#linearGradient3688-464-309"
       gradientUnits="userSpaceOnUse"
       gradientTransform="matrix(2.003784,0,0,1.4,-20.01187,-104.4)" />
    <linearGradient
       x1="25.058096"
       y1="47.027729"
       x2="25.058096"
       y2="39.999443"
       id="linearGradient3042"
       xlink:href="#linearGradient3702-501-757"
       gradientUnits="userSpaceOnUse" />
    <radialGradient
       cx="6.7304144"
       cy="9.9571075"
       r="12.671875"
       fx="6.2001843"
       fy="9.9571075"
       id="radialGradient3031"
       xlink:href="#linearGradient2867-449-88-871-390-598-476-591-434-148-57-177-8-3-3-6-4-8-8-8"
       gradientUnits="userSpaceOnUse"
       gradientTransform="matrix(0,9.4975523,-11.65996,0,140.93055,-79.160978)" />
    <linearGradient
       id="linearGradient2867-449-88-871-390-598-476-591-434-148-57-177-8-3-3-6-4-8-8-8">
      <stop
         id="stop3750-1-0-7-6-6-1-3-9"
         style="stop-color:#ffcd7d;stop-opacity:1"
         offset="0" />
      <stop
         id="stop3752-3-7-4-0-32-8-923-0"
         style="stop-color:#fc8f36;stop-opacity:1"
         offset="0.26238" />
      <stop
         id="stop3754-1-8-5-2-7-6-7-1"
         style="stop-color:#e23a0e;stop-opacity:1"
         offset="0.704952" />
      <stop
         id="stop3756-1-6-2-6-6-1-96-6"
         style="stop-color:#ac441f;stop-opacity:1"
         offset="1" />
    </linearGradient>
    <radialGradient
       cx="7.1183534"
       cy="9.9571075"
       r="12.671875"
       fx="7.1183534"
       fy="9.9571075"
       id="radialGradient3054-6"
       xlink:href="#linearGradient2867-449-88-871-390-598-476-591-434-148-57-177-8-3-3-6-4-8-8-8-5"
       gradientUnits="userSpaceOnUse"
       gradientTransform="matrix(0,9.1402449,-11.221301,0,136.56278,-77.887535)" />
    <linearGradient
       id="linearGradient2867-449-88-871-390-598-476-591-434-148-57-177-8-3-3-6-4-8-8-8-5">
      <stop
         id="stop3750-1-0-7-6-6-1-3-9-3"
         style="stop-color:#505050;stop-opacity:1"
         offset="0" />
      <stop
         id="stop3752-3-7-4-0-32-8-923-0-7"
         style="stop-color:#2b2b2b;stop-opacity:1"
         offset="0.26238" />
      <stop
         id="stop3754-1-8-5-2-7-6-7-1-9"
         style="stop-color:#0a0a0a;stop-opacity:1"
         offset="0.704952" />
      <stop
         id="stop3756-1-6-2-6-6-1-96-6-0"
         style="stop-color:#000000;stop-opacity:1"
         offset="1" />
    </linearGradient>
    <radialGradient
       cx="6.7304144"
       cy="9.9571075"
       r="12.671875"
       fx="6.2001843"
       fy="9.9571075"
       id="radialGradient3077"
       xlink:href="#linearGradient2867-449-88-871-390-598-476-591-434-148-57-177-8-3-3-6-4-8-8-8-5"
       gradientUnits="userSpaceOnUse"
       gradientTransform="matrix(0,9.4975523,-11.65996,0,136.43054,-84.660973)" />
    <linearGradient
       x1="20"
       y1="26.000008"
       x2="20"
       y2="13.000008"
       id="linearGradient3018-5"
       xlink:href="#linearGradient3680-6-6-6-3-7"
       gradientUnits="userSpaceOnUse"
       gradientTransform="translate(0,0.9999922)" />
    <linearGradient
       id="linearGradient3680-6-6-6-3-7">
      <stop
         id="stop3682-4-6-1-3-7"
         style="stop-color:#dcdcdc;stop-opacity:1"
         offset="0" />
      <stop
         id="stop3684-8-5-8-0-2"
         style="stop-color:#ffffff;stop-opacity:1"
         offset="1" />
    </linearGradient>
    <linearGradient
       x1="20"
       y1="26.000008"
       x2="20"
       y2="13.000008"
       id="linearGradient3950"
       xlink:href="#linearGradient3680-6-6-6-3-7"
       gradientUnits="userSpaceOnUse"
       gradientTransform="translate(-20,-24.000008)" />
    <radialGradient
       cx="7.1183534"
       cy="9.9571075"
       r="12.671875"
       fx="7.1183534"
       fy="9.9571075"
       id="radialGradient3054-6-8"
       xlink:href="#linearGradient2867-449-88-871-390-598-476-591-434-148-57-177-8-3-3-6-4-8-8-8-5-8"
       gradientUnits="userSpaceOnUse"
       gradientTransform="matrix(0,9.1402449,-11.221301,0,136.56278,-77.887535)" />
    <linearGradient
       id="linearGradient2867-449-88-871-390-598-476-591-434-148-57-177-8-3-3-6-4-8-8-8-5-8">
      <stop
         id="stop3750-1-0-7-6-6-1-3-9-3-8"
         style="stop-color:#505050;stop-opacity:1"
         offset="0" />
      <stop
         id="stop3752-3-7-4-0-32-8-923-0-7-6"
         style="stop-color:#2b2b2b;stop-opacity:1"
         offset="0.26238" />
      <stop
         id="stop3754-1-8-5-2-7-6-7-1-9-3"
         style="stop-color:#0a0a0a;stop-opacity:1"
         offset="0.704952" />
      <stop
         id="stop3756-1-6-2-6-6-1-96-6-0-3"
         style="stop-color:#000000;stop-opacity:1"
         offset="1" />
    </linearGradient>
    <radialGradient
       cx="7.1183534"
       cy="9.9571075"
       r="12.671875"
       fx="7.1183534"
       fy="9.9571075"
       id="radialGradient3054-6-0"
       xlink:href="#linearGradient2867-449-88-871-390-598-476-591-434-148-57-177-8-3-3-6-4-8-8-8-5-6"
       gradientUnits="userSpaceOnUse"
       gradientTransform="matrix(0,9.1402449,-11.221301,0,136.56278,-77.887535)" />
    <linearGradient
       id="linearGradient2867-449-88-871-390-598-476-591-434-148-57-177-8-3-3-6-4-8-8-8-5-6">
      <stop
         id="stop3750-1-0-7-6-6-1-3-9-3-2"
         style="stop-color:#505050;stop-opacity:1"
         offset="0" />
      <stop
         id="stop3752-3-7-4-0-32-8-923-0-7-1"
         style="stop-color:#2b2b2b;stop-opacity:1"
         offset="0.26238" />
      <stop
         id="stop3754-1-8-5-2-7-6-7-1-9-5"
         style="stop-color:#0a0a0a;stop-opacity:1"
         offset="0.704952" />
      <stop
         id="stop3756-1-6-2-6-6-1-96-6-0-6"
         style="stop-color:#000000;stop-opacity:1"
         offset="1" />
    </linearGradient>
    <linearGradient
       inkscape:collect="always"
       xlink:href="#linearGradient3924-1-2"
       id="linearGradient3851-0"
       x1="65"
       y1="6"
       x2="65"
       y2="50"
       gradientUnits="userSpaceOnUse"
       gradientTransform="matrix(1.0007118,0,0,1.0007117,-48.147587,-3.0259508)" />
    <linearGradient
       id="linearGradient3924-1-2">
      <stop
         id="stop3926-3-8"
         style="stop-color:#ffffff;stop-opacity:1"
         offset="0" />
      <stop
         id="stop3928-91-2"
         style="stop-color:#ffffff;stop-opacity:0.23529412"
         offset="0.06316455" />
      <stop
         id="stop3930-6-8"
         style="stop-color:#ffffff;stop-opacity:0.15686275"
         offset="0.95056331" />
      <stop
         id="stop3932-6-6"
         style="stop-color:#ffffff;stop-opacity:0.39215687"
         offset="1" />
    </linearGradient>
    <radialGradient
       inkscape:collect="always"
       xlink:href="#linearGradient3962"
       id="radialGradient3880-0"
       cx="-11.470183"
       cy="25.883497"
       fx="-11.470183"
       fy="25.883497"
       r="19.459459"
       gradientUnits="userSpaceOnUse"
       gradientTransform="matrix(3.1408481e-7,5.7736826,-5.7736827,8.6873673e-8,175.19382,55.035924)" />
    <linearGradient
       id="linearGradient3882-6">
      <stop
         offset="0"
         style="stop-color:#505050;stop-opacity:1"
         id="stop3884-2" />
      <stop
         offset="0.27272725"
         style="stop-color:#2b2b2b;stop-opacity:1"
         id="stop3886-2" />
      <stop
         offset="0.69565219"
         style="stop-color:#0a0a0a;stop-opacity:1"
         id="stop3888-0" />
      <stop
         offset="1"
         style="stop-color:#000000;stop-opacity:1"
         id="stop3890-8" />
    </linearGradient>
    <radialGradient
       cx="4.9929786"
       cy="43.5"
       r="2.5"
       fx="4.9929786"
       fy="43.5"
       id="radialGradient3038-6"
       xlink:href="#linearGradient3688-166-749-4"
       gradientUnits="userSpaceOnUse"
       gradientTransform="matrix(2.003784,0,0,1.4,27.98813,-17.4)" />
    <linearGradient
       id="linearGradient3688-166-749-4">
      <stop
         id="stop2883-1"
         style="stop-color:#181818;stop-opacity:1"
         offset="0" />
      <stop
         id="stop2885-5"
         style="stop-color:#181818;stop-opacity:0"
         offset="1" />
    </linearGradient>
    <radialGradient
       cx="4.9929786"
       cy="43.5"
       r="2.5"
       fx="4.9929786"
       fy="43.5"
       id="radialGradient3040-2"
       xlink:href="#linearGradient3688-464-309-9"
       gradientUnits="userSpaceOnUse"
       gradientTransform="matrix(2.003784,0,0,1.4,-20.01187,-104.4)" />
    <linearGradient
       id="linearGradient3688-464-309-9">
      <stop
         id="stop2889-2"
         style="stop-color:#181818;stop-opacity:1"
         offset="0" />
      <stop
         id="stop2891-2"
         style="stop-color:#181818;stop-opacity:0"
         offset="1" />
    </linearGradient>
    <linearGradient
       y2="39.999443"
       x2="25.058096"
       y1="47.027729"
       x1="25.058096"
       gradientUnits="userSpaceOnUse"
       id="linearGradient3974"
       xlink:href="#linearGradient3702-501-757-0"
       inkscape:collect="always" />
    <linearGradient
       id="linearGradient3702-501-757-0">
      <stop
         id="stop2895-2"
         style="stop-color:#181818;stop-opacity:0"
         offset="0" />
      <stop
         id="stop2897-9"
         style="stop-color:#181818;stop-opacity:1"
         offset="0.5" />
      <stop
         id="stop2899-8"
         style="stop-color:#181818;stop-opacity:0"
         offset="1" />
    </linearGradient>
    <linearGradient
       y2="39.999443"
       x2="25.058096"
       y1="47.027729"
       x1="25.058096"
       gradientUnits="userSpaceOnUse"
       id="linearGradient3986"
       xlink:href="#linearGradient3702-501-757-0"
       inkscape:collect="always" />
    <linearGradient
       y2="609.50507"
       x2="302.85715"
       y1="366.64789"
       x1="302.85715"
       gradientTransform="matrix(0.06732476,0,0,0.01468289,-0.34189201,37.050412)"
       gradientUnits="userSpaceOnUse"
       id="linearGradient4438"
       xlink:href="#linearGradient5048-9"
       inkscape:collect="always" />
    <linearGradient
       id="linearGradient5048-9">
      <stop
         id="stop5050-4"
         style="stop-color:#000000;stop-opacity:0"
         offset="0" />
      <stop
         id="stop5056-8"
         style="stop-color:#000000;stop-opacity:1"
         offset="0.5" />
      <stop
         id="stop5052-3"
         style="stop-color:#000000;stop-opacity:0"
         offset="1" />
    </linearGradient>
    <radialGradient
       cx="605.71429"
       cy="486.64789"
       r="117.14286"
       fx="605.71429"
       fy="486.64789"
       id="radialGradient3330"
       xlink:href="#linearGradient5060-4"
       gradientUnits="userSpaceOnUse"
       gradientTransform="matrix(-0.0230399,0,0,0.01468289,16.753612,37.053552)" />
    <linearGradient
       id="linearGradient5060-4">
      <stop
         id="stop5062-5"
         style="stop-color:#000000;stop-opacity:1"
         offset="0" />
      <stop
         id="stop5064-7"
         style="stop-color:#000000;stop-opacity:0"
         offset="1" />
    </linearGradient>
    <radialGradient
       cx="605.71429"
       cy="486.64789"
       r="117.14286"
       fx="605.71429"
       fy="486.64789"
       id="radialGradient3327"
       xlink:href="#linearGradient5060-4"
       gradientUnits="userSpaceOnUse"
       gradientTransform="matrix(0.02303991,0,0,0.01468289,21.491375,37.053552)" />
    <linearGradient
       id="linearGradient3216">
      <stop
         id="stop3218"
         style="stop-color:#000000;stop-opacity:1"
         offset="0" />
      <stop
         id="stop3220"
         style="stop-color:#000000;stop-opacity:0"
         offset="1" />
    </linearGradient>
    <radialGradient
       inkscape:collect="always"
       xlink:href="#linearGradient2867-449-88-871-390-598-476-591-434-148-57-177-8-3-5-6"
       id="radialGradient4367"
       gradientUnits="userSpaceOnUse"
       gradientTransform="matrix(7.2759681e-8,4.5321663,-4.4942924,5.2649749e-8,-2.083329,-96.775425)"
       cx="19.556362"
       cy="-3.8301377"
       fx="19.556362"
       fy="-3.8301377"
       r="18.246725" />
    <linearGradient
       id="linearGradient2867-449-88-871-390-598-476-591-434-148-57-177-8-3-5-6">
      <stop
         id="stop3750-1-0-6-9"
         style="stop-color:#ffffff;stop-opacity:1;"
         offset="0" />
      <stop
         id="stop3752-3-7-8-3"
         style="stop-color:#dfdfdf;stop-opacity:1;"
         offset="0.26238" />
      <stop
         id="stop3754-1-8-5-8"
         style="stop-color:#cacaca;stop-opacity:1;"
         offset="0.704952" />
      <stop
         id="stop3756-1-6-3-7"
         style="stop-color:#afafaf;stop-opacity:1;"
         offset="1" />
    </linearGradient>
    <linearGradient
       gradientTransform="translate(-4.8687058,0.00310967)"
       inkscape:collect="always"
       xlink:href="#linearGradient2490-3-9-0-3"
       id="linearGradient4771"
       x1="25"
       y1="43"
       x2="25"
       y2="0.11503056"
       gradientUnits="userSpaceOnUse" />
    <linearGradient
       id="linearGradient2490-3-9-0-3">
      <stop
         id="stop2492-7-7-4-7"
         style="stop-color:#000000;stop-opacity:1;"
         offset="0" />
      <stop
         id="stop2494-4-8-6-8"
         style="stop-color:#3f3f3f;stop-opacity:1;"
         offset="1" />
    </linearGradient>
    <linearGradient
       y2="43"
       x2="23.99999"
       y1="5.5641499"
       x1="23.99999"
       gradientTransform="matrix(0.89189031,0,0,1.1337975,-2.274396,-4.680621)"
       gradientUnits="userSpaceOnUse"
       id="linearGradient4386"
       xlink:href="#linearGradient3977"
       inkscape:collect="always" />
    <linearGradient
       id="linearGradient3977">
      <stop
         id="stop3979"
         style="stop-color:#ffffff;stop-opacity:1"
         offset="0" />
      <stop
         id="stop3981"
         style="stop-color:#ffffff;stop-opacity:0.23529412"
         offset="0.03626217" />
      <stop
         id="stop3983"
         style="stop-color:#ffffff;stop-opacity:0.15686275"
         offset="0.95056331" />
      <stop
         id="stop3985"
         style="stop-color:#ffffff;stop-opacity:0.39215687"
         offset="1" />
    </linearGradient>
    <linearGradient
       y2="609.50507"
       x2="302.85715"
       y1="366.64789"
       x1="302.85715"
       gradientTransform="matrix(0.06732476,0,0,0.01468289,-5.2105978,37.053522)"
       gradientUnits="userSpaceOnUse"
       id="linearGradient3244"
       xlink:href="#linearGradient5048-9"
       inkscape:collect="always" />
    <linearGradient
       inkscape:collect="always"
       xlink:href="#linearGradient5048-9"
       id="linearGradient4601"
       gradientUnits="userSpaceOnUse"
       gradientTransform="matrix(0.06732476,0,0,0.01468289,1.671095,42.063399)"
       x1="302.85715"
       y1="366.64789"
       x2="302.85715"
       y2="609.50507" />
    <radialGradient
       inkscape:collect="always"
       xlink:href="#linearGradient5060-4"
       id="radialGradient4603"
       gradientUnits="userSpaceOnUse"
       gradientTransform="matrix(-0.0230399,0,0,0.01468289,23.635305,42.063429)"
       cx="605.71429"
       cy="486.64789"
       fx="605.71429"
       fy="486.64789"
       r="117.14286" />
    <radialGradient
       inkscape:collect="always"
       xlink:href="#linearGradient5060-4"
       id="radialGradient4605"
       gradientUnits="userSpaceOnUse"
       gradientTransform="matrix(0.02303991,0,0,0.01468289,28.373068,42.063429)"
       cx="605.71429"
       cy="486.64789"
       fx="605.71429"
       fy="486.64789"
       r="117.14286" />
    <radialGradient
       inkscape:collect="always"
       xlink:href="#linearGradient2867-449-88-871-390-598-476-591-434-148-57-177-8-3-5-6"
       id="radialGradient4607"
       gradientUnits="userSpaceOnUse"
       gradientTransform="matrix(7.2759681e-8,4.5321663,-4.4942924,5.2649749e-8,4.7983638,-91.765553)"
       cx="19.556362"
       cy="-3.8301377"
       fx="19.556362"
       fy="-3.8301377"
       r="18.246725" />
    <linearGradient
       inkscape:collect="always"
       xlink:href="#linearGradient2490-3-9-0-3"
       id="linearGradient4609"
       gradientUnits="userSpaceOnUse"
       gradientTransform="translate(2.012987,5.012987)"
       x1="25"
       y1="43"
       x2="25"
       y2="0.11503056" />
    <linearGradient
       inkscape:collect="always"
       xlink:href="#linearGradient3977"
       id="linearGradient4611"
       gradientUnits="userSpaceOnUse"
       gradientTransform="matrix(0.89189031,0,0,1.1337975,4.6072968,0.32925602)"
       x1="23.99999"
       y1="5.5641499"
       x2="23.99999"
       y2="43" />
    <linearGradient
       id="linearGradient3977-5-4">
      <stop
         id="stop3979-6-0"
         style="stop-color:#ffffff;stop-opacity:1"
         offset="0" />
      <stop
         id="stop3981-7-4"
         style="stop-color:#ffffff;stop-opacity:0.23529412"
         offset="0.03626217" />
      <stop
         id="stop3983-4-4"
         style="stop-color:#ffffff;stop-opacity:0.15686275"
         offset="0.95056331" />
      <stop
         id="stop3985-8-4"
         style="stop-color:#ffffff;stop-opacity:0.39215687"
         offset="1" />
    </linearGradient>
    <linearGradient
       id="linearGradient3962">
      <stop
         offset="0"
         style="stop-color:#bdff69;stop-opacity:1;"
         id="stop3964" />
      <stop
         offset="0.25862265"
         style="stop-color:#8ed451;stop-opacity:1;"
         id="stop3966" />
      <stop
         offset="0.70788121"
         style="stop-color:#58aa30;stop-opacity:1;"
         id="stop3968" />
      <stop
         offset="1"
         style="stop-color:#2a6c1f;stop-opacity:1;"
         id="stop3970" />
    </linearGradient>
    <linearGradient
       id="linearGradient4039-9-8">
      <stop
         id="stop4041-5-5"
         style="stop-color:#126400;stop-opacity:1;"
         offset="0" />
      <stop
         id="stop4043-8-8"
         style="stop-color:#48bc2e;stop-opacity:1;"
         offset="1" />
    </linearGradient>
    <radialGradient
       cx="4.9929786"
       cy="43.5"
       r="2.5"
       fx="4.9929786"
       fy="43.5"
       id="radialGradient3038-6-1"
       xlink:href="#linearGradient3688-166-749-4-0"
       gradientUnits="userSpaceOnUse"
       gradientTransform="matrix(2.003784,0,0,1.4,27.98813,-17.4)" />
    <linearGradient
       id="linearGradient3688-166-749-4-0">
      <stop
         id="stop2883-1-6"
         style="stop-color:#181818;stop-opacity:1"
         offset="0" />
      <stop
         id="stop2885-5-9"
         style="stop-color:#181818;stop-opacity:0"
         offset="1" />
    </linearGradient>
    <radialGradient
       cx="4.9929786"
       cy="43.5"
       r="2.5"
       fx="4.9929786"
       fy="43.5"
       id="radialGradient3040-2-2"
       xlink:href="#linearGradient3688-464-309-9-1"
       gradientUnits="userSpaceOnUse"
       gradientTransform="matrix(2.003784,0,0,1.4,-20.01187,-104.4)" />
    <linearGradient
       id="linearGradient3688-464-309-9-1">
      <stop
         id="stop2889-2-8"
         style="stop-color:#181818;stop-opacity:1"
         offset="0" />
      <stop
         id="stop2891-2-0"
         style="stop-color:#181818;stop-opacity:0"
         offset="1" />
    </linearGradient>
    <linearGradient
       id="linearGradient3702-501-757-0-3">
      <stop
         id="stop2895-2-5"
         style="stop-color:#181818;stop-opacity:0"
         offset="0" />
      <stop
         id="stop2897-9-3"
         style="stop-color:#181818;stop-opacity:1"
         offset="0.5" />
      <stop
         id="stop2899-8-0"
         style="stop-color:#181818;stop-opacity:0"
         offset="1" />
    </linearGradient>
  </defs>
  <metadata
     id="metadata4301">
    <rdf:RDF>
      <cc:Work
         rdf:about="">
        <dc:format>image/svg+xml</dc:format>
        <dc:type
           rdf:resource="http://purl.org/dc/dcmitype/StillImage" />
        <dc:title />
      </cc:Work>
    </rdf:RDF>
  </metadata>
  <path
     sodipodi:nodetypes="ccccccc"
     id="path4572"
     d="m 33.535978,5.5514722 7.164051,7.2642408 2.760359,2.798955 0,-2.236258 -0.01558,-5.6218021 c -0.0089,-2.019363 0.0014,-2.2179291 0.0014,-2.2179291 z"
     style="color:#000000;fill:#126400;fill-opacity:1;stroke:#126400;stroke-width:0.99898480999999995;stroke-linecap:round;stroke-linejoin:round;stroke-miterlimit:4;stroke-opacity:1;stroke-dasharray:none;stroke-dashoffset:0;marker:none;visibility:visible;display:inline;overflow:visible;enable-background:accumulate"
     inkscape:connector-curvature="0" />
  <g
     transform="matrix(1.1578952,0,0,0.6428571,-3.789476,16.035716)"
     id="g3712-5-5"
     style="opacity:0.6">
    <rect
       width="5"
       height="7"
       x="38"
       y="40"
       id="rect2801-3-7"
       style="fill:url(#radialGradient3038-6);fill-opacity:1;stroke:none" />
    <rect
       width="5"
       height="7"
       x="-10"
       y="-47"
       transform="scale(-1,-1)"
       id="rect3696-6-3"
       style="fill:url(#radialGradient3040-2);fill-opacity:1;stroke:none" />
    <rect
       width="28"
       height="7.0000005"
       x="10"
       y="40"
       id="rect3700-4-2"
       style="fill:url(#linearGradient3986);fill-opacity:1;stroke:none" />
  </g>
  <path
     style="opacity:0.7;fill:none;stroke:#000000;stroke-width:1;stroke-linecap:round;stroke-linejoin:round;stroke-miterlimit:4;stroke-opacity:1;stroke-dasharray:none"
     d="m 4.514567,5.9041774 1.015e-4,0.1506966 0.025873,38.404585 38.892945,0.363636 0,-22.446472 -0.02597,-0.584415 L 33.38961,11.61039 27.285714,5.5194805 C 19.80461,5.4990265 12.032976,5.5158505 4.540541,5.5405405 l 0,0"
     id="path3071"
     inkscape:connector-curvature="0"
     sodipodi:nodetypes="cccccccccc" />
  <path
     inkscape:connector-curvature="0"
     id="path3841"
     d="m 5.02949,5.9474893 0,38.0230207 38.02302,0 0,-21.957523 -9.857143,-9.79277 -5.883481,-5.9444865 -0.324873,-0.3282412 -21.957523,0 0,0"
     style="opacity:0.9;fill:url(#radialGradient3880-0);fill-opacity:1;stroke:#126400;stroke-width:1;stroke-miterlimit:4;stroke-opacity:1;stroke-dasharray:none;stroke-linejoin:round;stroke-linecap:round"
     sodipodi:nodetypes="ccccccccc" />
  <path
     inkscape:connector-curvature="0"
     id="path3843"
     d="m 5.5003559,6.500355 0,36.999289 36.9992881,0 0,-21.21393 -9.701299,-9.928216 -5.824319,-5.857143 -21.4736701,0 0,0"
     style="opacity:1;fill:none;stroke:url(#linearGradient3851-0);stroke-width:1.00071179999999993;stroke-linecap:round;stroke-linejoin:round;stroke-miterlimit:4;stroke-opacity:1;stroke-dasharray:none"
     sodipodi:nodetypes="cccccccc" />
  <path
     transform="matrix(0.62622287,0,0,0.62622287,2.9608716,7.5801586)"
     sodipodi:type="inkscape:offset"
     inkscape:radius="0.97811615"
     inkscape:original="M 34 18 L 17 21 L 17 43 L 34 46 L 34 18 z M 35 21 L 35 22 L 39 22 L 39 25 L 35 25 L 35 26 L 39 26 L 39 29 L 35 29 L 35 30 L 39 30 L 39 33 L 35 33 L 35 34 L 39 34 L 39 37 L 35 37 L 35 38 L 39 38 L 39 41 L 35 41 L 35 43 L 47 43 L 47 21 L 35 21 z M 40 22 L 45 22 L 45 25 L 40 25 L 40 22 z M 40 26 L 45 26 L 45 29 L 40 29 L 40 26 z M 28.65625 26.71875 C 28.83787 26.71515 28.93759 26.71115 28.9375 26.71875 C 28.93736 26.73393 28.42606 27.896309 27.78125 29.28125 L 26.59375 31.78125 L 27.78125 34.28125 C 28.42606 35.64762 28.9375 36.81781 28.9375 36.875 C 28.9375 36.99509 28.07588 36.97505 27.34375 36.84375 C 26.85913 36.75685 26.83491 36.70245 26.21875 35.15625 C 25.86762 34.275105 25.52788 33.499132 25.46875 33.4375 C 25.40965 33.37587 25.06664 34.043573 24.71875 34.90625 C 24.37086 35.76892 24.04707 36.510649 24 36.5625 C 23.9529 36.6144 23.52516 36.6144 23.03125 36.5625 L 22.125 36.46875 L 23.21875 34.15625 L 24.3125 31.84375 L 23.34375 29.625 C 22.81334 28.400871 22.375 27.305577 22.375 27.21875 C 22.375 27.12183 22.74123 27.0625 23.3125 27.0625 L 24.25 27.0625 L 24.78125 28.5625 C 25.07983 29.383566 25.38231 30.095736 25.4375 30.15625 C 25.4927 30.21676 25.86435 29.486737 26.25 28.53125 L 26.9375 26.8125 L 27.9375 26.75 C 28.21316 26.73689 28.47462 26.72239 28.65625 26.71875 z M 40 30 L 45 30 L 45 33 L 40 33 L 40 30 z M 40 34 L 45 34 L 45 37 L 40 37 L 40 34 z M 40 38 L 45 38 L 45 41 L 40 41 L 40 38 z "
     style="opacity:0.05;color:#000000;fill:#126400;fill-opacity:1;fill-rule:nonzero;stroke:none;stroke-width:1;marker:none;visibility:visible;display:inline;overflow:visible;enable-background:accumulate"
     id="path5028"
     d="m 33.84375,17.03125 -17,3 A 0.97821397,0.97821397 0 0 0 16.03125,21 l 0,22 a 0.97821397,0.97821397 0 0 0 0.8125,0.96875 l 17,3 A 0.97821397,0.97821397 0 0 0 34.96875,46 l 0,-2.03125 a 0.97821397,0.97821397 0 0 0 0.03125,0 l 12,0 A 0.97821397,0.97821397 0 0 0 47.96875,43 l 0,-22 A 0.97821397,0.97821397 0 0 0 47,20.03125 l -12,0 a 0.97821397,0.97821397 0 0 0 -0.03125,0 l 0,-2.03125 a 0.97821397,0.97821397 0 0 0 -1.125,-0.96875 z m 1.125,5.9375 a 0.97821397,0.97821397 0 0 0 0.03125,0 l 3.03125,0 0,1.0625 -3.03125,0 a 0.97821397,0.97821397 0 0 0 -0.03125,0 l 0,-1.0625 z m 6,0 3.0625,0 0,1.0625 -3.0625,0 0,-1.0625 z m -6,4 a 0.97821397,0.97821397 0 0 0 0.03125,0 l 3.03125,0 0,1.0625 -3.03125,0 a 0.97821397,0.97821397 0 0 0 -0.03125,0 l 0,-1.0625 z m 6,0 3.0625,0 0,1.0625 -3.0625,0 0,-1.0625 z m -16,3.90625 c 0.290922,0.143177 0.664741,0.256558 0.84375,0.1875 0.06424,-0.02478 0.05154,-0.03883 0.09375,-0.0625 l -0.1875,0.375 a 0.97821397,0.97821397 0 0 0 0,0.8125 l 0.25,0.5 C 25.708994,32.549082 25.377435,32.444239 25.1875,32.5 c -0.09614,0.02822 -0.100651,0.06258 -0.15625,0.09375 L 25.1875,32.25 a 0.97821397,0.97821397 0 0 0 0.03125,-0.8125 l -0.25,-0.5625 z m 10,0.09375 a 0.97821397,0.97821397 0 0 0 0.03125,0 l 3.03125,0 0,1.0625 -3.03125,0 a 0.97821397,0.97821397 0 0 0 -0.03125,0 l 0,-1.0625 z m 6,0 3.0625,0 0,1.0625 -3.0625,0 0,-1.0625 z m -6,4 a 0.97821397,0.97821397 0 0 0 0.03125,0 l 3.03125,0 0,1.0625 -3.03125,0 a 0.97821397,0.97821397 0 0 0 -0.03125,0 l 0,-1.0625 z m 6,0 3.0625,0 0,1.0625 -3.0625,0 0,-1.0625 z m -6,4 a 0.97821397,0.97821397 0 0 0 0.03125,0 l 3.03125,0 0,1.0625 -3.03125,0 a 0.97821397,0.97821397 0 0 0 -0.03125,0 l 0,-1.0625 z m 6,0 3.0625,0 0,1.0625 -3.0625,0 0,-1.0625 z" />
  <path
     inkscape:connector-curvature="0"
     style="opacity:0.15;color:#000000;fill:#126400;fill-opacity:1;fill-rule:nonzero;stroke:none;stroke-width:1;marker:none;visibility:visible;display:inline;overflow:visible;enable-background:accumulate"
     d="m 24.25245,18.852174 -10.645791,1.878668 0,13.776903 10.645791,1.878669 0,-17.53424 z m 0.62622,1.878668 0,0.626223 2.50489,0 0,1.878668 -2.50489,0 0,0.626223 2.50489,0 0,1.878669 -2.50489,0 0,0.626223 2.50489,0 0,1.878668 -2.50489,0 0,0.626223 2.50489,0 0,1.878669 -2.50489,0 0,0.626223 2.50489,0 0,1.878668 -2.50489,0 0,1.252446 7.51468,0 0,-13.776903 -7.51468,0 z m 3.13112,0.626223 3.13111,0 0,1.878668 -3.13111,0 0,-1.878668 z m 0,2.504891 3.13111,0 0,1.878669 -3.13111,0 0,-1.878669 z m -7.103721,0.450098 c 0.11373,-0.0023 0.17618,-0.0048 0.17613,0 -9e-5,0.0095 -0.32028,0.737414 -0.72407,1.604696 l -0.74364,1.565557 0.74364,1.565557 c 0.40379,0.855652 0.72407,1.588452 0.72407,1.624266 0,0.0752 -0.53957,0.06265 -0.99805,-0.01957 -0.30348,-0.05442 -0.31864,-0.08848 -0.7045,-1.056751 -0.21988,-0.551793 -0.43264,-1.037725 -0.46967,-1.07632 -0.037,-0.03859 -0.25181,0.379536 -0.46966,0.919765 -0.21786,0.540223 -0.42062,1.004711 -0.4501,1.037181 -0.0295,0.0325 -0.29736,0.0325 -0.60665,0 l -0.56752,-0.05871 0.68493,-1.448141 0.68493,-1.44814 -0.60665,-1.389432 c -0.33215,-0.766578 -0.60665,-1.452476 -0.60665,-1.506849 0,-0.06069 0.22934,-0.09785 0.58708,-0.09785 l 0.58709,0 0.33268,0.939334 c 0.18697,0.51417 0.37639,0.960148 0.41096,0.998043 0.0346,0.03789 0.2673,-0.419264 0.5088,-1.017612 l 0.43053,-1.076321 0.62622,-0.03914 c 0.17263,-0.0082 0.33636,-0.01729 0.4501,-0.01957 z m 7.103721,2.054794 3.13111,0 0,1.878668 -3.13111,0 0,-1.878668 z m 0,2.504891 3.13111,0 0,1.878669 -3.13111,0 0,-1.878669 z m 0,2.504892 3.13111,0 0,1.878668 -3.13111,0 0,-1.878668 z"
     id="path4881-6" />
  <path
     style="color:#000000;fill:#ffffff;fill-opacity:1;fill-rule:nonzero;stroke:none;stroke-width:0.99999994;marker:none;visibility:visible;display:inline;overflow:visible;enable-background:accumulate"
     d="m 24.25245,18.22595 -10.645791,1.87867 0,13.776902 10.645791,1.878669 z m 0.62622,1.252447 0,1.252445 2.50489,0 0,1.878668 -2.50489,0 0,0.626223 2.50489,0 0,1.878669 -2.50489,0 0,0.626223 2.50489,0 0,1.878668 -2.50489,0 0,0.626223 2.50489,0 0,1.878669 -2.50489,0 0,0.626223 2.50489,0 0,1.878668 -2.50489,0 0,1.252446 7.51468,0 0,-14.403125 z m 3.13112,1.252445 3.13111,0 0,1.878668 -3.13111,0 z m 0,2.504891 3.13111,0 0,1.878669 -3.13111,0 z m -7.103721,0.450098 c 0.11373,-0.0023 0.17618,-0.0048 0.17613,0 -9e-5,0.0095 -0.32028,0.737414 -0.72407,1.604696 l -0.74364,1.565557 0.74364,1.565557 c 0.40379,0.855652 0.72407,1.588452 0.72407,1.624266 0,0.0752 -0.53957,0.06265 -0.99805,-0.01957 -0.30348,-0.05442 -0.31864,-0.08848 -0.7045,-1.056751 -0.21988,-0.551793 -0.43264,-1.037725 -0.46967,-1.07632 -0.037,-0.03859 -0.25181,0.379537 -0.46966,0.919765 -0.21786,0.540223 -0.42062,1.004711 -0.4501,1.037181 -0.0295,0.0325 -0.29736,0.0325 -0.60665,0 l -0.56752,-0.05871 0.68493,-1.448141 0.68493,-1.44814 -0.60665,-1.389432 c -0.33215,-0.766577 -0.60665,-1.452476 -0.60665,-1.506849 0,-0.06069 0.22934,-0.09785 0.58708,-0.09785 l 0.58709,0 0.33268,0.939334 c 0.18697,0.514171 0.37639,0.960148 0.41096,0.998043 0.0346,0.03789 0.2673,-0.419264 0.5088,-1.017612 l 0.43053,-1.076321 0.62622,-0.03914 c 0.17263,-0.0082 0.33636,-0.01729 0.4501,-0.01957 z m 7.103721,2.054794 3.13111,0 0,1.878668 -3.13111,0 z m 0,2.504891 3.13111,0 0,1.878669 -3.13111,0 z m 0,2.504892 3.13111,0 0,1.878668 -3.13111,0 z"
     id="path4881"
     inkscape:connector-curvature="0"
     sodipodi:nodetypes="cccccccccccccccccccccccccccccccccccccccccccccscscsccccccsscccccccccccccccccccccc" />
</svg>
