<?xml version="1.0" encoding="UTF-8" standalone="no"?>
<!-- Created with Inkscape (http://www.inkscape.org/) -->

<svg
   xmlns:dc="http://purl.org/dc/elements/1.1/"
   xmlns:cc="http://creativecommons.org/ns#"
   xmlns:rdf="http://www.w3.org/1999/02/22-rdf-syntax-ns#"
   xmlns:svg="http://www.w3.org/2000/svg"
   xmlns="http://www.w3.org/2000/svg"
   xmlns:xlink="http://www.w3.org/1999/xlink"
   xmlns:sodipodi="http://sodipodi.sourceforge.net/DTD/sodipodi-0.dtd"
   xmlns:inkscape="http://www.inkscape.org/namespaces/inkscape"
   width="48"
   height="48"
   id="svg3165"
   version="1.1"
   inkscape:version="0.48.4 r9939"
   sodipodi:docname="24.svg">
  <defs
     id="defs3167">
    <linearGradient
       inkscape:collect="always"
       xlink:href="#linearGradient5436"
       id="linearGradient5442"
       x1="128"
       y1="1031.1857"
       x2="127.05883"
       y2="815.65631"
       gradientUnits="userSpaceOnUse" />
    <linearGradient
       inkscape:collect="always"
       id="linearGradient5436">
      <stop
         style="stop-color:#c50047;stop-opacity:0.57823128"
         offset="0"
         id="stop5438" />
      <stop
         style="stop-color:#ffc1d7;stop-opacity:0.71372551"
         offset="1"
         id="stop5440" />
    </linearGradient>
    <clipPath
       clipPathUnits="userSpaceOnUse"
       id="clipPath5154">
      <circle
         sodipodi:ry="109.64706"
         sodipodi:rx="109.64706"
         sodipodi:cy="924.36218"
         sodipodi:cx="128"
         r="109.64706"
         cy="924.36218"
         cx="128"
         id="circle5156"
         style="fill:url(#radialGradient5158);fill-opacity:1;stroke:none" />
    </clipPath>
    <filter
       color-interpolation-filters="sRGB"
       inkscape:collect="always"
       id="filter5432"
       x="-0.0792"
       width="1.1584001"
       y="-0.0792"
       height="1.1584001">
      <feGaussianBlur
         inkscape:collect="always"
         stdDeviation="7.2367057"
         id="feGaussianBlur5434" />
    </filter>
    <linearGradient
       inkscape:collect="always"
       xlink:href="#linearGradient6058"
       id="linearGradient6064"
       x1="137.75073"
       y1="818.62317"
       x2="137.75073"
       y2="1030.603"
       gradientUnits="userSpaceOnUse" />
    <linearGradient
       inkscape:collect="always"
       id="linearGradient6058">
      <stop
         id="stop6062"
         offset="0"
         style="stop-color:#ffffff;stop-opacity:1" />
      <stop
         id="stop6060"
         offset="1"
         style="stop-color:#0a0a0a;stop-opacity:0.85714287" />
    </linearGradient>
    <clipPath
       clipPathUnits="userSpaceOnUse"
       id="clipPath3236">
      <circle
         sodipodi:ry="109.64706"
         sodipodi:rx="109.64706"
         sodipodi:cy="924.36218"
         sodipodi:cx="128"
         r="109.64706"
         cy="924.36218"
         cx="128"
         id="circle3238"
         style="fill:url(#radialGradient5158);fill-opacity:1;stroke:none" />
    </clipPath>
    <filter
       color-interpolation-filters="sRGB"
       inkscape:collect="always"
       id="filter6054"
       x="-0.025776824"
       width="1.0515536"
       y="-0.027054055"
       height="1.0541081">
      <feGaussianBlur
         inkscape:collect="always"
         stdDeviation="2.3552941"
         id="feGaussianBlur6056" />
    </filter>
    <clipPath
       clipPathUnits="userSpaceOnUse"
       id="clipPath4688">
      <path
         sodipodi:nodetypes="ccccccccccc"
         inkscape:connector-curvature="0"
         id="path4690"
         d="m 106.42383,889.60156 c -2.2448,-0.0524 -4.09304,1.75264 -4.09375,3.99805 l 0,32.64453 0,32.64453 c -4e-5,3.07923 3.33305,5.004 6,3.46485 l 28.26953,-16.32227 28.27148,-16.32227 c 2.66559,-1.54001 2.66559,-5.38772 0,-6.92773 l -28.27148,-16.32227 -28.26953,-16.32226 c -0.58054,-0.3353 -1.23603,-0.51932 -1.90625,-0.53516 z"
         style="font-size:medium;font-style:normal;font-variant:normal;font-weight:normal;font-stretch:normal;text-indent:0;text-align:start;text-decoration:none;line-height:normal;letter-spacing:normal;word-spacing:normal;text-transform:none;direction:ltr;block-progression:tb;writing-mode:lr-tb;text-anchor:start;baseline-shift:baseline;color:#000000;fill:url(#radialGradient4692);fill-opacity:1;fill-rule:nonzero;stroke:#a7003f;stroke-width:1;stroke-linecap:round;stroke-linejoin:round;stroke-miterlimit:4;stroke-opacity:1;stroke-dasharray:none;stroke-dashoffset:0;visibility:visible;display:inline;overflow:visible;enable-background:accumulate;font-family:sans-serif" />
    </clipPath>
    <filter
       color-interpolation-filters="sRGB"
       inkscape:collect="always"
       id="filter4786"
       x="-0.052536823"
       width="1.1050736"
       y="-0.046261732"
       height="1.0925235">
      <feGaussianBlur
         inkscape:collect="always"
         stdDeviation="1.4128072"
         id="feGaussianBlur4788" />
    </filter>
    <linearGradient
       inkscape:collect="always"
       xlink:href="#linearGradient4690"
       id="linearGradient4696"
       x1="132.13025"
       y1="811.94482"
       x2="132.13025"
       y2="1034.0607"
       gradientUnits="userSpaceOnUse" />
    <linearGradient
       inkscape:collect="always"
       id="linearGradient4690">
      <stop
         style="stop-color:#ffffff;stop-opacity:0"
         offset="0"
         id="stop4692" />
      <stop
         id="stop4698"
         offset="0.49187705"
         style="stop-color:#ffffff;stop-opacity:1" />
      <stop
         style="stop-color:#ffffff;stop-opacity:0;"
         offset="1"
         id="stop4694" />
    </linearGradient>
    <clipPath
       clipPathUnits="userSpaceOnUse"
       id="clipPath4564">
      <circle
         sodipodi:ry="109.64706"
         sodipodi:rx="109.64706"
         sodipodi:cy="924.36218"
         sodipodi:cx="128"
         style="fill:url(#radialGradient4568);fill-opacity:1;stroke:none"
         id="circle4566"
         cx="128"
         cy="924.36218"
         r="109.64706" />
    </clipPath>
    <filter
       color-interpolation-filters="sRGB"
       inkscape:collect="always"
       id="filter4686"
       x="-0.0252"
       width="1.0504"
       y="-0.0252"
       height="1.0504">
      <feGaussianBlur
         inkscape:collect="always"
         stdDeviation="2.2833139"
         id="feGaussianBlur4688" />
    </filter>
    <clipPath
       clipPathUnits="userSpaceOnUse"
       id="clipPath6215">
      <path
         sodipodi:nodetypes="ccccccccccccccccccccccccccccccccccccccccccccccccccccccccccccccc"
         id="path6217"
         d="m 105.17325,806.18572 c -3.06859,0.56361 -6.11393,1.24721 -9.129005,2.04923 -3.838255,1.06506 -7.62084,2.32142 -11.333578,3.76438 -3.712189,1.44307 -7.34989,3.07087 -10.899472,4.87732 -3.549153,1.80656 -7.005749,3.78947 -10.35684,5.94129 -3.351877,2.15253 -6.593991,4.47137 -9.714191,6.94783 -3.119992,2.47544 -6.114241,5.10535 -8.971529,7.87988 -0.367219,0.38909 -0.731819,0.78065 -1.093777,1.17464 2.60205,17.85956 16.832359,40.03752 30.863064,55.74236 -4.76734,8.84435 -7.265993,18.73329 -7.272057,28.78068 0.02104,2.87431 0.246096,5.7435 0.673482,8.58593 -20.257302,-9.18513 -43.077023,-26.53494 -52.798465,-47.36396 -0.440667,1.15171 -0.863474,2.31018 -1.268271,3.47498 -1.176789,3.80495 -2.162562,7.66637 -2.953625,11.56979 -0.79154,3.90311 -1.3874065,7.84335 -1.7853678,11.80598 -0.39733,3.96334 -0.5961891,7.94407 -0.5958321,11.92728 -4.394e-4,2.81936 0.098928,5.63785 0.2979155,8.45018 0.282275,3.97319 0.763088,7.92978 1.4406374,11.85493 0.625626,3.51826 1.408798,7.00668 2.347153,10.45473 16.778133,6.68355 43.114514,5.45001 63.748015,1.14301 6.818545,11.02763 16.987182,19.58379 29.018153,24.41667 -18.071844,12.93645 -44.490188,24.02095 -67.37308,22.03245 1.384097,1.665 2.813203,3.2921 4.285735,4.8794 2.774977,2.8571 5.691103,5.5737 8.737453,8.1395 3.046107,2.5658 6.218619,4.9777 9.505651,7.2266 3.287242,2.2488 6.684891,4.3319 10.180217,6.2413 3.495379,1.9096 7.084075,3.6433 10.752641,5.1944 3.66896,1.5509 7.413193,2.9174 11.218668,4.0942 1.438565,0.3959 2.884421,0.7648 4.336807,1.1066 14.138748,-11.1844 26.206378,-34.5828 32.780368,-54.56406 12.95816,-0.38251 25.45395,-4.90132 35.65955,-12.89544 2.15922,22.12638 -1.46693,50.5581 -14.64692,69.3832 3.06859,-0.5636 6.11393,-1.2473 9.129,-2.0493 3.83826,-1.0651 7.62084,-2.3214 11.33358,-3.7644 3.71219,-1.4431 7.34989,-3.0709 10.89947,-4.8773 3.54915,-1.8066 7.00575,-3.7895 10.35684,-5.9413 3.35188,-2.1525 6.59399,-4.4714 9.71419,-6.9478 3.11999,-2.4754 6.11424,-5.1054 8.97153,-7.8799 0.36722,-0.3891 0.73182,-0.7806 1.09378,-1.1746 -2.60204,-17.85957 -16.83236,-40.03755 -30.86307,-55.74238 4.76735,-8.84435 7.266,-18.7333 7.27207,-28.78069 -0.021,-2.8743 -0.24611,-5.74349 -0.6735,-8.58592 20.25731,9.18513 43.07704,26.53494 52.79848,47.36396 0.44067,-1.15171 0.86347,-2.31018 1.26827,-3.47499 1.17679,-3.80495 2.16256,-7.66636 2.95362,-11.56978 0.79154,-3.90311 1.38741,-7.84335 1.78537,-11.80598 0.39733,-3.96334 0.59619,-7.94408 0.59583,-11.92729 4.4e-4,-2.81936 -0.0989,-5.63784 -0.29791,-8.45017 -0.28228,-3.97319 -0.76309,-7.92978 -1.44064,-11.85493 -0.62776,-3.53416 -1.41449,-7.03823 -2.35779,-10.50154 -20.56165,-7.32804 -45.89823,-4.79548 -63.74906,-1.11372 -6.81835,-11.01918 -16.98234,-19.56874 -29.00647,-24.39915 18.07184,-12.93645 44.49019,-24.02091 67.37307,-22.03241 -1.38409,-1.66502 -2.8132,-3.2921 -4.28573,-4.87944 -2.77498,-2.85712 -5.6911,-5.57368 -8.73745,-8.13949 -3.04611,-2.56581 -6.21862,-4.97769 -9.50565,-7.22659 -3.28724,-2.24885 -6.68489,-4.3319 -10.18022,-6.24135 -3.49538,-1.90963 -7.08407,-3.64325 -10.75264,-5.19438 -3.66896,-1.55092 -7.41319,-2.91736 -11.21867,-4.09421 -1.42662,-0.39262 -2.86041,-0.75869 -4.30063,-1.09804 -14.14688,11.18369 -26.2293,34.57475 -32.8107,54.55552 -12.96018,0.38127 -25.4582,4.90015 -35.665394,12.89544 -2.15922,-22.12637 1.466931,-50.55807 14.646924,-69.38315 z"
         style="fill:url(#radialGradient6219);fill-opacity:1;stroke:none"
         inkscape:connector-curvature="0" />
    </clipPath>
    <filter
       color-interpolation-filters="sRGB"
       inkscape:collect="always"
       id="filter6277"
       x="-0.034464333"
       width="1.0689287"
       y="-0.035142269"
       height="1.0702845">
      <feGaussianBlur
         inkscape:collect="always"
         stdDeviation="3.4309879"
         id="feGaussianBlur6279" />
    </filter>
    <radialGradient
       inkscape:collect="always"
       xlink:href="#linearGradient6177-3"
       id="radialGradient4573"
       gradientUnits="userSpaceOnUse"
       cx="306.15732"
       cy="224.96582"
       fx="306.15732"
       fy="224.96582"
       r="7.9568801" />
    <linearGradient
       id="linearGradient6177-3"
       inkscape:collect="always">
      <stop
         id="stop6179-9"
         offset="0"
         style="stop-color:#ffcbb6;stop-opacity:1" />
      <stop
         id="stop6181-3"
         offset="1"
         style="stop-color:#ff2b79;stop-opacity:1" />
    </linearGradient>
    <linearGradient
       inkscape:collect="always"
       xlink:href="#linearGradient4522"
       id="linearGradient4575"
       gradientUnits="userSpaceOnUse"
       x1="305.12753"
       y1="223.89174"
       x2="315.69815"
       y2="235.2532" />
    <linearGradient
       inkscape:collect="always"
       id="linearGradient4522">
      <stop
         style="stop-color:#ff8d7b;stop-opacity:1"
         offset="0"
         id="stop4524" />
      <stop
         style="stop-color:#c9004a;stop-opacity:1"
         offset="1"
         id="stop4526" />
    </linearGradient>
    <linearGradient
       inkscape:collect="always"
       xlink:href="#linearGradient4536"
       id="linearGradient4577"
       gradientUnits="userSpaceOnUse"
       x1="311.17889"
       y1="222.02882"
       x2="311.17889"
       y2="232.05907"
       gradientTransform="matrix(1.0395738,0,0,1.0395738,-12.30746,-9.0624064)" />
    <linearGradient
       inkscape:collect="always"
       id="linearGradient4536">
      <stop
         style="stop-color:#ffffff;stop-opacity:1;"
         offset="0"
         id="stop4538" />
      <stop
         style="stop-color:#ffffff;stop-opacity:0;"
         offset="1"
         id="stop4540" />
    </linearGradient>
    <radialGradient
       inkscape:collect="always"
       xlink:href="#linearGradient4814-8"
       id="radialGradient4579"
       gradientUnits="userSpaceOnUse"
       gradientTransform="matrix(0.06774505,0.03911262,-0.04731812,0.08195739,344.57046,150.50998)"
       cx="64.786438"
       cy="868.7785"
       fx="64.786438"
       fy="868.7785"
       r="60.941174" />
    <linearGradient
       inkscape:collect="always"
       id="linearGradient4814-8">
      <stop
         style="stop-color:#ffffff;stop-opacity:1"
         offset="0"
         id="stop4816-1" />
      <stop
         style="stop-color:#fffbf1;stop-opacity:1"
         offset="1"
         id="stop4818-4" />
    </linearGradient>
    <radialGradient
       inkscape:collect="always"
       xlink:href="#linearGradient6177-3"
       id="radialGradient4581"
       gradientUnits="userSpaceOnUse"
       gradientTransform="matrix(0.10281937,0,0,0.11249646,298.05063,125.28526)"
       cx="113.59127"
       cy="905.62823"
       fx="113.59127"
       fy="905.62823"
       r="32.762299" />
    <linearGradient
       inkscape:collect="always"
       xlink:href="#linearGradient5185"
       id="linearGradient5183"
       gradientUnits="userSpaceOnUse"
       gradientTransform="matrix(0.98340778,0,0,0.98340778,5.1601597,3.7996029)"
       x1="311.17889"
       y1="235.71904"
       x2="311.17889"
       y2="226.8945" />
    <linearGradient
       id="linearGradient5185"
       inkscape:collect="always">
      <stop
         id="stop5187"
         offset="0"
         style="stop-color:#000000;stop-opacity:1" />
      <stop
         id="stop5189"
         offset="1"
         style="stop-color:#000000;stop-opacity:0" />
    </linearGradient>
    <radialGradient
       inkscape:collect="always"
       xlink:href="#linearGradient6177"
       id="radialGradient5255"
       gradientUnits="userSpaceOnUse"
       gradientTransform="translate(0,-0.0942412)"
       cx="306.15732"
       cy="224.96582"
       fx="306.15732"
       fy="224.96582"
       r="7.9568801" />
    <linearGradient
       id="linearGradient6177"
       inkscape:collect="always">
      <stop
         id="stop6179"
         offset="0"
         style="stop-color:#ffcbb6;stop-opacity:1" />
      <stop
         id="stop6181"
         offset="1"
         style="stop-color:#ff2b79;stop-opacity:1" />
    </linearGradient>
    <linearGradient
       inkscape:collect="always"
       xlink:href="#linearGradient4522-2"
       id="linearGradient5257"
       gradientUnits="userSpaceOnUse"
       gradientTransform="translate(0,-0.0942412)"
       x1="305.12753"
       y1="223.89174"
       x2="315.69815"
       y2="235.2532" />
    <linearGradient
       inkscape:collect="always"
       id="linearGradient4522-2">
      <stop
         style="stop-color:#ff8d7b;stop-opacity:1"
         offset="0"
         id="stop4524-5" />
      <stop
         style="stop-color:#c9004a;stop-opacity:1"
         offset="1"
         id="stop4526-1" />
    </linearGradient>
    <linearGradient
       inkscape:collect="always"
       xlink:href="#linearGradient4536-9"
       id="linearGradient5259"
       gradientUnits="userSpaceOnUse"
       gradientTransform="matrix(1.1088065,0,0,1.1088065,-33.838756,-24.916641)"
       x1="311.17889"
       y1="222.02882"
       x2="311.17889"
       y2="232.05907" />
    <linearGradient
       inkscape:collect="always"
       id="linearGradient4536-9">
      <stop
         style="stop-color:#ffffff;stop-opacity:1;"
         offset="0"
         id="stop4538-4" />
      <stop
         style="stop-color:#ffffff;stop-opacity:0;"
         offset="1"
         id="stop4540-6" />
    </linearGradient>
    <radialGradient
       inkscape:collect="always"
       xlink:href="#linearGradient4814"
       id="radialGradient5261"
       gradientUnits="userSpaceOnUse"
       gradientTransform="matrix(0.06945201,0.04009814,-0.04851039,0.08402246,345.41633,148.53228)"
       cx="64.786438"
       cy="868.7785"
       fx="64.786438"
       fy="868.7785"
       r="60.941174" />
    <linearGradient
       inkscape:collect="always"
       id="linearGradient4814">
      <stop
         style="stop-color:#ffffff;stop-opacity:1"
         offset="0"
         id="stop4816" />
      <stop
         style="stop-color:#fffbf1;stop-opacity:1"
         offset="1"
         id="stop4818" />
    </linearGradient>
    <radialGradient
       inkscape:collect="always"
       xlink:href="#linearGradient6177"
       id="radialGradient5263"
       gradientUnits="userSpaceOnUse"
       gradientTransform="matrix(0.10281937,0,0,0.11249646,298.05063,125.28526)"
       cx="113.59127"
       cy="905.62823"
       fx="113.59127"
       fy="905.62823"
       r="32.762299" />
    <linearGradient
       inkscape:collect="always"
       xlink:href="#linearGradient5185-0"
       id="linearGradient5265"
       gradientUnits="userSpaceOnUse"
       gradientTransform="matrix(1.0595847,0,0,1.0595847,-18.530833,-13.64489)"
       x1="311.17889"
       y1="235.71904"
       x2="311.17889"
       y2="226.8945" />
    <linearGradient
       id="linearGradient5185-0"
       inkscape:collect="always">
      <stop
         id="stop5187-9"
         offset="0"
         style="stop-color:#000000;stop-opacity:1" />
      <stop
         id="stop5189-1"
         offset="1"
         style="stop-color:#000000;stop-opacity:0" />
    </linearGradient>
    <linearGradient
       y2="226.8945"
       x2="311.17889"
       y1="235.71904"
       x1="311.17889"
       gradientTransform="matrix(1.0595847,0,0,1.0595847,-18.530833,-13.64489)"
       gradientUnits="userSpaceOnUse"
       id="linearGradient3811"
       xlink:href="#linearGradient5185-0"
       inkscape:collect="always" />
  </defs>
  <sodipodi:namedview
     id="base"
     pagecolor="#ffffff"
     bordercolor="#666666"
     borderopacity="1.0"
     inkscape:pageopacity="0.0"
     inkscape:pageshadow="2"
     inkscape:zoom="7.015625"
     inkscape:cx="32"
     inkscape:cy="26.298441"
     inkscape:document-units="px"
     inkscape:current-layer="layer1"
     showgrid="false"
     inkscape:window-width="823"
     inkscape:window-height="581"
     inkscape:window-x="784"
     inkscape:window-y="346"
     inkscape:window-maximized="0" />
  <metadata
     id="metadata3170">
    <rdf:RDF>
      <cc:Work
         rdf:about="">
        <dc:format>image/svg+xml</dc:format>
        <dc:type
           rdf:resource="http://purl.org/dc/dcmitype/StillImage" />
        <dc:title></dc:title>
      </cc:Work>
    </rdf:RDF>
  </metadata>
  <g
     inkscape:label="Livello 1"
     inkscape:groupmode="layer"
     id="layer1"
     transform="translate(0,-1004.3622)">
    <g
       style="display:inline;enable-background:new"
       id="g5243"
       transform="matrix(2.8832054,0,0,2.8832054,-872.67687,368.37988)">
      <circle
         sodipodi:ry="7.4568801"
         sodipodi:rx="7.4568801"
         sodipodi:cy="228.90576"
         sodipodi:cx="311"
         style="fill:url(#radialGradient5255);fill-opacity:1;stroke:url(#linearGradient5257);stroke-width:0.34703273;stroke-linecap:round;stroke-linejoin:round;stroke-miterlimit:4;stroke-opacity:1;stroke-dasharray:none;display:inline;enable-background:new"
         id="circle5245"
         cx="311"
         cy="228.90576"
         r="7.4568801"
         d="m 318.45688,228.90576 c 0,4.11832 -3.33856,7.45688 -7.45688,7.45688 -4.11832,0 -7.45688,-3.33856 -7.45688,-7.45688 0,-4.11832 3.33856,-7.45688 7.45688,-7.45688 4.11832,0 7.45688,3.33856 7.45688,7.45688 z" />
      <circle
         sodipodi:ry="7.1633811"
         sodipodi:rx="7.1633811"
         sodipodi:cy="229.00003"
         sodipodi:cx="311"
         r="7.1633811"
         cy="229.00003"
         cx="311"
         id="circle5247"
         style="opacity:0.52700046;fill:none;stroke:url(#linearGradient5259);stroke-width:0.34703276;stroke-linecap:round;stroke-linejoin:round;stroke-miterlimit:4;stroke-opacity:1;stroke-dasharray:none;display:inline;enable-background:new"
         d="m 318.16338,229.00003 c 0,3.95623 -3.20715,7.16338 -7.16338,7.16338 -3.95623,0 -7.16338,-3.20715 -7.16338,-7.16338 0,-3.95623 3.20715,-7.16338 7.16338,-7.16338 3.95623,0 7.16338,3.20715 7.16338,7.16338 z" />
      <path
         sodipodi:nodetypes="cccccccccccccccccccccccccccccccccccccccccccccccccccccccccccccccc"
         id="path5249"
         d="m 309.62446,221.94009 c -0.18492,0.0339 -0.36843,0.0753 -0.55012,0.12348 -0.23129,0.0642 -0.45922,0.13989 -0.68295,0.22684 -0.22369,0.0869 -0.44292,0.18504 -0.65682,0.29391 -0.21386,0.10887 -0.42216,0.22835 -0.62409,0.35802 -0.20199,0.12971 -0.39736,0.26945 -0.58538,0.41868 -0.188,0.14918 -0.36844,0.30764 -0.54062,0.47484 -0.0221,0.0234 -0.0442,0.0471 -0.0659,0.0707 0.15681,1.07621 0.49077,2.06757 1.4451,3.13579 -0.32426,0.60156 -0.49422,1.27419 -0.49462,1.95758 0.001,0.1955 0.0168,0.39066 0.0458,0.58398 -1.37784,-0.62474 -2.12992,-1.6656 -2.71574,-2.92076 -0.0266,0.0694 -0.052,0.13922 -0.0765,0.20941 -0.0708,0.22928 -0.13031,0.46197 -0.17798,0.69719 -0.0477,0.2352 -0.0836,0.47265 -0.10759,0.71143 -0.0239,0.23883 -0.0359,0.47871 -0.0359,0.71874 -3e-5,0.1699 0.005,0.33973 0.0179,0.50921 0.017,0.23943 0.046,0.47785 0.0867,0.71437 0.0376,0.21201 0.0849,0.42222 0.14145,0.63001 1.01105,0.40275 2.03752,0.60932 3.44096,0.31639 0.46376,0.75007 1.15541,1.33204 1.97373,1.66075 -1.2292,0.87991 -2.50558,1.01061 -3.8845,0.89078 0.0834,0.10037 0.16953,0.19839 0.25826,0.29404 0.16722,0.17216 0.34294,0.33588 0.52652,0.49049 0.18356,0.15462 0.37473,0.29995 0.57281,0.43547 0.19808,0.13552 0.40283,0.26104 0.61346,0.3761 0.21063,0.11508 0.42688,0.21955 0.64795,0.31302 0.22108,0.0935 0.44673,0.1758 0.67603,0.24672 0.0866,0.0238 0.17382,0.0461 0.26134,0.0666 0.85201,-0.67398 1.54228,-1.45833 1.9894,-2.81739 0.88139,-0.0261 1.73132,-0.33339 2.42547,-0.87712 0.14687,1.50497 -0.37908,2.67603 -1.1733,3.81043 0.18492,-0.0339 0.36843,-0.0752 0.55012,-0.12348 0.23128,-0.0642 0.45922,-0.1399 0.68295,-0.22685 0.22369,-0.0869 0.44292,-0.18505 0.65682,-0.29391 0.21386,-0.10886 0.42216,-0.22836 0.62409,-0.35803 0.20199,-0.12969 0.39736,-0.26943 0.58538,-0.41867 0.188,-0.14917 0.36844,-0.30765 0.54062,-0.47484 0.0221,-0.0235 0.0442,-0.047 0.0659,-0.0707 -0.15681,-1.07622 -0.49077,-2.06757 -1.4451,-3.13577 0.32426,-0.60158 0.49422,-1.27418 0.49462,-1.95758 -0.001,-0.19551 -0.0168,-0.39066 -0.0458,-0.584 1.37784,0.62475 2.12992,1.66559 2.71574,2.92074 0.0266,-0.0694 0.052,-0.1392 0.0765,-0.20938 0.0708,-0.22929 0.13031,-0.46199 0.17798,-0.69721 0.0477,-0.2352 0.0836,-0.47263 0.10759,-0.71142 0.0239,-0.23883 0.0359,-0.47872 0.0359,-0.71874 3e-5,-0.1699 -0.005,-0.33974 -0.0179,-0.50921 -0.017,-0.23943 -0.046,-0.47785 -0.0867,-0.71438 -0.0378,-0.21297 -0.0852,-0.42411 -0.14209,-0.63281 -1.23905,-0.4416 -2.22694,-0.56515 -3.44111,-0.31477 -0.46377,-0.74949 -1.15509,-1.33101 -1.97294,-1.65957 1.2292,-0.87989 2.50558,-1.01062 3.8845,-0.8908 -0.0834,-0.10027 -0.16953,-0.19837 -0.25826,-0.29402 -0.16722,-0.17218 -0.34294,-0.33587 -0.52652,-0.49048 -0.18356,-0.15462 -0.37473,-0.29997 -0.57281,-0.43549 -0.19808,-0.13552 -0.40283,-0.26104 -0.61346,-0.3761 -0.21063,-0.11507 -0.42688,-0.21955 -0.64795,-0.31301 -0.22108,-0.0935 -0.44673,-0.1758 -0.67603,-0.24672 -0.0859,-0.0236 -0.17238,-0.0457 -0.25915,-0.0662 -0.85251,0.67392 -1.54356,1.45784 -1.99121,2.81687 -0.88151,0.026 -1.73159,0.33329 -2.42585,0.87712 -0.14687,-1.50497 0.37908,-2.67603 1.1733,-3.81043 z"
         style="fill:url(#radialGradient5261);fill-opacity:1;stroke:none;display:inline;enable-background:new"
         inkscape:connector-curvature="0" />
      <path
         sodipodi:nodetypes="ccccccccccc"
         inkscape:connector-curvature="0"
         id="path5251"
         d="m 309.33809,226.53375 c -0.15111,-0.004 -0.27553,0.11794 -0.27558,0.26907 l 0,2.19695 0,2.19694 c 0,0.20722 0.22438,0.33676 0.40391,0.23318 l 1.90305,-1.09847 1.90319,-1.09848 c 0.17945,-0.10358 0.17945,-0.36259 0,-0.46623 l -1.90319,-1.09846 -1.90305,-1.09848 c -0.0392,-0.0226 -0.0832,-0.035 -0.12833,-0.0361 z"
         style="font-size:medium;font-style:normal;font-variant:normal;font-weight:normal;font-stretch:normal;text-indent:0;text-align:start;text-decoration:none;line-height:normal;letter-spacing:normal;word-spacing:normal;text-transform:none;direction:ltr;block-progression:tb;writing-mode:lr-tb;text-anchor:start;baseline-shift:baseline;color:#000000;fill:url(#radialGradient5263);fill-opacity:1;fill-rule:nonzero;stroke:none;visibility:visible;display:inline;overflow:visible;enable-background:accumulate;font-family:sans-serif" />
      <circle
         sodipodi:ry="6.845387"
         sodipodi:rx="6.845387"
         sodipodi:cy="229"
         sodipodi:cx="311"
         style="opacity:0.52700046;fill:none;stroke:url(#linearGradient3811);stroke-width:0.69406551;stroke-linecap:round;stroke-linejoin:round;stroke-miterlimit:4;stroke-opacity:1;stroke-dasharray:none;display:inline;enable-background:new"
         id="circle5253"
         cx="311"
         cy="229"
         r="6.845387"
         d="m 317.84539,229 c 0,3.7806 -3.06479,6.84539 -6.84539,6.84539 -3.7806,0 -6.84539,-3.06479 -6.84539,-6.84539 0,-3.7806 3.06479,-6.84539 6.84539,-6.84539 3.7806,0 6.84539,3.06479 6.84539,6.84539 z" />
    </g>
  </g>
</svg>
