<?xml version="1.0" encoding="UTF-8" standalone="no"?>
<!-- Created with Inkscape (http://www.inkscape.org/) -->

<svg
   xmlns:dc="http://purl.org/dc/elements/1.1/"
   xmlns:cc="http://creativecommons.org/ns#"
   xmlns:rdf="http://www.w3.org/1999/02/22-rdf-syntax-ns#"
   xmlns:svg="http://www.w3.org/2000/svg"
   xmlns="http://www.w3.org/2000/svg"
   xmlns:xlink="http://www.w3.org/1999/xlink"
   xmlns:sodipodi="http://sodipodi.sourceforge.net/DTD/sodipodi-0.dtd"
   xmlns:inkscape="http://www.inkscape.org/namespaces/inkscape"
   version="1.1"
   width="48"
   height="48"
   id="svg4117"
   inkscape:version="0.48.4 r9939"
   sodipodi:docname="gnome-aisleriot.svg">
  <sodipodi:namedview
     pagecolor="#ffffff"
     bordercolor="#666666"
     borderopacity="1"
     objecttolerance="10"
     gridtolerance="10"
     guidetolerance="10"
     inkscape:pageopacity="0"
     inkscape:pageshadow="2"
     inkscape:window-width="1855"
     inkscape:window-height="1056"
     id="namedview85"
     showgrid="true"
     inkscape:zoom="12.84606"
     inkscape:cx="14.33027"
     inkscape:cy="13.585765"
     inkscape:window-x="65"
     inkscape:window-y="24"
     inkscape:window-maximized="1"
     inkscape:current-layer="svg4117">
    <inkscape:grid
       type="xygrid"
       id="grid4186" />
  </sodipodi:namedview>
  <defs
     id="defs4119">
    <linearGradient
       id="linearGradient3924">
      <stop
         id="stop3926"
         style="stop-color:#ffffff;stop-opacity:1"
         offset="0" />
      <stop
         id="stop3928"
         style="stop-color:#ffffff;stop-opacity:0.23529412"
         offset="0.06316455" />
      <stop
         id="stop3930"
         style="stop-color:#ffffff;stop-opacity:0.15686275"
         offset="0.95056331" />
      <stop
         id="stop3932"
         style="stop-color:#ffffff;stop-opacity:0.39215687"
         offset="1" />
    </linearGradient>
    <radialGradient
       cx="4.9929786"
       cy="43.5"
       r="2.5"
       fx="4.9929786"
       fy="43.5"
       id="radialGradient2873-966-168"
       xlink:href="#linearGradient3688-166-749"
       gradientUnits="userSpaceOnUse"
       gradientTransform="matrix(2.003784,0,0,1.4,27.98813,-17.4)" />
    <linearGradient
       id="linearGradient3688-166-749">
      <stop
         id="stop2883"
         style="stop-color:#181818;stop-opacity:1"
         offset="0" />
      <stop
         id="stop2885"
         style="stop-color:#181818;stop-opacity:0"
         offset="1" />
    </linearGradient>
    <radialGradient
       cx="4.9929786"
       cy="43.5"
       r="2.5"
       fx="4.9929786"
       fy="43.5"
       id="radialGradient2875-742-326"
       xlink:href="#linearGradient3688-464-309"
       gradientUnits="userSpaceOnUse"
       gradientTransform="matrix(2.003784,0,0,1.4,-20.01187,-104.4)" />
    <linearGradient
       id="linearGradient3688-464-309">
      <stop
         id="stop2889"
         style="stop-color:#181818;stop-opacity:1"
         offset="0" />
      <stop
         id="stop2891"
         style="stop-color:#181818;stop-opacity:0"
         offset="1" />
    </linearGradient>
    <linearGradient
       x1="25.058096"
       y1="47.027729"
       x2="25.058096"
       y2="39.999443"
       id="linearGradient2877-634-617"
       xlink:href="#linearGradient3702-501-757"
       gradientUnits="userSpaceOnUse" />
    <linearGradient
       id="linearGradient3702-501-757">
      <stop
         id="stop2895"
         style="stop-color:#181818;stop-opacity:0"
         offset="0" />
      <stop
         id="stop2897"
         style="stop-color:#181818;stop-opacity:1"
         offset="0.5" />
      <stop
         id="stop2899"
         style="stop-color:#181818;stop-opacity:0"
         offset="1" />
    </linearGradient>
    <filter
       color-interpolation-filters="sRGB"
       id="filter3831">
      <feGaussianBlur
         stdDeviation="0.6375"
         id="feGaussianBlur3833" />
    </filter>
    <clipPath
       id="clipPath3823">
      <path
         d="M 108.8125,58 C 107.25437,58 106,59.254375 106,60.8125 l 0,24.375 C 106,86.745625 107.25437,88 108.8125,88 l 24.375,0 C 134.74562,88 136,86.745625 136,85.1875 l 0,-24.375 C 136,59.254375 134.74562,58 133.1875,58 l -24.375,0 z m 7.1875,4.5 10,0 0,8.75 5,0 -10,13.75 -10,-13.75 5,0 0,-8.75 z"
         inkscape:connector-curvature="0"
         id="path3825"
         style="fill:#ffffff;fill-opacity:1;stroke:none" />
    </clipPath>
    <linearGradient
       x1="65.262688"
       y1="64.205269"
       x2="65.262688"
       y2="50.068527"
       id="linearGradient3812"
       xlink:href="#linearGradient5010"
       gradientUnits="userSpaceOnUse"
       gradientTransform="matrix(0.625,0,0,0.625,78.5,32.25)" />
    <filter
       color-interpolation-filters="sRGB"
       id="filter3806">
      <feGaussianBlur
         stdDeviation="1.2"
         id="feGaussianBlur3808" />
    </filter>
    <linearGradient
       x1="70"
       y1="54"
       x2="70"
       y2="75.095024"
       id="linearGradient3788"
       xlink:href="#linearGradient3737"
       gradientUnits="userSpaceOnUse"
       gradientTransform="translate(0,4)" />
    <linearGradient
       x1="56"
       y1="72"
       x2="88"
       y2="72"
       id="linearGradient3773"
       xlink:href="#linearGradient3778"
       gradientUnits="userSpaceOnUse"
       gradientTransform="matrix(0.9375,0,0,0.9375,-140.5,3.5)" />
    <linearGradient
       x1="65.262688"
       y1="64.205269"
       x2="65.262688"
       y2="50.068527"
       id="linearGradient3832"
       xlink:href="#linearGradient3737"
       gradientUnits="userSpaceOnUse"
       gradientTransform="matrix(0.625,0,0,0.625,28.5,31.25)" />
    <filter
       color-interpolation-filters="sRGB"
       id="filter3174">
      <feGaussianBlur
         stdDeviation="1.71"
         id="feGaussianBlur3176" />
    </filter>
    <linearGradient
       id="linearGradient3737">
      <stop
         id="stop3739"
         style="stop-color:#ffffff;stop-opacity:1"
         offset="0" />
      <stop
         id="stop3741"
         style="stop-color:#ffffff;stop-opacity:0"
         offset="1" />
    </linearGradient>
    <linearGradient
       x1="45.447727"
       y1="92.539597"
       x2="45.447727"
       y2="7.0165396"
       id="ButtonShadow"
       gradientUnits="userSpaceOnUse"
       gradientTransform="scale(1.0058652,0.994169)">
      <stop
         id="stop3750"
         style="stop-color:#000000;stop-opacity:1"
         offset="0" />
      <stop
         id="stop3752"
         style="stop-color:#000000;stop-opacity:0.58823532"
         offset="1" />
    </linearGradient>
    <linearGradient
       id="linearGradient5010">
      <stop
         id="stop5012"
         style="stop-color:#000000;stop-opacity:1"
         offset="0" />
      <stop
         id="stop5014"
         style="stop-color:#000000;stop-opacity:0"
         offset="1" />
    </linearGradient>
    <linearGradient
       id="linearGradient3778">
      <stop
         id="stop3780"
         style="stop-color:#499119;stop-opacity:1"
         offset="0" />
      <stop
         id="stop3782"
         style="stop-color:#8fd625;stop-opacity:1"
         offset="1" />
    </linearGradient>
    <linearGradient
       x1="23.99999"
       y1="4.999989"
       x2="23.99999"
       y2="43"
       id="linearGradient3084"
       xlink:href="#linearGradient3924"
       gradientUnits="userSpaceOnUse"
       gradientTransform="translate(2.4e-6,0.9674489)" />
    <linearGradient
       id="linearGradient5455-1">
      <stop
         id="stop5457-8"
         offset="0"
         style="stop-color:#dcc383;stop-opacity:0;" />
      <stop
         style="stop-color:#dcc383;stop-opacity:1"
         offset="0.17178784"
         id="stop5469-5" />
      <stop
         style="stop-color:#856101;stop-opacity:1"
         offset="0.27917799"
         id="stop5467-6" />
      <stop
         style="stop-color:#fef3b1;stop-opacity:1"
         offset="0.65684658"
         id="stop5465-87" />
      <stop
         style="stop-color:#fff4b0;stop-opacity:1"
         offset="0.83260447"
         id="stop5463-81" />
      <stop
         id="stop5459-95"
         offset="1"
         style="stop-color:#7d5a00;stop-opacity:1" />
    </linearGradient>
    <linearGradient
       id="linearGradient3881-1-3">
      <stop
         style="stop-color:#2d2d2d;stop-opacity:1"
         offset="0"
         id="stop3883-6-7" />
      <stop
         style="stop-color:#3f3f3f;stop-opacity:1"
         offset="1"
         id="stop3885-2-3" />
    </linearGradient>
    <linearGradient
       id="linearGradient2867-449-88-871-390-598-476-591-434-148-57-177-641-289-620-227-114-444-680-744-4-8-69-5-4-8-426-2-9-1-4-965">
      <stop
         offset="0"
         style="stop-color:#f4f4f4;stop-opacity:1"
         id="stop4036" />
      <stop
         offset="1"
         style="stop-color:#d0d0d0;stop-opacity:1"
         id="stop4040" />
    </linearGradient>
    <radialGradient
       inkscape:collect="always"
       xlink:href="#linearGradient2867-449-88-871-390-598-476-591-434-148-57-177-641-289-620-227-114-444-680-744-4-8-69-5-4-8-426-2-9-1-4-965"
       id="radialGradient3309"
       gradientUnits="userSpaceOnUse"
       gradientTransform="matrix(1.8457043e-8,2.2770672,-2.3486438,-4.1952268e-8,43.845595,-60.468037)"
       cx="20.930695"
       cy="8.4497671"
       fx="20.930695"
       fy="8.4497671"
       r="19.99999" />
    <linearGradient
       inkscape:collect="always"
       xlink:href="#linearGradient4549-4"
       id="linearGradient3306-4"
       gradientUnits="userSpaceOnUse"
       gradientTransform="translate(-64.736643,15.067036)"
       x1="30.643436"
       y1="3.915791"
       x2="30.643436"
       y2="30.093096" />
    <linearGradient
       id="linearGradient4549-4">
      <stop
         offset="0"
         style="stop-color:#000000;stop-opacity:0.27205881"
         id="stop4551-2" />
      <stop
         offset="1"
         style="stop-color:#000000;stop-opacity:0.36764705"
         id="stop4553-6" />
    </linearGradient>
    <linearGradient
       inkscape:collect="always"
       xlink:href="#linearGradient5455-1"
       id="linearGradient4172"
       gradientUnits="userSpaceOnUse"
       gradientTransform="matrix(1,0,0,1.1666667,-27.750771,2.5021582)"
       x1="44.450245"
       y1="13.713565"
       x2="44.450245"
       y2="16.698767" />
    <linearGradient
       inkscape:collect="always"
       xlink:href="#linearGradient3881-1-3"
       id="linearGradient4180"
       gradientUnits="userSpaceOnUse"
       gradientTransform="matrix(1.571428,0,0,1.6859504,-12.932148,-15.224838)"
       x1="24"
       y1="19.11375"
       x2="24"
       y2="28.97514" />
    <linearGradient
       id="linearGradient5455-1-63">
      <stop
         id="stop5457-8-46"
         offset="0"
         style="stop-color:#dcc383;stop-opacity:0;" />
      <stop
         style="stop-color:#dcc383;stop-opacity:1"
         offset="0.17178784"
         id="stop5469-5-8" />
      <stop
         style="stop-color:#856101;stop-opacity:1"
         offset="0.27917799"
         id="stop5467-6-7" />
      <stop
         style="stop-color:#fef3b1;stop-opacity:1"
         offset="0.65684658"
         id="stop5465-87-1" />
      <stop
         style="stop-color:#fff4b0;stop-opacity:1"
         offset="0.83260447"
         id="stop5463-81-1" />
      <stop
         id="stop5459-95-9"
         offset="1"
         style="stop-color:#7d5a00;stop-opacity:1" />
    </linearGradient>
    <linearGradient
       y2="16.698767"
       x2="44.450245"
       y1="13.713565"
       x1="44.450245"
       gradientTransform="matrix(1,0,0,1.1666667,-24.750771,2.502158)"
       gradientUnits="userSpaceOnUse"
       id="linearGradient4241"
       xlink:href="#linearGradient5455-1-63"
       inkscape:collect="always" />
    <linearGradient
       y2="16.698767"
       x2="44.450245"
       y1="13.713565"
       x1="44.450245"
       gradientTransform="matrix(1,0,0,1.1666667,-18.750771,2.502158)"
       gradientUnits="userSpaceOnUse"
       id="linearGradient4241-67"
       xlink:href="#linearGradient5455-1-63-5"
       inkscape:collect="always" />
    <linearGradient
       id="linearGradient5455-1-63-5">
      <stop
         id="stop5457-8-46-7"
         offset="0"
         style="stop-color:#dcc383;stop-opacity:0;" />
      <stop
         style="stop-color:#dcc383;stop-opacity:1"
         offset="0.17178784"
         id="stop5469-5-8-5" />
      <stop
         style="stop-color:#856101;stop-opacity:1"
         offset="0.27917799"
         id="stop5467-6-7-5" />
      <stop
         style="stop-color:#fef3b1;stop-opacity:1"
         offset="0.65684658"
         id="stop5465-87-1-5" />
      <stop
         style="stop-color:#fff4b0;stop-opacity:1"
         offset="0.83260447"
         id="stop5463-81-1-7" />
      <stop
         id="stop5459-95-9-4"
         offset="1"
         style="stop-color:#7d5a00;stop-opacity:1" />
    </linearGradient>
    <linearGradient
       id="linearGradient5455-1-61">
      <stop
         id="stop5457-8-33"
         offset="0"
         style="stop-color:#dcc383;stop-opacity:0;" />
      <stop
         style="stop-color:#dcc383;stop-opacity:1"
         offset="0.17178784"
         id="stop5469-5-3" />
      <stop
         style="stop-color:#856101;stop-opacity:1"
         offset="0.27917799"
         id="stop5467-6-56" />
      <stop
         style="stop-color:#fef3b1;stop-opacity:1"
         offset="0.65684658"
         id="stop5465-87-65" />
      <stop
         style="stop-color:#fff4b0;stop-opacity:1"
         offset="0.83260447"
         id="stop5463-81-8" />
      <stop
         id="stop5459-95-72"
         offset="1"
         style="stop-color:#7d5a00;stop-opacity:1" />
    </linearGradient>
    <linearGradient
       y2="16.698767"
       x2="44.450245"
       y1="13.713565"
       x1="44.450245"
       gradientTransform="matrix(1,0,0,1.1666667,-21.750771,2.502158)"
       gradientUnits="userSpaceOnUse"
       id="linearGradient4346"
       xlink:href="#linearGradient5455-1-61"
       inkscape:collect="always" />
    <linearGradient
       y2="16.698767"
       x2="44.450245"
       y1="13.713565"
       x1="44.450245"
       gradientTransform="matrix(1,0,0,1.1666667,-12.750771,2.502158)"
       gradientUnits="userSpaceOnUse"
       id="linearGradient4241-8"
       xlink:href="#linearGradient5455-1-63-0"
       inkscape:collect="always" />
    <linearGradient
       id="linearGradient5455-1-63-0">
      <stop
         id="stop5457-8-46-8"
         offset="0"
         style="stop-color:#dcc383;stop-opacity:0;" />
      <stop
         style="stop-color:#dcc383;stop-opacity:1"
         offset="0.17178784"
         id="stop5469-5-8-3" />
      <stop
         style="stop-color:#856101;stop-opacity:1"
         offset="0.27917799"
         id="stop5467-6-7-9" />
      <stop
         style="stop-color:#fef3b1;stop-opacity:1"
         offset="0.65684658"
         id="stop5465-87-1-2" />
      <stop
         style="stop-color:#fff4b0;stop-opacity:1"
         offset="0.83260447"
         id="stop5463-81-1-0" />
      <stop
         id="stop5459-95-9-8"
         offset="1"
         style="stop-color:#7d5a00;stop-opacity:1" />
    </linearGradient>
    <linearGradient
       id="linearGradient5455-1-9">
      <stop
         id="stop5457-8-5"
         offset="0"
         style="stop-color:#dcc383;stop-opacity:0;" />
      <stop
         style="stop-color:#dcc383;stop-opacity:1"
         offset="0.17178784"
         id="stop5469-5-56" />
      <stop
         style="stop-color:#856101;stop-opacity:1"
         offset="0.27917799"
         id="stop5467-6-2" />
      <stop
         style="stop-color:#fef3b1;stop-opacity:1"
         offset="0.65684658"
         id="stop5465-87-99" />
      <stop
         style="stop-color:#fff4b0;stop-opacity:1"
         offset="0.83260447"
         id="stop5463-81-82" />
      <stop
         id="stop5459-95-4"
         offset="1"
         style="stop-color:#7d5a00;stop-opacity:1" />
    </linearGradient>
    <linearGradient
       y2="16.698767"
       x2="44.450245"
       y1="13.713565"
       x1="44.450245"
       gradientTransform="matrix(1,0,0,1.1666667,-15.750771,2.502158)"
       gradientUnits="userSpaceOnUse"
       id="linearGradient4346-1"
       xlink:href="#linearGradient5455-1-9"
       inkscape:collect="always" />
    <linearGradient
       x1="23.06352"
       y1="12.978221"
       x2="23.06352"
       y2="36.949589"
       id="linearGradient3036"
       xlink:href="#linearGradient4311"
       gradientUnits="userSpaceOnUse"
       gradientTransform="matrix(1,0,0,-1,0.01390475,49.512147)" />
    <linearGradient
       id="linearGradient4311">
      <stop
         id="stop4313"
         style="stop-color:#000000;stop-opacity:1"
         offset="0" />
      <stop
         id="stop4315"
         style="stop-color:#000000;stop-opacity:0"
         offset="1" />
    </linearGradient>
    <linearGradient
       gradientTransform="translate(0.01390475,-0.5)"
       x1="23.06352"
       y1="12.978221"
       x2="23.06352"
       y2="36.949589"
       id="linearGradient3039"
       xlink:href="#linearGradient4311"
       gradientUnits="userSpaceOnUse" />
    <linearGradient
       id="linearGradient3210">
      <stop
         id="stop3212"
         style="stop-color:#000000;stop-opacity:1"
         offset="0" />
      <stop
         id="stop3214"
         style="stop-color:#000000;stop-opacity:0"
         offset="1" />
    </linearGradient>
    <linearGradient
       x1="18.768566"
       y1="31.732327"
       x2="36.911968"
       y2="31.732327"
       id="linearGradient4525"
       xlink:href="#linearGradient2819"
       gradientUnits="userSpaceOnUse"
       gradientTransform="matrix(0.7994779,0,0,0.7994779,-4.8564833,-0.5105379)"
       spreadMethod="reflect" />
    <linearGradient
       id="linearGradient2819">
      <stop
         id="stop2821"
         style="stop-color:#e1e1e1;stop-opacity:1"
         offset="0" />
      <stop
         id="stop2823"
         style="stop-color:#979797;stop-opacity:1"
         offset="1" />
    </linearGradient>
    <linearGradient
       x1="46.984661"
       y1="43.240829"
       x2="50.681435"
       y2="41.108143"
       id="linearGradient4523"
       xlink:href="#linearGradient3051"
       gradientUnits="userSpaceOnUse"
       gradientTransform="matrix(0.7572985,0,0,0.7913813,-3.3125133,-1.9325279)" />
    <linearGradient
       id="linearGradient3051">
      <stop
         id="stop3053"
         style="stop-color:#4a4a4a;stop-opacity:1"
         offset="0" />
      <stop
         id="stop3055"
         style="stop-color:#000000;stop-opacity:0"
         offset="1" />
    </linearGradient>
    <linearGradient
       x1="-22.538548"
       y1="43.29155"
       x2="-27.001842"
       y2="40.177597"
       id="linearGradient4521"
       xlink:href="#linearGradient3051"
       gradientUnits="userSpaceOnUse"
       gradientTransform="matrix(0.708138,0,0,0.8212568,31.913414,-2.6854889)" />
    <linearGradient
       x1="27.979242"
       y1="36.8974"
       x2="38.781452"
       y2="36.897404"
       id="linearGradient4519"
       xlink:href="#linearGradient3609"
       gradientUnits="userSpaceOnUse"
       gradientTransform="matrix(1.0577375,0,0,0.7914116,-15.709397,-1.9321179)"
       spreadMethod="reflect" />
    <linearGradient
       id="linearGradient3609">
      <stop
         id="stop3611"
         style="stop-color:#e1e1e1;stop-opacity:1"
         offset="0" />
      <stop
         id="stop3613"
         style="stop-color:#4d4d4d;stop-opacity:1"
         offset="1" />
    </linearGradient>
    <linearGradient
       id="linearGradient3932">
      <stop
         id="stop3934"
         style="stop-color:#828282;stop-opacity:1"
         offset="0" />
      <stop
         id="stop3936"
         style="stop-color:#434343;stop-opacity:1"
         offset="1" />
    </linearGradient>
    <linearGradient
       id="linearGradient5684"
       y2="8"
       xlink:href="#linearGradient6814"
       gradientUnits="userSpaceOnUse"
       x2="27.990999"
       gradientTransform="matrix(0.90118015,0,0,1.2,-2.173663,-3.7677682)"
       y1="13"
       x1="27.976" />
    <linearGradient
       id="linearGradient6814">
      <stop
         id="stop6816"
         style="stop-color:#e6e6e6"
         offset="0" />
      <stop
         id="stop6818"
         style="stop-color:#fafafa"
         offset="1" />
    </linearGradient>
    <linearGradient
       id="linearGradient5687"
       y2="32.999001"
       gradientUnits="userSpaceOnUse"
       x2="18"
       gradientTransform="matrix(1.3333,0,0,0.38462,-6,-7.6923)"
       y1="46"
       x1="18">
      <stop
         id="stop7402"
         style="stop-opacity:0"
         offset="0" />
      <stop
         id="stop7404"
         offset=".35001" />
      <stop
         id="stop7406"
         style="stop-opacity:0"
         offset="1" />
    </linearGradient>
    <linearGradient
       y2="32.999001"
       x2="18"
       y1="46"
       x1="18"
       gradientTransform="matrix(1.1469487,0,0,0.38462,-1.8459142,-3.8600682)"
       gradientUnits="userSpaceOnUse"
       id="linearGradient3098"
       xlink:href="#linearGradient5687"
       inkscape:collect="always" />
    <linearGradient
       id="linearGradient5626"
       y2="26.030001"
       gradientUnits="userSpaceOnUse"
       x2="9"
       gradientTransform="matrix(0.63801,-0.64114,0.85963,0.85535,-2.3187946,17.224878)"
       y1="29.056999"
       x1="9">
      <stop
         id="stop2607"
         style="stop-color:#ece5a5"
         offset="0" />
      <stop
         id="stop2609"
         style="stop-color:#fcfbf2"
         offset="1" />
    </linearGradient>
    <linearGradient
       id="linearGradient5628"
       y2="41.391998"
       gradientUnits="userSpaceOnUse"
       x2="9.5221004"
       gradientTransform="matrix(0.56036,0.024186,0.024156,0.55967,20.889105,13.597878)"
       y1="37.372002"
       x1="5.5179">
      <stop
         id="stop2613"
         style="stop-color:#dbce48"
         offset="0" />
      <stop
         id="stop2615"
         style="stop-color:#c5b625"
         offset="1" />
    </linearGradient>
    <linearGradient
       id="linearGradient5631"
       y2="30"
       gradientUnits="userSpaceOnUse"
       x2="30.038"
       gradientTransform="matrix(0.63801,-0.64114,0.85963,0.85535,-0.98622456,15.884878)"
       y1="24.99"
       x1="30.038">
      <stop
         id="stop2599"
         style="stop-color:#b1b1b1"
         offset="0" />
      <stop
         id="stop2601"
         style="stop-color:#fff"
         offset=".5" />
      <stop
         id="stop2603"
         style="stop-color:#8f8f8f"
         offset="1" />
    </linearGradient>
    <linearGradient
       id="linearGradient5634"
       y2="30"
       gradientUnits="userSpaceOnUse"
       x2="30.038"
       gradientTransform="matrix(0.63801,-0.64114,0.85963,0.85535,-0.80350456,15.701878)"
       y1="24.99"
       x1="30.038">
      <stop
         id="stop2591"
         style="stop-color:#565656"
         offset="0" />
      <stop
         id="stop2593"
         style="stop-color:#9a9a9a"
         offset=".5" />
      <stop
         id="stop2595"
         style="stop-color:#545454"
         offset="1" />
    </linearGradient>
    <linearGradient
       id="linearGradient5637"
       y2="30"
       gradientUnits="userSpaceOnUse"
       x2="30.038"
       gradientTransform="matrix(0.63801,-0.64114,0.85963,0.85535,-1.6241946,16.526878)"
       y1="24.99"
       x1="30.038">
      <stop
         id="stop2583"
         style="stop-color:#b1b1b1"
         offset="0" />
      <stop
         id="stop2585"
         style="stop-color:#fff"
         offset=".5" />
      <stop
         id="stop2587"
         style="stop-color:#8f8f8f"
         offset="1" />
    </linearGradient>
    <linearGradient
       id="linearGradient5641"
       y2="30"
       gradientUnits="userSpaceOnUse"
       x2="30.038"
       gradientTransform="matrix(0.63801,-0.64114,0.85963,0.85535,-1.4414946,16.342878)"
       y1="24.99"
       x1="30.038">
      <stop
         id="stop2575"
         style="stop-color:#565656"
         offset="0" />
      <stop
         id="stop2577"
         style="stop-color:#9a9a9a"
         offset=".5" />
      <stop
         id="stop2579"
         style="stop-color:#545454"
         offset="1" />
    </linearGradient>
    <linearGradient
       id="linearGradient5644"
       y2="30"
       gradientUnits="userSpaceOnUse"
       x2="30.038"
       gradientTransform="matrix(0.63801,-0.64114,0.85963,0.85535,-2.2591946,17.164878)"
       y1="24.99"
       x1="30.038">
      <stop
         id="stop2567"
         style="stop-color:#b1b1b1"
         offset="0" />
      <stop
         id="stop2569"
         style="stop-color:#fff"
         offset=".5" />
      <stop
         id="stop2571"
         style="stop-color:#8f8f8f"
         offset="1" />
    </linearGradient>
    <linearGradient
       id="linearGradient5647"
       y2="30"
       gradientUnits="userSpaceOnUse"
       x2="30.038"
       gradientTransform="matrix(0.63801,-0.64114,0.85963,0.85535,-2.0764946,16.980878)"
       y1="24.99"
       x1="30.038">
      <stop
         id="stop2559"
         style="stop-color:#565656"
         offset="0" />
      <stop
         id="stop2561"
         style="stop-color:#9a9a9a"
         offset=".5" />
      <stop
         id="stop2563"
         style="stop-color:#545454"
         offset="1" />
    </linearGradient>
    <linearGradient
       id="linearGradient5652"
       y2="31.211"
       gradientUnits="userSpaceOnUse"
       x2="23.576"
       gradientTransform="matrix(0.65657,-0.65979,0.73452,0.73087,0.32959544,20.356878)"
       y1="25.357"
       x1="23.576">
      <stop
         id="stop2541"
         style="stop-color:#181818"
         offset="0" />
      <stop
         id="stop2543"
         style="stop-color:#dbdbdb"
         offset=".13483" />
      <stop
         id="stop2545"
         style="stop-color:#a4a4a4"
         offset=".20224" />
      <stop
         id="stop2547"
         style="stop-color:#fff"
         offset=".26966" />
      <stop
         id="stop2549"
         style="stop-color:#8d8d8d"
         offset=".44650" />
      <stop
         id="stop2551"
         style="stop-color:#959595"
         offset=".57114" />
      <stop
         id="stop2553"
         style="stop-color:#cecece"
         offset=".72038" />
      <stop
         id="stop2555"
         style="stop-color:#181818"
         offset="1" />
    </linearGradient>
  </defs>
  <metadata
     id="metadata4122">
    <rdf:RDF>
      <cc:Work
         rdf:about="">
        <dc:format>image/svg+xml</dc:format>
        <dc:type
           rdf:resource="http://purl.org/dc/dcmitype/StillImage" />
        <dc:title></dc:title>
      </cc:Work>
    </rdf:RDF>
  </metadata>
  <g
     transform="matrix(1.1,0,0,0.4444449,-2.4000022,25.11107)"
     id="g2036"
     style="display:inline">
    <g
       transform="matrix(1.052632,0,0,1.285713,-1.263158,-13.42854)"
       id="g3712"
       style="opacity:0.4">
      <rect
         width="5"
         height="7"
         x="38"
         y="40"
         id="rect2801"
         style="fill:url(#radialGradient2873-966-168);fill-opacity:1;stroke:none" />
      <rect
         width="5"
         height="7"
         x="-10"
         y="-47"
         transform="scale(-1,-1)"
         id="rect3696"
         style="fill:url(#radialGradient2875-742-326);fill-opacity:1;stroke:none" />
      <rect
         width="28"
         height="7.0000005"
         x="10"
         y="40"
         id="rect3700"
         style="fill:url(#linearGradient2877-634-617);fill-opacity:1;stroke:none" />
    </g>
  </g>
  <rect
     width="38"
     height="38"
     x="5"
     y="-43.967438"
     transform="scale(1,-1)"
     id="rect5505"
     style="color:#000000;fill:url(#radialGradient3309);fill-opacity:1;fill-rule:nonzero;stroke:none;stroke-width:1;marker:none;visibility:visible;display:inline;overflow:visible;enable-background:accumulate"
     rx="1.5"
     ry="1.5" />
  <rect
     width="39"
     height="39"
     rx="2"
     ry="2"
     x="4.5"
     y="5.4674392"
     id="rect5505-21"
     style="color:#000000;fill:none;fill-opacity:1;fill-rule:nonzero;stroke:url(#linearGradient3306-4);stroke-width:1;stroke-linecap:round;stroke-linejoin:round;stroke-miterlimit:4;stroke-opacity:1;stroke-dasharray:none;stroke-dashoffset:0;marker:none;visibility:visible;display:inline;overflow:visible;enable-background:accumulate" />
  <rect
     width="37"
     height="37"
     rx="1"
     ry="1"
     x="5.5"
     y="6.4674392"
     id="rect6741-2"
     style="fill:none;stroke:url(#linearGradient3084);stroke-width:1;stroke-linecap:round;stroke-linejoin:round;stroke-miterlimit:4;stroke-opacity:1;stroke-dasharray:none;stroke-dashoffset:0" />
  <g
     transform="translate(-135.85714,-31.05041)"
     id="layer2"
     style="display:none">
    <path
       d="M 11,7 48,5 85,7 c 3.324,0 6,2.676 6,6 l 0,73 c 0,3.324 -2.676,6 -6,6 L 11,92 C 7.676,92 5,89.324 5,86 L 5,13 C 5,9.676 7.676,7 11,7 z"
       inkscape:connector-curvature="0"
       id="rect3745"
       style="opacity:0.9;fill:url(#ButtonShadow);fill-opacity:1;fill-rule:nonzero;stroke:none;filter:url(#filter3174)" />
  </g>
  <g
     transform="translate(-135.85714,-31.05041)"
     id="layer4"
     style="display:none">
    <rect
       width="30"
       height="30"
       rx="2.8125"
       ry="2.8125"
       x="-86"
       y="56"
       transform="matrix(0,-1,1,0,0,4)"
       id="rect3790"
       style="opacity:0.6;fill:#000000;fill-opacity:1;stroke:none;filter:url(#filter3806)" />
    <rect
       width="30"
       height="30"
       rx="2.8125"
       ry="2.8125"
       x="-88"
       y="56"
       transform="matrix(0,-1,1,0,0,0)"
       id="rect2993"
       style="fill:url(#linearGradient3773);fill-opacity:1;stroke:none" />
    <path
       d="M 58.8125,58 C 57.254375,58 56,59.254375 56,60.8125 l 0,24.375 c 0,0.873066 0.410816,1.641163 1.03125,2.15625 C 57.02841,87.289908 57,87.242129 57,87.1875 l 0,-24.375 C 57,61.254375 58.17075,60 59.625,60 l 22.75,0 C 83.82925,60 85,61.254375 85,62.8125 l 0,24.375 c 0,0.05463 -0.02841,0.102408 -0.03125,0.15625 C 85.589184,86.828663 86,86.060566 86,85.1875 l 0,-24.375 C 86,59.254375 84.745625,58 83.1875,58 l -24.375,0 z"
       inkscape:connector-curvature="0"
       id="rect3775"
       style="opacity:0.5;fill:url(#linearGradient3788);fill-opacity:1;stroke:none" />
    <path
       d="m 116,63.5 0,8.75 -5,0 10,13.75 10,-13.75 -5,0 0,-8.75 -10,0 z"
       inkscape:connector-curvature="0"
       transform="translate(-50,0)"
       clip-path="url(#clipPath3823)"
       id="path3810"
       style="opacity:0.6;fill:url(#linearGradient3812);fill-opacity:1;fill-rule:nonzero;stroke:none;display:inline;filter:url(#filter3831)" />
    <path
       d="m 66,62.5 0,8.75 -5,0 10,13.75 10,-13.75 -5,0 0,-8.75 -10,0 z"
       inkscape:connector-curvature="0"
       id="path4278"
       style="fill:url(#linearGradient3832);fill-opacity:1;fill-rule:nonzero;stroke:none;display:inline" />
  </g>
  <rect
     id="rect6800"
     style="fill:#aaaaaa"
     height="1"
     width="37.850254"
     y="11.832232"
     x="5.0359502" />
  <path
     inkscape:connector-curvature="0"
     id="path5721"
     style="fill:#999999"
     d="m 10.052105,8.053878 0,2 2.9375,0 0,-2 z m 4.0938,0 0,2 0.9375,0 0,-2 z m 1.9375,0 0,2 2,0 0,-2 z m 3,0 0,2 2,0 0,-2 z m 3.0625,0 0,2 2.9375,0 0,-2 z m 4.0312,0 0,2 1,0 0,-2 z m -16.031,10 0,2 2,0 0,-2 z m 4,0 0,2 4,0 0,-2 z m 5,0 0,2 1,0 0,-2 z m 2,0 0,2 2,0 0,-2 z m 3,0 0,2 1,0 0,-2 z m -14,6 0,2 2.9375,0 0,-2 z m 4,0 0,2 2,0 0,-2 z m 3,0 0,2 1,0 0,-2 z m 3,0 0,2 2,0 0,-2 z m 3.0938,0 0,2 2.9062,0 0,-2 z m -13.094,6 0,2 1,0 0,-2 z m 2,0 0,2 1,0 0,-2 z m 2,0 0,2 4,0 0,-2 z m 6,0 0,2 2,0 0,-2 z m 3,0 0,2 3,0 0,-2 z"
     sodipodi:nodetypes="ccccccccccccccccccccccccccccccccccccccccccccccccccccccccccccccccccccccccccccccccccccccccccccccccccccccccc" />
  <rect
     id="rect5731"
     style="fill:#3689e6;fill-opacity:1;stroke:#185f9a;stroke-width:0.99989003;stroke-linecap:square;stroke-miterlimit:10;stroke-opacity:1"
     rx="1"
     ry="1"
     height="5.0001001"
     width="28"
     y="34.553879"
     x="7.4580054" />
  <path
     inkscape:connector-curvature="0"
     id="rect7428"
     style="fill:#4d4d4d;enable-background:new"
     d="m 10.146105,36.053878 v 2 h 1 v -2 h -1 z m 3,0 v 2 h 2.9375 v -2 h -2.9375 z m 4,0 v 2 h 2 v -2 h -2 z m 3,0 v 2 h 1 v -2 h -1 z m 2.0938,0 v 2 h 2.9062 v -2 h -2.9062 z" />
  <path
     inkscape:connector-curvature="0"
     id="path5086"
     style="opacity:0.15;fill:#0c0c0c;fill-rule:evenodd"
     d="m 37.958105,25.053878 c -3.7695,2.4772 -7.5566,4.928 -11.315,7.4225 -0.42763,0.28244 -0.87932,0.60562 -1.2935,0.85927 -0.797,1.846 -1.595,3.692 -2.392,5.538 1.973,0.06 3.946,0.12 5.919,0.18 3.055,-1.954 6.053,-3.999 9.081,-5.996 v -8.004 z" />
  <path
     inkscape:connector-curvature="0"
     id="path5090"
     style="fill:url(#linearGradient5652);stroke:#0c0c0c;stroke-width:0.5;stroke-linejoin:round"
     d="m 26.277105,31.521878 c 0.44592,-0.33462 1.6971,0.29307 2.8469,1.4371 1.147,1.1413 1.7514,2.3626 1.4244,2.8129 -0.0012,0.0017 0.02814,0.02504 0.02686,0.02673 l 16.01,-16.088 c 0.406,-0.409 -0.225,-1.7 -1.412,-2.88 -1.186,-1.18 -2.48,-1.806 -2.886,-1.397 l -16.01,16.088 z" />
  <path
     inkscape:connector-curvature="0"
     id="path5092"
     style="opacity:0.8;fill:#ffb6ed;stroke:#e28ccd;stroke-width:0.5;stroke-linejoin:round"
     d="m 40.333105,17.396878 c 0.44592,-0.33462 1.6971,0.29307 2.8469,1.4371 1.147,1.1413 1.7514,2.3626 1.4244,2.8129 -0.0012,0.0017 0.02814,0.02504 0.02686,0.02673 l 1.9539,-1.9635 0.03988,-0.04007 c 0.0013,-0.0017 -0.02811,-0.02502 -0.02687,-0.02673 0.32704,-0.45028 -0.27735,-1.6716 -1.4244,-2.8129 -1.1498,-1.1441 -2.401,-1.7717 -2.8469,-1.4371 l -0.03988,0.04007 -1.9539,1.9635 z" />
  <path
     inkscape:connector-curvature="0"
     id="path5094"
     style="opacity:0.6;fill:#0c0c0c"
     d="m 26.277105,31.521878 c 0.44592,-0.33462 1.6971,0.29307 2.8469,1.4371 1.147,1.1413 1.7514,2.3626 1.4244,2.8129 -0.0012,0.0017 0.02813,0.02504 0.02686,0.02673 l 11.026,-11.08 0.03988,-0.04007 c 0.0013,-0.0017 -0.02811,-0.02502 -0.02686,-0.02673 0.32704,-0.45029 -0.27735,-1.6716 -1.4244,-2.8129 -1.1498,-1.1441 -2.401,-1.7717 -2.8469,-1.4371 l -0.03988,0.04007 -11.026,11.08 z" />
  <path
     inkscape:connector-curvature="0"
     id="path5096"
     style="fill:url(#linearGradient5647)"
     d="m 38.143105,19.597878 c 0.44592,-0.33462 1.6971,0.29307 2.8469,1.4371 1.147,1.1413 1.7514,2.3626 1.4244,2.8129 -0.0012,0.0017 0.02813,0.02504 0.02686,0.02673 l 0.19938,-0.20036 c 0.0013,-0.0017 -0.02811,-0.02502 -0.02686,-0.02673 0.32704,-0.45029 -0.27735,-1.6716 -1.4244,-2.8129 -1.1498,-1.1441 -2.401,-1.7717 -2.8469,-1.4371 l -0.19938,0.20036 z" />
  <path
     inkscape:connector-curvature="0"
     id="path5098"
     style="fill:url(#linearGradient5644)"
     d="m 37.960105,19.781878 c 0.44592,-0.33462 1.6971,0.29307 2.8469,1.4371 1.147,1.1413 1.7514,2.3626 1.4244,2.8129 -0.0012,0.0017 0.02813,0.02504 0.02687,0.02673 l 0.19938,-0.20036 c 0.0013,-0.0017 -0.02811,-0.02502 -0.02686,-0.02673 0.32704,-0.45029 -0.27735,-1.6716 -1.4244,-2.8129 -1.1498,-1.1441 -2.401,-1.7717 -2.8469,-1.4371 l -0.19938,0.20036 z" />
  <path
     inkscape:connector-curvature="0"
     id="path5100"
     style="fill:url(#linearGradient5641)"
     d="m 38.778105,18.959878 c 0.44592,-0.33462 1.6971,0.29307 2.8469,1.4371 1.147,1.1413 1.7514,2.3626 1.4244,2.8129 -0.0012,0.0017 0.02813,0.02504 0.02686,0.02673 l 0.19938,-0.20036 c 0.0013,-0.0017 -0.02811,-0.02502 -0.02686,-0.02673 0.32704,-0.45029 -0.27735,-1.6716 -1.4244,-2.8129 -1.1498,-1.1441 -2.401,-1.7717 -2.8469,-1.4371 l -0.19938,0.20036 z" />
  <path
     inkscape:connector-curvature="0"
     id="path5102"
     style="fill:url(#linearGradient5637)"
     d="m 38.595105,19.143878 c 0.44592,-0.33462 1.6971,0.29307 2.8469,1.4371 1.147,1.1413 1.7514,2.3626 1.4244,2.8129 -0.0012,0.0017 0.02814,0.02504 0.02686,0.02673 l 0.19938,-0.20036 c 0.0013,-0.0017 -0.02811,-0.02502 -0.02686,-0.02673 0.32704,-0.45028 -0.27734,-1.6716 -1.4244,-2.8129 -1.1498,-1.1441 -2.401,-1.7717 -2.8469,-1.4371 l -0.19938,0.20036 z" />
  <path
     inkscape:connector-curvature="0"
     id="path5104"
     style="fill:url(#linearGradient5634)"
     d="m 39.416105,18.318878 c 0.44592,-0.33462 1.6971,0.29307 2.8469,1.4371 1.147,1.1413 1.7514,2.3626 1.4244,2.8129 -0.0012,0.0017 0.02814,0.02504 0.02686,0.02673 l 0.19938,-0.20036 c 0.0013,-0.0017 -0.0281,-0.02502 -0.02686,-0.02673 0.32704,-0.45028 -0.27735,-1.6716 -1.4244,-2.8129 -1.1498,-1.1441 -2.401,-1.7717 -2.8469,-1.4371 l -0.19938,0.20036 z" />
  <path
     inkscape:connector-curvature="0"
     id="path5106"
     style="fill:url(#linearGradient5631)"
     d="m 39.233105,18.502878 c 0.44592,-0.33462 1.6971,0.29307 2.8469,1.4371 1.147,1.1413 1.7514,2.3626 1.4244,2.8129 -0.0012,0.0017 0.02814,0.02504 0.02686,0.02673 l 0.19938,-0.20035 c 0.0013,-0.0017 -0.02811,-0.02502 -0.02686,-0.02673 0.32704,-0.45029 -0.27735,-1.6716 -1.4244,-2.8129 -1.1498,-1.1441 -2.401,-1.7717 -2.8469,-1.4371 l -0.19938,0.20036 z" />
  <path
     inkscape:connector-curvature="0"
     id="path5108"
     style="fill:url(#linearGradient5626);fill-rule:evenodd;stroke:url(#linearGradient5628);stroke-width:0.5"
     d="m 23.208105,38.803878 7.2837,-2.9708 0.06206,-0.06205 c 0.32704,-0.45028 -0.28523,-1.6717 -1.4323,-2.813 -1.1498,-1.1441 -2.3995,-1.7683 -2.8454,-1.4337 l -3.0681,7.2795 z" />
  <path
     inkscape:connector-curvature="0"
     id="path5110"
     style="fill:#0c0c0c;fill-rule:evenodd;stroke:#0c0c0c;stroke-width:0.5"
     d="m 24.040105,36.832878 -0.832,1.963 1.987,-0.814 c -0.16,-0.191 -0.307,-0.384 -0.498,-0.575 -0.22,-0.219 -0.436,-0.396 -0.657,-0.574 z" />
</svg>
