<?xml version="1.0" encoding="UTF-8" standalone="no"?>
<!-- Created with Inkscape (http://www.inkscape.org/) -->

<svg
   xmlns:dc="http://purl.org/dc/elements/1.1/"
   xmlns:cc="http://creativecommons.org/ns#"
   xmlns:rdf="http://www.w3.org/1999/02/22-rdf-syntax-ns#"
   xmlns:svg="http://www.w3.org/2000/svg"
   xmlns="http://www.w3.org/2000/svg"
   xmlns:xlink="http://www.w3.org/1999/xlink"
   xmlns:sodipodi="http://sodipodi.sourceforge.net/DTD/sodipodi-0.dtd"
   xmlns:inkscape="http://www.inkscape.org/namespaces/inkscape"
   id="svg11300"
   height="48"
   width="48"
   version="1.0"
   inkscape:version="0.48.4 r9939"
   sodipodi:docname="winusbgui-icon.svg">
  <metadata
     id="metadata49">
    <rdf:RDF>
      <cc:Work
         rdf:about="">
        <dc:format>image/svg+xml</dc:format>
        <dc:type
           rdf:resource="http://purl.org/dc/dcmitype/StillImage" />
        <dc:title></dc:title>
      </cc:Work>
    </rdf:RDF>
  </metadata>
  <sodipodi:namedview
     pagecolor="#ffffff"
     bordercolor="#666666"
     borderopacity="1"
     objecttolerance="10"
     gridtolerance="10"
     guidetolerance="10"
     inkscape:pageopacity="0"
     inkscape:pageshadow="2"
     inkscape:window-width="1266"
     inkscape:window-height="939"
     id="namedview47"
     showgrid="true"
     inkscape:zoom="11.943328"
     inkscape:cx="27.142434"
     inkscape:cy="24.060027"
     inkscape:window-x="472"
     inkscape:window-y="24"
     inkscape:window-maximized="0"
     inkscape:current-layer="svg11300">
    <inkscape:grid
       type="xygrid"
       id="grid3796" />
  </sodipodi:namedview>
  <defs
     id="defs3">
    <linearGradient
       id="linearGradient3506">
      <stop
         id="stop3508"
         style="stop-color:#3c3c3c"
         offset="0" />
      <stop
         id="stop3510"
         style="stop-color:#3c3c3c;stop-opacity:.22745"
         offset="1" />
    </linearGradient>
    <linearGradient
       id="linearGradient3494">
      <stop
         id="stop3496"
         style="stop-color:#282828;stop-opacity:.82353"
         offset="0" />
      <stop
         id="stop3498"
         style="stop-color:#282828;stop-opacity:0"
         offset="1" />
    </linearGradient>
    <radialGradient
       id="radialGradient7374"
       gradientUnits="userSpaceOnUse"
       cy="41.636"
       cx="23.335"
       gradientTransform="matrix(0.57452,0,0,0.15462,0.11131637,37.114968)"
       r="22.627">
      <stop
         id="stop23421"
         offset="0" />
      <stop
         id="stop23423"
         style="stop-opacity:0"
         offset="1" />
    </radialGradient>
    <linearGradient
       id="linearGradient7469"
       y2="9.1187"
       xlink:href="#linearGradient3494"
       gradientUnits="userSpaceOnUse"
       x2="20.405"
       gradientTransform="matrix(1.3252,0,0,1.3105,-10.487926,-51.014968)"
       y1="6.9878"
       x1="20.405" />
    <linearGradient
       id="linearGradient7471"
       y2="10.01"
       xlink:href="#linearGradient3506"
       gradientUnits="userSpaceOnUse"
       x2="21.718"
       gradientTransform="matrix(1.3252,0,0,1.3105,-10.487926,-51.014968)"
       y1="6.1797"
       x1="21.718" />
    <linearGradient
       id="linearGradient7475"
       y2="9.1187"
       xlink:href="#linearGradient3494"
       gradientUnits="userSpaceOnUse"
       x2="20.405"
       gradientTransform="matrix(1.3252,0,0,1.3105,-16.487884,-51.014968)"
       y1="6.9878"
       x1="20.405" />
    <linearGradient
       id="linearGradient7477"
       y2="10.01"
       xlink:href="#linearGradient3506"
       gradientUnits="userSpaceOnUse"
       x2="21.718"
       gradientTransform="matrix(1.3252,0,0,1.3105,-16.487884,-51.014968)"
       y1="6.1797"
       x1="21.718" />
    <linearGradient
       id="linearGradient8579"
       y2="1.25"
       gradientUnits="userSpaceOnUse"
       x2="15"
       y1="36"
       x1="15"
       gradientTransform="translate(-10.482684,0.0529679)">
      <stop
         id="stop3823"
         style="stop-color:gray"
         offset="0" />
      <stop
         id="stop3825"
         style="stop-color:#999"
         offset="1" />
    </linearGradient>
    <linearGradient
       id="linearGradient8838"
       y2="35.875"
       gradientUnits="userSpaceOnUse"
       x2="25"
       y1="1.125"
       x1="25"
       gradientTransform="translate(-10.482684,0.0529679)">
      <stop
         id="stop3145"
         style="stop-color:#e6e6e6"
         offset="0" />
      <stop
         id="stop3147"
         style="stop-color:#afafaf"
         offset="1" />
    </linearGradient>
    <radialGradient
       id="radialGradient9547"
       gradientUnits="userSpaceOnUse"
       cy="-36.857"
       cx="21.333"
       gradientTransform="matrix(1.625,-2.2661e-7,1.9175e-7,1.375,-23.149684,13.626032)"
       r="8">
      <stop
         id="stop9129"
         style="stop-color:#f0f0f0"
         offset="0" />
      <stop
         id="stop9131"
         style="stop-color:#a9a9a9"
         offset="1" />
    </radialGradient>
    <linearGradient
       id="linearGradient9563"
       y2="-44"
       gradientUnits="userSpaceOnUse"
       x2="24"
       y1="-35"
       x1="24"
       gradientTransform="translate(-10.482684,-0.0529679)">
      <stop
         id="stop9559"
         style="stop-color:#eeeeec"
         offset="0" />
      <stop
         id="stop9561"
         style="stop-color:#eeeeec;stop-opacity:0"
         offset="1" />
    </linearGradient>
    <linearGradient
       id="linearGradient9571"
       y2="-40"
       gradientUnits="userSpaceOnUse"
       x2="32"
       y1="-40"
       x1="16"
       gradientTransform="translate(-10.482684,-0.0529679)">
      <stop
         id="stop9575"
         style="stop-color:#8f8f8f"
         offset="0" />
      <stop
         id="stop9577"
         style="stop-color:#5f5f5f"
         offset=".12709" />
      <stop
         id="stop9579"
         style="stop-color:#616161"
         offset=".87578" />
      <stop
         id="stop9581"
         style="stop-color:#9e9e9e"
         offset="1" />
    </linearGradient>
    <filter
       id="filter10041"
       color-interpolation-filters="sRGB">
      <feGaussianBlur
         id="feGaussianBlur10043"
         stdDeviation="0.51" />
    </filter>
    <radialGradient
       cx="38"
       cy="69"
       r="20"
       fx="28.603323"
       fy="69"
       id="radialGradient6025"
       xlink:href="#linearGradient6019"
       gradientUnits="userSpaceOnUse"
       gradientTransform="matrix(1,0,0,0.45,0,37.95)" />
    <linearGradient
       id="linearGradient6019">
      <stop
         id="stop6021"
         style="stop-color:#000000;stop-opacity:1"
         offset="0" />
      <stop
         id="stop6023"
         style="stop-color:#000000;stop-opacity:0"
         offset="1" />
    </linearGradient>
    <linearGradient
       x1="28"
       y1="16"
       x2="26"
       y2="8"
       id="linearGradient5964"
       xlink:href="#linearGradient5958"
       gradientUnits="userSpaceOnUse"
       gradientTransform="translate(-2,0)" />
    <linearGradient
       id="linearGradient5958">
      <stop
         id="stop5960"
         style="stop-color:#c17d11;stop-opacity:1"
         offset="0" />
      <stop
         id="stop5962"
         style="stop-color:#e9b96e;stop-opacity:1"
         offset="1" />
    </linearGradient>
    <linearGradient
       x1="30.324829"
       y1="9.2407961"
       x2="34"
       y2="18"
       id="linearGradient6002"
       xlink:href="#linearGradient5996"
       gradientUnits="userSpaceOnUse"
       gradientTransform="translate(-2,0)" />
    <linearGradient
       id="linearGradient5996">
      <stop
         id="stop5998"
         style="stop-color:#8f5902;stop-opacity:1"
         offset="0" />
      <stop
         id="stop6000"
         style="stop-color:#73521e;stop-opacity:1"
         offset="1" />
    </linearGradient>
    <linearGradient
       x1="28"
       y1="8"
       x2="33.447109"
       y2="16.685888"
       id="linearGradient5994"
       xlink:href="#linearGradient5984"
       gradientUnits="userSpaceOnUse" />
    <linearGradient
       id="linearGradient5984">
      <stop
         id="stop5986"
         style="stop-color:#ffffff;stop-opacity:1"
         offset="0" />
      <stop
         id="stop5988"
         style="stop-color:#ffffff;stop-opacity:0.13438736"
         offset="1" />
    </linearGradient>
    <linearGradient
       x1="20.933708"
       y1="25.060659"
       x2="30.208115"
       y2="30.742676"
       id="linearGradient5972"
       xlink:href="#linearGradient5966"
       gradientUnits="userSpaceOnUse"
       gradientTransform="translate(-2,0)" />
    <linearGradient
       id="linearGradient5966">
      <stop
         id="stop5968"
         style="stop-color:#fdef72;stop-opacity:1"
         offset="0" />
      <stop
         id="stop5970"
         style="stop-color:#e2cb0b;stop-opacity:1"
         offset="1" />
    </linearGradient>
    <linearGradient
       x1="17.032078"
       y1="27.446827"
       x2="29.494455"
       y2="37.845814"
       id="linearGradient5993"
       xlink:href="#linearGradient5987"
       gradientUnits="userSpaceOnUse"
       gradientTransform="translate(-2,0)" />
    <linearGradient
       id="linearGradient5987">
      <stop
         id="stop5989"
         style="stop-color:#d7c20f;stop-opacity:1"
         offset="0" />
      <stop
         id="stop5991"
         style="stop-color:#b6970d;stop-opacity:1"
         offset="1" />
    </linearGradient>
    <linearGradient
       x1="22.319767"
       y1="41.955986"
       x2="18.985712"
       y2="37.029255"
       id="linearGradient5973"
       xlink:href="#linearGradient5981"
       gradientUnits="userSpaceOnUse"
       gradientTransform="translate(-2,0)" />
    <linearGradient
       id="linearGradient5981">
      <stop
         id="stop5983"
         style="stop-color:#ffffff;stop-opacity:1"
         offset="0" />
      <stop
         id="stop5985"
         style="stop-color:#ffffff;stop-opacity:0.69411767"
         offset="1" />
    </linearGradient>
    <linearGradient
       x1="27.354809"
       y1="36.218422"
       x2="23.489431"
       y2="34.728424"
       id="linearGradient6005"
       xlink:href="#linearGradient5999"
       gradientUnits="userSpaceOnUse"
       gradientTransform="translate(-2,0)" />
    <linearGradient
       id="linearGradient5999">
      <stop
         id="stop6001"
         style="stop-color:#c4a000;stop-opacity:1"
         offset="0" />
      <stop
         id="stop6003"
         style="stop-color:#c4a000;stop-opacity:0"
         offset="1" />
    </linearGradient>
    <linearGradient
       x1="27.651777"
       y1="23.145937"
       x2="21.59099"
       y2="20.618719"
       id="linearGradient5980-761"
       xlink:href="#linearGradient5974-892"
       gradientUnits="userSpaceOnUse"
       gradientTransform="matrix(0.9768193,0,0,1,-1.3746633,0)" />
    <linearGradient
       id="linearGradient5974-892">
      <stop
         id="stop2473"
         style="stop-color:#919191;stop-opacity:1"
         offset="0" />
      <stop
         id="stop2475"
         style="stop-color:#cecece;stop-opacity:1"
         offset="1" />
    </linearGradient>
    <linearGradient
       y2="20.618719"
       x2="21.59099"
       y1="23.145937"
       x1="27.651777"
       gradientTransform="matrix(0.9768193,0,0,1,-1.3746633,0)"
       gradientUnits="userSpaceOnUse"
       id="linearGradient3096"
       xlink:href="#linearGradient5974-892"
       inkscape:collect="always" />
  </defs>
  <path
     id="path23417"
     style="opacity:0.4;fill:url(#radialGradient7374);fill-rule:evenodd"
     d="m 26.517316,43.552968 a 13,3.4986 0 0 1 -25.99999963,0 13,3.4986 0 1 1 25.99999963,0 z"
     inkscape:connector-curvature="0" />
  <rect
     id="rect4383"
     style="fill:#ffffff"
     rx="0.625"
     ry="0.625"
     height="9.5716"
     width="12.167"
     y="33.124969"
     x="7.5443158" />
  <rect
     id="rect3448"
     style="fill:url(#radialGradient9547);stroke:url(#linearGradient9571)"
     transform="scale(1,-1)"
     rx="0.56471002"
     ry="0.56471002"
     height="15"
     width="15"
     y="-44.552971"
     x="6.0173154" />
  <rect
     id="rect3450"
     style="opacity:0.88172003;fill:url(#linearGradient7475);stroke:url(#linearGradient7477);stroke-width:0.92000002"
     transform="scale(1,-1)"
     height="3.0799999"
     width="3.0799999"
     y="-41.592972"
     x="8.9773149" />
  <rect
     id="rect3458"
     style="opacity:0.71504989;fill:none;stroke:url(#linearGradient9563)"
     transform="scale(1,-1)"
     height="13"
     width="13"
     y="-43.552971"
     x="7.0173154" />
  <rect
     id="rect2874"
     style="opacity:0.88172003;fill:url(#linearGradient7469);stroke:url(#linearGradient7471);stroke-width:0.92000002"
     transform="scale(1,-1)"
     height="3.0799999"
     width="3.0799999"
     y="-41.592972"
     x="14.977317" />
  <rect
     id="rect5391"
     style="fill:url(#linearGradient8838);stroke:url(#linearGradient8579);stroke-linecap:round;stroke-linejoin:round"
     rx="1.625"
     ry="1.6208"
     height="34"
     width="21"
     y="1.5529679"
     x="3.0173156" />
  <rect
     id="rect8840"
     style="opacity:0.3;fill:#ffffff;filter:url(#filter10041)"
     rx="1.625"
     ry="1.6208"
     height="33"
     width="18"
     y="2.0529678"
     x="4.5173154" />
  <path
     id="path8593"
     style="opacity:0.95;fill:#ffffff"
     d="m 12.195316,28.372968 c 0,-1.2774 0.42456,-1.6088 0.94461,-2.0548 0.4175,-0.20154 0.48421,-0.33913 0.47872,-0.9873 -0.006,-0.71628 -0.07462,-0.63446 -1.4022,-1.7869 -2.027,-1.7595 -2.2995996,-2.1838 -2.5375996,-3.9494 -0.17556,-1.3022 -0.05242,-1.0157 -0.55638,-1.5166 -0.92759,-0.92193 -0.76867,-2.274 0.33557,-2.8551 0.9947796,-0.52348 2.1731996,0.03328 2.5365996,1.1985 0.17911,0.57427 -0.25029,1.566 -0.82688,1.9097 -0.52764,0.31455 -0.74654,-0.20987 -0.62588,0.94961 0.06678,0.64174 0.22952,1.3798 0.36164,1.6401 0.22691,0.44704 2.4489,2.5515 2.6906,2.5515 v -12.432 h -1.2317 c 0.57,-0.9882 1.125,-1.9924001 1.677,-2.9870001 l 1.7577,2.9874001 h -1.1972 v 8.42 c 0.16651,0 1.799,-1.6568 2.3483,-2.4027 0.23734,-0.32228 0.38137,-0.77989 0.38137,-1.2117 0,-0.65124 0.21476,-0.78818 -0.28196,-0.78818 h -0.5292 v -3.0516 h 2.9988 v 3.0516 h -0.4851 c -0.43284,0.05068 -0.74221,0.2713 -0.82392,0.99341 -0.12186,1.0769 -0.58309,1.7837 -2.2805,3.4947 l -1.3278,1.4319 v 5.1064 l 0.39238,0.23418 c 0.26681,0.1288 0.63426,0.54499 0.81656,0.92487 0.649,1.355 -0.254,2.811 -1.743,2.811 -1.079,-0.04 -1.871,-0.594 -1.871,-1.68 z"
     inkscape:connector-curvature="0" />
  <path
     id="path8591"
     style="opacity:0.95;fill:#464646"
     d="m 12.195316,29.372968 c 0,-1.2774 0.42456,-1.6088 0.94461,-2.0548 0.4175,-0.20154 0.48421,-0.33913 0.47872,-0.9873 -0.006,-0.71628 -0.07462,-0.63446 -1.4022,-1.7869 -2.027,-1.7595 -2.2995996,-2.1838 -2.5375996,-3.9494 -0.17556,-1.3022 -0.05242,-1.0157 -0.55638,-1.5166 -0.92759,-0.92193 -0.76867,-2.274 0.33557,-2.8551 0.9947796,-0.52348 2.1731996,0.03328 2.5365996,1.1985 0.17911,0.57427 -0.25029,1.566 -0.82688,1.9097 -0.52764,0.31455 -0.74654,-0.20987 -0.62588,0.94961 0.06678,0.64174 0.22952,1.3798 0.36164,1.6401 0.22691,0.44704 2.4489,2.5515 2.6906,2.5515 v -12.432 h -1.2317 c 0.57,-0.988 1.125,-1.9924 1.677,-2.9870001 l 1.7577,2.9874001 h -1.1972 v 8.42 c 0.16651,0 1.799,-1.6568 2.3483,-2.4027 0.23734,-0.32228 0.38137,-0.77989 0.38137,-1.2117 0,-0.65124 0.21476,-0.78818 -0.28196,-0.78818 h -0.5292 v -3.0516 h 2.9988 v 3.0516 h -0.4851 c -0.43284,0.05068 -0.74221,0.2713 -0.82392,0.99341 -0.12186,1.0769 -0.58309,1.7837 -2.2805,3.4947 l -1.3278,1.4319 v 5.1064 l 0.39238,0.23418 c 0.26681,0.1288 0.63426,0.54499 0.81656,0.92487 0.649,1.355 -0.254,2.811 -1.743,2.811 -1.079,-0.04 -1.871,-0.594 -1.871,-1.68 z"
     inkscape:connector-curvature="0" />
  <path
     id="path3690"
     style="opacity:0.95;fill:#aaaaaa"
     d="m 12.195316,28.872968 c 0,-1.2774 0.42456,-1.6088 0.94461,-2.0548 0.4175,-0.20154 0.48421,-0.33913 0.47872,-0.9873 -0.006,-0.71628 -0.07462,-0.63446 -1.4022,-1.7869 -2.027,-1.7595 -2.2995996,-2.1838 -2.5375996,-3.9494 -0.17556,-1.3022 -0.05242,-1.0157 -0.55638,-1.5166 -0.92759,-0.92193 -0.76867,-2.274 0.33557,-2.8551 0.9947796,-0.52348 2.1731996,0.03328 2.5365996,1.1985 0.17911,0.57427 -0.25029,1.566 -0.82688,1.9097 -0.52764,0.31455 -0.74654,-0.20987 -0.62588,0.94961 0.06678,0.64174 0.22952,1.3798 0.36164,1.6401 0.22691,0.44704 2.4489,2.5515 2.6906,2.5515 v -12.432 h -1.2317 c 0.57,-0.988 1.125,-1.9924001 1.677,-2.9870001 l 1.7577,2.9874001 h -1.1972 v 8.42 c 0.16651,0 1.799,-1.6568 2.3483,-2.4027 0.23734,-0.32228 0.38137,-0.77989 0.38137,-1.2117 0,-0.65124 0.21476,-0.78818 -0.28196,-0.78818 h -0.5292 v -3.0516 h 2.9988 v 3.0516 h -0.4851 c -0.43284,0.05068 -0.74221,0.2713 -0.82392,0.99341 -0.12186,1.0769 -0.58309,1.7837 -2.2805,3.4947 l -1.3278,1.4319 v 5.1064 l 0.39238,0.23418 c 0.26681,0.1288 0.63426,0.54499 0.81656,0.92487 0.649,1.355 -0.254,2.811 -1.743,2.811 -1.079,-0.04 -1.871,-0.594 -1.871,-1.68 z"
     inkscape:connector-curvature="0" />
  <g
     transform="translate(3.489149,-1.1619831)"
     id="layer1">
    <path
       d="m 58,69 a 20,9 0 1 1 -40,0 20,9 0 1 1 40,0 z"
       inkscape:connector-curvature="0"
       transform="matrix(1,0,0,0.6666668,-13.999999,-5.0000087)"
       id="path6017"
       style="opacity:0.25;fill:url(#radialGradient6025);fill-opacity:1;stroke:none" />
    <path
       d="m 34.59375,2.46875 c -8.203217,0.1056503 -9.3968,16.247526 -11.75,19.15625 l 4,1.4375 C 29.475623,18.689953 42.599746,4.1545034 35.40625,2.5 35.12676,2.4690309 34.85837,2.4653419 34.59375,2.46875 z m -1.03125,2.0625 c 0.193563,-0.018739 0.367986,0.00572 0.53125,0.09375 0.653056,0.3521226 0.723655,1.4948771 0.15625,2.53125 -0.567405,1.0363729 -1.565696,1.6021225 -2.21875,1.25 C 31.378197,8.0541272 31.307595,6.9113729 31.875,5.875 32.300554,5.0977202 32.981812,4.5874659 33.5625,4.53125 z"
       inkscape:connector-curvature="0"
       id="path5371"
       style="fill:url(#linearGradient5964);fill-opacity:1;fill-rule:evenodd;stroke:url(#linearGradient6002);stroke-width:1px;stroke-linecap:butt;stroke-linejoin:miter;stroke-opacity:1" />
    <path
       d="m 36.59375,3.46875 c -1.721618,0.022173 -3.007925,0.8558743 -4.1875,2.28125 -1.179575,1.4253757 -2.148334,3.4416354 -2.9375,5.59375 -0.789166,2.152115 -1.42404,4.43427 -2,6.375 -0.399891,1.347456 -0.769857,2.406448 -1.21875,3.34375 l 2.1875,0.78125 c 1.618594,-2.495624 5.038798,-6.591178 7.53125,-10.625 1.325839,-2.1457566 2.2837,-4.1780411 2.5,-5.5625 C 38.5769,4.9640206 38.513818,4.4833206 38.34375,4.1875 38.179059,3.9010309 37.880274,3.6629145 37.21875,3.5 37.019255,3.4812162 36.817917,3.4658629 36.59375,3.46875 z"
       inkscape:connector-curvature="0"
       transform="translate(-2,0)"
       id="path5992"
       style="opacity:0.26666667;fill:none;stroke:url(#linearGradient5994);stroke-width:1px;stroke-linecap:butt;stroke-linejoin:miter;stroke-opacity:1" />
    <path
       d="m 20.5,16.5 c 0.709506,2.003007 -0.541388,3.737831 -1,5 C 14.308433,23.045674 10.713199,31.203726 5.3674175,35.453585 6.0352055,36.150983 6.819644,36.897763 7.5,37.5 l 4.0625,-3.53125 -3.067556,4.524649 C 10.704181,40.284382 13,41.5 14.5,42 L 17.25,38.34375 15.5,42.5 c 1.451994,0.588882 4.985286,1.482025 7,1.5 l 2.00389,-3.402497 -0.513169,3.464997 c 0.829563,0.158359 2.438165,0.374216 3.509279,0.40625 3.362186,-5.5 4,-14.46875 2,-18.46875 -0.5,-2 1.5,-4.5 3,-5.5 -2.5,-2 -8.205589,-4.303726 -12,-4 z"
       inkscape:connector-curvature="0"
       id="path5367"
       style="fill:url(#linearGradient5972);fill-opacity:1;fill-rule:evenodd;stroke:url(#linearGradient5993);stroke-width:0.99999994;stroke-linecap:butt;stroke-linejoin:miter;stroke-miterlimit:20;stroke-opacity:1;stroke-dasharray:none" />
    <path
       d="M 9,38.5 C 13.816495,33.489105 13.465023,31.296074 19.116117,26.972272 16.133675,31.800703 15.650278,34.31233 12,40.5 l -3,-2 z"
       inkscape:connector-curvature="0"
       id="path5975"
       style="opacity:0.26666667;fill:#c4a000;fill-rule:evenodd;stroke:none" />
    <path
       d="m 16.149808,42.202452 4.346027,-9.840147 c 1.664513,-2.983727 2.859672,-5.970052 4.528973,-8.347353 -1.601954,5.418037 -4.89069,12.121793 -7.53125,18.625 l -1.34375,-0.4375 z"
       inkscape:connector-curvature="0"
       id="path5979"
       style="opacity:0.41568627;fill:#c4a000;fill-rule:evenodd;stroke:none" />
    <path
       d="m 21.625,17.5 c 0.09674,1.915146 -0.922943,3.529645 -1.21875,4.34375 -0.104103,0.284709 -0.33533,0.504374 -0.625,0.59375 -5.453398,2.234644 -7.629803,8.574038 -12.9946384,13.086167 0.2016424,0.199854 0.4920308,0.417304 0.6945296,0.608231 L 16.5,28.5 9.923385,38.310313 c 1.270033,1.027613 2.722201,1.884544 4.226656,2.489165 L 21.144394,31.5 16.869501,41.911612 C 18.46507,42.437269 19.967804,42.738908 21.81451,43 l 4.61873,-7.6875 -1.37074,7.906817 1.875,0.225995 c 1.433213,-2.535494 2.132382,-5.66653 2.53125,-8.789062 0.423945,-3.318846 -0.005,-6.541178 -0.84375,-8.21875 -0.02716,-0.06021 -0.0481,-0.123035 -0.0625,-0.1875 -0.346858,-1.387431 0.169142,-2.745627 0.875,-3.875 0.426893,-0.683029 0.930372,-1.290779 1.464959,-1.801777 C 29.730977,19.790532 28.315762,19.113157 26.53125,18.46875 24.769173,17.832444 23.033252,17.518725 21.625,17.5 z"
       inkscape:connector-curvature="0"
       id="path6014"
       style="opacity:0.47843137;fill:none;stroke:url(#linearGradient5973);stroke-width:0.99999994px;stroke-linecap:butt;stroke-linejoin:miter;stroke-opacity:1" />
    <path
       d="m 18.96875,43 c 2.177566,-5.751871 6.395916,-10.068943 8.016913,-15.935412 0.05154,3.662073 0.24972,10.203726 -1.891913,16.716662 -0.319766,0.0018 -0.173927,-0.110809 -0.46988,-0.118553 l 0.800792,-5.724517 -3.281486,5.554384 C 19.952368,43.33624 20.848565,43.525163 18.96875,43 z"
       inkscape:connector-curvature="0"
       id="path5977"
       style="opacity:0.24705882;fill:url(#linearGradient6005);fill-opacity:1;fill-rule:evenodd;stroke:none" />
    <path
       d="m 21.003067,22.610447 c -1.251995,0.616379 -2.062209,1.527278 -2.983106,2.364388 1.226487,-0.708643 2.378986,-1.448994 3.999573,-1.988738 l -1.016467,-0.37565 z"
       inkscape:connector-curvature="0"
       id="path5995"
       style="opacity:0.48235294;fill:#c4a000;fill-rule:evenodd;stroke:none" />
    <path
       d="m 23.008698,23.061049 -1.016465,1.988738 2.980713,-1.58825 -1.964248,-0.400488 z"
       inkscape:connector-curvature="0"
       id="path5997"
       style="opacity:0.48235294;fill:#c4a000;fill-rule:evenodd;stroke:none" />
    <path
       d="m 22.939805,17.961399 -0.895193,1.707022 1.565727,0.502084 -0.670534,-2.209106 z"
       inkscape:connector-curvature="0"
       id="path6007"
       style="opacity:0.48235294;fill:#c4a000;fill-rule:evenodd;stroke:none" />
    <path
       d="m 29.923254,19.88537 -2.460248,1.835447 1.565727,0.502084 0.894521,-2.337531 z"
       inkscape:connector-curvature="0"
       id="path6009"
       style="opacity:0.48235294;fill:#c4a000;fill-rule:evenodd;stroke:none" />
    <path
       d="m 26.012925,17.938566 -1.513911,2.524614 1.565727,0.502084 -0.05182,-3.026698 z"
       inkscape:connector-curvature="0"
       id="path6011"
       style="opacity:0.48235294;fill:#c4a000;fill-rule:evenodd;stroke:none" />
    <path
       d="m 18.967726,22.024699 c -0.56678,-2.965484 9.332835,2.152903 11.036822,2.994369 -0.0065,1.079068 0,2 -0.976819,2 -2.567538,-1.39298 -6.535255,-3.605143 -10.060003,-4.994369 z"
       inkscape:connector-curvature="0"
       id="path6013"
       style="opacity:0.2;fill:#000000;fill-opacity:1;fill-rule:evenodd;stroke:none" />
    <path
       d="m 18.650133,21.5 c -0.48841,-1 0,-2 0.97682,-2 3.99144,0.975417 7.324875,2.206232 10.745012,4 0.48841,1 0,2 -0.976819,2 -3.533943,-1.86442 -6.866711,-3.074813 -10.745013,-4 z"
       inkscape:connector-curvature="0"
       id="path5373"
       style="fill:url(#linearGradient3096);fill-opacity:1;fill-rule:evenodd;stroke:#464646;stroke-width:1px;stroke-linecap:butt;stroke-linejoin:round;stroke-opacity:1" />
  </g>
</svg>
