<?xml version="1.0" encoding="UTF-8" standalone="no"?>
<!-- Created with Inkscape (http://www.inkscape.org/) -->

<svg
   xmlns:dc="http://purl.org/dc/elements/1.1/"
   xmlns:cc="http://creativecommons.org/ns#"
   xmlns:rdf="http://www.w3.org/1999/02/22-rdf-syntax-ns#"
   xmlns:svg="http://www.w3.org/2000/svg"
   xmlns="http://www.w3.org/2000/svg"
   xmlns:xlink="http://www.w3.org/1999/xlink"
   xmlns:sodipodi="http://sodipodi.sourceforge.net/DTD/sodipodi-0.dtd"
   xmlns:inkscape="http://www.inkscape.org/namespaces/inkscape"
   id="svg11300"
   style="enable-background:new"
   height="48"
   width="48"
   version="1.0"
   inkscape:version="0.48.4 r9939"
   sodipodi:docname="nautilus-scripts-manager.svg">
  <metadata
     id="metadata69">
    <rdf:RDF>
      <cc:Work
         rdf:about="">
        <dc:format>image/svg+xml</dc:format>
        <dc:type
           rdf:resource="http://purl.org/dc/dcmitype/StillImage" />
      </cc:Work>
    </rdf:RDF>
  </metadata>
  <sodipodi:namedview
     pagecolor="#ffffff"
     bordercolor="#666666"
     borderopacity="1"
     objecttolerance="10"
     gridtolerance="10"
     guidetolerance="10"
     inkscape:pageopacity="0"
     inkscape:pageshadow="2"
     inkscape:window-width="819"
     inkscape:window-height="596"
     id="namedview67"
     showgrid="false"
     inkscape:zoom="4.9166667"
     inkscape:cx="24"
     inkscape:cy="24"
     inkscape:window-x="65"
     inkscape:window-y="24"
     inkscape:window-maximized="0"
     inkscape:current-layer="svg11300" />
  <defs
     id="defs3">
    <linearGradient
       id="linearGradient12093-170">
      <stop
         id="stop3384"
         style="stop-color:#fff"
         offset="0" />
      <stop
         id="stop3386"
         style="stop-color:#fff;stop-opacity:0"
         offset="1" />
    </linearGradient>
    <linearGradient
       id="linearGradient3600">
      <stop
         id="stop3602"
         style="stop-color:#f4f4f4"
         offset="0" />
      <stop
         id="stop3604"
         style="stop-color:#dbdbdb"
         offset="1" />
    </linearGradient>
    <linearGradient
       id="linearGradient3931">
      <stop
         id="stop3933"
         style="stop-color:#8d8f8a"
         offset="0" />
      <stop
         id="stop3935"
         style="stop-color:#cbcbcb"
         offset="1" />
    </linearGradient>
    <linearGradient
       id="linearGradient5060">
      <stop
         id="stop5062"
         offset="0" />
      <stop
         id="stop5064"
         style="stop-opacity:0"
         offset="1" />
    </linearGradient>
    <linearGradient
       id="linearGradient5239"
       y2="609.51"
       gradientUnits="userSpaceOnUse"
       x2="302.86"
       gradientTransform="matrix(.070414 0 0 .015375 -1.4497 38.629)"
       y1="366.65"
       x1="302.86">
      <stop
         id="stop5050"
         style="stop-opacity:0"
         offset="0" />
      <stop
         id="stop5056"
         offset=".5" />
      <stop
         id="stop5052"
         style="stop-opacity:0"
         offset="1" />
    </linearGradient>
    <radialGradient
       id="radialGradient5241"
       xlink:href="#linearGradient5060"
       gradientUnits="userSpaceOnUse"
       cy="486.65"
       cx="605.71"
       gradientTransform="matrix(-.024097 0 0 .015375 21.522 38.629)"
       r="117.14" />
    <radialGradient
       id="radialGradient5243"
       xlink:href="#linearGradient5060"
       gradientUnits="userSpaceOnUse"
       cy="486.65"
       cx="605.71"
       gradientTransform="matrix(.024097 0 0 .015375 26.478 38.629)"
       r="117.14" />
    <linearGradient
       id="linearGradient5257"
       y2="91.973"
       gradientUnits="userSpaceOnUse"
       x2="-164.72"
       gradientTransform="matrix(.39366 0 0 .38976 148.38 -5.4329)"
       y1="99.667"
       x1="-172.65">
      <stop
         id="stop3372"
         style="stop-color:#242424;stop-opacity:.99216"
         offset="0" />
      <stop
         id="stop3374"
         style="stop-color:#656565"
         offset="1" />
    </linearGradient>
    <linearGradient
       id="linearGradient5259"
       y2="29.484"
       gradientUnits="userSpaceOnUse"
       x2="31.364"
       gradientTransform="matrix(1.0113 0 0 1.0013 46.85 .62072)"
       y1="27.988"
       x1="32.893">
      <stop
         id="stop3378"
         style="stop-color:#575757"
         offset="0" />
      <stop
         id="stop3380"
         style="stop-color:#333"
         offset="1" />
    </linearGradient>
    <linearGradient
       id="linearGradient5261"
       y2="67.35"
       xlink:href="#linearGradient12093-170"
       gradientUnits="userSpaceOnUse"
       x2="201.87"
       gradientTransform="matrix(.39366 0 0 .38976 -3.2116 -1.6663)"
       y1="146.15"
       x1="277.57" />
    <radialGradient
       id="radialGradient5263"
       gradientUnits="userSpaceOnUse"
       cy="21.818"
       cx="18.241"
       r="8.3085">
      <stop
         id="stop3408"
         style="stop-color:#a1a1a1;stop-opacity:.20784"
         offset="0" />
      <stop
         id="stop3410"
         style="stop-color:#a1a1a1;stop-opacity:.67843"
         offset="1" />
    </radialGradient>
    <radialGradient
       id="radialGradient5265"
       gradientUnits="userSpaceOnUse"
       cy="13.078"
       cx="15.414"
       gradientTransform="matrix(3.071 0 0 2.3629 13.987 -22.539)"
       r="6.6562">
      <stop
         id="stop3390"
         style="stop-color:#fff"
         offset="0" />
      <stop
         id="stop3392"
         style="stop-color:#fff;stop-opacity:.24762"
         offset="1" />
    </radialGradient>
    <linearGradient
       id="linearGradient5267"
       y2="11.949"
       gradientUnits="userSpaceOnUse"
       x2="173.1"
       gradientTransform="matrix(.40377 0 0 .39977 -4.8365 -1.5264)"
       y1="75.319"
       x1="173.1">
      <stop
         id="stop3396"
         style="stop-color:#343434;stop-opacity:.97647"
         offset="0" />
      <stop
         id="stop3398"
         style="stop-color:#929292"
         offset="1" />
    </linearGradient>
    <linearGradient
       id="linearGradient5269"
       y2="4.5363"
       gradientUnits="userSpaceOnUse"
       x2="41.485"
       gradientTransform="matrix(.40377 0 0 .39977 47.537 1.4823)"
       y1="68.292"
       x1="41.542">
      <stop
         id="stop3402"
         style="stop-color:#333"
         offset="0" />
      <stop
         id="stop3404"
         style="stop-color:#333;stop-opacity:.61224"
         offset="1" />
    </linearGradient>
    <linearGradient
       id="linearGradient5271"
       y2="11.949"
       gradientUnits="userSpaceOnUse"
       x2="173.1"
       gradientTransform="matrix(.38453 0 0 .38072 -1.3998 -.93513)"
       y1="75.319"
       x1="173.1">
      <stop
         id="stop3366"
         style="stop-color:#979797"
         offset="0" />
      <stop
         id="stop3368"
         style="stop-opacity:.34118"
         offset="1" />
    </linearGradient>
    <linearGradient
       id="linearGradient5283"
       y2="40.5"
       xlink:href="#linearGradient12093-170"
       gradientUnits="userSpaceOnUse"
       x2="13.683"
       gradientTransform="matrix(1.0051 0 0 1 -1.1273 1)"
       y1="38"
       x1="13.683" />
    <linearGradient
       id="linearGradient5286"
       y2="41.437"
       xlink:href="#linearGradient3600"
       gradientUnits="userSpaceOnUse"
       x2="16.551"
       gradientTransform="translate(-1 1)"
       y1="37"
       x1="16.551" />
    <linearGradient
       id="linearGradient5288"
       y2="38"
       xlink:href="#linearGradient3931"
       gradientUnits="userSpaceOnUse"
       x2="18.986"
       y1="45"
       x1="19.291" />
    <linearGradient
       id="linearGradient5291"
       y2="34.331"
       xlink:href="#linearGradient12093-170"
       gradientUnits="userSpaceOnUse"
       x2="21"
       gradientTransform="translate(-1 1)"
       y1="5"
       x1="20.625" />
    <linearGradient
       id="linearGradient5295"
       y2="44"
       xlink:href="#linearGradient3600"
       gradientUnits="userSpaceOnUse"
       x2="17.412"
       gradientTransform="translate(-1 1)"
       y1="4"
       x1="17.5" />
    <linearGradient
       id="linearGradient5297"
       y2="2.2842"
       xlink:href="#linearGradient3931"
       gradientUnits="userSpaceOnUse"
       x2="24"
       y1="45"
       x1="23.059" />
    <radialGradient
       inkscape:collect="always"
       xlink:href="#linearGradient2193"
       id="radialGradient3431"
       gradientUnits="userSpaceOnUse"
       gradientTransform="matrix(-1.406852,-0.02719337,-0.02615301,1.353029,28.40827,13.10321)"
       cx="2.2106946"
       cy="9.6087761"
       fx="1.6693171"
       fy="8.8713007"
       r="12.332547" />
    <linearGradient
       id="linearGradient2193">
      <stop
         style="stop-color:#7c2f03;stop-opacity:1"
         offset="0"
         id="stop2195" />
      <stop
         style="stop-color:#ff9730;stop-opacity:1"
         offset="1"
         id="stop2197" />
    </linearGradient>
    <linearGradient
       inkscape:collect="always"
       xlink:href="#linearGradient2207"
       id="linearGradient3433"
       gradientUnits="userSpaceOnUse"
       gradientTransform="matrix(0.941299,0,0,0.95119,1.512638,1.012529)"
       x1="9.8042097"
       y1="-2.4229071"
       x2="35.825676"
       y2="37.941383" />
    <linearGradient
       inkscape:collect="always"
       id="linearGradient2207">
      <stop
         style="stop-color:#ffffff;stop-opacity:1;"
         offset="0"
         id="stop2209" />
      <stop
         style="stop-color:white;stop-opacity:0.37642586"
         offset="1"
         id="stop2211" />
    </linearGradient>
    <linearGradient
       inkscape:collect="always"
       xlink:href="#linearGradient2254"
       id="linearGradient3435"
       gradientUnits="userSpaceOnUse"
       x1="36.589283"
       y1="10.541481"
       x2="25.339285"
       y2="25.987909" />
    <linearGradient
       inkscape:collect="always"
       id="linearGradient2254">
      <stop
         style="stop-color:#8c4104;stop-opacity:1"
         offset="0"
         id="stop2256" />
      <stop
         style="stop-color:#a04e0b;stop-opacity:0;"
         offset="1"
         id="stop2258" />
    </linearGradient>
    <linearGradient
       inkscape:collect="always"
       xlink:href="#linearGradient2246"
       id="linearGradient3437"
       gradientUnits="userSpaceOnUse"
       x1="26.59787"
       y1="16.85297"
       x2="21.066965"
       y2="-3.1949208" />
    <linearGradient
       inkscape:collect="always"
       id="linearGradient2246">
      <stop
         style="stop-color:#ffffff;stop-opacity:1;"
         offset="0"
         id="stop2248" />
      <stop
         style="stop-color:#ffffff;stop-opacity:0;"
         offset="1"
         id="stop2250" />
    </linearGradient>
    <linearGradient
       y2="-3.1949208"
       x2="21.066965"
       y1="16.85297"
       x1="26.59787"
       gradientUnits="userSpaceOnUse"
       id="linearGradient3058"
       xlink:href="#linearGradient2246"
       inkscape:collect="always" />
  </defs>
  <g
     id="g2877"
     transform="matrix(1.05 0 0 1.6069 -1.2 -30.132)">
    <rect
       id="rect2879"
       style="opacity:.40206;fill:url(#linearGradient5239)"
       height="3.7339"
       width="34"
       y="44.266"
       x="7" />
    <path
       id="path2881"
       style="opacity:.40206;fill:url(#radialGradient5241)"
       d="m7 44.266v3.7337c-1.2409 0.007-3-0.83652-3-1.8671 0-1.0305 1.3848-1.8666 3-1.8666z" />
    <path
       id="path2883"
       style="opacity:.40206;fill:url(#radialGradient5243)"
       d="m41 44.266v3.7337c1.2409 0.007 3-0.83652 3-1.8671 0-1.0305-1.3848-1.8666-3-1.8666z" />
  </g>
  <path
     id="rect1869"
     style="stroke-linejoin:round;stroke:url(#linearGradient5297);stroke-linecap:round;fill:url(#linearGradient5295)"
     d="m8 5.5c-0.83536 0-1.5 3.5731-1.5 8v31h35v-31c0-4.4269-0.66464-8-1.5-8h-1.6875l0.4375 1h-2l-0.4375-1h-24.656l-0.4375 1h-2l0.4375-1h-1.6563zm0.75 3h2l-0.1875 2h-2l0.1875-2zm28.438 0h2l0.21875 2h-2l-0.21875-2zm-28.688 4h2v2h-2v-2zm29 0h2v2h-2v-2zm-29 4h2v2h-2v-2zm29 0h2v2h-2v-2zm-29 4h2v2h-2v-2zm29 0h2v2h-2v-2zm-29 4h2v2h-2v-2zm29 0h2v2h-2v-2zm-29 4h2v2h-2v-2zm29 0h2v2h-2v-2zm-29 4h2v2h-2v-2zm29 0h2v2h-2v-2zm-29 4h2v2h-2v-2zm29 0h2v2h-2v-2z" />
  <path
     id="rect2981"
     style="opacity:0.03"
     d="m8.0625 6c-0.040437 0.043827-0.11144 0.17276-0.1875 0.34375-0.076063 0.17099-0.14477 0.38813-0.21875 0.65625h1.5625c-0.16717 0.00173-0.31207-0.08062-0.40625-0.21875s-0.12518-0.31376-0.0625-0.46875l0.125-0.3125h-0.8125zm3.9375 0-0.3125 0.6875c-0.07712 0.19065-0.2631 0.31464-0.46875 0.3125h25.531c-0.20564 0.00214-0.39163-0.12185-0.46875-0.3125l-0.3125-0.6875h-23.969zm27.094 0 0.125 0.3125c0.06268 0.15499 0.03168 0.33062-0.0625 0.46875s-0.23908 0.22048-0.40625 0.21875h1.5938c-0.07398-0.26812-0.14269-0.48526-0.21875-0.65625s-0.14706-0.29992-0.1875-0.34375h-0.84375zm-31.844 3c-0.0795 0.6014-0.1097 1.285-0.1562 2h1.4688c-0.1382 0.000255-0.28028-0.05561-0.375-0.15625-0.094717-0.10064-0.13362-0.23707-0.125-0.375l0.125-1.4688h-0.9375zm3.9688 0-0.15625 1.5313c-0.01655 0.26386-0.23562 0.46924-0.5 0.46875h26.844c-0.25346 0.002-0.4683-0.18602-0.5-0.4375l-0.15625-1.5625h-25.531zm28.531 0 0.15625 1.4375c0.01801 0.14305-0.02921 0.29849-0.125 0.40625s-0.23082 0.15736-0.375 0.15625h1.5c-0.04654-0.71479-0.07678-1.3986-0.15625-2h-1zm-32.75 4c-0.00211 0.16876 0 0.32842 0 0.5v1.5h1.5c-0.2761 0-0.5-0.224-0.5-0.5v-1.5h-1zm4 0v1.5c-0.000028 0.27613-0.22387 0.49997-0.5 0.5h27c-0.27613-0.000028-0.49997-0.22387-0.5-0.5v-1.5h-26zm29 0v1.5c-0.000028 0.27613-0.22387 0.49997-0.5 0.5h1.5v-1.5c0-0.17158 0.0021-0.33124 0-0.5h-1zm-33 4v2h1.5c-0.2761 0-0.5-0.224-0.5-0.5v-1.5h-1zm4 0v1.5c-0.000028 0.27613-0.22387 0.49997-0.5 0.5h27c-0.27613-0.000028-0.49997-0.22387-0.5-0.5v-1.5h-26zm29 0v1.5c-0.000028 0.27613-0.22387 0.49997-0.5 0.5h1.5v-2h-1zm-33 4v2h1.5c-0.2761 0-0.5-0.224-0.5-0.5v-1.5h-1zm4 0v1.5c-0.000028 0.27613-0.22387 0.49997-0.5 0.5h27c-0.27613-0.000028-0.49997-0.22387-0.5-0.5v-1.5h-26zm29 0v1.5c-0.000028 0.27613-0.22387 0.49997-0.5 0.5h1.5v-2h-1zm-33 4v2h1.5c-0.2761 0-0.5-0.224-0.5-0.5v-1.5h-1zm4 0v1.5c-0.000028 0.27613-0.22387 0.49997-0.5 0.5h27c-0.27613-0.000028-0.49997-0.22387-0.5-0.5v-1.5h-26zm29 0v1.5c-0.000028 0.27613-0.22387 0.49997-0.5 0.5h1.5v-2h-1zm-33 4v2h1.5c-0.2761 0-0.5-0.224-0.5-0.5v-1.5h-1zm4 0v1.5c-0.000028 0.27613-0.22387 0.49997-0.5 0.5h27c-0.27613-0.000028-0.49997-0.22387-0.5-0.5v-1.5h-26zm29 0v1.5c-0.000028 0.27613-0.22387 0.49997-0.5 0.5h1.5v-2h-1zm-33 4v2h1.5c-0.2761 0-0.5-0.224-0.5-0.5v-1.5h-1zm4 0v1.5c-0.000028 0.27613-0.22387 0.49997-0.5 0.5h27c-0.27613-0.000028-0.49997-0.22387-0.5-0.5v-1.5h-26zm29 0v1.5c-0.000028 0.27613-0.22387 0.49997-0.5 0.5h1.5v-2h-1zm-33 4v2h1.5c-0.2761 0-0.5-0.224-0.5-0.5v-1.5h-1zm4 0v1.5c-0.000028 0.27613-0.22387 0.49997-0.5 0.5h27c-0.27613-0.000028-0.49997-0.22387-0.5-0.5v-1.5h-26zm29 0v1.5c-0.000028 0.27613-0.22387 0.49997-0.5 0.5h1.5v-2h-1z" />
  <path
     id="path3026"
     style="opacity:.5;stroke-linejoin:round;stroke:url(#linearGradient5291);stroke-linecap:round;fill:none"
     d="m12.313 6.5c-0.1694 0.73589-0.8742 1.1502-1.6037 1-0.83058-0.081708-2.1087 0.33545-2.4588-0.71875-1.0795 3.6984-0.66387 7.6034-0.75 11.41v25.309h33c-0.0175-10.525 0.03568-21.052-0.02782-31.577-0.09494-1.5488-0.16949-4.2185-0.81026-5.0445-0.45952 0.98018-1.6981 0.51256-2.5436 0.62107-0.69438 0.14063-1.2963-0.34121-1.4621-1h-23.344z" />
  <path
     id="rect1871"
     style="stroke-linejoin:round;stroke:url(#linearGradient5288);stroke-linecap:round;fill:url(#linearGradient5286)"
     d="m4.5 38.5c0 3.324 0.5 6 2 6h35c1.5 0 2-2.676 2-6h-39zm2 2h2c-0.02747 1.0308 0.08505 1.6002 0.25 2h-2c-0.18132-0.37271-0.21437-0.98711-0.25-2zm33 0h2c-0.03563 1.0129-0.06868 1.6273-0.25 2h-2c0.16495-0.39982 0.27747-0.96918 0.25-2z" />
  <path
     id="path3030"
     style="opacity:.5;stroke:url(#linearGradient5283);stroke-linecap:round;fill:none"
     d="m5.5 39.5c0.12626 1.3362-0.038535 2.8697 0.83115 3.9894 11.751 0.02471 23.506 0.0035 35.258 0.01059 0.88325-0.8042 0.75244-2.2471 0.88013-3.3671 0.36591-0.93862-0.65279-0.55987-1.1957-0.63293h-35.774z" />
  <g
     style="display:inline"
     id="g2375"
     transform="matrix(0.64830614,0,0,0.66228427,17.706287,20.150605)">
    <path
       sodipodi:nodetypes="cssssssscc"
       id="path1314"
       d="m 24.634088,27.484359 c -0.237945,0.675665 0.182485,1.248618 0.86419,1.61831 1.404127,0.761464 2.926139,-0.167957 3.370392,-1.652367 0.792111,-2.646724 -0.237945,-4.718701 -2.442214,-5.797574 -4.211252,-2.061185 -8.459758,1.46557 -9.919214,5.394366 -2.204269,5.933802 2.216574,12.469422 8.364532,14.0118 9.213857,2.311542 18.11317,-4.565427 20.151807,-13.198127 C 47.953982,15.451859 38.466478,3.253309 26.28729,1.017909 17.470211,-0.60040077 7.180622,2.1474467 0.38712155,8.0646418 1.387121,18.064642 8.1391657,23.5 15.639166,27.5"
       style="fill:url(#radialGradient3431);fill-opacity:1;fill-rule:nonzero;stroke:#582a02;stroke-width:1.09044194;stroke-linecap:round;stroke-linejoin:miter;stroke-miterlimit:4;stroke-opacity:1;stroke-dasharray:none"
       inkscape:connector-curvature="0" />
    <path
       sodipodi:nodetypes="csssssscc"
       id="path2215"
       d="m 25.736223,28.023796 c 0.5,0.5 1.512374,0.37402 1.985446,-0.717282 0.49156,-1.133951 0.49156,-3.427926 -1.617295,-4.568114 -3.396962,-1.836627 -7.747163,1.045186 -8.906899,5.625967 -1.222154,4.827321 2.993024,10.591009 7.952889,11.668738 C 33.879487,41.929856 41.887182,35.907276 43.928086,27.55413 46.676145,16.306695 38.470015,4.8174055 26.28729,2.1308393 19.114881,0.54916101 8.1020654,2.6702759 1.4892564,8.6040784 2.6261826,17.473464 9.1110152,22.771135 15.758616,26.410962"
       style="opacity:0.49019608;fill:none;stroke:url(#linearGradient3433);stroke-width:1.09044194;stroke-linecap:round;stroke-linejoin:miter;stroke-miterlimit:4;stroke-opacity:1;stroke-dasharray:none"
       inkscape:connector-curvature="0" />
    <path
       style="fill:url(#linearGradient3435);fill-opacity:1;fill-rule:evenodd;stroke:none"
       d="m 21.9375,4.8125 c 1.81466,4.6344652 2.72091,10.188642 0.90625,15.75 C 24.009085,21.170774 25.573272,21.766726 26,22.375 28.258231,14.049247 27.3751,8.5157272 21.9375,4.8125 z M 11.999998,5.5000005 C 14.999998,9.0000011 19.107723,15.222706 19,21 c 1.381579,-0.337719 2.236609,-0.989612 3.499997,-0.499997 -0.5,-7 -4,-14.0000023 -10.499999,-15.0000025 z M 30.09375,7.59375 c -0.355612,6.185518 -1.356675,10.646785 -3.625,15.28125 0.529306,0.917805 1.312321,1.816802 1.09375,2.84375 -0.03998,0.173226 -0.114611,0.379911 -0.21875,0.5625 -0.006,0.01018 -0.02503,0.02104 -0.03125,0.03125 l -0.6875,2.03125 c -0.02972,0.01142 -0.06608,0.04647 -0.09375,0.0625 -0.0139,0.0079 -0.04809,0.02456 -0.0625,0.03125 l -1.8125,1.40625 c 3.629319,0.463447 12.68534,-2.782392 14.5,-8.34375 -3.678676,2.85274 -6.579357,3.993118 -10.4375,5.5625 2.721989,-1.766889 8.641165,-6.511749 8.1875,-13 -2.499554,4.685136 -5.740175,8.151325 -8.6875,11.15625 2.325033,-3.736538 6.41165,-10.209856 1.875,-17.625 z"
       transform="matrix(1.102135,0,0,1.078873,-0.163946,-2.184653)"
       id="path2225"
       sodipodi:nodetypes="ccccccccccssccsccccccc"
       inkscape:connector-curvature="0" />
    <path
       sodipodi:nodetypes="ccccsc"
       id="path2234"
       d="M 19.626245,1.2043425 C 12.732887,1.4704151 6.0951254,3.8237042 1,8.2616005 1.1919415,10.181016 4.4488631,17.670647 6.4488631,20.170647 c 11.4999999,3 13.1903029,-21.7047041 36.6903029,-5.204704 -3.5,-6.5000001 -7.73459,-10.8978288 -15.23459,-12.8978288 C 25.694597,1.4787865 21.924031,1.1156516 19.626245,1.2043425 z"
       style="opacity:0.57254902;fill:url(#linearGradient3058);fill-opacity:1;fill-rule:nonzero;stroke:none"
       inkscape:connector-curvature="0" />
  </g>
</svg>
