<?xml version="1.0" encoding="UTF-8" standalone="no"?>
<!-- Created with Inkscape (http://www.inkscape.org/) -->

<svg
   xmlns:dc="http://purl.org/dc/elements/1.1/"
   xmlns:cc="http://creativecommons.org/ns#"
   xmlns:rdf="http://www.w3.org/1999/02/22-rdf-syntax-ns#"
   xmlns:svg="http://www.w3.org/2000/svg"
   xmlns="http://www.w3.org/2000/svg"
   xmlns:xlink="http://www.w3.org/1999/xlink"
   xmlns:sodipodi="http://sodipodi.sourceforge.net/DTD/sodipodi-0.dtd"
   xmlns:inkscape="http://www.inkscape.org/namespaces/inkscape"
   version="1.1"
   width="48"
   height="48"
   id="svg4460"
   inkscape:version="0.48.4 r9939"
   sodipodi:docname="preferences-system-network.svg">
  <sodipodi:namedview
     pagecolor="#ffffff"
     bordercolor="#666666"
     borderopacity="1"
     objecttolerance="10"
     gridtolerance="10"
     guidetolerance="10"
     inkscape:pageopacity="0"
     inkscape:pageshadow="2"
     inkscape:window-width="1855"
     inkscape:window-height="1056"
     id="namedview66"
     showgrid="false"
     inkscape:zoom="19.25"
     inkscape:cx="24"
     inkscape:cy="24"
     inkscape:window-x="65"
     inkscape:window-y="24"
     inkscape:window-maximized="1"
     inkscape:current-layer="layer1" />
  <defs
     id="defs4462">
    <linearGradient
       x1="37.5"
       y1="23"
       x2="49.089928"
       y2="23.172663"
       id="linearGradient4340"
       xlink:href="#linearGradient3678"
       gradientUnits="userSpaceOnUse"
       gradientTransform="matrix(0.91421579,0,0,-0.91421579,0.7038908,45.027255)" />
    <linearGradient
       id="linearGradient3678">
      <stop
         id="stop3680"
         style="stop-color:#ffffff;stop-opacity:0.13368984"
         offset="0" />
      <stop
         id="stop3682"
         style="stop-color:#ffffff;stop-opacity:0"
         offset="1" />
    </linearGradient>
    <linearGradient
       x1="4.4897356"
       y1="23"
       x2="47.500416"
       y2="23"
       id="linearGradient4344"
       xlink:href="#linearGradient3672"
       gradientUnits="userSpaceOnUse"
       gradientTransform="matrix(0.91421579,0,0,-0.91421579,0.7038908,45.027255)" />
    <linearGradient
       id="linearGradient3672">
      <stop
         id="stop3674"
         style="stop-color:#ffffff;stop-opacity:0.49197862"
         offset="0" />
      <stop
         id="stop3676"
         style="stop-color:#ffffff;stop-opacity:1"
         offset="1" />
    </linearGradient>
    <linearGradient
       x1="14.893399"
       y1="23.707106"
       x2="2.8318863"
       y2="24.108988"
       id="linearGradient4347"
       xlink:href="#linearGradient3678"
       gradientUnits="userSpaceOnUse"
       gradientTransform="matrix(0.64644818,-0.64644818,-0.64644818,-0.64644818,22.231006,55.436572)" />
    <linearGradient
       x1="48.127419"
       y1="25.828426"
       x2="2.8725832"
       y2="24.414213"
       id="linearGradient4351"
       xlink:href="#linearGradient3672"
       gradientUnits="userSpaceOnUse"
       gradientTransform="matrix(0.64644818,-0.64644818,-0.64644818,-0.64644818,22.231006,55.436572)" />
    <linearGradient
       x1="46.006096"
       y1="23.707108"
       x2="4.2867966"
       y2="27.242641"
       id="linearGradient4355"
       xlink:href="#linearGradient3672"
       gradientUnits="userSpaceOnUse"
       gradientTransform="matrix(0.64644818,0.64644818,-0.64644818,0.64644818,22.400273,-7.35245)" />
    <linearGradient
       x1="14.893399"
       y1="22.292894"
       x2="4.0629644"
       y2="21.829967"
       id="linearGradient4358"
       xlink:href="#linearGradient3678"
       gradientUnits="userSpaceOnUse"
       gradientTransform="matrix(0.64644818,0.64644818,-0.64644818,0.64644818,22.400273,-7.35245)" />
    <linearGradient
       x1="3.5"
       y1="23"
       x2="47.5"
       y2="23"
       id="linearGradient4362"
       xlink:href="#linearGradient3672"
       gradientUnits="userSpaceOnUse"
       gradientTransform="matrix(0,0.91421579,0.91421579,0,2.9894266,0.6877848)" />
    <linearGradient
       x1="35.5"
       y1="22"
       x2="48.262592"
       y2="21.91367"
       id="linearGradient4365"
       xlink:href="#linearGradient3678"
       gradientUnits="userSpaceOnUse"
       gradientTransform="matrix(0,0.91421579,0.91421579,0,2.9894266,0.6877848)" />
    <linearGradient
       x1="71.204407"
       y1="15.369057"
       x2="71.204407"
       y2="40.495617"
       id="linearGradient4338-5-6"
       xlink:href="#linearGradient4806-2"
       gradientUnits="userSpaceOnUse"
       gradientTransform="matrix(1.6169806,0,0,1.6169806,-92.70737,-21.060237)" />
    <linearGradient
       id="linearGradient4806-2">
      <stop
         id="stop4808-4"
         style="stop-color:#ffffff;stop-opacity:1"
         offset="0" />
      <stop
         id="stop4810-0"
         style="stop-color:#ffffff;stop-opacity:0.23529412"
         offset="0.42447853" />
      <stop
         id="stop4812-8"
         style="stop-color:#ffffff;stop-opacity:0.15686275"
         offset="0.82089913" />
      <stop
         id="stop4814-0"
         style="stop-color:#ffffff;stop-opacity:0.39215687"
         offset="1" />
    </linearGradient>
    <radialGradient
       cx="15.026252"
       cy="8.6257601"
       r="19.99999"
       fx="-0.94055694"
       fy="8.625761"
       id="radialGradient3126-3"
       xlink:href="#radialGradient3093-0-3-6-6"
       gradientUnits="userSpaceOnUse"
       gradientTransform="matrix(-6.7138025e-8,1.1033078,-1.0394758,-7.5994237e-8,32.783451,3.760134)" />
    <linearGradient
       id="linearGradient4632-92-3-0-8">
      <stop
         id="stop4634-68-8-0-2"
         style="stop-color:#cdc9e3;stop-opacity:1"
         offset="0" />
      <stop
         id="stop4636-8-21-7-1"
         style="stop-color:#9389cb;stop-opacity:1"
         offset="1" />
    </linearGradient>
    <linearGradient
       id="linearGradient3820-7-2-1">
      <stop
         id="stop3822-2-6-3"
         style="stop-color:#3d3d3d;stop-opacity:1"
         offset="0" />
      <stop
         id="stop3864-8-7-7"
         style="stop-color:#686868;stop-opacity:0.49803922"
         offset="0.5" />
      <stop
         id="stop3824-1-2-5"
         style="stop-color:#686868;stop-opacity:0"
         offset="1" />
    </linearGradient>
    <radialGradient
       cx="99.157013"
       cy="186.17059"
       r="62.769119"
       fx="99.157013"
       fy="186.17059"
       id="radialGradient4458"
       xlink:href="#linearGradient3820-7-2-1"
       gradientUnits="userSpaceOnUse"
       gradientTransform="matrix(1,0,0,0.1666667,0,155.14216)" />
    <linearGradient
       x1="63.397362"
       y1="-12.489107"
       x2="63.397362"
       y2="5.4675598"
       id="linearGradient3066"
       xlink:href="#linearGradient4873"
       gradientUnits="userSpaceOnUse"
       gradientTransform="matrix(1.0862728,0,0,1.0862481,-31.56661,39.813638)" />
    <linearGradient
       id="linearGradient4873">
      <stop
         id="stop4875"
         style="stop-color:#ffffff;stop-opacity:1"
         offset="0" />
      <stop
         id="stop4877"
         style="stop-color:#ffffff;stop-opacity:0"
         offset="1" />
    </linearGradient>
    <linearGradient
       id="linearGradient3242">
      <stop
         id="stop3244"
         style="stop-color:#f8b17e;stop-opacity:1"
         offset="0" />
      <stop
         id="stop3246"
         style="stop-color:#e35d4f;stop-opacity:1"
         offset="0.26238" />
      <stop
         id="stop3248"
         style="stop-color:#c6262e;stop-opacity:1"
         offset="0.66093999" />
      <stop
         id="stop3250"
         style="stop-color:#690b54;stop-opacity:1"
         offset="1" />
    </linearGradient>
    <radialGradient
       cx="23.407145"
       cy="3.9900031"
       r="20.397499"
       fx="23.407145"
       fy="3.9900031"
       id="radialGradient3071"
       xlink:href="#linearGradient3242"
       gradientUnits="userSpaceOnUse"
       gradientTransform="matrix(0,1.4039288,-1.8531612,0,43.394119,-8.838349)" />
    <radialGradient
       cx="15.026252"
       cy="8.6257601"
       r="19.99999"
       fx="-0.94055694"
       fy="8.625761"
       id="radialGradient3126-3-9"
       xlink:href="#radialGradient3093-0-3-6-6"
       gradientUnits="userSpaceOnUse"
       gradientTransform="matrix(-6.7138025e-8,1.1033078,-1.0394758,-7.5994237e-8,32.783451,3.760134)" />
    <radialGradient
       cx="23.896"
       cy="3.99"
       r="20.396999"
       id="radialGradient3093-0-3-6-6"
       gradientUnits="userSpaceOnUse"
       gradientTransform="matrix(0,1.2316483,-1.625754,0,18.486966,-28.721977)">
      <stop
         id="stop3244-9-33-7-0-9"
         style="stop-color:#ffffff;stop-opacity:1"
         offset="0" />
      <stop
         id="stop3246-3-5-0-8-5"
         style="stop-color:#dddddd;stop-opacity:1"
         offset="0.26238" />
      <stop
         id="stop3248-1-7-8-8-1"
         style="stop-color:#abacae;stop-opacity:1"
         offset="0.66093999" />
      <stop
         id="stop3250-9-3-0-5-1"
         style="stop-color:#89898b;stop-opacity:1"
         offset="1" />
    </radialGradient>
    <linearGradient
       inkscape:collect="always"
       xlink:href="#linearGradient4007"
       id="linearGradient4013"
       x1="18.963203"
       y1="-57.281384"
       x2="15.945889"
       y2="78.129868"
       gradientUnits="userSpaceOnUse"
       gradientTransform="matrix(0.61451645,0,0,0.62832472,13.479982,3.8974353)" />
    <linearGradient
       id="linearGradient4007">
      <stop
         style="stop-color:#ffffff;stop-opacity:1;"
         offset="0"
         id="stop4009" />
      <stop
         style="stop-color:#ffffff;stop-opacity:0;"
         offset="1"
         id="stop4011" />
    </linearGradient>
    <radialGradient
       r="15.561676"
       fy="12.175321"
       fx="13.018921"
       cy="12.175321"
       cx="13.018921"
       gradientTransform="matrix(-0.00491231,3.4934091,-5.1204697,-0.00720015,83.788657,-46.992748)"
       gradientUnits="userSpaceOnUse"
       id="radialGradient3029"
       xlink:href="#linearGradient2867-449-88-871-390-598-476-591-434-148-57-177-8-3"
       inkscape:collect="always" />
    <linearGradient
       id="linearGradient2867-449-88-871-390-598-476-591-434-148-57-177-8-3">
      <stop
         id="stop3750-1-0"
         style="stop-color:#90dbec;stop-opacity:1"
         offset="0" />
      <stop
         id="stop3752-3-7"
         style="stop-color:#55c1ec;stop-opacity:1"
         offset="0.26238" />
      <stop
         id="stop3754-1-8"
         style="stop-color:#3689e6;stop-opacity:1"
         offset="0.704952" />
      <stop
         id="stop3756-1-6"
         style="stop-color:#2b63a0;stop-opacity:1"
         offset="1" />
    </linearGradient>
  </defs>
  <metadata
     id="metadata4465">
    <rdf:RDF>
      <cc:Work
         rdf:about="">
        <dc:format>image/svg+xml</dc:format>
        <dc:type
           rdf:resource="http://purl.org/dc/dcmitype/StillImage" />
        <dc:title></dc:title>
      </cc:Work>
    </rdf:RDF>
  </metadata>
  <g
     id="layer1">
    <path
       d="m 161.92613,186.17059 a 62.769119,10.461519 0 1 1 -125.538236,0 62.769119,10.461519 0 1 1 125.538236,0 z"
       transform="matrix(0.27083381,0,0,0.52573626,-2.855072,-56.376631)"
       id="path3818-0-5"
       style="fill:url(#radialGradient4458);fill-opacity:1;stroke:none" />
    <path
       d="m 24,3.499999 c -11.311193,0 -20.5,9.188807 -20.5,20.5 0,11.311193 9.188807,20.500003 20.5,20.5 11.311191,0 20.500007,-9.188807 20.5,-20.5 0,-11.311193 -9.188809,-20.5 -20.5,-20.5 z"
       id="path2555-7-65"
       style="color:#000000;fill:url(#radialGradient3126-3);fill-opacity:1.0;fill-rule:nonzero;stroke:none;stroke-width:1;marker:none;visibility:visible;display:inline;overflow:visible;enable-background:accumulate" />
    <path
       d="m 24,3.5 c -11.311193,0 -20.5,9.188806 -20.5,20.499999 0,11.311193 9.188807,20.500004 20.5,20.5 11.311191,0 20.500007,-9.188807 20.5,-20.5 C 44.5,12.688806 35.311191,3.5 24,3.5 z"
       id="path3871"
       style="opacity:0.29999999999999999;color:#000000;fill:none;stroke:#313131;stroke-width:1;marker:none;visibility:visible;display:inline;overflow:visible;enable-background:accumulate;stroke-opacity:1" />
    <path
       d="M 43.5,24.000001 C 43.5,34.769552 34.769544,43.499997 23.999991,43.499997 13.230451,43.499997 4.5,34.769552 4.5,24.000001 4.5,13.23045 13.230451,4.500002 23.999991,4.500002 34.769544,4.500002 43.5,13.23045 43.5,24.000001 z"
       id="path3026"
       style="opacity:0.5;color:#000000;fill:none;stroke:url(#linearGradient4338-5-6);stroke-width:1;stroke-linecap:round;stroke-linejoin:round;stroke-miterlimit:4;stroke-opacity:1;stroke-dasharray:none;stroke-dashoffset:0;marker:none;visibility:visible;display:inline;overflow:visible;enable-background:accumulate" />
    <path
       d="M 23.985743,4.3447704 A 8.68505,19.655639 0 0 0 22.245314,43.242905"
       id="path3805"
       style="fill:none;stroke:url(#linearGradient4365);stroke-width:1;stroke-linecap:round;stroke-linejoin:round;stroke-miterlimit:4;stroke-opacity:1;stroke-dasharray:none;stroke-dashoffset:0" />
    <path
       d="M 27.695302,41.805415 A 8.68505,19.655639 0 0 0 23.995534,4.3447046"
       id="path3609"
       style="opacity:0.8;fill:none;stroke:url(#linearGradient4362);stroke-width:1;stroke-linecap:round;stroke-linejoin:round;stroke-miterlimit:4;stroke-opacity:1;stroke-dasharray:none;stroke-dashoffset:0" />
    <path
       d="m 26.073619,41.227497 a 1.8282365,1.8282365 0 0 0 3.656473,0 1.8282365,1.8282365 0 1 0 -3.656473,0 z"
       id="path3775"
       style="opacity:0.8;color:#000000;fill:#ffffff;fill-opacity:1;fill-rule:nonzero;stroke:#ffffff;stroke-width:1.00042665;stroke-linecap:round;stroke-linejoin:round;stroke-miterlimit:4;stroke-opacity:0.52127662;stroke-dasharray:none;stroke-dashoffset:0;marker:none;visibility:visible;display:inline;overflow:visible;enable-background:accumulate" />
    <path
       d="m 12.563235,8.905818 a 19.655639,8.68505 45 0 1 24.966723,29.3301"
       id="path3801"
       style="fill:none;stroke:url(#linearGradient4358);stroke-width:1;stroke-linecap:round;stroke-linejoin:round;stroke-miterlimit:4;stroke-opacity:1;stroke-dasharray:none;stroke-dashoffset:0" />
    <path
       d="M 37.91503,37.898924 A 19.655639,8.68505 45 0 1 8.8409434,13.213319"
       id="path3611"
       style="opacity:0.8;fill:none;stroke:url(#linearGradient4355);stroke-width:1;stroke-linecap:round;stroke-linejoin:round;stroke-miterlimit:4;stroke-opacity:1;stroke-dasharray:none;stroke-dashoffset:0" />
    <path
       d="m 10.76007,13.858304 a 1.8282366,1.8282366 0 0 1 -3.6564731,0 1.8282366,1.8282366 0 1 1 3.6564731,0 z"
       id="path3781"
       style="opacity:0.8;color:#000000;fill:#ffffff;fill-opacity:1;fill-rule:nonzero;stroke:#ffffff;stroke-width:1.00042665;stroke-linecap:round;stroke-linejoin:round;stroke-miterlimit:4;stroke-opacity:0.52127662;stroke-dasharray:none;stroke-dashoffset:0;marker:none;visibility:visible;display:inline;overflow:visible;enable-background:accumulate" />
    <path
       d="M 38.090981,10.581063 A 8.68505,19.655639 45 0 0 9.0314403,31.564803"
       id="path3613"
       style="opacity:0.8;fill:none;stroke:url(#linearGradient4351);stroke-width:1;stroke-linecap:round;stroke-linejoin:round;stroke-miterlimit:4;stroke-opacity:1;stroke-dasharray:none;stroke-dashoffset:0" />
    <path
       d="m 8.7625667,34.625766 a 1.8282365,1.8282365 0 0 0 0,-3.656473 1.8282365,1.8282365 0 1 0 0,3.656473 z"
       id="path3615"
       style="opacity:0.8;fill:#ffffff;fill-opacity:1;stroke:#ffffff;stroke-width:1.00042665;stroke-linecap:round;stroke-linejoin:round;stroke-miterlimit:4;stroke-opacity:0.52127662;stroke-dasharray:none;stroke-dashoffset:0" />
    <path
       d="M 9.9838274,38.017354 A 8.68505,19.655639 45 0 0 38.345658,10.959664"
       id="path3787"
       style="fill:none;stroke:url(#linearGradient4347);stroke-width:1;stroke-linecap:round;stroke-linejoin:round;stroke-miterlimit:4;stroke-opacity:1;stroke-dasharray:none;stroke-dashoffset:0" />
    <path
       d="M 40.757683,19.449482 A 19.655639,8.68505 0 0 0 4.3822544,24.406406"
       id="path2835"
       style="fill:none;stroke:url(#linearGradient4344);stroke-width:1;stroke-linecap:round;stroke-linejoin:round;stroke-miterlimit:4;stroke-opacity:1;stroke-dasharray:none;stroke-dashoffset:0" />
    <path
       d="m 42.929046,19.800607 a 1.8282365,1.8282365 0 0 0 -3.656468,0 1.8282365,1.8282365 0 1 0 3.656468,0 z"
       id="path3722"
       style="opacity:0.8;color:#000000;fill:#ffffff;fill-opacity:1;fill-rule:nonzero;stroke:#ffffff;stroke-width:1.00042665;stroke-linecap:round;stroke-linejoin:round;stroke-miterlimit:4;stroke-opacity:0.52127662;stroke-dasharray:none;stroke-dashoffset:0;marker:none;visibility:visible;display:inline;overflow:visible;enable-background:accumulate" />
    <path
       d="M 4.479048,24.95171 A 19.655639,8.68505 0 0 0 43.639245,24.501724"
       id="path3797"
       style="fill:none;stroke:url(#linearGradient4340);stroke-width:1;stroke-linecap:round;stroke-linejoin:round;stroke-miterlimit:4;stroke-opacity:1;stroke-dasharray:none;stroke-dashoffset:0" />
    <path
       d="m 26.093003,40.769622 a 1.7783545,1.7783545 0 0 0 3.556709,0 1.7783545,1.7783545 0 1 0 -3.556709,0 z"
       inkscape:connector-curvature="0"
       id="path3775-5"
       style="color:#000000;fill:#555555;fill-opacity:1;fill-rule:nonzero;stroke:#555555;stroke-width:0.97313058;stroke-linecap:round;stroke-linejoin:round;stroke-miterlimit:4;stroke-opacity:1;stroke-dasharray:none;stroke-dashoffset:0;marker:none;visibility:visible;display:inline;overflow:visible;enable-background:accumulate" />
    <path
       style="fill:url(#radialGradient3029);fill-opacity:1;stroke:none"
       d="m 18.644731,5.1514612 0.562894,-0.4503138 1.013208,-0.3377376 1.407236,-0.3377365 1.913837,-0.1125783 1.238366,0.1688674 2.364155,0.1688692 2.251579,0.5066029 0.619181,0.3940267 -0.394026,0.9006305 -1.407231,2.1952877 -0.562897,1.8012596 -0.788051,2.195286 c 0,0 -0.281445,1.632396 -0.281445,1.970131 0,0.337738 -0.112582,2.420444 -0.112582,2.420444 l 0.956924,2.814472 2.138991,4.840887 2.195286,3.827679 1.407237,2.420444 1.013207,1.97013 0.225155,1.970128 0.281455,1.576104 -0.281455,1.913839 -0.112573,1.294656 -0.619191,1.350945 -0.788043,1.294656 -0.900637,0.675473 -2.082698,0.788052 -2.30787,0.394026 -3.43365,0.337736 -2.25158,-0.168867 -1.63239,-0.112579 0.956921,-1.463525 1.238367,-1.970128 0.562888,-2.251577 0.168872,-2.082707 -0.168872,-2.476734 -0.562888,-1.91384 -1.294657,-2.589312 -1.407236,-2.533022 -1.350944,-2.08271 -1.463526,-2.533021 -1.069498,-2.814471 c 0,0 -0.619182,-1.913839 -0.731762,-2.251574 -0.112579,-0.337737 -0.281447,-2.251577 -0.281447,-2.251577 l 0.619183,-2.983341 0.900631,-2.7581805 z"
       id="path3152"
       inkscape:connector-curvature="0" />
    <path
       style="opacity:0.36637932;fill:none;stroke:#ffffff;stroke-width:0.91414744;stroke-linecap:square;stroke-linejoin:round;stroke-miterlimit:4;stroke-opacity:1;stroke-dasharray:none;stroke-dashoffset:0;marker:none;visibility:visible;display:block;overflow:visible"
       id="path4820-2"
       inkscape:connector-curvature="0"
       d="m 15.699806,14.608083 c 3.351757,0 6.703518,0 10.055264,0" />
    <path
       d="m 19.189747,24.683885 c 3.351756,0 6.703516,0 10.055265,0"
       inkscape:connector-curvature="0"
       id="path3982"
       style="opacity:0.36637932;fill:none;stroke:#ffffff;stroke-width:0.91414744;stroke-linecap:square;stroke-linejoin:round;stroke-miterlimit:4;stroke-opacity:1;stroke-dasharray:none;stroke-dashoffset:0;marker:none;visibility:visible;display:block;overflow:visible" />
    <path
       style="opacity:0.36637932;fill:none;stroke:#ffffff;stroke-width:0.91414744;stroke-linecap:square;stroke-linejoin:round;stroke-miterlimit:4;stroke-opacity:1;stroke-dasharray:none;stroke-dashoffset:0;marker:none;visibility:visible;display:block;overflow:visible"
       id="path3984"
       inkscape:connector-curvature="0"
       d="m 23.805475,34.647109 c 3.351761,0 6.703526,0 10.055267,0" />
    <path
       style="fill:#323232;fill-opacity:1"
       d="m 22.017696,44.2727 c -1.609274,-0.108784 -2.471941,-0.257737 -3.72303,-0.642843 l -0.80038,-0.246369 0.548203,-0.458755 c 2.527529,-2.115117 3.455409,-4.426602 3.136107,-7.812505 -0.223181,-2.366647 -0.470427,-3.061829 -1.997521,-5.616447 -0.547892,-0.916545 -1.407981,-2.43243 -1.911311,-3.368637 -0.503328,-0.936204 -1.106119,-2.020087 -1.339535,-2.408628 -0.569448,-0.947888 -1.966545,-4.012154 -2.293603,-5.030577 -0.626425,-1.95062 -0.724451,-4.885647 -0.225388,-6.748402 0.551219,-2.0574219 1.480969,-4.1025715 2.783493,-6.1227782 l 0.534978,-0.8297517 1.18267,-0.3909276 c 2.111584,-0.6979769 3.82561,-0.9687235 6.100108,-0.9635691 2.721202,0.00623 4.853644,0.3952415 7.266866,1.3258765 l 1.004241,0.387276 -0.301999,0.3982463 c -0.558874,0.7369818 -1.627373,2.5367381 -1.868299,3.1468953 -0.131412,0.3328331 -0.359424,0.841326 -0.506688,1.1299835 -0.147265,0.28866 -0.468009,1.264615 -0.712765,2.168792 -0.411455,1.520003 -0.442872,1.762802 -0.416701,3.220064 0.03642,2.029058 0.244049,2.702058 1.914491,6.206313 1.243101,2.607769 1.607733,3.279127 3.648595,6.717733 2.502855,4.216997 2.719635,4.905345 2.591557,8.229104 -0.08667,2.24829 -0.327377,3.231745 -1.010253,4.127054 -0.716502,0.939373 -4.119184,2.554761 -6.609117,3.137607 -2.404546,0.562856 -3.872526,0.6563 -6.994719,0.445245 z m 5.274586,-0.684949 c 1.184555,-0.184819 2.776573,-0.60975 4.001496,-1.068052 0.574593,-0.214983 0.830699,-0.41043 1.291659,-0.985713 0.679675,-0.848244 1.263059,-1.974805 1.51722,-2.929819 0.183998,-0.69142 0.264131,-3.678842 0.109479,-4.081841 -0.06809,-0.177485 -0.659317,-0.199444 -5.369452,-0.199444 l -5.292921,0 0.08517,1.166316 c 0.112891,1.545953 -0.08967,2.907856 -0.629507,4.231918 -0.522229,1.280939 -1.353557,2.763582 -1.921754,3.427396 l -0.412782,0.482241 1.103401,0.08088 c 0.606869,0.04448 1.216874,0.101789 1.355576,0.127345 0.454078,0.08366 3.001369,-0.07008 4.162411,-0.251227 z m -7.023576,-0.843973 c 0.05797,-0.306135 -0.561602,-0.449947 -0.820987,-0.190561 -0.272739,0.272739 -0.08505,0.490902 0.383135,0.445338 0.254812,-0.02479 0.411576,-0.116017 0.437852,-0.254777 z m 0.902213,-1.039211 c 0.213401,-0.257132 0.05475,-0.44683 -0.373682,-0.44683 -0.199861,0 -0.399984,0.05922 -0.444723,0.13161 -0.111093,0.179753 0.173373,0.49883 0.444723,0.49883 0.121713,0 0.289871,-0.08263 0.373682,-0.18361 z m 0.726041,-1.470902 c 0.243323,-0.243321 0.03247,-0.488989 -0.419726,-0.488989 -0.330797,0 -0.42782,0.05243 -0.42782,0.231162 0,0.12714 0.03783,0.26899 0.08407,0.315221 0.133371,0.133372 0.608431,0.09766 0.763486,-0.05739 z m 13.21129,-0.173767 c 0,-0.184031 -0.09785,-0.263358 -0.362103,-0.293556 -0.465017,-0.05315 -0.683099,0.147777 -0.456612,0.420674 0.23813,0.286931 0.818715,0.196786 0.818715,-0.127118 z M 22.499428,38.42075 c 0,-0.184032 -0.09785,-0.263357 -0.362104,-0.293556 -0.423304,-0.04837 -0.649835,0.128103 -0.538119,0.419223 0.121698,0.317137 0.900223,0.208459 0.900223,-0.125667 z m 13.113175,0 c 0,-0.184438 -0.09793,-0.263355 -0.364584,-0.293796 -0.410252,-0.04683 -0.63991,0.197075 -0.427041,0.453552 0.216001,0.260275 0.791625,0.144112 0.791625,-0.159756 z m -12.861,-1.639147 c 0,-0.184031 -0.09784,-0.263359 -0.362099,-0.293557 -0.423311,-0.04837 -0.649842,0.128104 -0.538126,0.419223 0.121696,0.317138 0.900225,0.20846 0.900225,-0.125666 z m 13.153466,-0.03152 c 0.03512,-0.247342 -0.01566,-0.283698 -0.396294,-0.283698 -0.464617,0 -0.67345,0.244035 -0.423082,0.494406 0.246398,0.246399 0.773717,0.110795 0.819376,-0.210708 z M 22.88517,35.319489 c 0.04698,-0.07601 -0.0019,-0.225209 -0.107975,-0.331569 -0.266874,-0.266874 -0.845163,-0.116355 -0.845163,0.219982 0,0.200582 0.08544,0.249775 0.433866,0.249775 0.238625,0 0.472303,-0.06219 0.519272,-0.138188 z m 13.168744,-0.11159 c 0,-0.336337 -0.578289,-0.486856 -0.845163,-0.21998 -0.271855,0.271853 -0.09858,0.469755 0.411293,0.469755 0.348417,0 0.43387,-0.04918 0.43387,-0.249775 z M 22.628932,33.686918 c 0.108378,-0.175358 -0.171087,-0.499324 -0.428639,-0.4969 -0.331491,0.0031 -0.563177,0.209174 -0.479722,0.426654 0.08737,0.227677 0.778049,0.28109 0.908361,0.07025 z M 35.778986,33.53483 c -0.04591,-0.32347 -0.515744,-0.453929 -0.796275,-0.221114 -0.287962,0.238993 -0.07733,0.504814 0.399981,0.504814 0.380633,0 0.431419,-0.03636 0.396294,-0.2837 z m -1.931502,-0.943161 c -0.23814,-0.831469 -0.357606,-1.056158 -2.682999,-5.04603 l -1.708578,-2.931553 -5.274996,0 c -2.90125,0 -5.274998,0.03272 -5.274998,0.07272 0,0.109516 1.220813,2.28829 2.396667,4.277317 1.261549,2.133986 1.842734,3.316895 1.954411,3.977894 l 0.08372,0.495519 5.316376,0.03288 c 2.924011,0.01808 5.334912,-0.0086 5.357567,-0.05919 0.02266,-0.05063 -0.05262,-0.419444 -0.167171,-0.819574 z M 21.932032,32.116337 c 0.12523,-0.150893 0.12523,-0.227371 0,-0.378264 -0.195494,-0.235556 -0.38752,-0.239319 -0.696149,-0.01365 -0.203908,0.149101 -0.21469,0.205978 -0.07171,0.378263 0.211251,0.254546 0.562738,0.26079 0.767854,0.01365 z m 13.039814,0.112598 c 0.274841,-0.105461 0.251097,-0.52052 -0.03492,-0.611313 -0.333905,-0.105979 -0.648199,0.04558 -0.648199,0.312566 0,0.306001 0.310472,0.441767 0.683168,0.298747 z M 21.152749,30.193491 c 0.03413,-0.240304 -0.01776,-0.283698 -0.339299,-0.283698 -0.417056,0 -0.582623,0.160763 -0.469413,0.455791 0.118894,0.309826 0.759634,0.173479 0.808712,-0.172093 z m 13.198971,0.03152 c 0,-0.184029 -0.09786,-0.263358 -0.362103,-0.293556 -0.423306,-0.04837 -0.649829,0.128103 -0.538123,0.419222 0.121694,0.317139 0.900226,0.208461 0.900226,-0.125666 z M 20.206498,28.727319 c 0.0899,-0.234288 -0.152988,-0.456675 -0.498787,-0.456675 -0.324437,0 -0.477383,0.182154 -0.37562,0.447348 0.08955,0.233362 0.785588,0.240786 0.874407,0.0093 z m 13.136519,-0.141453 c 0,-0.18403 -0.09786,-0.263357 -0.362103,-0.293557 -0.423306,-0.04837 -0.649832,0.128103 -0.538126,0.419224 0.121697,0.317137 0.900229,0.208458 0.900229,-0.125667 z M 19.347222,26.946719 c 0,-0.18403 -0.09785,-0.263358 -0.362102,-0.293556 -0.46502,-0.05315 -0.6831,0.147777 -0.456613,0.420676 0.238128,0.28693 0.818715,0.196784 0.818715,-0.12712 z m 12.987089,0 c 0,-0.18403 -0.09785,-0.263358 -0.362103,-0.293556 -0.465016,-0.05315 -0.683099,0.147777 -0.456612,0.420676 0.23813,0.28693 0.818715,0.196784 0.818715,-0.12712 z M 18.252719,25.213006 c -0.03155,-0.222208 -0.122278,-0.283699 -0.418555,-0.283699 -0.296279,0 -0.386998,0.06149 -0.418556,0.283699 -0.03547,0.249614 0.01483,0.283698 0.418556,0.283698 0.403721,0 0.454006,-0.03408 0.418555,-0.283698 z m 12.987093,0 c -0.03161,-0.222208 -0.12228,-0.283699 -0.41856,-0.283699 -0.296279,0 -0.386995,0.06149 -0.418559,0.283699 -0.0355,0.249614 0.01478,0.283698 0.418559,0.283698 0.403726,0 0.454005,-0.03408 0.41856,-0.283698 z M 17.329811,23.668425 c 0,-0.18403 -0.09785,-0.263358 -0.362102,-0.293557 -0.423309,-0.04837 -0.649839,0.128104 -0.538126,0.419223 0.121698,0.317138 0.900228,0.208459 0.900228,-0.125666 z m 13.113172,0 c 0,-0.184438 -0.09793,-0.263355 -0.364581,-0.293797 -0.410247,-0.04683 -0.639901,0.197077 -0.427047,0.453553 0.216013,0.260275 0.791628,0.144111 0.791628,-0.159756 z m -2.323134,-1.733714 c -1.552084,-3.261954 -2.02184,-4.753665 -2.025043,-6.4305 l -0.0019,-0.977185 -5.35875,0 -5.358751,0 0,0.874374 c 0,1.73551 0.455956,3.177423 2.046,6.470267 l 0.898059,1.859802 5.327635,0 5.327637,0 -0.854922,-1.796758 z m -11.672657,0.09457 c 0,-0.184031 -0.09785,-0.263359 -0.362102,-0.293558 -0.423307,-0.04837 -0.649836,0.128105 -0.538125,0.419223 0.121698,0.317139 0.900227,0.208461 0.900227,-0.125665 z m 13.113178,0 c 0,-0.184438 -0.09793,-0.263356 -0.364582,-0.293797 -0.385583,-0.04402 -0.602685,0.153822 -0.490277,0.446761 0.04264,0.111218 0.212149,0.161753 0.461164,0.137522 0.296865,-0.02889 0.393695,-0.100333 0.393695,-0.290486 z M 15.604867,20.295563 c -0.03155,-0.222207 -0.122279,-0.283697 -0.418557,-0.283697 -0.296277,0 -0.386997,0.06149 -0.418556,0.283697 -0.03546,0.249616 0.01483,0.2837 0.418556,0.2837 0.403722,0 0.454007,-0.03408 0.418557,-0.2837 z m 13.237843,0.0045 c 0.05799,-0.306136 -0.561603,-0.449947 -0.820991,-0.190563 -0.27274,0.272741 -0.08505,0.490904 0.383135,0.445341 0.254814,-0.02479 0.411575,-0.116016 0.437856,-0.254778 z M 15.060221,18.751001 c 0,-0.184438 -0.09793,-0.263355 -0.364582,-0.293796 -0.41025,-0.04683 -0.639905,0.197076 -0.427049,0.453553 0.21601,0.260274 0.791631,0.144111 0.791631,-0.159757 z m 13.171642,0.131611 c 0.213396,-0.257131 0.05474,-0.446832 -0.373685,-0.446832 -0.398272,0 -0.565284,0.163692 -0.45644,0.447347 0.09091,0.236892 0.63337,0.236556 0.830125,-5.03e-4 z M 14.555868,17.111855 c 0,-0.184439 -0.09793,-0.263356 -0.364582,-0.293797 -0.41025,-0.04683 -0.639905,0.197077 -0.427049,0.453553 0.21601,0.260275 0.791631,0.14411 0.791631,-0.159756 z m 13.239265,0 c 0,-0.184033 -0.09785,-0.263359 -0.362099,-0.293557 -0.42331,-0.04837 -0.64984,0.128104 -0.538125,0.419222 0.121697,0.317138 0.900224,0.208461 0.900224,-0.125665 z M 14.488241,15.604318 c 0.08381,-0.100986 0.115779,-0.242834 0.07104,-0.31522 -0.130308,-0.210845 -0.820994,-0.157432 -0.908361,0.07025 -0.145884,0.380168 0.554949,0.58521 0.83732,0.244974 z m 13.221095,-0.163133 c 0.03514,-0.247342 -0.01566,-0.283699 -0.396292,-0.283699 -0.464622,0 -0.673453,0.244035 -0.423082,0.494407 0.246398,0.2464 0.773714,0.110795 0.819374,-0.210708 z M 14.722249,13.612904 c -0.03156,-0.222207 -0.12228,-0.283699 -0.418556,-0.283699 -0.296279,0 -0.386997,0.06148 -0.418558,0.283699 -0.03545,0.249615 0.01483,0.2837 0.418558,0.2837 0.403721,0 0.454007,-0.03408 0.418556,-0.2837 z m 13.221307,0.08183 c 0.0899,-0.234299 -0.154827,-0.423888 -0.550769,-0.426655 -0.318357,-0.0022 -0.470619,0.181416 -0.369314,0.445418 0.09742,0.253866 0.821126,0.239106 0.920083,-0.01875 z m -1.522353,-1.248176 c 0.5292,-2.14487 1.58201,-4.5567412 2.835949,-6.4968262 C 29.536999,5.5167626 29.719703,5.119489 29.663164,5.0669059 29.32713,4.7543763 25.634316,4.1772671 23.941018,4.1726535 22.182232,4.1678872 19.737712,4.6051686 19.349593,4.9940243 18.925414,5.4190076 17.28478,8.2636753 16.74171,9.515785 c -0.489089,1.127651 -0.997328,2.721141 -1.166444,3.657158 l -0.08568,0.474205 5.325813,-0.03289 5.325813,-0.03289 0.279988,-1.134796 z M 15.088196,12.242071 c 0.226384,-0.226384 0.03883,-0.488987 -0.349244,-0.488987 -0.39272,0 -0.558766,0.164923 -0.45039,0.447346 0.08312,0.216605 0.597864,0.24341 0.799634,0.04164 z m 13.211289,-0.173767 c 0,-0.184032 -0.09785,-0.26336 -0.362098,-0.293556 -0.423311,-0.04837 -0.649841,0.128103 -0.538126,0.419221 0.121697,0.317138 0.900224,0.208461 0.900224,-0.125665 z M 15.604867,10.334589 C 15.5559,9.9898395 14.99341,9.877663 14.754875,10.165081 c -0.230304,0.277501 -0.05675,0.453208 0.447647,0.453208 0.38691,0 0.437563,-0.03572 0.402345,-0.2837 z M 28.811318,10.4801 c 0.04698,-0.07601 -0.0019,-0.225209 -0.107978,-0.331568 -0.266873,-0.266875 -0.845162,-0.116355 -0.845162,0.219983 0,0.20058 0.08545,0.249774 0.433866,0.249774 0.238631,0 0.472304,-0.0622 0.519274,-0.138189 z M 16.195016,8.6639196 c 0,-0.2949828 -0.483025,-0.4161209 -0.755976,-0.189591 -0.290868,0.2413988 -0.07839,0.5229601 0.362284,0.4800789 0.296863,-0.02889 0.393692,-0.1003337 0.393692,-0.2904879 z m 13.239264,0 c 0,-0.1692068 -0.09812,-0.2660591 -0.298239,-0.2943739 -0.363499,-0.051427 -0.582537,0.1421429 -0.475749,0.420431 0.118985,0.3100726 0.773988,0.2033948 0.773988,-0.1260571 z M 16.991837,7.1193387 c 0.03534,-0.2487448 -0.01516,-0.2836983 -0.409787,-0.2836983 -0.352381,0 -0.450078,0.050182 -0.450078,0.2311619 0,0.3216051 0.127517,0.4169419 0.499635,0.3735462 0.221337,-0.025816 0.332356,-0.124744 0.36023,-0.3210098 z m 13.198979,0.031526 c 0,-0.184031 -0.09786,-0.2633588 -0.362109,-0.2935558 -0.423305,-0.048373 -0.649835,0.1281027 -0.538126,0.4192229 0.121703,0.3171374 0.900235,0.2084597 0.900235,-0.1256671 z m 0.75652,-1.2608825 c 0,-0.1692078 -0.09812,-0.2660601 -0.298235,-0.2943749 -0.363494,-0.051427 -0.582539,0.1421439 -0.475755,0.420432 0.118992,0.3100725 0.77399,0.2033948 0.77399,-0.1260571 z M 17.834164,5.7638878 c 0,-0.3340023 -0.745305,-0.4384545 -0.866932,-0.121499 -0.12236,0.318863 0.03216,0.4547046 0.468977,0.412303 0.301019,-0.02922 0.397955,-0.1000545 0.397955,-0.290804 z"
       id="path3150"
       inkscape:connector-curvature="0" />
    <path
       style="fill:none;stroke:url(#linearGradient4013);stroke-width:0.6213823px;stroke-linecap:butt;stroke-linejoin:miter;stroke-opacity:1"
       d="m 19.481495,5.2900858 1.489735,-0.4352036 1.702557,-0.2611217 1.447173,-0.087048 1.830247,0.2176023 1.574866,0.2176014 1.738996,0.4346287 c -0.692793,1.3412746 -1.332977,2.3614996 -2.041537,3.6104625 -0.189095,0.4666661 -0.299598,0.9617167 -0.468204,1.4361686 -0.171788,0.483411 -0.458582,0.986456 -0.597425,1.524363 -0.322962,0.94424 -0.459629,1.596663 -0.462079,2.43829 0.06426,0.988412 0.0216,1.192279 0.08512,1.784333 0.05493,0.511887 0.144903,1.020382 0.255385,1.523212 0.138761,0.631545 0.510768,1.871375 0.510768,1.871375 l 0.766151,1.914893 0.723585,1.39265 1.234354,2.350098 1.536893,2.480659 1.314887,2.350098 c 0,0 0.893848,1.39265 0.936404,1.610251 0.04261,0.217603 0.468204,1.349131 0.468204,1.349131 0,0 0.297953,1.827855 0.297953,2.001935 0,0.174081 0.135344,1.999061 0.135344,1.999061 l -0.241604,1.905122 c 0,0 -0.54568,1.261986 -0.974376,1.788357 -0.639755,0.785527 -1.515763,1.314232 -1.515763,1.314232 l -2.383582,0.826888 -1.787685,0.261119 -2.341013,0.217604 -2.298451,0.08704 -1.105131,-0.130562 c 0,0 1.124783,-1.351073 1.500456,-2.087826 0.45201,-0.886461 0.924155,-2.786449 0.924155,-2.786449 l 0.297948,-3.307544 -0.766151,-3.481628 -1.31948,-2.567699 -1.149225,-2.045456 -1.830249,-2.872339 c 0,0 -1.22,-2.087549 -1.670711,-3.133466 -0.543129,-1.260379 -1.308762,-3.786269 -1.308762,-3.786269 0,0 -0.348169,-2.001933 -0.348169,-2.306576 0,-0.304642 0.433295,-2.30658 0.433295,-2.30658 0,0 0.744263,-2.206444 1.225167,-3.2645988 0.633945,-1.3949053 2.179946,-4.0468149 2.179946,-4.0468149 z"
       id="path4005"
       inkscape:connector-curvature="0"
       sodipodi:nodetypes="ccccccccsccssccccccscsccsccccccsccccccsczcac" />
  </g>
</svg>
