<?xml version="1.0" encoding="UTF-8" standalone="no"?>
<!-- Created with Inkscape (http://www.inkscape.org/) -->

<svg
   xmlns:dc="http://purl.org/dc/elements/1.1/"
   xmlns:cc="http://creativecommons.org/ns#"
   xmlns:rdf="http://www.w3.org/1999/02/22-rdf-syntax-ns#"
   xmlns:svg="http://www.w3.org/2000/svg"
   xmlns="http://www.w3.org/2000/svg"
   xmlns:xlink="http://www.w3.org/1999/xlink"
   xmlns:sodipodi="http://sodipodi.sourceforge.net/DTD/sodipodi-0.dtd"
   xmlns:inkscape="http://www.inkscape.org/namespaces/inkscape"
   version="1.1"
   width="48"
   height="48"
   id="svg4117"
   inkscape:version="0.48.4 r9939"
   sodipodi:docname="applications-other.svg">
  <sodipodi:namedview
     pagecolor="#ffffff"
     bordercolor="#666666"
     borderopacity="1"
     objecttolerance="10"
     gridtolerance="10"
     guidetolerance="10"
     inkscape:pageopacity="0"
     inkscape:pageshadow="2"
     inkscape:window-width="1508"
     inkscape:window-height="962"
     id="namedview85"
     showgrid="true"
     inkscape:zoom="17.291667"
     inkscape:cx="24"
     inkscape:cy="24"
     inkscape:window-x="65"
     inkscape:window-y="24"
     inkscape:window-maximized="0"
     inkscape:current-layer="svg4117">
    <inkscape:grid
       type="xygrid"
       id="grid3091" />
  </sodipodi:namedview>
  <defs
     id="defs4119">
    <linearGradient
       id="linearGradient3924">
      <stop
         id="stop3926"
         style="stop-color:#ffffff;stop-opacity:1"
         offset="0" />
      <stop
         id="stop3928"
         style="stop-color:#ffffff;stop-opacity:0.23529412"
         offset="0.06316455" />
      <stop
         id="stop3930"
         style="stop-color:#ffffff;stop-opacity:0.15686275"
         offset="0.95056331" />
      <stop
         id="stop3932"
         style="stop-color:#ffffff;stop-opacity:0.39215687"
         offset="1" />
    </linearGradient>
    <radialGradient
       cx="4.9929786"
       cy="43.5"
       r="2.5"
       fx="4.9929786"
       fy="43.5"
       id="radialGradient2873-966-168"
       xlink:href="#linearGradient3688-166-749"
       gradientUnits="userSpaceOnUse"
       gradientTransform="matrix(2.003784,0,0,1.4,27.98813,-17.4)" />
    <linearGradient
       id="linearGradient3688-166-749">
      <stop
         id="stop2883"
         style="stop-color:#181818;stop-opacity:1"
         offset="0" />
      <stop
         id="stop2885"
         style="stop-color:#181818;stop-opacity:0"
         offset="1" />
    </linearGradient>
    <radialGradient
       cx="4.9929786"
       cy="43.5"
       r="2.5"
       fx="4.9929786"
       fy="43.5"
       id="radialGradient2875-742-326"
       xlink:href="#linearGradient3688-464-309"
       gradientUnits="userSpaceOnUse"
       gradientTransform="matrix(2.003784,0,0,1.4,-20.01187,-104.4)" />
    <linearGradient
       id="linearGradient3688-464-309">
      <stop
         id="stop2889"
         style="stop-color:#181818;stop-opacity:1"
         offset="0" />
      <stop
         id="stop2891"
         style="stop-color:#181818;stop-opacity:0"
         offset="1" />
    </linearGradient>
    <linearGradient
       x1="25.058096"
       y1="47.027729"
       x2="25.058096"
       y2="39.999443"
       id="linearGradient2877-634-617"
       xlink:href="#linearGradient3702-501-757"
       gradientUnits="userSpaceOnUse" />
    <linearGradient
       id="linearGradient3702-501-757">
      <stop
         id="stop2895"
         style="stop-color:#181818;stop-opacity:0"
         offset="0" />
      <stop
         id="stop2897"
         style="stop-color:#181818;stop-opacity:1"
         offset="0.5" />
      <stop
         id="stop2899"
         style="stop-color:#181818;stop-opacity:0"
         offset="1" />
    </linearGradient>
    <filter
       color-interpolation-filters="sRGB"
       id="filter3831">
      <feGaussianBlur
         stdDeviation="0.6375"
         id="feGaussianBlur3833" />
    </filter>
    <clipPath
       id="clipPath3823">
      <path
         d="M 108.8125,58 C 107.25437,58 106,59.254375 106,60.8125 l 0,24.375 C 106,86.745625 107.25437,88 108.8125,88 l 24.375,0 C 134.74562,88 136,86.745625 136,85.1875 l 0,-24.375 C 136,59.254375 134.74562,58 133.1875,58 l -24.375,0 z m 7.1875,4.5 10,0 0,8.75 5,0 -10,13.75 -10,-13.75 5,0 0,-8.75 z"
         inkscape:connector-curvature="0"
         id="path3825"
         style="fill:#ffffff;fill-opacity:1;stroke:none" />
    </clipPath>
    <linearGradient
       x1="65.262688"
       y1="64.205269"
       x2="65.262688"
       y2="50.068527"
       id="linearGradient3812"
       xlink:href="#linearGradient5010"
       gradientUnits="userSpaceOnUse"
       gradientTransform="matrix(0.625,0,0,0.625,78.5,32.25)" />
    <filter
       color-interpolation-filters="sRGB"
       id="filter3806">
      <feGaussianBlur
         stdDeviation="1.2"
         id="feGaussianBlur3808" />
    </filter>
    <linearGradient
       x1="70"
       y1="54"
       x2="70"
       y2="75.095024"
       id="linearGradient3788"
       xlink:href="#linearGradient3737"
       gradientUnits="userSpaceOnUse"
       gradientTransform="translate(0,4)" />
    <linearGradient
       x1="56"
       y1="72"
       x2="88"
       y2="72"
       id="linearGradient3773"
       xlink:href="#linearGradient3778"
       gradientUnits="userSpaceOnUse"
       gradientTransform="matrix(0.9375,0,0,0.9375,-140.5,3.5)" />
    <linearGradient
       x1="65.262688"
       y1="64.205269"
       x2="65.262688"
       y2="50.068527"
       id="linearGradient3832"
       xlink:href="#linearGradient3737"
       gradientUnits="userSpaceOnUse"
       gradientTransform="matrix(0.625,0,0,0.625,28.5,31.25)" />
    <filter
       color-interpolation-filters="sRGB"
       id="filter3174">
      <feGaussianBlur
         stdDeviation="1.71"
         id="feGaussianBlur3176" />
    </filter>
    <linearGradient
       id="linearGradient3737">
      <stop
         id="stop3739"
         style="stop-color:#ffffff;stop-opacity:1"
         offset="0" />
      <stop
         id="stop3741"
         style="stop-color:#ffffff;stop-opacity:0"
         offset="1" />
    </linearGradient>
    <linearGradient
       x1="45.447727"
       y1="92.539597"
       x2="45.447727"
       y2="7.0165396"
       id="ButtonShadow"
       gradientUnits="userSpaceOnUse"
       gradientTransform="scale(1.0058652,0.994169)">
      <stop
         id="stop3750"
         style="stop-color:#000000;stop-opacity:1"
         offset="0" />
      <stop
         id="stop3752"
         style="stop-color:#000000;stop-opacity:0.58823532"
         offset="1" />
    </linearGradient>
    <linearGradient
       id="linearGradient5010">
      <stop
         id="stop5012"
         style="stop-color:#000000;stop-opacity:1"
         offset="0" />
      <stop
         id="stop5014"
         style="stop-color:#000000;stop-opacity:0"
         offset="1" />
    </linearGradient>
    <linearGradient
       id="linearGradient3778">
      <stop
         id="stop3780"
         style="stop-color:#499119;stop-opacity:1"
         offset="0" />
      <stop
         id="stop3782"
         style="stop-color:#8fd625;stop-opacity:1"
         offset="1" />
    </linearGradient>
    <linearGradient
       id="linearGradient3104">
      <stop
         id="stop3106"
         style="stop-color:#aaaaaa;stop-opacity:1"
         offset="0" />
      <stop
         id="stop3108"
         style="stop-color:#c8c8c8;stop-opacity:1"
         offset="1" />
    </linearGradient>
    <linearGradient
       id="linearGradient3600">
      <stop
         id="stop3602"
         style="stop-color:#f4f4f4;stop-opacity:1"
         offset="0" />
      <stop
         id="stop3604"
         style="stop-color:#dbdbdb;stop-opacity:1"
         offset="1" />
    </linearGradient>
    <linearGradient
       id="linearGradient3104-5">
      <stop
         id="stop3106-9"
         style="stop-color:#aaaaaa;stop-opacity:1"
         offset="0" />
      <stop
         id="stop3108-8"
         style="stop-color:#c8c8c8;stop-opacity:1"
         offset="1" />
    </linearGradient>
    <linearGradient
       x1="23.99999"
       y1="4.999989"
       x2="23.99999"
       y2="43"
       id="linearGradient3084"
       xlink:href="#linearGradient3924"
       gradientUnits="userSpaceOnUse"
       gradientTransform="translate(2.4e-6,0.9674489)" />
    <radialGradient
       cx="7.4956832"
       cy="8.4497671"
       r="19.99999"
       fx="7.4956832"
       fy="8.4497671"
       id="radialGradient3093"
       xlink:href="#linearGradient3600"
       gradientUnits="userSpaceOnUse"
       gradientTransform="matrix(0,1.9392804,-2.0515274,-5.2784231e-8,41.335037,-8.4862548)" />
    <linearGradient
       x1="24"
       y1="44"
       x2="24"
       y2="3.8990016"
       id="linearGradient3095"
       xlink:href="#linearGradient3104"
       gradientUnits="userSpaceOnUse"
       gradientTransform="translate(-6e-7,0.9674389)" />
    <linearGradient
       x1="20"
       y1="43"
       x2="20"
       y2="3"
       id="linearGradient3098"
       xlink:href="#linearGradient3104-5"
       gradientUnits="userSpaceOnUse" />
    <linearGradient
       x1="23.06352"
       y1="12.978221"
       x2="23.06352"
       y2="36.949589"
       id="linearGradient3036"
       xlink:href="#linearGradient4311"
       gradientUnits="userSpaceOnUse"
       gradientTransform="matrix(1,0,0,-1,0,50.012147)" />
    <linearGradient
       id="linearGradient4311">
      <stop
         id="stop4313"
         style="stop-color:#000000;stop-opacity:1"
         offset="0" />
      <stop
         id="stop4315"
         style="stop-color:#000000;stop-opacity:0"
         offset="1" />
    </linearGradient>
    <linearGradient
       x1="23.06352"
       y1="12.978221"
       x2="23.06352"
       y2="36.949589"
       id="linearGradient3039"
       xlink:href="#linearGradient4311"
       gradientUnits="userSpaceOnUse" />
    <linearGradient
       inkscape:collect="always"
       xlink:href="#linearGradient3972-0"
       id="linearGradient3857"
       gradientUnits="userSpaceOnUse"
       gradientTransform="matrix(0.09531333,0,0,-0.09531333,-0.483111,49.400103)"
       x1="454.86929"
       y1="56.658657"
       x2="454.86929"
       y2="450.91153" />
    <linearGradient
       id="linearGradient3972-0">
      <stop
         id="stop3974"
         style="stop-color:#3ea38d;stop-opacity:1;"
         offset="0" />
      <stop
         id="stop3976"
         style="stop-color:#51eadd;stop-opacity:1;"
         offset="1" />
    </linearGradient>
    <linearGradient
       inkscape:collect="always"
       xlink:href="#outerBackgroundGradient-01"
       id="linearGradient10093"
       gradientUnits="userSpaceOnUse"
       gradientTransform="matrix(0,-1,1,0,68,556)"
       x1="292"
       y1="244"
       x2="332"
       y2="244" />
    <linearGradient
       id="outerBackgroundGradient-01">
      <stop
         style="stop-color:#d7d7d7;stop-opacity:1;"
         offset="0"
         id="stop3864-8-6-62" />
      <stop
         style="stop-color:#f5f5f5;stop-opacity:1;"
         offset="1"
         id="stop3866-9-1-4" />
    </linearGradient>
    <linearGradient
       y2="244"
       x2="332"
       y1="244"
       x1="292"
       gradientTransform="matrix(0,-1,1,0,-130.10169,305.49139)"
       gradientUnits="userSpaceOnUse"
       id="linearGradient3153"
       xlink:href="#outerBackgroundGradient-01"
       inkscape:collect="always" />
  </defs>
  <metadata
     id="metadata4122">
    <rdf:RDF>
      <cc:Work
         rdf:about="">
        <dc:format>image/svg+xml</dc:format>
        <dc:type
           rdf:resource="http://purl.org/dc/dcmitype/StillImage" />
        <dc:title></dc:title>
      </cc:Work>
    </rdf:RDF>
  </metadata>
  <g
     transform="matrix(1.1,0,0,0.4444449,-2.4000022,25.11107)"
     id="g2036"
     style="display:inline">
    <g
       transform="matrix(1.052632,0,0,1.285713,-1.263158,-13.42854)"
       id="g3712"
       style="opacity:0.4">
      <rect
         width="5"
         height="7"
         x="38"
         y="40"
         id="rect2801"
         style="fill:url(#radialGradient2873-966-168);fill-opacity:1;stroke:none" />
      <rect
         width="5"
         height="7"
         x="-10"
         y="-47"
         transform="scale(-1,-1)"
         id="rect3696"
         style="fill:url(#radialGradient2875-742-326);fill-opacity:1;stroke:none" />
      <rect
         width="28"
         height="7.0000005"
         x="10"
         y="40"
         id="rect3700"
         style="fill:url(#linearGradient2877-634-617);fill-opacity:1;stroke:none" />
    </g>
  </g>
  <path
     d="M 22.96875,8.1875 A 2.9359229,2.9359229 0 0 0 21.5625,8.59375 l -11.03125,6.375 A 2.9359229,2.9359229 0 0 0 9.125,17 2.9359229,2.9359229 0 0 0 9.09375,17 2.9359229,2.9359229 0 0 0 8.125,19.1875 L 8.0625,31.90625 a 2.9359229,2.9359229 0 0 0 1,2.1875 2.9359229,2.9359229 0 0 0 0,0.03125 2.9359229,2.9359229 0 0 0 1.4375,2.09375 l 11,6.3125 a 2.9359229,2.9359229 0 0 0 2.40625,0.21875 2.9359229,2.9359229 0 0 0 0.03125,0 2.9359229,2.9359229 0 0 0 2.5,-0.1875 l 11,-6.34375 a 2.9359229,2.9359229 0 0 0 1.40625,-2 2.9359229,2.9359229 0 0 0 1.09375,-2.25 l 0,-12.71875 a 2.9359229,2.9359229 0 0 0 -1,-2.1875 A 2.9359229,2.9359229 0 0 0 37.5,14.96875 L 26.46875,8.625 A 2.9359229,2.9359229 0 0 0 24.0625,8.375 2.9359229,2.9359229 0 0 0 22.96875,8.1875 z"
     inkscape:connector-curvature="0"
     id="path4564-0"
     style="opacity:0.05;color:#000000;fill:url(#linearGradient3098);fill-opacity:1;fill-rule:nonzero;stroke:none;stroke-width:1;marker:none;visibility:visible;display:inline;overflow:visible;enable-background:accumulate" />
  <rect
     width="39"
     height="39"
     rx="2"
     ry="2"
     x="4.5"
     y="5.4674392"
     id="rect5505-21"
     style="color:#000000;fill:url(#radialGradient3093);fill-opacity:1;fill-rule:nonzero;stroke:url(#linearGradient3095);stroke-width:1;stroke-linecap:round;stroke-linejoin:round;stroke-miterlimit:4;stroke-opacity:1;stroke-dasharray:none;stroke-dashoffset:0;marker:none;visibility:visible;display:inline;overflow:visible;enable-background:accumulate" />
  <g
     transform="translate(-135.85714,-31.05041)"
     id="layer2"
     style="display:none">
    <path
       d="M 11,7 48,5 85,7 c 3.324,0 6,2.676 6,6 l 0,73 c 0,3.324 -2.676,6 -6,6 L 11,92 C 7.676,92 5,89.324 5,86 L 5,13 C 5,9.676 7.676,7 11,7 z"
       inkscape:connector-curvature="0"
       id="rect3745"
       style="opacity:0.9;fill:url(#ButtonShadow);fill-opacity:1;fill-rule:nonzero;stroke:none;filter:url(#filter3174)" />
  </g>
  <g
     transform="translate(-135.85714,-31.05041)"
     id="layer4"
     style="display:none">
    <rect
       width="30"
       height="30"
       rx="2.8125"
       ry="2.8125"
       x="-86"
       y="56"
       transform="matrix(0,-1,1,0,0,4)"
       id="rect3790"
       style="opacity:0.6;fill:#000000;fill-opacity:1;stroke:none;filter:url(#filter3806)" />
    <rect
       width="30"
       height="30"
       rx="2.8125"
       ry="2.8125"
       x="-88"
       y="56"
       transform="matrix(0,-1,1,0,0,0)"
       id="rect2993"
       style="fill:url(#linearGradient3773);fill-opacity:1;stroke:none" />
    <path
       d="M 58.8125,58 C 57.254375,58 56,59.254375 56,60.8125 l 0,24.375 c 0,0.873066 0.410816,1.641163 1.03125,2.15625 C 57.02841,87.289908 57,87.242129 57,87.1875 l 0,-24.375 C 57,61.254375 58.17075,60 59.625,60 l 22.75,0 C 83.82925,60 85,61.254375 85,62.8125 l 0,24.375 c 0,0.05463 -0.02841,0.102408 -0.03125,0.15625 C 85.589184,86.828663 86,86.060566 86,85.1875 l 0,-24.375 C 86,59.254375 84.745625,58 83.1875,58 l -24.375,0 z"
       inkscape:connector-curvature="0"
       id="rect3775"
       style="opacity:0.5;fill:url(#linearGradient3788);fill-opacity:1;stroke:none" />
    <path
       d="m 116,63.5 0,8.75 -5,0 10,13.75 10,-13.75 -5,0 0,-8.75 -10,0 z"
       inkscape:connector-curvature="0"
       transform="translate(-50,0)"
       clip-path="url(#clipPath3823)"
       id="path3810"
       style="opacity:0.6;fill:url(#linearGradient3812);fill-opacity:1;fill-rule:nonzero;stroke:none;display:inline;filter:url(#filter3831)" />
    <path
       d="m 66,62.5 0,8.75 -5,0 10,13.75 10,-13.75 -5,0 0,-8.75 -10,0 z"
       inkscape:connector-curvature="0"
       id="path4278"
       style="fill:url(#linearGradient3832);fill-opacity:1;fill-rule:nonzero;stroke:none;display:inline" />
  </g>
  <path
     style="opacity:0.6;fill:#ffffff;fill-opacity:1;stroke:none;display:inline;enable-background:new"
     id="path3114"
     inkscape:connector-curvature="0"
     d="m 23.912069,33.298142 c 4.211198,0 7.625061,-3.397008 7.625061,-7.625061 0,0 0.05057,-0.716251 -0.168493,-1.525013 l -11.709928,0 c 0.316122,-0.883041 0.883142,-1.675291 1.653089,-2.204122 1.771378,-1.3985 4.454108,-0.889972 5.963043,0.679111 l 3.62488,0 c -1.177152,-2.691814 -3.861773,-4.575046 -6.987652,-4.575046 -4.211216,0 -7.625071,3.413863 -7.625071,7.62507 0,0 0,0.783646 0.151647,1.525012 l 11.714868,0 c -0.659205,1.666227 -2.233337,3.016476 -4.062736,3.032156 -0.09155,0.0045 -0.182743,0.0045 -0.274023,0.0027 -1.226326,-0.02487 -2.416271,-0.606414 -3.243634,-1.510121 l -3.648712,0 c 1.177161,2.691814 3.861781,4.575046 6.987661,4.575046 z m 1.648919,10.701632 0.08496,-4.584102 C 31.322072,38.708233 35.93131,34.566827 37.329176,29.135783 l -3.591195,0 c -1.472789,3.920201 -5.372326,6.977609 -9.634019,6.949072 -0.103332,0.0027 -0.207949,0.0045 -0.311101,0.0036 -1.54725,-0.0093 -3.068138,-0.393378 -4.446725,-1.082097 -2.48313,-1.11779 -4.326916,-3.326817 -5.227872,-5.870359 l -3.618252,0 c 1.39787,5.431054 6.007108,9.572459 11.683234,10.279898 l 0,4.584102 z M 37.329165,22.210379 C 35.931288,16.779324 31.322052,12.63792 25.645936,11.930481 l 0,-5.0257235 -3.462703,0 0,5.0257235 C 16.507108,12.63792 11.897862,16.779324 10.5,22.210379 l 3.567532,0 c 1.39982,-4.129472 5.726374,-7.09909 10.100674,-6.945699 4.258951,-0.02152 8.122497,3.020955 9.562996,6.945699 z"
     sodipodi:nodetypes="cccccccsccccccccccccccccccccccccccccccc" />
  <path
     sodipodi:nodetypes="cccccccsccccccccccccccccccccccccccccccc"
     d="m 23.912069,32.393386 c 4.211198,0 7.625061,-3.397007 7.625061,-7.625061 0,0 0.05057,-0.716251 -0.168493,-1.525013 l -11.709928,0 c 0.316122,-0.883042 0.883142,-1.675293 1.653089,-2.204123 1.771378,-1.3985 4.454108,-0.889972 5.963043,0.679111 l 3.62488,0 c -1.177152,-2.691814 -3.861773,-4.575046 -6.987652,-4.575046 -4.211216,0 -7.625071,3.413863 -7.625071,7.625071 0,0 0,0.783645 0.151647,1.525011 l 11.714868,0 c -0.659205,1.666227 -2.233337,3.016477 -4.062736,3.032156 -0.09155,0.0045 -0.182743,0.0045 -0.274023,0.0027 -1.226326,-0.02488 -2.416271,-0.606413 -3.243634,-1.51012 l -3.648712,0 c 1.177161,2.691814 3.861781,4.575046 6.987661,4.575046 z m 1.648919,11.606388 0.08496,-5.48886 c 5.676122,-0.707437 10.28536,-4.848842 11.683226,-10.279887 l -3.591195,0 c -1.472789,3.920201 -5.372326,6.977608 -9.634019,6.949073 -0.103332,0.0027 -0.207949,0.0045 -0.311101,0.0036 -1.54725,-0.0093 -3.068138,-0.39338 -4.446725,-1.082098 -2.48313,-1.117791 -4.326916,-3.326817 -5.227872,-5.870359 l -3.618252,0 c 1.39787,5.431055 6.007108,9.572459 11.683234,10.279898 l 0,5.488859 z M 37.329165,21.305622 C 35.931288,15.874568 31.322052,11.733163 25.645936,11.025724 l 0,-5.025723 -3.462703,0 0,5.025723 C 16.507108,11.733163 11.897862,15.874568 10.5,21.305622 l 3.567532,0 c 1.39982,-4.129472 5.726374,-7.09909 10.100674,-6.945698 4.258951,-0.02154 8.122497,3.020956 9.562996,6.945698 z"
     inkscape:connector-curvature="0"
     id="path4094"
     style="fill:url(#linearGradient3857);fill-opacity:1;stroke:none;display:inline;enable-background:new" />
  <rect
     width="37"
     height="37"
     rx="1"
     ry="1"
     x="5.5"
     y="6.4674392"
     id="rect6741-2"
     style="fill:none;stroke:url(#linearGradient3084);stroke-width:1;stroke-linecap:round;stroke-linejoin:round;stroke-miterlimit:4;stroke-opacity:1;stroke-dasharray:none;stroke-dashoffset:0" />
</svg>
