<?xml version="1.0" encoding="UTF-8" standalone="no"?>
<svg
   xmlns:dc="http://purl.org/dc/elements/1.1/"
   xmlns:cc="http://creativecommons.org/ns#"
   xmlns:rdf="http://www.w3.org/1999/02/22-rdf-syntax-ns#"
   xmlns:svg="http://www.w3.org/2000/svg"
   xmlns="http://www.w3.org/2000/svg"
   xmlns:sodipodi="http://sodipodi.sourceforge.net/DTD/sodipodi-0.dtd"
   xmlns:inkscape="http://www.inkscape.org/namespaces/inkscape"
   width="50pt"
   height="50pt"
   viewBox="0 0 50 50"
   xml:space="preserve"
   id="svg2"
   version="1.1"
   inkscape:version="0.91 r13725"
   sodipodi:docname="system-file-manager.svg"><metadata
     id="metadata25"><rdf:RDF><cc:Work
         rdf:about=""><dc:format>image/svg+xml</dc:format><dc:type
           rdf:resource="http://purl.org/dc/dcmitype/StillImage" /></cc:Work></rdf:RDF></metadata><defs
     id="defs23" /><sodipodi:namedview
     pagecolor="#ffffff"
     bordercolor="#666666"
     borderopacity="1"
     objecttolerance="10"
     gridtolerance="10"
     guidetolerance="10"
     inkscape:pageopacity="0"
     inkscape:pageshadow="2"
     inkscape:window-width="1588"
     inkscape:window-height="834"
     id="namedview21"
     showgrid="false"
     inkscape:zoom="7.552"
     inkscape:cx="68.05241"
     inkscape:cy="23.410931"
     inkscape:window-x="0"
     inkscape:window-y="0"
     inkscape:window-maximized="1"
     inkscape:current-layer="svg2" /><g
     transform="scale(0.5)"
     id="g4"><g
       id="Path_0"
       style="fill-rule:none;clip-rule:nonzero;fill:#C0C0C0;stroke:none;stroke-miterlimit:4;fill-opacity:50%;"><path
         d="M10.00 90L70.00 60L90.00 70L30.00 100z"
         id="path7" /></g><g
       id="Path_1"
       style="fill-rule:none;clip-rule:nonzero;fill:#7cfc7c;stroke:#000000;stroke-miterlimit:4;fill-opacity:50%;"><path
         d="M15.00 37.5L20.00 30L65.00 7.5L70.00 10L70.00 55L15.00 82.5z"
         id="path10" /></g><g
       id="Path_2"
       style="fill-rule:none;clip-rule:nonzero;fill:#FFFFFF;stroke:#000000;stroke-miterlimit:4;fill-opacity:100%;"><path
         d="M30.00 50L35.00 42.5L80.00 20L85.00 22.5L85.00 62.5L30.00 90z"
         id="path13" /></g><g
       id="Path_3"
       style="fill-rule:none;clip-rule:nonzero;fill:#FFFFFF;stroke:#000000;stroke-miterlimit:4;fill-opacity:100%;"><path
         d="M15.00 52.7L15.00 82.5L23.40 82.5L23.40 52.7z"
         id="path16" /></g><g
       id="Path_4"
       style="fill-rule:none;clip-rule:nonzero;fill:#FFFFFF;stroke:#000000;stroke-miterlimit:4;fill-opacity:100%;"><path
         d="M23.40 60.2L23.40 90L30.00 90L30.00 60.2z"
         id="path19" /></g></g><path
     id="path3355"
     d="m 46.284141,44.547453 -5.933607,-5.869407 c 0.847028,-1.367969 1.360591,-2.96195 1.360591,-4.685512 0,-4.995469 -4.096661,-9.047073 -9.14604,-9.047073 -5.050115,0 -9.146042,4.051604 -9.146042,9.047073 0,4.994737 4.095927,9.047074 9.146042,9.047074 1.742419,0 3.353832,-0.508004 4.736763,-1.342926 l 5.933616,5.866461 c 0.416807,0.412302 1.107523,0.409357 1.524338,0 l 1.524339,-1.507845 c 0.416816,-0.412302 0.416816,-1.095543 0,-1.507845 z M 32.565085,40.023916 c -3.367245,0 -6.097362,-2.700575 -6.097362,-6.031382 0,-3.330807 2.730117,-6.031383 6.097362,-6.031383 3.36724,0 6.097354,2.700576 6.097354,6.031383 0,3.330807 -2.730114,6.031382 -6.097354,6.031382 z"
     inkscape:connector-curvature="0" /></svg>