<?xml version="1.0" encoding="utf-8"?>
<!-- Generator: Adobe Illustrator 12.0.0, SVG Export Plug-In . SVG Version: 6.00 Build 51448)  -->
<!DOCTYPE svg PUBLIC "-//W3C//DTD SVG 1.1//EN" "http://www.w3.org/Graphics/SVG/1.1/DTD/svg11.dtd" [
	<!ENTITY ns_svg "http://www.w3.org/2000/svg">
	<!ENTITY ns_xlink "http://www.w3.org/1999/xlink">
]>
<svg  version="1.1"
	 id="svg2346" sodipodi:docbase="C:\Documents and Settings\JJB\My Documents\My Pictures\Electronics\Illustrations\Packages\MicroSD" sodipodi:version="0.32" inkscape:output_extension="org.inkscape.output.svg.inkscape" xmlns:rdf="http://www.w3.org/1999/02/22-rdf-syntax-ns#" xmlns:cc="http://web.resource.org/cc/" xmlns:inkscape="http://www.inkscape.org/namespaces/inkscape" xmlns:sodipodi="http://sodipodi.sourceforge.net/DTD/sodipodi-0.dtd" xmlns:dc="http://purl.org/dc/elements/1.1/" xmlns:svg="http://www.w3.org/2000/svg" sodipodi:docname="MicroSD Card Top.svg" inkscape:version="0.45.1"
	 xmlns="&ns_svg;" xmlns:xlink="&ns_xlink;" width="525" height="325" viewBox="35.138 258.445 525 325"
	 overflow="visible" enable-background="new 35.138 258.445 525 325" xml:space="preserve">
<sodipodi:namedview  id="base" showgrid="true" inkscape:cy="334.10275" gridtolerance="10000" borderopacity="1.0" inkscape:zoom="0.76165502" guidetolerance="10" pagecolor="#ffffff" inkscape:cx="-195.27728" bordercolor="#666666" inkscape:document-units="px" height="350px" width="550px" inkscape:window-y="-4" inkscape:pageshadow="2" objecttolerance="10" inkscape:window-width="1382" inkscape:window-x="54" inkscape:current-layer="g2520" inkscape:pageopacity="0.0" inkscape:window-height="874">
	</sodipodi:namedview>
<path id="path2633" fill="#FFFFFF" d="M274.204,276.645l0.01-0.02l6.6,3.84c-64.92,54.77-141.71,96.13-220.44,127.32l-0.03-0.02
	l-6.57-3.82c-4.11-2.42-6.31-5.45-6.6-8.53c-0.35-3.55,1.86-7.16,6.6-9.95l-0.01-0.03l188.41-108.75
	C251.114,271.565,265.264,271.536,274.204,276.645z"/>
<path id="path2635" fill="#FFFFFF" d="M284.874,287.445l0.02,0.04c-65.19,54.73-141.55,95.95-220.44,127.26l-4.11-6.98l0.03,0.02
	c78.73-31.19,155.52-72.55,220.44-127.32L284.874,287.445z"/>
<path id="path2637" fill="#FFFFFF" d="M190.094,471.085c2.22,1.319,2.22,3.289,0,4.619l-8.05,4.59l0.01,0.03
	c-0.56,0.41-0.84,0.8-0.82,1.2h-0.02v0.66l-7.86-4.561c-2.36-1.4-5.28-1.8-7.98-1.92h-21.06l-1.08-0.06l-1.08-0.181l-0.96-0.299
	l-0.9-0.42l-86.52-49.921c-3.25-1.89-6.74-5.239-6.6-9.3v-20.11c0.29,3.08,2.49,6.11,6.6,8.53l6.57,3.82l4.11,6.98l75.84,43.799
	l0.9,0.42l0.96,0.301l1.08,0.18l1.08,0.061h21.06c2.6-0.08,5.72,0.619,7.98,1.92L190.094,471.085z"/>
<path id="path2639" fill="#FFFFFF" d="M545.655,462.384l-1.32,0.84l-1.5,0.9l-161.34,93.15l-1.021-1.77v-4.621l-2.579-0.979
	c0.899-0.39,1.771-0.83,2.579-1.31l162.36-93.771l0.03,0.04c4.409-2.51,6.6-5.859,6.6-9.22h0.03v12.36l-0.12,0.6l-0.3,0.66
	l-0.54,0.66l-0.78,0.779l-0.96,0.84L545.655,462.384z"/>
<path id="path2641" fill="#FFFFFF" d="M181.234,481.525c0.01,0.37,0.28,0.75,0.82,1.141l28.08,16.199c2.28,1.301,5.42,2,8.04,1.92
	h42.72c2.6-0.08,5.72,0.62,7.98,1.92l79.56,45.891c7.87,4.64,20.671,5.1,29.461,1.31l2.579,0.979v4.621l1.021,1.77l-1.08,0.63
	l0.01,0.03c-7.8,4.32-16.7,7.529-25.39,9.51l-2.34-0.73l-2.222-0.89l-2.04-1.03l-79.56-45.89c-2.26-1.3-5.38-2-7.98-1.92h-42.72
	c-2.62,0.08-5.76-0.62-8.04-1.931l-28.08-16.189v-0.01l-0.42-0.359l-0.3-0.361l-0.12-0.42v-15.529v-0.66H181.234L181.234,481.525z"
	/>
<path id="path2643" fill="#FFFFFF" d="M284.874,287.445l257.96,148.891v0.01c4.41,2.529,6.63,5.92,6.63,9.3
	c0,3.36-2.189,6.71-6.6,9.22l-0.03-0.04l-162.36,93.771c-0.81,0.479-1.68,0.92-2.579,1.31c-8.79,3.79-21.591,3.33-29.461-1.31
	l-79.56-45.891c-2.26-1.3-5.38-2-7.98-1.92h-42.72c-2.62,0.08-5.76-0.619-8.04-1.92l-28.08-16.199
	c-0.54-0.391-0.81-0.771-0.82-1.141c-0.02-0.4,0.26-0.79,0.82-1.2l-0.01-0.03l8.05-4.59c2.22-1.33,2.22-3.3,0-4.619l-16.74-9.66
	c-2.26-1.301-5.38-2-7.98-1.92h-21.06l-1.08-0.061l-1.08-0.18l-0.96-0.301l-0.9-0.42l-75.84-43.799
	c78.89-31.311,155.25-72.53,220.44-127.26L284.874,287.445z"/>
<polyline id="polyline2647" fill="#FFFFFF" stroke="#000000" stroke-width="1.44" stroke-linecap="round" stroke-linejoin="round" stroke-miterlimit="10" points="
	542.834,464.125 381.494,557.275 380.414,557.905 "/>
<polyline id="polyline2649" fill="#FFFFFF" stroke="#000000" stroke-width="1.44" stroke-linecap="round" stroke-linejoin="round" stroke-miterlimit="10" points="
	549.494,458.005 549.374,458.605 549.074,459.265 548.534,459.925 547.754,460.705 546.794,461.544 545.655,462.384 
	544.334,463.224 542.834,464.125 "/>
<line id="line2651" fill="#FFFFFF" stroke="#000000" stroke-width="0.72" stroke-linecap="round" stroke-linejoin="round" stroke-miterlimit="10" x1="190.094" y1="474.505" x2="190.094" y2="472.166"/>
<line id="line2653" fill="#FFFFFF" stroke="#000000" stroke-width="0.72" stroke-linecap="round" stroke-linejoin="round" stroke-miterlimit="10" x1="173.354" y1="473.544" x2="173.354" y2="465.445"/>
<line id="line2655" fill="#FFFFFF" stroke="#000000" stroke-width="0.72" stroke-linecap="round" stroke-linejoin="round" stroke-miterlimit="10" x1="165.374" y1="471.625" x2="165.374" y2="463.525"/>
<line id="line2657" fill="#FFFFFF" stroke="#000000" stroke-width="0.72" stroke-linecap="round" stroke-linejoin="round" stroke-miterlimit="10" x1="144.314" y1="471.625" x2="144.314" y2="463.525"/>
<line id="line2659" fill="#FFFFFF" stroke="#000000" stroke-width="0.72" stroke-linecap="round" stroke-linejoin="round" stroke-miterlimit="10" x1="140.294" y1="470.666" x2="140.294" y2="462.556"/>
<line id="line2661" fill="#FFFFFF" stroke="#000000" stroke-width="0.72" stroke-linecap="round" stroke-linejoin="round" stroke-miterlimit="10" x1="53.774" y1="420.265" x2="53.774" y2="408.375"/>
<line id="line2663" fill="#FFFFFF" stroke="#000000" stroke-width="0.72" stroke-linecap="round" stroke-linejoin="round" stroke-miterlimit="10" x1="348.434" y1="560.714" x2="348.434" y2="552.616"/>
<line id="line2665" fill="#FFFFFF" stroke="#000000" stroke-width="0.72" stroke-linecap="round" stroke-linejoin="round" stroke-miterlimit="10" x1="268.874" y1="514.755" x2="268.874" y2="506.655"/>
<line id="line2667" fill="#FFFFFF" stroke="#000000" stroke-width="0.72" stroke-linecap="round" stroke-linejoin="round" stroke-miterlimit="10" x1="260.894" y1="512.835" x2="260.894" y2="504.735"/>
<line id="line2669" fill="#FFFFFF" stroke="#000000" stroke-width="0.72" stroke-linecap="round" stroke-linejoin="round" stroke-miterlimit="10" x1="218.174" y1="512.835" x2="218.174" y2="504.735"/>
<line id="line2671" fill="#FFFFFF" stroke="#000000" stroke-width="0.72" stroke-linecap="round" stroke-linejoin="round" stroke-miterlimit="10" x1="210.134" y1="510.925" x2="210.134" y2="502.826"/>
<line id="line2673" fill="#FFFFFF" stroke="#000000" stroke-width="0.72" stroke-linecap="round" stroke-linejoin="round" stroke-miterlimit="10" x1="182.054" y1="494.714" x2="182.054" y2="486.616"/>
<line id="line2675" fill="#FFFFFF" stroke="#000000" stroke-width="0.72" stroke-linecap="round" stroke-linejoin="round" stroke-miterlimit="10" x1="380.474" y1="555.505" x2="380.474" y2="550.884"/>
<line id="line2677" fill="#FFFFFF" stroke="#000000" stroke-width="0.72" stroke-linecap="round" stroke-linejoin="round" stroke-miterlimit="10" x1="542.834" y1="461.786" x2="542.834" y2="457.166"/>
<polyline id="polyline2679" fill="#FFFFFF" stroke="#000000" stroke-width="1.44" stroke-linecap="round" stroke-linejoin="round" stroke-miterlimit="10" points="
	181.214,481.525 181.214,482.185 181.214,497.714 "/>
<polyline id="polyline2681" fill="#FFFFFF" stroke="#000000" stroke-width="1.44" stroke-linecap="round" stroke-linejoin="round" stroke-miterlimit="10" points="
	549.494,458.005 549.494,445.645 549.494,445.585 "/>
<polyline id="polyline2683" fill="#FFFFFF" stroke="#000000" stroke-width="1.44" stroke-linecap="round" stroke-linejoin="round" stroke-miterlimit="10" points="
	47.174,394.705 47.174,395.415 47.174,415.525 "/>
<path id="path2685" fill="#FFFFFF" stroke="#000000" stroke-width="1.44" stroke-linecap="round" stroke-linejoin="round" stroke-miterlimit="10" d="
	M380.474,557.905c-0.02,0.011-0.028,0.021-0.05,0.03c-7.8,4.32-16.7,7.529-25.39,9.51"/>
<polyline id="polyline2687" fill="#FFFFFF" stroke="#000000" stroke-width="1.44" stroke-linecap="round" stroke-linejoin="round" stroke-miterlimit="10" points="
	542.834,436.335 284.874,287.445 284.834,287.425 "/>
<polyline id="polyline2689" fill="#FFFFFF" stroke="#000000" stroke-width="1.44" stroke-linecap="round" stroke-linejoin="round" stroke-miterlimit="10" points="
	64.454,414.746 60.344,407.766 60.314,407.715 "/>
<polyline id="polyline2691" fill="#FFFFFF" stroke="#000000" stroke-width="1.44" stroke-linecap="round" stroke-linejoin="round" stroke-miterlimit="10" points="
	280.814,280.465 284.874,287.445 284.894,287.485 "/>
<path id="path2693" fill="#FFFFFF" stroke="#000000" stroke-width="1.44" stroke-linecap="round" stroke-linejoin="round" stroke-miterlimit="10" d="
	M64.454,414.746c78.89-31.31,155.25-72.53,220.44-127.26"/>
<polyline id="polyline2695" fill="#FFFFFF" stroke="#000000" stroke-width="1.44" stroke-linecap="round" stroke-linejoin="round" stroke-miterlimit="10" points="
	53.774,403.945 60.344,407.766 60.374,407.786 "/>
<path id="path2697" fill="#FFFFFF" stroke="#000000" stroke-width="1.44" stroke-linecap="round" stroke-linejoin="round" stroke-miterlimit="10" d="
	M60.374,407.786c78.73-31.19,155.52-72.55,220.44-127.32"/>
<path id="path2699" fill="#FFFFFF" stroke="#000000" stroke-width="1.44" stroke-linecap="round" stroke-linejoin="round" stroke-miterlimit="10" d="
	M53.774,385.465c-4.74,2.79-6.95,6.4-6.6,9.95c0.29,3.08,2.49,6.11,6.6,8.53"/>
<polyline id="polyline2701" fill="#FFFFFF" stroke="#000000" stroke-width="1.44" stroke-linecap="round" stroke-linejoin="round" stroke-miterlimit="10" points="
	242.174,276.685 53.764,385.435 53.714,385.465 "/>
<path id="path2703" fill="#FFFFFF" stroke="#000000" stroke-width="1.44" stroke-linecap="round" stroke-linejoin="round" stroke-miterlimit="10" d="
	M274.274,276.685c-0.02-0.01-0.05-0.03-0.07-0.04c-8.94-5.11-23.09-5.08-32.03,0.04"/>
<line id="line2705" fill="#FFFFFF" stroke="#000000" stroke-width="1.44" stroke-linecap="round" stroke-linejoin="round" stroke-miterlimit="10" x1="280.814" y1="280.465" x2="274.214" y2="276.625"/>
<polyline id="polyline2707" fill="#FFFFFF" stroke="#000000" stroke-width="1.44" stroke-linecap="round" stroke-linejoin="round" stroke-miterlimit="10" points="
	348.434,564.794 350.474,565.826 352.695,566.714 355.034,567.445 "/>
<line id="line2709" fill="#FFFFFF" stroke="#000000" stroke-width="1.44" stroke-linecap="round" stroke-linejoin="round" stroke-miterlimit="10" x1="268.874" y1="518.905" x2="348.434" y2="564.794"/>
<path id="path2711" fill="#FFFFFF" stroke="#000000" stroke-width="1.44" stroke-linecap="round" stroke-linejoin="round" stroke-miterlimit="10" d="
	M260.894,516.985c2.6-0.08,5.72,0.62,7.98,1.92"/>
<line id="line2713" fill="#FFFFFF" stroke="#000000" stroke-width="1.44" stroke-linecap="round" stroke-linejoin="round" stroke-miterlimit="10" x1="218.174" y1="516.985" x2="260.894" y2="516.985"/>
<path id="path2715" fill="#FFFFFF" stroke="#000000" stroke-width="1.44" stroke-linecap="round" stroke-linejoin="round" stroke-miterlimit="10" d="
	M210.134,515.056c2.28,1.31,5.42,2.01,8.04,1.93"/>
<line id="line2717" fill="#FFFFFF" stroke="#000000" stroke-width="1.44" stroke-linecap="round" stroke-linejoin="round" stroke-miterlimit="10" x1="182.054" y1="498.866" x2="210.134" y2="515.056"/>
<polyline id="polyline2719" fill="#FFFFFF" stroke="#000000" stroke-width="1.44" stroke-linecap="round" stroke-linejoin="round" stroke-miterlimit="10" points="
	181.214,497.714 181.334,498.134 181.634,498.496 182.054,498.855 "/>
<line id="line2721" fill="#FFFFFF" stroke="#000000" stroke-width="1.44" stroke-linecap="round" stroke-linejoin="round" stroke-miterlimit="10" x1="173.354" y1="477.625" x2="181.214" y2="482.185"/>
<path id="path2723" fill="#FFFFFF" stroke="#000000" stroke-width="1.44" stroke-linecap="round" stroke-linejoin="round" stroke-miterlimit="10" d="
	M165.374,475.705c2.7,0.12,5.62,0.52,7.98,1.92"/>
<path id="path2725" fill="#FFFFFF" stroke="#000000" stroke-width="1.44" stroke-linecap="round" stroke-linejoin="round" stroke-miterlimit="10" d="
	M542.834,454.884c0.01-0.01,0.021-0.01,0.03-0.02c4.409-2.51,6.6-5.859,6.6-9.22c0-3.38-2.22-6.771-6.63-9.3"/>
<line id="line2727" fill="#FFFFFF" stroke="#000000" stroke-width="1.44" stroke-linecap="round" stroke-linejoin="round" stroke-miterlimit="10" x1="380.474" y1="548.595" x2="542.834" y2="454.826"/>
<line id="line2729" fill="#FFFFFF" stroke="#000000" stroke-width="1.44" stroke-linecap="round" stroke-linejoin="round" stroke-miterlimit="10" x1="144.314" y1="475.705" x2="165.374" y2="475.705"/>
<line id="line2731" fill="#FFFFFF" stroke="#000000" stroke-width="1.44" stroke-linecap="round" stroke-linejoin="round" stroke-miterlimit="10" x1="53.774" y1="424.826" x2="140.294" y2="474.746"/>
<polyline id="polyline2733" fill="#FFFFFF" stroke="#000000" stroke-width="1.44" stroke-linecap="round" stroke-linejoin="round" stroke-miterlimit="10" points="
	140.294,474.746 141.194,475.166 142.154,475.464 143.234,475.645 144.314,475.705 "/>
<path id="path2735" fill="#FFFFFF" stroke="#000000" stroke-width="1.44" stroke-linecap="round" stroke-linejoin="round" stroke-miterlimit="10" d="
	M47.174,415.525c-0.14,4.061,3.35,7.41,6.6,9.3"/>
<path id="path2737" fill="#FFFFFF" stroke="#000000" stroke-width="1.44" stroke-linecap="round" stroke-linejoin="round" stroke-miterlimit="10" d="
	M348.434,548.595c7.87,4.641,20.671,5.101,29.461,1.311c0.899-0.391,1.771-0.83,2.579-1.311"/>
<line id="line2739" fill="#FFFFFF" stroke="#000000" stroke-width="1.44" stroke-linecap="round" stroke-linejoin="round" stroke-miterlimit="10" x1="268.874" y1="502.705" x2="348.434" y2="548.595"/>
<path id="path2741" fill="#FFFFFF" stroke="#000000" stroke-width="1.44" stroke-linecap="round" stroke-linejoin="round" stroke-miterlimit="10" d="
	M260.894,500.786c2.6-0.079,5.72,0.62,7.98,1.921"/>
<line id="line2743" fill="#FFFFFF" stroke="#000000" stroke-width="1.44" stroke-linecap="round" stroke-linejoin="round" stroke-miterlimit="10" x1="218.174" y1="500.786" x2="260.894" y2="500.786"/>
<path id="path2745" fill="#FFFFFF" stroke="#000000" stroke-width="1.44" stroke-linecap="round" stroke-linejoin="round" stroke-miterlimit="10" d="
	M210.134,498.866c2.28,1.3,5.42,2,8.04,1.92"/>
<line id="line2747" fill="#FFFFFF" stroke="#000000" stroke-width="1.44" stroke-linecap="round" stroke-linejoin="round" stroke-miterlimit="10" x1="182.054" y1="482.666" x2="210.134" y2="498.866"/>
<path id="path2749" fill="#FFFFFF" stroke="#000000" stroke-width="1.44" stroke-linecap="round" stroke-linejoin="round" stroke-miterlimit="10" d="
	M182.054,480.326c-0.56,0.41-0.84,0.801-0.82,1.2c0.01,0.37,0.28,0.75,0.82,1.14"/>
<polyline id="polyline2751" fill="#FFFFFF" stroke="#000000" stroke-width="1.44" stroke-linecap="round" stroke-linejoin="round" stroke-miterlimit="10" points="
	190.094,475.705 182.044,480.294 181.994,480.326 "/>
<path id="path2753" fill="#FFFFFF" stroke="#000000" stroke-width="1.44" stroke-linecap="round" stroke-linejoin="round" stroke-miterlimit="10" d="
	M190.094,471.085c2.22,1.319,2.22,3.289,0,4.619"/>
<line id="line2755" fill="#FFFFFF" stroke="#000000" stroke-width="1.44" stroke-linecap="round" stroke-linejoin="round" stroke-miterlimit="10" x1="173.354" y1="461.425" x2="190.094" y2="471.085"/>
<path id="path2757" fill="#FFFFFF" stroke="#000000" stroke-width="1.44" stroke-linecap="round" stroke-linejoin="round" stroke-miterlimit="10" d="
	M165.374,459.505c2.6-0.08,5.72,0.619,7.98,1.92"/>
<line id="line2759" fill="#FFFFFF" stroke="#000000" stroke-width="1.44" stroke-linecap="round" stroke-linejoin="round" stroke-miterlimit="10" x1="144.314" y1="459.505" x2="165.374" y2="459.505"/>
<polyline id="polyline2761" fill="#FFFFFF" stroke="#000000" stroke-width="1.44" stroke-linecap="round" stroke-linejoin="round" stroke-miterlimit="10" points="
	140.294,458.544 141.194,458.964 142.154,459.265 143.234,459.445 144.314,459.505 "/>
<line id="line2763" fill="#FFFFFF" stroke="#000000" stroke-width="1.44" stroke-linecap="round" stroke-linejoin="round" stroke-miterlimit="10" x1="64.454" y1="414.746" x2="140.294" y2="458.544"/>
<path id="path2415" fill="none" stroke="#000000" d="M302.414,502.625c-0.895,0.516-2.293-0.207-6.001-2.434
	c-5.751-3.445-10.103-6.643-10.103-6.643l-8.667,2.336c0,0,5.213,3.465,11.181,6.91c8.51,4.914,15.217,9.164,22.112,6.653
	c4.885-1.763,3.288-4.846,0.372-7.937c-1.942-2.084-5.872-5.68-4.882-6.254c1.256-0.724,4.657,1.258,7.073,2.588
	c2.664,1.453,12.664,7.217,12.664,7.217l4.877-1.35c0,0-7.008-4.27-14.491-8.187c-10.801-5.64-14.993-5.422-17.412-4.312
	c-3.151,1.459-1.306,4.801,0.11,6.646C300.628,499.626,303.512,501.991,302.414,502.625"/>
<path id="path2417" fill="none" stroke="#000000" d="M336.616,514.587c0.037-0.09,0.068-0.174,0.111-0.273l15.511,5.354
	c0.991,1.696,1.395,3.362,0.696,4.771c-0.631,1.246-2.235,1.992-4.547,2.287c-15.871,0.98-34.257-9.686-41.212-13.364l11.023-3.03
	l0,0c1.83,0.977,4.613,2.303,6.442,2.998c1.83,0.707,3.564,1.258,5.162,1.643c1.552,0.359,2.949,0.552,4.057,0.541
	c1.091-0.006,1.941-0.198,2.438-0.598C336.43,514.812,336.525,514.701,336.616,514.587"/>
<path id="path2419" fill="none" stroke="#000000" d="M350.678,517.534c-0.414-0.581-1.039-1.376-1.59-1.897l-12.719-3.139
	c0.131,0.227,0.229,0.627,0.296,0.834c0.021,0.057,0.048,0.109,0.044,0.164L350.678,517.534"/>
<path id="path2421" fill="none" stroke="#000000" d="M344.963,512.263c-1.287-1.004-2.449-1.777-3.149-2.203
	c-2.818-1.706-3.913-2.408-7.144-4.249l-4.896,1.35l0,0c0.775,0.462,1.162,0.659,2.365,1.498c1.104,0.767,2.057,1.529,2.777,2.265
	L344.963,512.263"/>
<path id="path2423" fill="none" stroke="#000000" d="M377.771,505.121c-5.614-3.244-14.354-3.479-19.502-0.508
	c-5.151,2.975-4.748,8.02,0.873,11.264c5.633,3.25,14.357,3.479,19.513,0.504C383.799,513.409,383.403,508.371,377.771,505.121z
	 M365.201,512.376c-1.959-1.131-2.093-2.897-0.3-3.934c1.804-1.039,4.855-0.961,6.816,0.172c1.963,1.137,2.105,2.9,0.305,3.938
	C370.229,513.587,367.162,513.509,365.201,512.376z"/>
<path id="path2425" fill="none" stroke="#000000" d="M329.489,491.375c-0.655-0.379-2.266-1.879,0.212-3.31
	c2.163-1.249,5.01-0.552,5.739-0.127c0.57,0.329,3.275,1.892,3.275,1.892c1.586,0.913,3.91,0.717,5.539-0.227
	c1.637-0.945,1.693-2.342,0.227-3.188c-0.623-0.359-3.766-2.175-3.766-2.175c-2.828-1.633-11.684-3.253-17.367,0.03
	c-6.094,3.518-2.944,8.615-0.104,10.254l3.354,1.939c2.115,1.223,4.162,0.951,5.806,0.004c1.636-0.944,2.092-2.207-0.072-3.457
	C332.33,493.013,330.096,491.724,329.489,491.375z"/>
<path id="path2427" fill="none" stroke="#000000" d="M322.494,478.327c-1.942-1.12-2.217-2.784-0.604-3.715
	c1.606-0.929,4.499-0.774,6.439,0.347c1.947,1.125,2.216,2.793,0.607,3.721C327.325,479.608,324.44,479.453,322.494,478.327z"/>
<path id="path2429" fill="none" stroke="#000000" d="M321.652,478.83c-2.515-1.451-4.367-1.375-5.676-0.621l0,0l-10.217,5.897
	c-0.15,0.087-0.138,0.25,0.035,0.353l6.072,3.506c0.18,0.102,0.464,0.109,0.615,0.022c0,0,9.726-5.614,10.117-5.843
	C324.024,481.325,324.151,480.273,321.652,478.83z"/>
<path id="path2431" fill="none" stroke="#000000" d="M313.322,464.533c-1.598-0.92-3.412-1.627-6.681-2.097
	c-0.515-1.499-2.059-2.947-3.999-4.069c-5.386-3.109-13.286-3.501-18.617-0.423l0,0l-0.007,0.006l-28.458,16.429
	c-0.183,0.105-0.177,0.278,0.002,0.385l6.116,3.529c0.187,0.107,0.483,0.107,0.665,0.002l28.467-16.434l0.01,0.006
	c1.388-0.703,3.157-0.879,4.802,0.072c1.646,0.949,1.361,1.98,0.128,2.771l0.035,0.021l-28.465,16.436
	c-0.183,0.105-0.196,0.268-0.016,0.371l6.114,3.531c0.2,0.115,0.479,0.105,0.662,0c0,0,28.178-16.268,28.465-16.436
	c0.925-0.535,3.035-0.947,4.854,0.104c1.805,1.041,1.221,2.194,0.172,2.798c-0.199,0.115-28.465,16.436-28.465,16.436
	c-0.182,0.107-0.182,0.275,0.009,0.388l6.106,3.524c0.173,0.102,0.467,0.101,0.65-0.006c0,0,27.354-15.793,28.466-16.435
	C319.275,472.591,319.105,467.871,313.322,464.533z"/>
<path id="path2433" fill="none" stroke="#000000" d="M358.074,493.308c-5.455-3.149-11.496-2.752-14.873-0.803l-11.283,6.504
	c-0.181,0.104-0.168,0.276,0.002,0.375l5.135,2.965c0.188,0.107,0.472,0.105,0.651,0.002c0,0,10.07-5.813,10.991-6.348
	c1.481-0.854,3.196-0.815,4.768,0.035c2.676,1.448,0.318,2.596,0.318,2.596c-0.91,0.523-0.629,1.732,0.84,2.58
	c1.473,0.852,3.606,0.91,4.436,0.433c0.367-0.212,1.313-0.759,1.313-0.759C363.645,499.001,362.321,495.759,358.074,493.308z"/>
<path id="path2437" fill="none" stroke="#000000" stroke-width="1.2434" d="M189.35,375.355l2.477-1.431l6.238,0.054
	c14.863,0.212,22.156-0.026,26.697-2.596c3.028-1.749,4.358-4.21-0.092-6.779c-2.706-1.563-6.33-2.066-8.852-2.198l1.56-2.384
	c3.807,0.185,8.028,1.138,11.468,3.125c6.421,3.708,4.724,7.813,0.458,10.275c-5.504,3.178-13.945,3.443-26.286,3.311l-4.586-0.105
	l-0.092,0.053l13.395,7.734l-3.348,1.933L189.35,375.355z"/>
<path id="path2439" fill="none" stroke="#000000" stroke-width="1.2434" d="M238.414,402.625c-1.772-0.482-5.114-1.523-8.157-3.28
	c-3.409-1.969-5.346-4.092-5.448-6.582c-0.066-2.199,1.738-4.631,5.249-6.658c6.751-3.859,16.277-4.033,23.831,0.329
	c2.607,1.505,4.079,3.011,4.58,3.84l-3.075,0.965c-0.668-1.004-1.739-2.123-4.011-3.436c-5.481-3.165-12.468-3.26-18.115,0
	c-5.716,3.301-5.649,7.236-0.401,10.267c1.905,1.099,3.477,1.698,4.479,1.893l6.718-3.88l-4.58-2.645l2.34-1.352l7.42,4.285
	L238.414,402.625z"/>
<path id="path2441" fill="none" stroke="#000000" stroke-width="1.2434" d="M264.084,392.938c1.538,0.578,3.744,1.621,5.783,2.798
	c2.908,1.678,4.278,3.049,4.546,4.516c0.301,1.177-0.334,2.354-2.106,3.378c-2.172,1.254-5.515,1.523-8.758,0.656l-0.066,0.037
	c1.605,1.545,2.34,4.016-1.002,5.943c-1.939,1.121-4.178,1.525-6.417,1.506c-3.009-0.076-6.218-1.158-9.895-3.279
	c-2.005-1.16-3.409-2.125-4.244-2.762L264.084,392.938z M257.767,399.943l2.64,1.523c3.076,1.775,6.486,1.891,8.658,0.637
	c2.64-1.522,1.671-3.28-1.271-4.979c-1.335-0.771-2.206-1.156-2.773-1.369L257.767,399.943z M246.972,406.176
	c0.467,0.387,1.269,0.887,2.306,1.484c3.007,1.738,6.885,2.703,10.161,0.813c3.074-1.775,1.705-4.033-1.471-5.867l-2.406-1.389
	L246.972,406.176z"/>
<path id="text2160" fill="none" stroke="#000000" stroke-width="1.4279" d="M296.838,346.772c-3.683,1.383-7.504,1.994-11.473,1.828
	c-4.097-0.153-7.665-1.108-10.706-2.864c-2.181-1.259-3.036-2.53-3.292-3.783c-0.388-2.175,1.754-3.105,3.766-4.714l3.437,1.984
	c-1.071,1.146-1.661,1.911-1.772,2.292c-0.297,0.956,0.307,1.867,1.811,2.736c2.068,1.195,4.625,1.815,7.665,1.859
	c3.04,0.044,5.603-0.535,7.683-1.737c1.805-1.042,2.82-2.677,3.051-4.904c0.117-1.061,0.344-3.151,0.686-6.27
	c0.267-2.249,1.404-3.954,3.412-5.112c0.459-0.266,0.947-0.494,1.461-0.686c3.57-1.32,7.138-1.993,10.701-2.021
	c3.949-0.038,7.346,0.765,10.188,2.405c4.144,2.392,4.793,4.735,1.955,7.03l-2.128,1.386l-3.686-2.126
	c2.469-1.424,2.299-2.947-0.506-4.564c-1.688-0.975-3.777-1.449-6.275-1.424c-2.26,0.014-4.446,0.42-6.563,1.219
	c-0.313,0.117-0.615,0.261-0.91,0.43c-1.547,0.893-2.453,2.475-2.719,4.745c-0.134,1.072-0.408,3.198-0.826,6.38
	c-0.319,2.303-1.515,4.048-3.578,5.24l-0.771,0.446C297.334,346.59,297.131,346.666,296.838,346.772L296.838,346.772z
	 M332.463,349.255l-5.195-3l-31.131,11.688l-3.629-2.094l31.131-11.689l-5.006-2.888l4.307-1.628l5.004,2.889l12.695-4.758
	l3.627,2.094l-12.693,4.758l5.194,3L332.463,349.255z M325.486,374.795l-2.034-1.176c-1.302-0.75-1.646-1.673-1.033-2.766
	c-2.922-0.241-5.278-0.878-7.078-1.917l-4.644-2.681c-2.805-1.62-2.87-3.199-0.2-4.742c0.516-0.297,1.143-0.585,1.877-0.862
	l20.063-7.552c5.613-2.119,10.674-1.875,15.183,0.728l10.117,5.841l-26.354,9.884c-0.828,0.308-1.483,0.601-1.963,0.878
	c-1.473,0.85-1.357,1.767,0.35,2.752L325.486,374.795z M327.418,367.616l22.466-8.43l-6.625-3.826
	c-1.998-1.154-4.321-1.23-6.973-0.231l-20.452,7.681c-0.199,0.075-0.412,0.176-0.635,0.304c-0.955,0.553-0.766,1.215,0.572,1.987
	l2.858,1.652C321.547,368.435,324.477,368.723,327.418,367.616L327.418,367.616z M372.183,374.325l-3.614,1.293l-3.409-1.968
	c0.698-0.275,1.26-0.538,1.686-0.783c2.189-1.265,1.876-2.71-0.946-4.341l-1.949-1.126l-31.105,11.703l-3.684-2.126l35.354-13.302
	l4.619,2.636c3.52,2.01,5.305,3.763,5.353,5.259C374.515,372.503,373.746,373.422,372.183,374.325L372.183,374.325z
	 M408.236,380.947l-13.523-7.809l-15.151,5.699l12.701,7.333l-4.359,1.628l-12.701-7.333l-24.313,9.151l-3.602-2.079l48.188-18.108
	l17.126,9.888L408.236,380.947z M415.615,386.738l-3.684-2.126l5.985-2.252l3.684,2.127L415.615,386.738z M373.555,402.577
	l-3.712-2.143l35.301-13.27l3.712,2.143L373.555,402.577z M422.676,403.477l-3.616,1.293l-3.408-1.968
	c0.696-0.277,1.261-0.538,1.685-0.783c2.19-1.265,1.878-2.711-0.944-4.341l-1.954-1.128l-31.104,11.704l-3.683-2.126l35.354-13.303
	l4.619,2.637c3.519,2.01,5.305,3.764,5.353,5.259C425.007,401.655,424.238,402.574,422.676,403.477L422.676,403.477z
	 M440.487,416.822l-9.521,3.561l-13.415-7.746l-7.093,2.667c-0.625,0.235-1.133,0.464-1.52,0.687
	c-1.714,0.989-1.485,2.108,0.677,3.356l9.071,5.238l-4.28,1.611l-10.253-5.92c-3.428-1.98-3.398-3.973,0.08-5.982
	c0.646-0.372,1.39-0.719,2.236-1.037l16.528-6.212c2.979-1.129,6.274-1.587,9.887-1.374c3.607,0.212,6.67,1.043,9.181,2.492
	c2.035,1.175,3.104,2.474,3.208,3.894c0.104,1.422-0.855,2.719-2.882,3.888C441.859,416.252,441.226,416.545,440.487,416.822
	L440.487,416.822z M431.613,416.674l4.5-1.676c0.626-0.233,1.167-0.483,1.627-0.749c2.506-1.447,2.495-2.899-0.036-4.36
	c-1.539-0.889-3.348-1.38-5.423-1.472c-2.073-0.093-4.041,0.207-5.899,0.897l-4.554,1.71L431.613,416.674z"/>
<path id="path3142" fill="none" stroke="#000000" stroke-width="1.4279" stroke-miterlimit="5" d="M479.178,419.632l-4.246-0.703
	c0,0-0.477,0.707-1.91,1.482c-1.432,0.776-3.642,1.545-7.407,1.502c-4.198-0.049-7.222-0.321-10.041-0.285
	c-2.614,0.035-5.148,0.568-7.343,1.768c-0.091,0.023-0.229,0.059-0.229,0.059s-0.076,0.041-0.1,0.057
	c-0.072,0.042-0.159,0.052-0.229,0.096l0.03,0.02c-0.177,0.115-0.359,0.246-0.359,0.246s-0.229,0.398-0.23,0.399
	c0,0-0.039,0.207-0.032,0.285c0.015,0.153,0.063,0.255,0.1,0.323c0.141,0.269,0.177,0.271,0.229,0.322
	c0.106,0.101,0.182,0.162,0.265,0.229c0.166,0.132,0.39,0.277,0.657,0.494c0.535,0.431,1.27,1.063,2.041,1.824
	c1.544,1.522,3.182,3.611,3.588,5.797l0.396,2.092l3.029-1.141c0,0,1.132-0.432,1.15-0.438c0.131-0.05,0.007,0.008,7.771-2.891
	c4.585-1.711,7.516-3.172,9.417-4.979c1.827-1.736,2.581-3.71,3.356-6.271C479.113,419.814,479.147,419.742,479.178,419.632z
	 M472.857,423.472c-0.313,0.466-0.572,0.975-0.988,1.369c-1.409,1.342-3.628,2.525-7.966,4.145
	c-3.597,1.342-5.039,1.877-6.322,2.355c-0.841-1.891-2.063-3.627-3.356-4.903c-0.728-0.719-1.357-1.222-1.909-1.673
	c0.945-0.359,1.891-0.553,3.357-0.57c2.156-0.027,5.351,0.271,9.845,0.323C468.565,424.554,470.889,424.065,472.857,423.472z"/>
<path id="path3165" fill="none" stroke="#000000" stroke-width="1.4279" stroke-miterlimit="5" d="M480.955,447.308
	c0,0-1.198,0.293-3.161,0.229c-1.961-0.065-4.475-0.465-7.013-2.07c-2.829-1.795-4.529-3.256-6.52-4.411
	c-1.877-1.093-4.313-1.813-7.407-1.881c-0.021-0.007-0.099-0.021-0.099-0.021s-0.059,0-0.066,0
	c-0.118-0.002-0.203-0.039-0.327-0.039v0.039c-0.275,0.006-0.594,0-0.594,0l-0.657,0.189c0,0-0.271,0.115-0.363,0.172
	c-0.184,0.109-0.3,0.186-0.361,0.247c-0.239,0.243-0.169,0.284-0.196,0.343c-0.053,0.112-0.104,0.186-0.133,0.266
	c-0.052,0.162-0.107,0.349-0.197,0.607c-0.172,0.521-0.429,1.243-0.854,2.092c-0.852,1.695-2.344,3.838-4.808,5.512l-2.37,1.598
	l3.557,0.492c0,0,1.296,0.189,1.315,0.191c0.146,0.021,0.018-0.004,9.021,1.254c5.304,0.742,9.094,0.963,12.675,0.514
	c3.447-0.43,6.442-1.483,10.206-2.926c0.147-0.06,0.278-0.076,0.429-0.135L480.955,447.308z M473.877,449.57
	c-0.805,0.191-1.647,0.434-2.438,0.533c-2.655,0.331-5.646,0.206-10.666-0.494c-4.168-0.584-5.824-0.818-7.31-1.027
	c1.796-1.654,3.14-3.348,3.854-4.771c0.396-0.791,0.603-1.401,0.789-1.938c1.08,0.151,1.977,0.414,2.996,1.008
	c1.521,0.883,3.396,2.396,6.42,4.314C469.6,448.509,471.759,449.156,473.877,449.57z"/>
<path id="path3163" fill="none" stroke="#000000" stroke-width="1.4279" stroke-miterlimit="5" d="M419.936,435.641l18.48-7.13
	c7.542,5.201,7.643,12.701,0.314,17.98 M439.266,424.436l-1.836,0.69l-21.571,8.357c-0.051-0.046,26.767,15.389,26.656,15.385
	c10.036-6.828,9.438-17.108-1.698-23.537L439.266,424.436z M258.5,342.668l-6.849,2.129l200.694,115.871l6.849-2.129L258.5,342.668z
	"/>
<path id="path2451" d="M244.758,360.475l-1.136-0.655l2.839-2.661l-2.793-1.613l-4.634,1.625l-1.162-0.671l15.694-5.501l0.888,0.512
	L244.758,360.475z M247.357,356.33l3.63-3.339l-5.785,2.094L247.357,356.33z"/>
<path id="path2453" d="M252.83,363.629c-0.393,0.227-0.899,0.31-1.52,0.249c-0.557-0.051-1.04-0.194-1.45-0.431l-4.295-2.48
	l12.636-7.295l3.882,2.241c0.433,0.338,0.671,0.529,0.712,0.573c0.573,0.595,0.447,1.131-0.379,1.608L252.83,363.629z
	 M252.071,362.749l8.918-5.149c0.563-0.325,0.538-0.663-0.071-1.015l-2.717-1.568l-10.341,5.971l2.761,1.594
	C251.201,362.916,251.684,362.973,252.071,362.749z"/>
<path id="path2455" d="M272.033,361.659l-15.677,5.512l-0.94-0.543l9.396-9.138l1.179,0.681l-7.076,7.009l11.943-4.199
	L272.033,361.659z"/>
<path id="path2457" d="M266.391,372.965l-1.137-0.656l2.84-2.661l-2.793-1.612l-4.634,1.625l-1.163-0.672l15.695-5.502l0.889,0.513
	L266.391,372.965z M268.99,368.822l3.63-3.339l-5.786,2.094L268.99,368.822z"/>
<path id="path2459" d="M273.195,376.919l-0.954-0.551l5.209-7.43l-9.039,5.219l-1.176-0.679l12.635-7.295l0.953,0.552l-5.205,7.4
	l9.014-5.204l1.197,0.692L273.195,376.919z"/>
<path id="path2461" d="M280.073,380.891l-3.694-2.134c-0.48-0.277-0.742-0.577-0.781-0.896c-0.047-0.338,0.166-0.645,0.642-0.918
	l9.41-5.433c0.686-0.396,1.448-0.509,2.293-0.341c0.305,0.061,0.799,0.238,1.483,0.532l3.283,1.896l-1.165,0.672l-3.28-1.895
	c-0.609-0.352-1.196-0.366-1.758-0.041l-8.918,5.148c-0.388,0.224-0.291,0.502,0.291,0.838l3.324,1.92L280.073,380.891z"/>
<path id="path2463" d="M286.992,384.871l-5.488-3.168l12.612-7.282l5.487,3.168l-1.142,0.659l-4.348-2.509l-3.941,2.276l2.709,1.564
	l-1.143,0.659l-2.709-1.564l-5.291,3.055l4.346,2.509L286.992,384.871z"/>
<path id="path2465" d="M295.596,388.322c-0.394,0.227-0.897,0.31-1.521,0.249c-0.557-0.051-1.039-0.194-1.449-0.431l-4.295-2.479
	l12.636-7.295l3.883,2.242c0.434,0.338,0.67,0.529,0.711,0.573c0.574,0.595,0.447,1.131-0.379,1.608L295.596,388.322z
	 M294.838,387.441l8.918-5.149c0.563-0.325,0.538-0.663-0.07-1.015l-2.717-1.569l-10.342,5.97l2.762,1.594
	C293.967,387.608,294.45,387.664,294.838,387.441z"/>
<path id="path2467" d="M309.469,394.183c-0.975,0.563-2.031,0.852-3.172,0.869c-1.172,0.021-2.24-0.248-3.205-0.805
	c-0.697-0.402-1.084-0.825-1.158-1.269c-0.027-0.166,0.031-0.521,0.18-1.066l0.607-0.676l1.096,0.633
	c-0.235,0.406-0.356,0.689-0.363,0.848c-0.02,0.349,0.205,0.658,0.673,0.928c0.608,0.352,1.29,0.52,2.044,0.506
	c0.757-0.014,1.438-0.197,2.048-0.549c0.649-0.375,0.945-1.007,0.888-1.894c-0.029-0.422-0.084-1.252-0.162-2.49
	c-0.054-0.895,0.285-1.551,1.012-1.97c0.926-0.534,1.902-0.838,2.934-0.913c1.129-0.084,2.145,0.133,3.045,0.654
	c1.322,0.763,1.647,1.576,0.977,2.438l-0.526,0.527l-1.176-0.679c0.651-0.532,0.516-1.064-0.41-1.598
	c-0.55-0.318-1.173-0.447-1.869-0.39c-0.633,0.047-1.231,0.235-1.802,0.563c-0.532,0.308-0.773,0.909-0.725,1.803
	c0.021,0.426,0.066,1.267,0.131,2.521C310.561,393.087,310.208,393.757,309.469,394.183z"/>
<path id="path2469" d="M324.988,393.578l-2.709-1.564l-11.472,6.623l-1.143-0.659l11.473-6.623l-2.769-1.598l1.164-0.672l6.617,3.82
	L324.988,393.578z"/>
<path id="path2471" d="M323.01,402.868c-0.75,0.433-1.681,0.608-2.793,0.526c-1.029-0.074-1.932-0.334-2.703-0.78
	c-0.756-0.437-1.207-0.964-1.354-1.581c-0.158-0.674,0.129-1.221,0.859-1.643l7.718-4.455c0.807-0.467,1.777-0.646,2.913-0.537
	c0.995,0.094,1.886,0.368,2.671,0.821c0.771,0.446,1.223,0.966,1.353,1.562c0.135,0.645-0.176,1.186-0.931,1.621L323.01,402.868z
	 M322.037,402.085l7.352-4.245c0.48-0.276,0.688-0.603,0.625-0.979c-0.059-0.351-0.332-0.669-0.823-0.952
	c-0.427-0.246-0.94-0.412-1.544-0.496c-0.776-0.11-1.426-0.018-1.938,0.28l-7.369,4.255c-0.485,0.281-0.64,0.648-0.459,1.105
	c0.146,0.367,0.424,0.67,0.832,0.906c0.428,0.246,0.93,0.398,1.51,0.455C320.926,402.486,321.533,402.376,322.037,402.085z"/>
<path id="path2473" d="M328.547,408.85l-1.281-0.74l2.529-4.797l-1.126-0.649l-5.418,3.128l-1.177-0.678l12.612-7.282l3.029,1.749
	c0.292,0.17,0.552,0.406,0.773,0.711c0.796,1.095,0.365,2.121-1.289,3.076c-0.933,0.538-2.019,0.848-3.261,0.928
	c-1.083,0.07-2.016-0.035-2.795-0.316L328.547,408.85z M336.056,402.713c0.748-0.433,1.13-0.905,1.142-1.419
	c0.013-0.438-0.219-0.795-0.691-1.068l-1.807-1.043l-4.854,2.803l1.965,1.134c0.363,0.21,0.932,0.304,1.701,0.283
	C334.458,403.376,335.307,403.145,336.056,402.713z"/>
<path id="path2475" d="M335.649,412.951l-1.137-0.655l2.84-2.661l-2.793-1.611l-4.634,1.623l-1.164-0.67l15.694-5.503l0.888,0.513
	L335.649,412.951z M338.248,408.807l3.63-3.339l-5.786,2.094L338.248,408.807z"/>
<path id="path2477" d="M342.394,416.845l-4.063-2.346c-1.212-0.699-1.286-1.355-0.227-1.967l9.156-5.287
	c1.268-0.731,2.591-0.697,3.973,0.101l3.622,2.091l-1.165,0.672l-3.639-2.1c-0.609-0.353-1.196-0.367-1.76-0.042l-8.929,5.155
	c-0.388,0.223-0.289,0.502,0.291,0.838l2.689,1.554l5.224-3.015l-1.753-1.012l1.131-0.652l2.929,1.689L342.394,416.845z"/>
<path id="path2479" d="M349.504,420.962l-5.486-3.167l12.611-7.282l5.487,3.169l-1.143,0.659l-4.347-2.51l-3.942,2.276l2.71,1.563
	l-1.143,0.66l-2.709-1.564l-5.292,3.055l4.348,2.511L349.504,420.962z"/>
<path id="path2481" d="M373.377,421.513l-2.709-1.563l-11.472,6.622l-1.142-0.659l11.471-6.623l-2.768-1.597l1.164-0.673l6.617,3.82
	L373.377,421.513z"/>
<path id="path2483" d="M368.433,431.892l-5.486-3.168l12.61-7.282l5.487,3.169l-1.143,0.658l-4.347-2.51l-3.941,2.276l2.709,1.563
	l-1.142,0.658l-2.71-1.563l-5.291,3.055l4.346,2.51L368.433,431.892z"/>
<path id="path2485" d="M375.11,435.761l-3.695-2.135c-0.479-0.277-0.74-0.576-0.781-0.896c-0.046-0.34,0.168-0.645,0.643-0.918
	l9.411-5.434c0.687-0.396,1.448-0.511,2.293-0.34c0.305,0.061,0.799,0.236,1.482,0.53l3.283,1.896l-1.164,0.672l-3.281-1.895
	c-0.609-0.354-1.195-0.365-1.759-0.041l-8.917,5.148c-0.387,0.223-0.29,0.502,0.291,0.838l3.325,1.92L375.11,435.761z"/>
<path id="path2487" d="M382.813,440.195l-1.142-0.66l6.388-3.688l-3.942-2.275l-6.388,3.688l-1.188-0.686l12.624-7.289l1.188,0.686
	l-5.097,2.943l3.942,2.275l5.096-2.941l1.143,0.658L382.813,440.195z"/>
<path id="path2489" d="M390.418,444.599l-0.953-0.551l5.208-7.432l-9.039,5.219l-1.176-0.679l12.635-7.295l0.953,0.552l-5.205,7.4
	l9.015-5.204l1.197,0.692L390.418,444.599z"/>
<path id="path2491" d="M400.437,447.57c-0.749,0.434-1.681,0.607-2.792,0.527c-1.029-0.074-1.933-0.336-2.704-0.781
	c-0.755-0.436-1.205-0.963-1.354-1.582c-0.158-0.672,0.129-1.219,0.86-1.643l7.717-4.455c0.808-0.465,1.777-0.646,2.914-0.537
	c0.995,0.096,1.885,0.369,2.67,0.822c0.771,0.444,1.224,0.967,1.354,1.562c0.134,0.646-0.177,1.187-0.932,1.622L400.437,447.57z
	 M399.463,446.789l7.353-4.246c0.479-0.277,0.688-0.604,0.624-0.979c-0.059-0.352-0.332-0.668-0.822-0.952
	c-0.428-0.246-0.941-0.411-1.544-0.495c-0.777-0.111-1.426-0.018-1.939,0.279l-7.37,4.255c-0.484,0.28-0.639,0.649-0.457,1.104
	c0.146,0.369,0.423,0.67,0.831,0.905c0.429,0.248,0.932,0.397,1.511,0.456C398.354,447.188,398.96,447.078,399.463,446.789z"/>
<path id="path2493" d="M404.113,452.505l-4.636-2.676l12.637-7.296l1.142,0.658l-11.495,6.638l3.493,2.016L404.113,452.505z"/>
<path id="path2495" d="M413.691,455.222c-0.75,0.433-1.682,0.607-2.792,0.527c-1.029-0.074-1.933-0.336-2.703-0.781
	c-0.757-0.437-1.207-0.963-1.354-1.582c-0.157-0.672,0.129-1.219,0.86-1.643l7.717-4.455c0.809-0.466,1.779-0.646,2.914-0.537
	c0.996,0.096,1.886,0.369,2.67,0.821c0.771,0.444,1.225,0.968,1.354,1.562c0.136,0.646-0.177,1.188-0.932,1.623L413.691,455.222z
	 M412.717,454.439l7.354-4.245c0.479-0.276,0.688-0.604,0.624-0.979c-0.06-0.352-0.333-0.668-0.823-0.951
	c-0.428-0.246-0.942-0.411-1.545-0.496c-0.777-0.11-1.426-0.018-1.939,0.279l-7.369,4.256c-0.485,0.279-0.64,0.648-0.458,1.104
	c0.146,0.369,0.425,0.671,0.833,0.907c0.428,0.247,0.931,0.397,1.51,0.454C411.608,454.841,412.213,454.729,412.717,454.439z"/>
<path id="path2497" d="M418.634,460.863l-4.063-2.346c-1.211-0.699-1.286-1.355-0.228-1.967l9.157-5.287
	c1.268-0.731,2.591-0.697,3.974,0.101l3.621,2.091l-1.164,0.672l-3.639-2.1c-0.609-0.354-1.196-0.367-1.76-0.042l-8.93,5.155
	c-0.388,0.223-0.29,0.502,0.29,0.838l2.691,1.554l5.223-3.015l-1.752-1.012l1.13-0.652l2.929,1.689L418.634,460.863z"/>
<path id="path2499" d="M421.951,462.791l-1.164-0.673l12.611-7.28l1.164,0.672L421.951,462.791z"/>
<path id="path2501" d="M429.434,467.111l-5.487-3.168l12.611-7.282l5.487,3.169l-1.142,0.658l-4.348-2.51l-3.941,2.277l2.709,1.563
	l-1.143,0.658l-2.709-1.563l-5.291,3.055l4.346,2.51L429.434,467.111z"/>
<path id="path2503" d="M439.482,469.246c-0.974,0.563-2.029,0.852-3.173,0.868c-1.172,0.021-2.238-0.247-3.205-0.806
	c-0.695-0.401-1.082-0.823-1.156-1.268c-0.029-0.166,0.029-0.521,0.179-1.066l0.608-0.676l1.096,0.633
	c-0.235,0.406-0.356,0.689-0.364,0.85c-0.02,0.35,0.205,0.657,0.674,0.928c0.606,0.352,1.288,0.52,2.045,0.506
	c0.754-0.015,1.438-0.197,2.046-0.549c0.649-0.375,0.944-1.007,0.888-1.894c-0.029-0.423-0.084-1.255-0.163-2.49
	c-0.052-0.896,0.286-1.552,1.012-1.971c0.927-0.534,1.902-0.839,2.934-0.912c1.131-0.085,2.146,0.133,3.048,0.653
	c1.321,0.764,1.646,1.576,0.975,2.438l-0.525,0.525l-1.177-0.678c0.651-0.531,0.516-1.063-0.409-1.598
	c-0.552-0.318-1.175-0.449-1.871-0.391c-0.632,0.047-1.231,0.234-1.801,0.563c-0.532,0.309-0.773,0.909-0.725,1.805
	c0.022,0.426,0.066,1.266,0.131,2.521C440.574,468.151,440.222,468.82,439.482,469.246z"/>
<polygon id="polygon2505" fill="none" stroke="#000000" points="386.145,491.832 413.753,475.89 423.86,497.666 "/>
</svg>
