<?xml version="1.0" encoding="UTF-8" standalone="no"?>
<svg
   xmlns:dc="http://purl.org/dc/elements/1.1/"
   xmlns:cc="http://creativecommons.org/ns#"
   xmlns:rdf="http://www.w3.org/1999/02/22-rdf-syntax-ns#"
   xmlns:svg="http://www.w3.org/2000/svg"
   xmlns="http://www.w3.org/2000/svg"
   xmlns:sodipodi="http://sodipodi.sourceforge.net/DTD/sodipodi-0.dtd"
   xmlns:inkscape="http://www.inkscape.org/namespaces/inkscape"
   width="50pt"
   height="50pt"
   viewBox="0 0 50 50"
   xml:space="preserve"
   id="svg2"
   version="1.1"
   inkscape:version="0.91 r13725"
   sodipodi:docname="input-mouse.svg"><metadata
     id="metadata42"><rdf:RDF><cc:Work
         rdf:about=""><dc:format>image/svg+xml</dc:format><dc:type
           rdf:resource="http://purl.org/dc/dcmitype/StillImage" /></cc:Work></rdf:RDF></metadata><defs
     id="defs40" /><sodipodi:namedview
     pagecolor="#ffffff"
     bordercolor="#666666"
     borderopacity="1"
     objecttolerance="10"
     gridtolerance="10"
     guidetolerance="10"
     inkscape:pageopacity="0"
     inkscape:pageshadow="2"
     inkscape:window-width="640"
     inkscape:window-height="480"
     id="namedview38"
     showgrid="false"
     inkscape:zoom="3.776"
     inkscape:cx="31.25"
     inkscape:cy="31.25"
     inkscape:window-x="0"
     inkscape:window-y="27"
     inkscape:window-maximized="0"
     inkscape:current-layer="svg2" /><g
     transform="matrix(0.79696721,0,0,0.91826444,-22.400821,-30.946519)"
     id="g4"><g
       id="Mouse Cord In Front of Backdrop"
       style="clip-rule:nonzero;fill:#c0c0c0;fill-opacity:1;fill-rule:nonzero;stroke:none;stroke-miterlimit:4"><path
         d="m 51.3,42.3 0,-2.3 2.6,0.1 2.3,0 1.8,0.5 1.1,0.7 0.5,1.2 0.1,1.7 -0.8,1 -1.3,1 -2.9,0.9 -2.5,0.7 -2.4,0.9 -0.9,0.8 -0.3,0.9 0,0.8 0.7,1 1.5,1 2.9,1.1 1.5,0.6 0.4,0.5 -0.1,1.3 -1.3,0.8 -1.4,0 -1.2,-0.4 -1.7,-0.5 -1.3,-0.6 -2,-1.2 -0.9,-1 -0.5,-0.5 -0.5,-1.4 0.1,-1.1 0,-0.9 0.4,-1 0.7,-1.1 0.9,-0.9 1.4,-0.8 1.7,-0.6 1.3,-0.3 2.9,-0.6 1.9,-0.5 0.7,-0.5 0.1,-0.5 -0.5,-0.4 -0.7,-0.3 -1.9,-0.2 z"
         id="path7"
         inkscape:connector-curvature="0" /></g><g
       id="Mouse Body"
       style="clip-rule:nonzero;fill:#ffffff;fill-opacity:1;stroke:#000000;stroke-miterlimit:4"><path
         d="M 60.8,79 60.1,79.1 59.4,78.9 39.7,65.4 39,64.8 l -0.1,-0.9 0,-2 0.1,-0.8 0.4,-0.7 0.5,-0.4 0.7,-0.4 19.3,-6.1 1.3,-0.2 1.2,-0.1 7.9,1.5 1,0.3 1,0.5 8.3,5.2 0.9,0.5 0.4,0.9 0.1,1.4 0,7.8 -0.2,0.9 -0.6,0.4 z"
         id="path10"
         inkscape:connector-curvature="0" /></g><g
       id="Far Button"
       style="clip-rule:nonzero;fill:#a8a8a8;fill-opacity:1;fill-rule:nonzero;stroke:none;stroke-miterlimit:4"><path
         d="m 64.1,56.4 -4.1,-0.8 -0.3,-0.4 0.5,-0.4 1.3,-0.2 1.1,0.1 4.4,0.8 0.4,0.4 -0.4,0.4 -1.2,0.3 z"
         id="path13"
         inkscape:connector-curvature="0" /></g><g
       id="outline"
       style="clip-rule:nonzero;fill:none;fill-opacity:1;stroke:#000000;stroke-miterlimit:4"><path
         d="M 67.4,55.9 67,56.3 65.8,56.6 64.1,56.4 60,55.6 59.7,55.2"
         id="path16"
         inkscape:connector-curvature="0" /></g><g
       id="Mid Button"
       style="clip-rule:nonzero;fill:#a8a8a8;fill-opacity:1;fill-rule:nonzero;stroke:none;stroke-miterlimit:4"><path
         d="m 57.5,58.6 -4.5,-0.8 -0.2,-0.5 0.5,-0.5 1.4,-0.1 1.2,0 4.5,0.9 0.8,0.4 -0.5,0.5 -1.4,0.2 z"
         id="path19"
         inkscape:connector-curvature="0" /></g><g
       id="g21"
       style="clip-rule:nonzero;fill:none;fill-opacity:1;stroke:#000000;stroke-miterlimit:4"><path
         d="M 61.2,58 60.7,58.5 59.3,58.7 57.5,58.6 53,57.8 52.8,57.3"
         id="path23"
         inkscape:connector-curvature="0" /></g><g
       id="Near Button"
       style="clip-rule:nonzero;fill:#a8a8a8;fill-opacity:1;fill-rule:nonzero;stroke:none;stroke-miterlimit:4"><path
         d="m 50.4,60.8 -4.2,-0.9 -0.3,-0.3 0.4,-0.4 1.5,-0.3 1.2,0.1 4.3,0.9 0.7,0.4 -0.5,0.5 -1.3,0.2 z"
         id="path26"
         inkscape:connector-curvature="0" /></g><g
       id="g28"
       style="clip-rule:nonzero;fill:none;fill-opacity:1;stroke:#000000;stroke-miterlimit:4"><path
         d="M 54,60.3 53.5,60.8 52.2,61 50.4,60.8 46.2,59.9 45.9,59.6"
         id="path30"
         inkscape:connector-curvature="0" /></g><g
       id="Side Edge of Mouse Body"
       style="clip-rule:nonzero;fill:none;fill-opacity:1;stroke:#000000;stroke-miterlimit:4"><path
         d="m 41.5,60.9 9.9,2.7 1,0.4 6.3,3.8 0.8,0.6 0.5,1 0.2,1.4 0,7.2"
         id="path33"
         inkscape:connector-curvature="0" /></g><g
       id="Front Edge of Mouse Body"
       style="clip-rule:nonzero;fill:none;fill-opacity:1;stroke:#000000;stroke-miterlimit:4"><path
         d="M 75.6,63.5 61.8,67.9 61,68.3 60.7,68.9"
         id="path36"
         inkscape:connector-curvature="0" /></g></g></svg>