<?xml version="1.0" encoding="UTF-8" standalone="no"?>
<!-- Created with Inkscape (http://www.inkscape.org/) -->

<svg
   xmlns:dc="http://purl.org/dc/elements/1.1/"
   xmlns:cc="http://creativecommons.org/ns#"
   xmlns:rdf="http://www.w3.org/1999/02/22-rdf-syntax-ns#"
   xmlns:svg="http://www.w3.org/2000/svg"
   xmlns="http://www.w3.org/2000/svg"
   xmlns:sodipodi="http://sodipodi.sourceforge.net/DTD/sodipodi-0.dtd"
   xmlns:inkscape="http://www.inkscape.org/namespaces/inkscape"
   version="1.0"
   width="800"
   height="664.94702"
   viewBox="0 0 800 664.947"
   id="Layer_1"
   xml:space="preserve"
   inkscape:version="0.91 r13725"
   sodipodi:docname="distributor-logo.svg"><metadata
     id="metadata10"><rdf:RDF><cc:Work
         rdf:about=""><dc:format>image/svg+xml</dc:format><dc:type
           rdf:resource="http://purl.org/dc/dcmitype/StillImage" /></cc:Work></rdf:RDF></metadata><sodipodi:namedview
     pagecolor="#ffffff"
     bordercolor="#666666"
     borderopacity="1"
     objecttolerance="10"
     gridtolerance="10"
     guidetolerance="10"
     inkscape:pageopacity="0"
     inkscape:pageshadow="2"
     inkscape:window-width="988"
     inkscape:window-height="654"
     id="namedview8"
     showgrid="false"
     inkscape:zoom="0.35491549"
     inkscape:cx="400"
     inkscape:cy="332.47351"
     inkscape:window-x="0"
     inkscape:window-y="0"
     inkscape:window-maximized="0"
     inkscape:current-layer="g3" /><defs
     id="defs12" /><g
     id="g3"
     transform="matrix(0.72880868,0,0,0.79237287,98.615024,90.162308)"><g
       id="g5"
       transform="matrix(0.96134003,-0.52643481,0,0.97079897,11.597991,273.03117)"><g
         id="g7"><path
           d="m 529.123,572.254 c 0,22.676 -15.703,42.354 -41.945,45.346 -11.22,0.802 -17.944,0.802 -28.491,0 -26.914,-1.463 -43.447,-22.67 -43.447,-45.346 0,-23.404 16.533,-45.284 44.186,-46.081 7.567,-0.734 17.285,-0.734 27.003,0 27.74,1.526 42.694,23.406 42.694,46.081 M 253.839,394.776 c 0,-64.497 -41.361,-98.875 -99.177,-115.301 -3.732,-0.795 -28.494,-8.245 -32.976,-9.707 -14.292,-4.518 -45.027,-15.76 -45.027,-51.601 0,-27.726 26.251,-44.152 53.993,-44.152 29.323,0 46.517,17.223 57.065,26.93 5.986,5.986 13.542,11.971 24.011,11.971 17.272,0 25.589,-13.495 25.589,-26.929 0,-11.237 -6.736,-24.004 -18.775,-35.309 -32.315,-30.852 -75.84,-33.913 -90.132,-33.913 -60.719,0 -114.881,39.165 -114.881,103.6 0,68.089 45.105,93.489 103.672,112.174 12.71,3.727 23.998,6.72 29.984,8.978 28.494,8.979 43.525,25.4 43.525,55.524 0,35.841 -32.315,55.322 -66.033,55.322 -35.97,0 -57.737,-28.19 -69.776,-59.845 L 0,415.127 c 17.274,56.784 61.627,94.425 126.92,94.425 68.275,0 126.919,-44.422 126.919,-114.776 z M 596.489,71.284 c 0,-14.296 -11.96,-24.805 -28.414,-24.805 -17.196,0 -44.938,9.774 -65.203,24.805 -17.196,12.034 -31.396,27.995 -41.945,47.746 -5.984,-0.735 -11.96,-1.469 -17.944,-1.469 -71.93,0 -133.488,57.984 -133.488,129.733 l 0,49.342 c 0,32.182 11.96,62.833 32.315,85.379 l -33.808,90.63 c -2.992,8.313 -5.233,13.563 -5.233,20.345 0,9.774 3.743,33.184 38.289,33.184 l 31.487,0 c -8.228,11.366 -16.533,27.193 -16.533,44.618 0,64.895 50.261,94.155 94.446,94.155 l 39.702,0 c 58.478,0 96.611,-36.771 96.611,-93.427 0,-58.18 -42.695,-93.556 -101.096,-93.556 l -119.856,0 22.507,-62.11 c 16.444,7.516 34.468,10.575 53.904,10.575 71.189,0 133.32,-58.712 133.32,-129.794 l 0,-49.342 c 0,-48.607 -26.162,-85.312 -60.629,-108.649 10.458,-14.296 23.168,-30.191 53.903,-40.101 23.18,-7.576 27.665,-16.756 27.665,-27.259 z M 800,476.434 c 0,-9.046 -2.242,-17.357 -18.025,-25.534 -7.477,-3.593 -15.704,-5.784 -23.181,-12.964 -6.724,-6.45 -12.037,-16.825 -12.037,-33.38 l 0,-275.691 -116.8,0 0,54.128 47.686,0 0,220.095 c 0,68.823 50.339,101.207 90.12,101.207 l 0.75,0 c 20.188,0 31.487,-12.836 31.487,-27.861 z M 751.241,39.03 C 751.241,17.223 734.045,0 712.2,0 c -21.018,0 -38.963,17.223 -38.963,39.03 0,21.746 17.945,38.968 38.963,38.968 21.845,0 39.041,-17.222 39.041,-38.968 z M 507.354,237.587 c 0.752,25.399 0.752,42.622 0,67.293 -1.49,39.629 -27.652,64.3 -65.124,64.3 -38.2,0 -62.132,-23.942 -63.622,-64.3 -0.752,-23.937 -0.752,-44.887 0,-67.293 0.75,-38.167 26.162,-62.838 65.124,-62.838 38.951,0.001 62.132,26.929 63.622,62.838 z"
           style="fill:#30007c"
           id="path9"
           inkscape:connector-curvature="0" /></g></g></g></svg>