<?xml version="1.0" encoding="UTF-8" standalone="no"?>
<svg
   xmlns:dc="http://purl.org/dc/elements/1.1/"
   xmlns:cc="http://creativecommons.org/ns#"
   xmlns:rdf="http://www.w3.org/1999/02/22-rdf-syntax-ns#"
   xmlns:svg="http://www.w3.org/2000/svg"
   xmlns="http://www.w3.org/2000/svg"
   xmlns:sodipodi="http://sodipodi.sourceforge.net/DTD/sodipodi-0.dtd"
   xmlns:inkscape="http://www.inkscape.org/namespaces/inkscape"
   width="50pt"
   height="50pt"
   viewBox="0 0 50 50"
   xml:space="preserve"
   id="svg3724"
   version="1.1"
   inkscape:version="0.91 r13725"
   sodipodi:docname="folder-documents.svg"><metadata
     id="metadata3747"><rdf:RDF><cc:Work
         rdf:about=""><dc:format>image/svg+xml</dc:format><dc:type
           rdf:resource="http://purl.org/dc/dcmitype/StillImage" /></cc:Work></rdf:RDF></metadata><defs
     id="defs3745" /><sodipodi:namedview
     pagecolor="#ffffff"
     bordercolor="#666666"
     borderopacity="1"
     objecttolerance="10"
     gridtolerance="10"
     guidetolerance="10"
     inkscape:pageopacity="0"
     inkscape:pageshadow="2"
     inkscape:window-width="1600"
     inkscape:window-height="900"
     id="namedview3743"
     showgrid="false"
     inkscape:zoom="10.704"
     inkscape:cx="35.681273"
     inkscape:cy="25.653165"
     inkscape:window-x="0"
     inkscape:window-y="0"
     inkscape:window-maximized="0"
     inkscape:current-layer="svg3724" /><g
     transform="scale(0.5)"
     id="g3726"><g
       id="Path_0"
       style="fill-rule:none;clip-rule:nonzero;fill:#C0C0C0;stroke:none;stroke-miterlimit:4;fill-opacity:50%;"><path
         d="M10.00 90L70.00 60L90.00 70L30.00 100z"
         id="path3729" /></g><g
       id="Path_1"
       style="fill-rule:none;clip-rule:nonzero;fill:#7cfc7c;stroke:#000000;stroke-miterlimit:4;fill-opacity:50%;"><path
         d="M15.00 37.5L20.00 30L65.00 7.5L70.00 10L70.00 55L15.00 82.5z"
         id="path3732" /></g><g
       id="Path_2"
       style="fill-rule:none;clip-rule:nonzero;fill:#FFFFFF;stroke:#000000;stroke-miterlimit:4;fill-opacity:100%;"><path
         d="M30.00 50L35.00 42.5L80.00 20L85.00 22.5L85.00 62.5L30.00 90z"
         id="path3735" /></g><g
       id="Path_3"
       style="fill-rule:none;clip-rule:nonzero;fill:#FFFFFF;stroke:#000000;stroke-miterlimit:4;fill-opacity:100%;"><path
         d="M15.00 52.7L15.00 82.5L23.40 82.5L23.40 52.7z"
         id="path3738" /></g><g
       id="Path_4"
       style="fill-rule:none;clip-rule:nonzero;fill:#FFFFFF;stroke:#000000;stroke-miterlimit:4;fill-opacity:100%;"><path
         d="M23.40 60.2L23.40 90L30.00 90L30.00 60.2z"
         id="path3741" /></g></g><g
     transform="matrix(0.3869152,0,0,0.38859686,7.640884,9.2712906)"
     id="g8462"><g
       id="Path_1-7"
       style="clip-rule:nonzero;fill:#f8fcf8;fill-opacity:1;fill-rule:nonzero;stroke:none;stroke-miterlimit:4"><path
         d="m 47,42.5 0,30 L 72,60 72,30 Z"
         id="path8477"
         inkscape:connector-curvature="0" /></g><g
       id="Path_2-3"
       style="clip-rule:nonzero;fill:#f800f8;fill-opacity:1;fill-rule:nonzero;stroke:none;stroke-miterlimit:4"><path
         d="M 65.75,63.13 72,60 72,35 65.75,38.13 Z"
         id="path8480"
         inkscape:connector-curvature="0" /></g><g
       id="Path_3-3"
       style="clip-rule:nonzero;fill:#0000f8;fill-opacity:1;fill-rule:nonzero;stroke:none;stroke-miterlimit:4"><path
         d="m 59.5,66.25 6.25,-3.12 0,-16.26 L 59.5,50 Z"
         id="path8483"
         inkscape:connector-curvature="0" /></g><g
       id="Path_4-0"
       style="clip-rule:nonzero;fill:#00fc00;fill-opacity:1;fill-rule:nonzero;stroke:none;stroke-miterlimit:4"><path
         d="m 53.25,69.37 6.25,-3.12 0,-10 -6.25,3.12 z"
         id="path8486"
         inkscape:connector-curvature="0" /></g><g
       id="Path_5"
       style="clip-rule:nonzero;fill:#f80000;fill-opacity:1;fill-rule:nonzero;stroke:none;stroke-miterlimit:4"><path
         d="m 47,72.5 6.25,-3.13 0,-5 L 47,67.5 Z"
         id="path8489"
         inkscape:connector-curvature="0" /></g><g
       id="g8491"
       style="clip-rule:nonzero;fill:#000000;fill-opacity:1;fill-rule:nonzero;stroke:none;stroke-miterlimit:4"><path
         d="m 54.01,42.16 6.58,-5.26 -5.06,1.59 -6.98,3.59 -4.45,5.19 z"
         id="path8493"
         inkscape:connector-curvature="0" /></g><g
       id="Path_6"
       style="clip-rule:nonzero;fill:#000000;fill-opacity:1;fill-rule:nonzero;stroke:none;stroke-miterlimit:4"><path
         d="m 49.6,47.05 4.41,-4.89 -9.91,5.11 -0.89,6.12 z"
         id="path8496"
         inkscape:connector-curvature="0" /></g><g
       id="Path_7"
       style="clip-rule:nonzero;fill:#000000;fill-opacity:1;fill-rule:nonzero;stroke:none;stroke-miterlimit:4"><path
         d="m 48.04,52.93 1.56,-5.88 -6.39,6.34 z"
         id="path8499"
         inkscape:connector-curvature="0" /></g><g
       id="Path_8"
       style="clip-rule:nonzero;fill:#000000;fill-opacity:1;fill-rule:nonzero;stroke:none;stroke-miterlimit:4"><path
         d="m 39.34,59.26 8.81,-2.66 -0.11,-3.67 -4.83,0.46 -5.94,1.74 -5.42,3.8 z"
         id="path8502"
         inkscape:connector-curvature="0" /></g><g
       id="Path_9"
       style="clip-rule:nonzero;fill:#000000;fill-opacity:1;fill-rule:nonzero;stroke:none;stroke-miterlimit:4"><path
         d="m 32.62,63.42 6.72,-4.16 -7.49,-0.33 -3.12,4.37 z"
         id="path8505"
         inkscape:connector-curvature="0" /></g><g
       id="Path_10"
       style="clip-rule:nonzero;fill:#000000;fill-opacity:1;fill-rule:nonzero;stroke:none;stroke-miterlimit:4"><path
         d="M 32.62,63.42 28.73,63.3 27.38,70.28 Z"
         id="path8508"
         inkscape:connector-curvature="0" /></g><g
       id="Path_11"
       style="clip-rule:nonzero;fill:none;fill-opacity:1;stroke:#000000;stroke-miterlimit:4"><path
         d="m 27.38,70.28 5.24,-6.86 6.72,-4.16 8.81,-2.66 -0.11,-3.67 1.56,-5.88 4.41,-4.89 6.58,-5.26 -5.06,1.59 -6.98,3.59 -4.45,5.19 -0.89,6.12 -5.94,1.74 -5.42,3.8 -3.12,4.37 z"
         id="path8511"
         inkscape:connector-curvature="0" /></g><g
       id="Path_12"
       style="clip-rule:nonzero;fill:#000000;fill-opacity:1;fill-rule:nonzero;stroke:none;stroke-miterlimit:4"><path
         d="m 62.64,19.58 4.55,-4.15 -5.51,1.64 -3.82,2.57 L 55,22.5 Z"
         id="path8514"
         inkscape:connector-curvature="0" /></g><g
       id="Path_13"
       style="clip-rule:nonzero;fill:#000000;fill-opacity:1;fill-rule:nonzero;stroke:none;stroke-miterlimit:4"><path
         d="M 59.54,22.85 62.64,19.58 55,22.5 Z"
         id="path8517"
         inkscape:connector-curvature="0" /></g><g
       id="Path_14"
       style="clip-rule:nonzero;fill:#000000;fill-opacity:1;fill-rule:nonzero;stroke:none;stroke-miterlimit:4"><path
         d="M 58.2,27.6 59.54,22.85 55,22.5 53,28.8 Z"
         id="path8520"
         inkscape:connector-curvature="0" /></g><g
       id="Path_15"
       style="clip-rule:nonzero;fill:#000000;fill-opacity:1;fill-rule:nonzero;stroke:none;stroke-miterlimit:4"><path
         d="m 52.9,33.17 5.25,-1.57 0.05,-4 -5.2,1.2 -3.91,1.21 -4.57,2.37 z"
         id="path8523"
         inkscape:connector-curvature="0" /></g><g
       id="Path_16"
       style="clip-rule:nonzero;fill:#000000;fill-opacity:1;fill-rule:nonzero;stroke:none;stroke-miterlimit:4"><path
         d="m 45.99,36.37 6.91,-3.2 -8.38,-0.79 -3.15,3.8 z"
         id="path8526"
         inkscape:connector-curvature="0" /></g><g
       id="Path_17"
       style="clip-rule:nonzero;fill:#000000;fill-opacity:1;fill-rule:nonzero;stroke:none;stroke-miterlimit:4"><path
         d="m 45.99,36.37 -4.62,-0.19 -1.53,5.75 z"
         id="path8529"
         inkscape:connector-curvature="0" /></g><g
       id="Path_18"
       style="clip-rule:nonzero;fill:none;fill-opacity:1;stroke:#000000;stroke-miterlimit:4"><path
         d="m 39.84,41.93 6.15,-5.56 6.91,-3.2 5.25,-1.57 0.05,-4 1.34,-4.75 3.1,-3.27 4.55,-4.15 -5.51,1.64 -3.82,2.57 -2.86,2.86 -2,6.3 -3.91,1.21 -4.57,2.37 -3.15,3.8 z"
         id="path8532"
         inkscape:connector-curvature="0" /></g><g
       id="g8534"
       style="clip-rule:nonzero;fill:none;fill-opacity:1;stroke:#000000;stroke-miterlimit:4"><path
         d="m 47,42.5 0,30 L 72,60 72,30 Z"
         id="path8536"
         inkscape:connector-curvature="0" /></g></g></svg>