<?xml version="1.0" encoding="UTF-8" standalone="no"?>
<svg
   xmlns:dc="http://purl.org/dc/elements/1.1/"
   xmlns:cc="http://creativecommons.org/ns#"
   xmlns:rdf="http://www.w3.org/1999/02/22-rdf-syntax-ns#"
   xmlns:svg="http://www.w3.org/2000/svg"
   xmlns="http://www.w3.org/2000/svg"
   xmlns:sodipodi="http://sodipodi.sourceforge.net/DTD/sodipodi-0.dtd"
   xmlns:inkscape="http://www.inkscape.org/namespaces/inkscape"
   width="50pt"
   height="50pt"
   viewBox="0 0 50 50"
   xml:space="preserve"
   id="svg3428"
   version="1.1"
   inkscape:version="0.91 r13725"
   sodipodi:docname="folder-music.svg"><metadata
     id="metadata3451"><rdf:RDF><cc:Work
         rdf:about=""><dc:format>image/svg+xml</dc:format><dc:type
           rdf:resource="http://purl.org/dc/dcmitype/StillImage" /></cc:Work></rdf:RDF></metadata><defs
     id="defs3449" /><sodipodi:namedview
     pagecolor="#ffffff"
     bordercolor="#666666"
     borderopacity="1"
     objecttolerance="10"
     gridtolerance="10"
     guidetolerance="10"
     inkscape:pageopacity="0"
     inkscape:pageshadow="2"
     inkscape:window-width="796"
     inkscape:window-height="859"
     id="namedview3447"
     showgrid="false"
     inkscape:zoom="3.7844355"
     inkscape:cx="-2.7912911"
     inkscape:cy="-2.7123333"
     inkscape:window-x="0"
     inkscape:window-y="39"
     inkscape:window-maximized="0"
     inkscape:current-layer="svg3428" /><g
     transform="scale(0.5)"
     id="g3430"><g
       id="Path_0"
       style="fill-rule:none;clip-rule:nonzero;fill:#C0C0C0;stroke:none;stroke-miterlimit:4;fill-opacity:50%;"><path
         d="M10.00 90L70.00 60L90.00 70L30.00 100z"
         id="path3433" /></g><g
       id="Path_1"
       style="fill-rule:none;clip-rule:nonzero;fill:#7cfc7c;stroke:#000000;stroke-miterlimit:4;fill-opacity:50%;"><path
         d="M15.00 37.5L20.00 30L65.00 7.5L70.00 10L70.00 55L15.00 82.5z"
         id="path3436" /></g><g
       id="Path_2"
       style="fill-rule:none;clip-rule:nonzero;fill:#FFFFFF;stroke:#000000;stroke-miterlimit:4;fill-opacity:100%;"><path
         d="M30.00 50L35.00 42.5L80.00 20L85.00 22.5L85.00 62.5L30.00 90z"
         id="path3439" /></g><g
       id="Path_3"
       style="fill-rule:none;clip-rule:nonzero;fill:#FFFFFF;stroke:#000000;stroke-miterlimit:4;fill-opacity:100%;"><path
         d="M15.00 52.7L15.00 82.5L23.40 82.5L23.40 52.7z"
         id="path3442" /></g><g
       id="Path_4"
       style="fill-rule:none;clip-rule:nonzero;fill:#FFFFFF;stroke:#000000;stroke-miterlimit:4;fill-opacity:100%;"><path
         d="M23.40 60.2L23.40 90L30.00 90L30.00 60.2z"
         id="path3445" /></g></g><g
     transform="matrix(0.41445138,0,0,0.30582925,12.353908,14.910627)"
     id="g3620"><g
       id="Path_28"
       style="clip-rule:nonzero;fill:none;fill-opacity:1;stroke:#000000;stroke-miterlimit:4"><path
         inkscape:connector-curvature="0"
         d="M 71.53,28.55 66.35,13.45 63.58,39.07 59.6,22.19 56.43,38.29 54.44,26.91 51.46,35.8"
         id="path3626" /></g><g
       id="g3628"
       style="clip-rule:nonzero;fill:none;fill-opacity:1;stroke:#000000;stroke-miterlimit:4"><path
         inkscape:connector-curvature="0"
         d="M 27.65,50.21 24.97,55.63 21.47,44.78 20.63,62.98 15.8,51.79 15.13,66.07 10.95,59.8 8.62,68.83"
         id="path3630" /></g><g
       id="Path_6"
       style="clip-rule:nonzero;fill:#c07070;fill-opacity:1;stroke:#000000;stroke-miterlimit:4"><path
         inkscape:connector-curvature="0"
         d="m 46.28,26.13 2.13,5.56 0.16,7.68 -1.9,9.06 -3.46,6.02 -5.49,2.83 -5.97,-0.81 -2.07,-7.45 0,-7.54 1.79,-7.58 4.98,-6.68 5.29,-2.34 z"
         id="path3633" /></g><g
       id="Path_10"
       style="clip-rule:nonzero;fill:#000000;fill-opacity:1;stroke:#000000;stroke-miterlimit:4"><path
         inkscape:connector-curvature="0"
         d="m 42.36,41.66 1.16,-6.33 -0.75,-1.42 0,0 0,0 z"
         id="path3636" /></g><g
       id="Path_9"
       style="clip-rule:nonzero;fill:#000000;fill-opacity:1;stroke:#000000;stroke-miterlimit:4"><path
         inkscape:connector-curvature="0"
         d="m 39.17,31.71 3.17,3.65 0.14,-0.16 0.45,1.59 -0.17,-1.94 0.17,-1.57 -3.91,-3.3 z"
         id="path3639" /></g><g
       id="Path_17"
       style="clip-rule:nonzero;fill:none;fill-opacity:1;stroke:#000000;stroke-miterlimit:4"><path
         inkscape:connector-curvature="0"
         d="M 39.03,46.91 38.97,45.07 39.02,29.98"
         id="path3642" /></g><g
       id="Path_7"
       style="clip-rule:nonzero;fill:#000000;fill-opacity:1;stroke:#000000;stroke-miterlimit:4"><path
         inkscape:connector-curvature="0"
         d="m 36.18,44.65 2.7,2.22 -1.8,3.01 -2.18,0.47 -1.14,-1.58 0.75,-2.86 1.67,-1.26 2.7,2.22 0.09,-1.8 z"
         id="path3645" /></g><g
       id="g3655"
       style="clip-rule:nonzero;fill:#c07070;fill-opacity:1;stroke:#000000;stroke-miterlimit:4" /></g></svg>