<?xml version="1.0" encoding="UTF-8" standalone="no"?>
<svg
   xmlns:dc="http://purl.org/dc/elements/1.1/"
   xmlns:cc="http://creativecommons.org/ns#"
   xmlns:rdf="http://www.w3.org/1999/02/22-rdf-syntax-ns#"
   xmlns:svg="http://www.w3.org/2000/svg"
   xmlns="http://www.w3.org/2000/svg"
   xmlns:sodipodi="http://sodipodi.sourceforge.net/DTD/sodipodi-0.dtd"
   xmlns:inkscape="http://www.inkscape.org/namespaces/inkscape"
   width="50pt"
   height="50pt"
   viewBox="0 0 50 50"
   xml:space="preserve"
   id="svg2"
   version="1.1"
   inkscape:version="0.91 r13725"
   sodipodi:docname="application-x-bittorrent.svg"><metadata
     id="metadata48"><rdf:RDF><cc:Work
         rdf:about=""><dc:format>image/svg+xml</dc:format><dc:type
           rdf:resource="http://purl.org/dc/dcmitype/StillImage" /><dc:title></dc:title></cc:Work></rdf:RDF></metadata><defs
     id="defs46" /><sodipodi:namedview
     pagecolor="#ffffff"
     bordercolor="#666666"
     borderopacity="1"
     objecttolerance="10"
     gridtolerance="10"
     guidetolerance="10"
     inkscape:pageopacity="0"
     inkscape:pageshadow="2"
     inkscape:window-width="1596"
     inkscape:window-height="859"
     id="namedview44"
     showgrid="false"
     inkscape:zoom="15.104"
     inkscape:cx="26.052019"
     inkscape:cy="32.566867"
     inkscape:window-x="0"
     inkscape:window-y="39"
     inkscape:window-maximized="0"
     inkscape:current-layer="g4" /><g
     transform="scale(0.5)"
     id="g4"><g
       id="Icon Shadow"
       style="fill-rule:nonzero;clip-rule:nonzero;fill:#C0C0C0;stroke:none;stroke-miterlimit:4;fill-opacity:50%;"><path
         d="M39.00 100L15.00 87L52.00 68.5L76.00 81.5z"
         id="path7" /></g><g
       id="Always Draw Back Three Pages"
       style="fill-rule:none;clip-rule:nonzero;fill:#FFFFFF;stroke:#000000;stroke-miterlimit:4;fill-opacity:100%;"><path
         d="M15.00 76.85L18.60 18.61L55.65 0.0799999999999983L51.32 59.15z"
         id="path10" /></g><g
       id="Path_2"
       style="fill-rule:none;clip-rule:nonzero;fill:#FFFFFF;stroke:#000000;stroke-miterlimit:4;fill-opacity:100%;"><path
         d="M26.83 82.92L18.60 18.61L55.65 0.0799999999999983L63.57 64.5z"
         id="path13" /></g><g
       id="Path_3"
       style="fill-rule:none;clip-rule:nonzero;fill:#FFFFFF;stroke:#000000;stroke-miterlimit:4;fill-opacity:100%;"><path
         d="M26.83 82.92L29.10 23.65L65.42 5.43000000000001L63.57 64.5z"
         id="path16" /></g><g
       id="Top Two Pages When Closed"
       style="fill-rule:none;clip-rule:nonzero;fill:#FFFFFF;stroke:#000000;stroke-miterlimit:4;fill-opacity:100%;"><path
         d="M38.98 89.71L29.10 23.65L65.42 5.43000000000001L76.12 70.78z"
         id="path19" /></g><g
       id="Path_1"
       style="fill-rule:none;clip-rule:nonzero;fill:#FFFFFF;stroke:#000000;stroke-miterlimit:4;fill-opacity:100%;"><path
         d="M38.98 89.71L38.98 28.69L76.12 10.37L76.12 70.78z"
         id="path22" /></g><path
       style="fill:#000000"
       d="M 56.913225,59.377406 C 56.516783,59.261689 42.232784,47.482289 42.131982,47.18795 c -0.04025,-0.117535 0.101085,-0.491382 0.31408,-0.830774 l 0.387266,-0.617078 4.176625,-2.155364 4.176626,-2.155364 -0.07776,-8.242504 -0.07776,-8.242505 6.36263,-3.217744 6.362631,-3.217745 0.07851,8.321612 0.07851,8.321615 4.299118,-2.174173 c 4.158291,-2.102954 4.31325,-2.17111 4.730509,-2.080386 0.341178,0.07417 0.419271,0.194338 0.373423,0.574576 -0.0393,0.326069 -2.341386,4.677038 -7.154078,13.521394 -3.902853,7.17233 -7.241616,13.228709 -7.419469,13.458615 -0.18331,0.236962 -0.580468,0.548034 -0.916967,0.71821 -0.339968,0.171922 -0.72992,0.260407 -0.912644,0.207072 z"
       id="path3367"
       inkscape:connector-curvature="0"
       inkscape:transform-center-x="-3.2414149"
       inkscape:transform-center-y="-5.1438091" /><path
       style="fill:#000000"
       d="m 41.318604,79.290259 0,-5.562368 2.373234,-0.93718 c 3.505094,-1.384148 4.687198,-1.180414 4.687198,0.807832 0,1.068441 -0.692529,2.460997 -1.35372,2.722099 -0.524031,0.206937 -0.321117,0.478514 0.353337,0.472902 0.898183,-0.0075 1.451049,0.727895 1.451049,1.930038 0,1.117714 -0.455043,2.162663 -1.363707,3.131543 -0.475079,0.506572 -1.206022,0.900959 -3.376856,1.822002 l -2.770535,1.175493 0,-5.562372 z m 5.521491,1.661363 c 0.817947,-1.043721 0.855429,-2.623545 0.07391,-3.115321 -0.452433,-0.284699 -0.849276,-0.244347 -2.392895,0.243309 l -1.850511,0.584612 0,2.226582 0,2.226588 1.790096,-0.706902 c 1.531571,-0.604811 1.875207,-0.815471 2.379396,-1.458867 z m -0.567908,-4.861126 c 0.767952,-0.701206 1.053894,-1.732837 0.689905,-2.489076 -0.334719,-0.695424 -1.253504,-0.680705 -3.108491,0.0498 l -1.182998,0.465861 0,1.846213 0,1.846213 1.520997,-0.604035 c 0.836547,-0.332149 1.772813,-0.83397 2.080587,-1.114994 z"
       id="path3369"
       inkscape:connector-curvature="0" /><path
       style="fill:#000000"
       d="m 52.801932,75.13693 0,-4.732042 -1.813647,0.702769 c -1.6714,0.647651 -1.813648,0.66903 -1.813648,0.272584 0,-0.416196 0.142248,-0.485305 4.374091,-2.125101 4.202901,-1.62858 4.374093,-1.678395 4.374093,-1.273103 0,0.382146 -0.17556,0.495682 -1.86699,1.207397 l -1.866991,0.78559 -0.05751,4.700554 -0.0575,4.700552 -0.63595,0.246424 -0.63595,0.246424 0,-4.732045 z"
       id="path3373"
       inkscape:connector-curvature="0"
       inkscape:transform-center-x="0.37076271"
       inkscape:transform-center-y="0.26483051" /><path
       style="fill:#000000"
       d="m 61.235573,75.776101 c -2.230782,0.152632 -3.408625,-2.352589 -2.612066,-5.555745 1.135933,-4.567866 6.53671,-7.265507 8.104023,-4.047887 0.398748,0.818608 0.432874,2.970825 0.06953,4.385316 -0.675152,2.628397 -3.268176,5.061421 -5.561491,5.218318 z m 3.133771,-2.519543 c 0.97738,-1.058608 1.464857,-2.506606 1.459661,-4.335772 -0.0049,-1.732783 -0.453874,-2.831659 -1.234233,-3.020996 -1.954267,-0.474164 -4.130479,1.352394 -4.794995,4.02458 -0.581508,2.338384 -0.01991,4.367031 1.307407,4.722732 0.858894,0.230165 2.354352,-0.407295 3.26216,-1.390555 z"
       id="path3375"
       inkscape:connector-curvature="0" /><path
       style="fill:#000000"
       d="m 68.476605,68.201355 0,-5.022314 1.721643,-0.922223 c 2.666588,-1.428398 3.439619,-1.236286 3.452969,0.858124 0.0076,1.186477 -0.322246,2.16531 -0.966472,2.868325 l -0.407261,0.444427 0.461942,0.226528 c 0.254068,0.12459 0.832809,0.885577 1.286091,1.69108 l 0.824149,1.464538 -0.51784,0.277388 c -0.472622,0.253167 -0.579148,0.166534 -1.219944,-0.992122 -0.952307,-1.721915 -1.2985,-1.900167 -2.57827,-1.327518 l -1.027328,0.459694 0,2.222409 0,2.222411 -0.514839,0.275781 -0.51484,0.275782 0,-5.022307 z m 3.12992,-2.105438 c 0.352841,-0.308493 0.719664,-0.780776 0.815162,-1.049518 0.22348,-0.628899 0.22348,-1.921617 0,-2.311096 -0.204444,-0.356301 -1.161218,-0.20762 -2.186048,0.339705 l -0.729355,0.389519 0,1.987998 0,1.988 0.729355,-0.391862 c 0.401146,-0.215531 1.018044,-0.644263 1.370886,-0.952757 l 0,4e-6 z"
       id="path3377"
       inkscape:connector-curvature="0" /></g></svg>