<?xml version="1.0" encoding="UTF-8" standalone="no"?>
<svg
   xmlns:dc="http://purl.org/dc/elements/1.1/"
   xmlns:cc="http://creativecommons.org/ns#"
   xmlns:rdf="http://www.w3.org/1999/02/22-rdf-syntax-ns#"
   xmlns:svg="http://www.w3.org/2000/svg"
   xmlns="http://www.w3.org/2000/svg"
   xmlns:sodipodi="http://sodipodi.sourceforge.net/DTD/sodipodi-0.dtd"
   xmlns:inkscape="http://www.inkscape.org/namespaces/inkscape"
   width="50pt"
   height="50pt"
   viewBox="0 0 50 50"
   xml:space="preserve"
   id="svg2"
   version="1.1"
   inkscape:version="0.91 r13725"
   sodipodi:docname="application-x-theme.svg"><metadata
     id="metadata55"><rdf:RDF><cc:Work
         rdf:about=""><dc:format>image/svg+xml</dc:format><dc:type
           rdf:resource="http://purl.org/dc/dcmitype/StillImage" /></cc:Work></rdf:RDF></metadata><defs
     id="defs53" /><sodipodi:namedview
     pagecolor="#ffffff"
     bordercolor="#666666"
     borderopacity="1"
     objecttolerance="10"
     gridtolerance="10"
     guidetolerance="10"
     inkscape:pageopacity="0"
     inkscape:pageshadow="2"
     inkscape:window-width="396"
     inkscape:window-height="859"
     id="namedview51"
     showgrid="false"
     inkscape:zoom="3.776"
     inkscape:cx="31.25"
     inkscape:cy="31.25"
     inkscape:window-x="1200"
     inkscape:window-y="39"
     inkscape:window-maximized="0"
     inkscape:current-layer="svg2" /><g
     transform="matrix(0.5,0,0,0.5,-8.6864407,-1.6949153)"
     id="g4"><g
       id="Third Sheet of Paper -- Closed"
       style="clip-rule:nonzero;fill:#ffffff;fill-opacity:1;stroke:#000000;stroke-miterlimit:4"><path
         d="m 39.59,88.49 0,-58.97 37.8,-19.44 0,59.08 z"
         id="path7"
         inkscape:connector-curvature="0" /></g><g
       id="Path_0"
       style="clip-rule:nonzero;fill:#c0c0c0;fill-opacity:1;fill-rule:nonzero;stroke:none;stroke-miterlimit:4"><path
         d="m 93,86.4 5,2.5 0,5 -5,2.5 -5,2.5 -10,0 -10,0 -5,-2.5 -5,-2.5 0,-5 5,-2.5 z"
         id="path10"
         inkscape:connector-curvature="0" /></g><g
       id="Path_1"
       style="clip-rule:nonzero;fill:#ffffff;fill-opacity:1;stroke:#000000;stroke-miterlimit:4"><path
         d="m 90,81.1 5,2.5 0,5 -5,2.5 -5,2.5 -10,0 -10,0 -5,-2.5 -5,-2.5 0,-5 5,-2.5 z"
         id="path13"
         inkscape:connector-curvature="0" /></g><g
       id="Path_2"
       style="clip-rule:nonzero;fill:#c0461c;fill-opacity:1;stroke:#000000;stroke-miterlimit:4"><path
         d="m 60.2,68.9 30,0 0,15 -10,5 -10,0 -10,-5 z"
         id="path16"
         inkscape:connector-curvature="0" /></g><g
       id="Path_3"
       style="clip-rule:nonzero;fill:#d05454;fill-opacity:1;stroke:#000000;stroke-miterlimit:4"><path
         d="m 60.2,68.9 10,5 10,0 5,-2.5 5,-2.5 -5,-2.5 -10,0 -10,0 z"
         id="path19"
         inkscape:connector-curvature="0" /></g><g
       id="Path_4"
       style="clip-rule:nonzero;fill:#b46238;fill-opacity:1;stroke:#000000;stroke-miterlimit:4"><path
         d="m 60.2,76.2 -5,2.5 -5,-2.5 0,-7 5,-2.8 4.8,2.6 z"
         id="path22"
         inkscape:connector-curvature="0" /></g><g
       id="Path_5"
       style="clip-rule:nonzero;fill:#ffffff;fill-opacity:1;stroke:#000000;stroke-miterlimit:4"><path
         d="m 55.2,68.7 4.89,3.71 -4.89,3.69 -2.6,-3.7 z"
         id="path25"
         inkscape:connector-curvature="0" /></g><g
       id="Path_6"
       style="clip-rule:nonzero;fill:#f8fcf8;fill-opacity:1;fill-rule:nonzero;stroke:none;stroke-miterlimit:4"><path
         d="m 70,75 0,12 -2.4,-1.2 0.2,-12.2 z"
         id="path28"
         inkscape:connector-curvature="0" /></g><g
       id="Path_7"
       style="clip-rule:nonzero;fill:none;fill-opacity:1;stroke:#000000;stroke-miterlimit:4"><path
         d="m 73.8,47.6 -3.6,3.4 1,4 3.8,0.2 1.4,3.8 -1.2,4.2 -5,7.8"
         id="path31"
         inkscape:connector-curvature="0" /></g><g
       id="Path_8"
       style="clip-rule:nonzero;fill:none;fill-opacity:1;stroke:#000000;stroke-miterlimit:4"><path
         d="m 75.8,46.8 -3.6,3.4 1,4 3.8,0.2 1.4,3.8 -1.2,4.2 -5,7.8"
         id="path34"
         inkscape:connector-curvature="0" /></g><g
       id="Path_9"
       style="clip-rule:nonzero;fill:none;fill-opacity:1;stroke:#000000;stroke-miterlimit:4"><path
         d="M 85.6,52.6 82,56 l 1,4 2,1.6 -2.4,4 -1.4,2.6"
         id="path37"
         inkscape:connector-curvature="0" /></g><g
       id="Path_10"
       style="clip-rule:nonzero;fill:none;fill-opacity:1;stroke:#000000;stroke-miterlimit:4"><path
         d="m 87.4,52.2 -3.6,3.4 1,4 1.8,2 -1.2,3 -2.2,4"
         id="path40"
         inkscape:connector-curvature="0" /></g><g
       id="Path_11"
       style="clip-rule:nonzero;fill:none;fill-opacity:1;stroke:#000000;stroke-miterlimit:4"><path
         d="M 69.6,25 50,35"
         id="path43"
         inkscape:connector-curvature="0" /></g><g
       id="Path_12"
       style="clip-rule:nonzero;fill:none;fill-opacity:1;stroke:#000000;stroke-miterlimit:4"><path
         d="M 69.6,35 55,42.5"
         id="path46"
         inkscape:connector-curvature="0" /></g><g
       id="Path_13"
       style="clip-rule:nonzero;fill:none;fill-opacity:1;stroke:#000000;stroke-miterlimit:4"><path
         d="M 69.6,45 50,55"
         id="path49"
         inkscape:connector-curvature="0" /></g></g></svg>