<?xml version="1.0" encoding="UTF-8" standalone="no"?>
<!-- Created with Inkscape (http://www.inkscape.org/) -->

<svg
   xmlns:dc="http://purl.org/dc/elements/1.1/"
   xmlns:cc="http://creativecommons.org/ns#"
   xmlns:rdf="http://www.w3.org/1999/02/22-rdf-syntax-ns#"
   xmlns:svg="http://www.w3.org/2000/svg"
   xmlns="http://www.w3.org/2000/svg"
   xmlns:xlink="http://www.w3.org/1999/xlink"
   xmlns:sodipodi="http://sodipodi.sourceforge.net/DTD/sodipodi-0.dtd"
   xmlns:inkscape="http://www.inkscape.org/namespaces/inkscape"
   version="1.1"
   width="48"
   height="48"
   id="svg3102"
   inkscape:version="0.48.4 r9939"
   sodipodi:docname="2.svg">
  <sodipodi:namedview
     pagecolor="#ffffff"
     bordercolor="#666666"
     borderopacity="1"
     objecttolerance="10"
     gridtolerance="10"
     guidetolerance="10"
     inkscape:pageopacity="0"
     inkscape:pageshadow="2"
     inkscape:window-width="1218"
     inkscape:window-height="812"
     id="namedview39"
     showgrid="false"
     inkscape:zoom="4.9166667"
     inkscape:cx="24"
     inkscape:cy="24"
     inkscape:window-x="723"
     inkscape:window-y="65"
     inkscape:window-maximized="0"
     inkscape:current-layer="layer1-3" />
  <defs
     id="defs3104">
    <linearGradient
       x1="23.99999"
       y1="5.5641499"
       x2="23.99999"
       y2="43"
       id="linearGradient3988"
       xlink:href="#linearGradient3977"
       gradientUnits="userSpaceOnUse"
       gradientTransform="matrix(0.89189189,0,0,1.1351351,2.5945999,-4.7432314)" />
    <linearGradient
       id="linearGradient3977">
      <stop
         id="stop3979"
         style="stop-color:#ffffff;stop-opacity:1"
         offset="0" />
      <stop
         id="stop3981"
         style="stop-color:#ffffff;stop-opacity:0.23529412"
         offset="0.03626217" />
      <stop
         id="stop3983"
         style="stop-color:#ffffff;stop-opacity:0.15686275"
         offset="0.95056331" />
      <stop
         id="stop3985"
         style="stop-color:#ffffff;stop-opacity:0.39215687"
         offset="1" />
    </linearGradient>
    <radialGradient
       cx="7.8060555"
       cy="9.9571075"
       r="12.671875"
       fx="7.2758255"
       fy="9.9571075"
       id="radialGradient4304"
       xlink:href="#linearGradient2867-449-88-871-390-598-476-591-434-148-57-177-8-3"
       gradientUnits="userSpaceOnUse"
       gradientTransform="matrix(-1.6167311e-7,6.6018651,-8.0922115,-1.9817022e-7,197.43864,-60.072946)" />
    <linearGradient
       id="linearGradient2867-449-88-871-390-598-476-591-434-148-57-177-8-3">
      <stop
         id="stop3750-1-0"
         style="stop-color:#bdff69;stop-opacity:1;"
         offset="0" />
      <stop
         id="stop3752-3-7"
         style="stop-color:#8ed451;stop-opacity:1;"
         offset="0.26238" />
      <stop
         id="stop3754-1-8"
         style="stop-color:#58aa30;stop-opacity:1;"
         offset="0.704952" />
      <stop
         id="stop3756-1-6"
         style="stop-color:#2a6c1f;stop-opacity:1;"
         offset="1" />
    </linearGradient>
    <linearGradient
       x1="25"
       y1="44.2915"
       x2="25"
       y2="0.57054341"
       id="linearGradient4306"
       xlink:href="#linearGradient4039"
       gradientUnits="userSpaceOnUse"
       gradientTransform="translate(92.874353,-4.6076e-4)" />
    <linearGradient
       id="linearGradient4039">
      <stop
         id="stop4041"
         style="stop-color:#126400;stop-opacity:1;"
         offset="0" />
      <stop
         id="stop4043"
         style="stop-color:#48bc2e;stop-opacity:1;"
         offset="1" />
    </linearGradient>
    <radialGradient
       cx="605.71429"
       cy="486.64789"
       r="117.14286"
       fx="605.71429"
       fy="486.64789"
       id="radialGradient3327"
       xlink:href="#linearGradient5060"
       gradientUnits="userSpaceOnUse"
       gradientTransform="matrix(0.02303995,0,0,0.01470022,26.360882,37.040176)" />
    <linearGradient
       id="linearGradient5060">
      <stop
         id="stop5062"
         style="stop-color:#000000;stop-opacity:1"
         offset="0" />
      <stop
         id="stop5064"
         style="stop-color:#000000;stop-opacity:0"
         offset="1" />
    </linearGradient>
    <radialGradient
       cx="605.71429"
       cy="486.64789"
       r="117.14286"
       fx="605.71429"
       fy="486.64789"
       id="radialGradient3330"
       xlink:href="#linearGradient5060"
       gradientUnits="userSpaceOnUse"
       gradientTransform="matrix(-0.02303994,0,0,0.01470022,21.62311,37.040176)" />
    <linearGradient
       id="linearGradient5048">
      <stop
         id="stop5050"
         style="stop-color:#000000;stop-opacity:0"
         offset="0" />
      <stop
         id="stop5056"
         style="stop-color:#000000;stop-opacity:1"
         offset="0.5" />
      <stop
         id="stop5052"
         style="stop-color:#000000;stop-opacity:0"
         offset="1" />
    </linearGradient>
    <linearGradient
       x1="302.85715"
       y1="366.64789"
       x2="302.85715"
       y2="609.50507"
       id="linearGradient3100"
       xlink:href="#linearGradient5048"
       gradientUnits="userSpaceOnUse"
       gradientTransform="matrix(0.06732488,0,0,0.01470022,-0.3411391,37.040146)" />
    <linearGradient
       x1="27.096104"
       y1="10.880992"
       x2="27.096104"
       y2="39.150768"
       id="linearGradient3446"
       xlink:href="#linearGradient3895-9-0-3-5-2-0-4-9-5"
       gradientUnits="userSpaceOnUse"
       gradientTransform="matrix(1.4102564,0,0,1.4102564,67.868241,-22.306786)" />
    <linearGradient
       id="linearGradient3895-9-0-3-5-2-0-4-9-5">
      <stop
         id="stop3897-0-5-7-89-6-6-7-0-4"
         style="stop-color:#dc5639;stop-opacity:1"
         offset="0" />
      <stop
         id="stop3899-8-7-06-3-8-3-8-0-6"
         style="stop-color:#9d0f0f;stop-opacity:1"
         offset="1" />
    </linearGradient>
    <linearGradient
       y2="39.150768"
       x2="27.096104"
       y1="10.880992"
       x1="27.096104"
       gradientTransform="matrix(0.8814063,0,0,0.8814063,46.417595,-10.327536)"
       gradientUnits="userSpaceOnUse"
       id="linearGradient8917"
       xlink:href="#linearGradient3895-9-0-3-5-2-0-4-9-5"
       inkscape:collect="always" />
  </defs>
  <metadata
     id="metadata3107">
    <rdf:RDF>
      <cc:Work
         rdf:about="">
        <dc:format>image/svg+xml</dc:format>
        <dc:type
           rdf:resource="http://purl.org/dc/dcmitype/StillImage" />
        <dc:title></dc:title>
      </cc:Work>
    </rdf:RDF>
  </metadata>
  <g
     id="layer1">
    <rect
       width="32.508301"
       height="3.5700529"
       x="7.7378473"
       y="42.429943"
       id="rect2879"
       style="opacity:0.3;fill:url(#linearGradient3100);fill-opacity:1;fill-rule:nonzero;stroke:none;stroke-width:1;marker:none;visibility:visible;display:inline;overflow:visible" />
    <path
       d="m 7.7378475,42.430102 c 0,0 0,3.569856 0,3.569856 -1.1865002,0.0067 -2.8683795,-0.799823 -2.8683795,-1.785158 0,-0.985333 1.3240446,-1.784697 2.8683795,-1.784698 z"
       inkscape:connector-curvature="0"
       id="path2881"
       style="opacity:0.3;fill:url(#radialGradient3330);fill-opacity:1;fill-rule:nonzero;stroke:none;stroke-width:1;marker:none;visibility:visible;display:inline;overflow:visible" />
    <path
       d="m 40.246148,42.430102 c 0,0 0,3.569856 0,3.569856 1.1865,0.0067 2.86838,-0.799823 2.86838,-1.785158 0,-0.985333 -1.324045,-1.784697 -2.86838,-1.784698 z"
       inkscape:connector-curvature="0"
       id="path2883"
       style="opacity:0.3;fill:url(#radialGradient3327);fill-opacity:1;fill-rule:nonzero;stroke:none;stroke-width:1;marker:none;visibility:visible;display:inline;overflow:visible" />
    <g
       transform="translate(-92.874352,-1e-6)"
       id="layer1-3">
      <path
         d="m 99.374314,0.49719907 c 8.020296,0 35.000036,0.002801 35.000036,0.002801 l 4e-5,44.00280293 c 0,0 -23.33338,0 -35.000076,0 0,-14.668535 0,-29.33707 0,-44.005604 z"
         inkscape:connector-curvature="0"
         id="path4160-62"
         style="color:#000000;fill:url(#radialGradient4304);fill-opacity:1;fill-rule:nonzero;stroke:url(#linearGradient4306);stroke-width:1;stroke-linecap:butt;stroke-linejoin:round;stroke-miterlimit:4;stroke-opacity:1;stroke-dasharray:none;stroke-dashoffset:0;marker:none;visibility:visible;display:inline;overflow:visible;enable-background:accumulate" />
      <path
         transform="matrix(0.62622287,0,0,0.62622287,96.835224,3.5801596)"
         sodipodi:type="inkscape:offset"
         inkscape:radius="0.97811615"
         inkscape:original="M 34 18 L 17 21 L 17 43 L 34 46 L 34 18 z M 35 21 L 35 22 L 39 22 L 39 25 L 35 25 L 35 26 L 39 26 L 39 29 L 35 29 L 35 30 L 39 30 L 39 33 L 35 33 L 35 34 L 39 34 L 39 37 L 35 37 L 35 38 L 39 38 L 39 41 L 35 41 L 35 43 L 47 43 L 47 21 L 35 21 z M 40 22 L 45 22 L 45 25 L 40 25 L 40 22 z M 40 26 L 45 26 L 45 29 L 40 29 L 40 26 z M 28.65625 26.71875 C 28.83787 26.71515 28.93759 26.71115 28.9375 26.71875 C 28.93736 26.73393 28.42606 27.896309 27.78125 29.28125 L 26.59375 31.78125 L 27.78125 34.28125 C 28.42606 35.64762 28.9375 36.81781 28.9375 36.875 C 28.9375 36.99509 28.07588 36.97505 27.34375 36.84375 C 26.85913 36.75685 26.83491 36.70245 26.21875 35.15625 C 25.86762 34.275105 25.52788 33.499132 25.46875 33.4375 C 25.40965 33.37587 25.06664 34.043573 24.71875 34.90625 C 24.37086 35.76892 24.04707 36.510649 24 36.5625 C 23.9529 36.6144 23.52516 36.6144 23.03125 36.5625 L 22.125 36.46875 L 23.21875 34.15625 L 24.3125 31.84375 L 23.34375 29.625 C 22.81334 28.400871 22.375 27.305577 22.375 27.21875 C 22.375 27.12183 22.74123 27.0625 23.3125 27.0625 L 24.25 27.0625 L 24.78125 28.5625 C 25.07983 29.383566 25.38231 30.095736 25.4375 30.15625 C 25.4927 30.21676 25.86435 29.486737 26.25 28.53125 L 26.9375 26.8125 L 27.9375 26.75 C 28.21316 26.73689 28.47462 26.72239 28.65625 26.71875 z M 40 30 L 45 30 L 45 33 L 40 33 L 40 30 z M 40 34 L 45 34 L 45 37 L 40 37 L 40 34 z M 40 38 L 45 38 L 45 41 L 40 41 L 40 38 z "
         style="opacity:0.05;color:#000000;fill:#126400;fill-opacity:1;fill-rule:nonzero;stroke:none;stroke-width:1;marker:none;visibility:visible;display:inline;overflow:visible;enable-background:accumulate"
         id="path5028"
         d="m 33.84375,17.03125 -17,3 A 0.97821397,0.97821397 0 0 0 16.03125,21 l 0,22 a 0.97821397,0.97821397 0 0 0 0.8125,0.96875 l 17,3 A 0.97821397,0.97821397 0 0 0 34.96875,46 l 0,-2.03125 a 0.97821397,0.97821397 0 0 0 0.03125,0 l 12,0 A 0.97821397,0.97821397 0 0 0 47.96875,43 l 0,-22 A 0.97821397,0.97821397 0 0 0 47,20.03125 l -12,0 a 0.97821397,0.97821397 0 0 0 -0.03125,0 l 0,-2.03125 a 0.97821397,0.97821397 0 0 0 -1.125,-0.96875 z m 1.125,5.9375 a 0.97821397,0.97821397 0 0 0 0.03125,0 l 3.03125,0 0,1.0625 -3.03125,0 a 0.97821397,0.97821397 0 0 0 -0.03125,0 l 0,-1.0625 z m 6,0 3.0625,0 0,1.0625 -3.0625,0 0,-1.0625 z m -6,4 a 0.97821397,0.97821397 0 0 0 0.03125,0 l 3.03125,0 0,1.0625 -3.03125,0 a 0.97821397,0.97821397 0 0 0 -0.03125,0 l 0,-1.0625 z m 6,0 3.0625,0 0,1.0625 -3.0625,0 0,-1.0625 z m -16,3.90625 c 0.290922,0.143177 0.664741,0.256558 0.84375,0.1875 0.06424,-0.02478 0.05154,-0.03883 0.09375,-0.0625 l -0.1875,0.375 a 0.97821397,0.97821397 0 0 0 0,0.8125 l 0.25,0.5 C 25.708994,32.549082 25.377435,32.444239 25.1875,32.5 c -0.09614,0.02822 -0.100651,0.06258 -0.15625,0.09375 L 25.1875,32.25 a 0.97821397,0.97821397 0 0 0 0.03125,-0.8125 l -0.25,-0.5625 z m 10,0.09375 a 0.97821397,0.97821397 0 0 0 0.03125,0 l 3.03125,0 0,1.0625 -3.03125,0 a 0.97821397,0.97821397 0 0 0 -0.03125,0 l 0,-1.0625 z m 6,0 3.0625,0 0,1.0625 -3.0625,0 0,-1.0625 z m -6,4 a 0.97821397,0.97821397 0 0 0 0.03125,0 l 3.03125,0 0,1.0625 -3.03125,0 a 0.97821397,0.97821397 0 0 0 -0.03125,0 l 0,-1.0625 z m 6,0 3.0625,0 0,1.0625 -3.0625,0 0,-1.0625 z m -6,4 a 0.97821397,0.97821397 0 0 0 0.03125,0 l 3.03125,0 0,1.0625 -3.03125,0 a 0.97821397,0.97821397 0 0 0 -0.03125,0 l 0,-1.0625 z m 6,0 3.0625,0 0,1.0625 -3.0625,0 0,-1.0625 z" />
      <path
         inkscape:connector-curvature="0"
         style="opacity:0.15;color:#000000;fill:#126400;fill-opacity:1;fill-rule:nonzero;stroke:none;stroke-width:1;marker:none;visibility:visible;display:inline;overflow:visible;enable-background:accumulate"
         d="m 118.1268,14.852172 -10.64579,1.878669 0,13.776903 10.64579,1.878669 0,-17.534241 z m 0.62622,1.878669 0,0.626223 2.50489,0 0,1.878668 -2.50489,0 0,0.626223 2.50489,0 0,1.878669 -2.50489,0 0,0.626223 2.50489,0 0,1.878668 -2.50489,0 0,0.626223 2.50489,0 0,1.878669 -2.50489,0 0,0.626223 2.50489,0 0,1.878668 -2.50489,0 0,1.252446 7.51468,0 0,-13.776903 -7.51468,0 z m 3.13112,0.626223 3.13111,0 0,1.878668 -3.13111,0 0,-1.878668 z m 0,2.504891 3.13111,0 0,1.878669 -3.13111,0 0,-1.878669 z m -7.10372,0.450098 c 0.11373,-0.0023 0.17618,-0.0048 0.17613,0 -9e-5,0.0095 -0.32028,0.737414 -0.72407,1.604696 l -0.74364,1.565557 0.74364,1.565557 c 0.40379,0.855652 0.72407,1.588452 0.72407,1.624266 0,0.0752 -0.53957,0.06265 -0.99805,-0.01957 -0.30348,-0.05442 -0.31864,-0.08848 -0.7045,-1.056751 -0.21988,-0.551793 -0.43264,-1.037725 -0.46967,-1.07632 -0.037,-0.03859 -0.25181,0.379536 -0.46966,0.919765 -0.21786,0.540223 -0.42062,1.004711 -0.4501,1.037181 -0.0295,0.0325 -0.29736,0.0325 -0.60665,0 l -0.56752,-0.05871 0.68493,-1.448141 0.68493,-1.44814 -0.60665,-1.389432 c -0.33215,-0.766578 -0.60665,-1.452476 -0.60665,-1.506849 0,-0.06069 0.22934,-0.09785 0.58708,-0.09785 l 0.58709,0 0.33268,0.939334 c 0.18697,0.51417 0.37639,0.960148 0.41096,0.998043 0.0346,0.03789 0.2673,-0.419264 0.5088,-1.017612 l 0.43053,-1.076321 0.62622,-0.03914 c 0.17263,-0.0082 0.33636,-0.01729 0.4501,-0.01957 z m 7.10372,2.054794 3.13111,0 0,1.878668 -3.13111,0 0,-1.878668 z m 0,2.504891 3.13111,0 0,1.878669 -3.13111,0 0,-1.878669 z m 0,2.504892 3.13111,0 0,1.878668 -3.13111,0 0,-1.878668 z"
         id="path4881-6" />
      <path
         style="color:#000000;fill:#ffffff;fill-opacity:1;fill-rule:nonzero;stroke:none;stroke-width:0.99999994;marker:none;visibility:visible;display:inline;overflow:visible;enable-background:accumulate"
         d="m 118.1268,14.225949 -10.64579,1.878669 0,13.776903 10.64579,1.878669 z m 0.62622,1.252446 0,1.252446 2.50489,0 0,1.878668 -2.50489,0 0,0.626223 2.50489,0 0,1.878669 -2.50489,0 0,0.626223 2.50489,0 0,1.878668 -2.50489,0 0,0.626223 2.50489,0 0,1.878669 -2.50489,0 0,0.626223 2.50489,0 0,1.878668 -2.50489,0 0,1.252446 7.51468,0 0,-14.403126 z m 3.13112,1.252446 3.13111,0 0,1.878668 -3.13111,0 z m 0,2.504891 3.13111,0 0,1.878669 -3.13111,0 z m -7.10372,0.450098 c 0.11373,-0.0023 0.17618,-0.0048 0.17613,0 -9e-5,0.0095 -0.32028,0.737414 -0.72407,1.604696 l -0.74364,1.565557 0.74364,1.565557 c 0.40379,0.855652 0.72407,1.588452 0.72407,1.624266 0,0.0752 -0.53957,0.06265 -0.99805,-0.01957 -0.30348,-0.05442 -0.31864,-0.08848 -0.7045,-1.056751 -0.21988,-0.551793 -0.43264,-1.037725 -0.46967,-1.07632 -0.037,-0.03859 -0.25181,0.379537 -0.46966,0.919765 -0.21786,0.540223 -0.42062,1.004711 -0.4501,1.037181 -0.0295,0.0325 -0.29736,0.0325 -0.60665,0 l -0.56752,-0.05871 0.68493,-1.448141 0.68493,-1.44814 -0.60665,-1.389432 c -0.33215,-0.766577 -0.60665,-1.452476 -0.60665,-1.506849 0,-0.06069 0.22934,-0.09785 0.58708,-0.09785 l 0.58709,0 0.33268,0.939334 c 0.18697,0.514171 0.37639,0.960148 0.41096,0.998043 0.0346,0.03789 0.2673,-0.419264 0.5088,-1.017612 l 0.43053,-1.076321 0.62622,-0.03914 c 0.17263,-0.0082 0.33636,-0.01729 0.4501,-0.01957 z m 7.10372,2.054794 3.13111,0 0,1.878668 -3.13111,0 z m 0,2.504891 3.13111,0 0,1.878669 -3.13111,0 z m 0,2.504892 3.13111,0 0,1.878668 -3.13111,0 z"
         id="path4881"
         inkscape:connector-curvature="0"
         sodipodi:nodetypes="cccccccccccccccccccccccccccccccccccccccccccccscscsccccccsscccccccccccccccccccccc" />
    </g>
    <path
       d="m 40.5,43.5 -33,0 0,-41.9999998 33,0 z"
       inkscape:connector-curvature="0"
       id="rect6741-1"
       style="opacity:0.5;fill:none;stroke:url(#linearGradient3988);stroke-width:1;stroke-linecap:round;stroke-linejoin:round;stroke-miterlimit:4;stroke-opacity:1;stroke-dasharray:none;stroke-dashoffset:0" />
  </g>
</svg>
