<?xml version="1.0" encoding="UTF-8" standalone="no"?>
<svg
   xmlns:dc="http://purl.org/dc/elements/1.1/"
   xmlns:cc="http://creativecommons.org/ns#"
   xmlns:rdf="http://www.w3.org/1999/02/22-rdf-syntax-ns#"
   xmlns:svg="http://www.w3.org/2000/svg"
   xmlns="http://www.w3.org/2000/svg"
   xmlns:sodipodi="http://sodipodi.sourceforge.net/DTD/sodipodi-0.dtd"
   xmlns:inkscape="http://www.inkscape.org/namespaces/inkscape"
   version="1.1"
   height="153"
   width="174"
   id="svg2"
   inkscape:version="0.91 r13725"
   sodipodi:docname="application-x-ms-dos-executable.svg">
  <metadata
     id="metadata16">
    <rdf:RDF>
      <cc:Work
         rdf:about="">
        <dc:format>image/svg+xml</dc:format>
        <dc:type
           rdf:resource="http://purl.org/dc/dcmitype/StillImage" />
      </cc:Work>
    </rdf:RDF>
  </metadata>
  <defs
     id="defs14" />
  <sodipodi:namedview
     pagecolor="#ffffff"
     bordercolor="#666666"
     borderopacity="1"
     objecttolerance="10"
     gridtolerance="10"
     guidetolerance="10"
     inkscape:pageopacity="0"
     inkscape:pageshadow="2"
     inkscape:window-width="529"
     inkscape:window-height="859"
     id="namedview12"
     showgrid="false"
     inkscape:zoom="1.0907007"
     inkscape:cx="41.265664"
     inkscape:cy="64.157694"
     inkscape:window-x="1067"
     inkscape:window-y="39"
     inkscape:window-maximized="0"
     inkscape:current-layer="svg2" />
  <g
     transform="matrix(1.3705508,-0.13752627,0,0.96746622,20.290254,57.365916)"
     id="Path_0"
     style="clip-rule:nonzero;fill:#c0c0c0;fill-opacity:1;stroke:none;stroke-miterlimit:4">
    <path
       inkscape:connector-curvature="0"
       d="M 10,90 70,60 90,70 30,100 Z"
       id="path7" />
  </g>
  <g
     id="g3344"
     transform="matrix(0.65347977,-0.40672101,0,0.62331016,36.337496,55.928022)">
    <path
       id="path4"
       style="fill:#000000"
       d="m 170.41,21.125 c -32.996,13.642 -48.861,5.973 -63.16,-3.65 L 90.972,73.937 c 14.285,9.678 31.531,17.635 63.188,3.463 l 16.25,-56.275 z"
       inkscape:connector-curvature="0" />
    <path
       id="path6"
       d="M 63.142,134.63 C 48.811,124.985 33.232,117.052 0.158,130.728 L 16.353,74.16 c 33.081,-13.678 48.973,-5.938 63.29,3.766 l -16.501,56.703 z"
       style="fill:#000000"
       inkscape:connector-curvature="0" />
    <path
       id="path8"
       style="fill:#000000"
       d="M 82.393,67.715 C 73.765,61.905 64.486,56.482 51.308,56.382 42.613,56.315 32.263,58.785 19.124,64.218 L 35.407,7.796 C 68.466,-5.873 84.345,1.863 98.652,11.56 L 82.393,67.715 Z"
       inkscape:connector-curvature="0" />
    <path
       id="path10"
       style="fill:#000000"
       d="m 88.227,83.369 c 14.313,9.637 30.212,17.313 63.243,3.66 l -16.281,56.234 c -33.037,13.664 -48.903,5.926 -63.201,-3.77 L 88.227,83.369 Z"
       inkscape:connector-curvature="0" />
  </g>
</svg>
