<?xml version="1.0" encoding="UTF-8" standalone="no"?>
<!-- Created with Inkscape (http://www.inkscape.org/) -->

<svg
   xmlns:dc="http://purl.org/dc/elements/1.1/"
   xmlns:cc="http://creativecommons.org/ns#"
   xmlns:rdf="http://www.w3.org/1999/02/22-rdf-syntax-ns#"
   xmlns:svg="http://www.w3.org/2000/svg"
   xmlns="http://www.w3.org/2000/svg"
   xmlns:xlink="http://www.w3.org/1999/xlink"
   xmlns:sodipodi="http://sodipodi.sourceforge.net/DTD/sodipodi-0.dtd"
   xmlns:inkscape="http://www.inkscape.org/namespaces/inkscape"
   version="1.1"
   width="48"
   height="48"
   id="svg4093"
   inkscape:version="0.48.4 r9939"
   sodipodi:docname="application-x-subrip.svg">
  <sodipodi:namedview
     pagecolor="#ffffff"
     bordercolor="#666666"
     borderopacity="1"
     objecttolerance="10"
     gridtolerance="10"
     guidetolerance="10"
     inkscape:pageopacity="0"
     inkscape:pageshadow="2"
     inkscape:window-width="1855"
     inkscape:window-height="1056"
     id="namedview63"
     showgrid="true"
     inkscape:zoom="19.25"
     inkscape:cx="4.5651895"
     inkscape:cy="26.077922"
     inkscape:window-x="65"
     inkscape:window-y="24"
     inkscape:window-maximized="1"
     inkscape:current-layer="layer1">
    <inkscape:grid
       type="xygrid"
       id="grid3142" />
  </sodipodi:namedview>
  <defs
     id="defs4095">
    <linearGradient
       x1="25"
       y1="43"
       x2="25"
       y2="14"
       id="linearGradient3161"
       xlink:href="#linearGradient3830"
       gradientUnits="userSpaceOnUse"
       gradientTransform="translate(0,-4.6093084e-4)" />
    <linearGradient
       id="linearGradient3830">
      <stop
         id="stop3832"
         style="stop-color:#ffffff;stop-opacity:1"
         offset="0" />
      <stop
         id="stop3834"
         style="stop-color:#ffffff;stop-opacity:0"
         offset="1" />
    </linearGradient>
    <linearGradient
       x1="30"
       y1="9.9827881"
       x2="30"
       y2="28.584972"
       id="linearGradient3164"
       xlink:href="#linearGradient3830"
       gradientUnits="userSpaceOnUse"
       gradientTransform="translate(0,-4.6093084e-4)" />
    <radialGradient
       cx="7.8060555"
       cy="9.9571075"
       r="12.671875"
       fx="7.2758255"
       fy="9.9571075"
       id="radialGradient3167"
       xlink:href="#linearGradient2867-449-88-871-390-598-476-591-434-148-57-177"
       gradientUnits="userSpaceOnUse"
       gradientTransform="matrix(-1.6167311e-7,6.6018651,-8.0922115,-1.9817022e-7,104.56429,-60.072946)" />
    <linearGradient
       id="linearGradient2867-449-88-871-390-598-476-591-434-148-57-177">
      <stop
         id="stop3750"
         style="stop-color:#90dbec;stop-opacity:1"
         offset="0" />
      <stop
         id="stop3752"
         style="stop-color:#55c1ec;stop-opacity:1"
         offset="0.26238" />
      <stop
         id="stop3754"
         style="stop-color:#3689e6;stop-opacity:1"
         offset="0.704952" />
      <stop
         id="stop3756"
         style="stop-color:#2b63a0;stop-opacity:1"
         offset="1" />
    </linearGradient>
    <linearGradient
       x1="25"
       y1="47.935162"
       x2="25"
       y2="0.91790956"
       id="linearGradient3169"
       xlink:href="#linearGradient3707-319-631-407-324"
       gradientUnits="userSpaceOnUse"
       gradientTransform="translate(0,-4.6093084e-4)" />
    <linearGradient
       id="linearGradient3707-319-631-407-324">
      <stop
         id="stop3760"
         style="stop-color:#185f9a;stop-opacity:1"
         offset="0" />
      <stop
         id="stop3762"
         style="stop-color:#599ec9;stop-opacity:1"
         offset="1" />
    </linearGradient>
    <radialGradient
       cx="15.115514"
       cy="63.965389"
       r="12.289036"
       fx="15.115514"
       fy="63.965389"
       id="radialGradient3172"
       xlink:href="#linearGradient4114-3"
       gradientUnits="userSpaceOnUse"
       gradientTransform="matrix(1.139227,0,0,0.4068666,6.7799989,7.7466159)" />
    <linearGradient
       id="linearGradient4114-3">
      <stop
         id="stop4116-7"
         style="stop-color:#000000;stop-opacity:1"
         offset="0" />
      <stop
         id="stop4118-4"
         style="stop-color:#000000;stop-opacity:0"
         offset="1" />
    </linearGradient>
    <linearGradient
       x1="21.253012"
       y1="44.301422"
       x2="21.253012"
       y2="0.50542921"
       id="linearGradient3243"
       xlink:href="#linearGradient3104-5"
       gradientUnits="userSpaceOnUse"
       gradientTransform="translate(0,0.99953907)" />
    <linearGradient
       id="linearGradient3104-5">
      <stop
         id="stop3106-2"
         style="stop-color:#aaaaaa;stop-opacity:1"
         offset="0" />
      <stop
         id="stop3108-5"
         style="stop-color:#c8c8c8;stop-opacity:1"
         offset="1" />
    </linearGradient>
    <linearGradient
       x1="23.99999"
       y1="5.5641499"
       x2="23.99999"
       y2="43"
       id="linearGradient3988"
       xlink:href="#linearGradient3977"
       gradientUnits="userSpaceOnUse"
       gradientTransform="matrix(0.89189189,0,0,1.1351351,2.5945999,-4.7432314)" />
    <linearGradient
       id="linearGradient3977">
      <stop
         id="stop3979"
         style="stop-color:#ffffff;stop-opacity:1"
         offset="0" />
      <stop
         id="stop3981"
         style="stop-color:#ffffff;stop-opacity:0.23529412"
         offset="0.03626217" />
      <stop
         id="stop3983"
         style="stop-color:#ffffff;stop-opacity:0.15686275"
         offset="0.95056331" />
      <stop
         id="stop3985"
         style="stop-color:#ffffff;stop-opacity:0.39215687"
         offset="1" />
    </linearGradient>
    <linearGradient
       x1="25.132275"
       y1="0.98520643"
       x2="25.132275"
       y2="47.013336"
       id="linearGradient3322"
       xlink:href="#linearGradient3600"
       gradientUnits="userSpaceOnUse"
       gradientTransform="matrix(1,0,0,0.9561695,-9.9999999e-8,-1.9149218)" />
    <linearGradient
       id="linearGradient3600">
      <stop
         id="stop3602"
         style="stop-color:#f4f4f4;stop-opacity:1"
         offset="0" />
      <stop
         id="stop3604"
         style="stop-color:#dbdbdb;stop-opacity:1"
         offset="1" />
    </linearGradient>
    <linearGradient
       x1="-51.786404"
       y1="50.786446"
       x2="-51.786404"
       y2="2.9062471"
       id="linearGradient3324"
       xlink:href="#linearGradient3104"
       gradientUnits="userSpaceOnUse"
       gradientTransform="matrix(0.8074968,0,0,0.8948322,59.410232,-2.9805531)" />
    <linearGradient
       id="linearGradient3104">
      <stop
         id="stop3106"
         style="stop-color:#a0a0a0;stop-opacity:1"
         offset="0" />
      <stop
         id="stop3108"
         style="stop-color:#bebebe;stop-opacity:1"
         offset="1" />
    </linearGradient>
    <radialGradient
       cx="605.71429"
       cy="486.64789"
       r="117.14286"
       fx="605.71429"
       fy="486.64789"
       id="radialGradient3327"
       xlink:href="#linearGradient5060"
       gradientUnits="userSpaceOnUse"
       gradientTransform="matrix(0.02303995,0,0,0.01470022,26.360882,37.040176)" />
    <linearGradient
       id="linearGradient5060">
      <stop
         id="stop5062"
         style="stop-color:#000000;stop-opacity:1"
         offset="0" />
      <stop
         id="stop5064"
         style="stop-color:#000000;stop-opacity:0"
         offset="1" />
    </linearGradient>
    <radialGradient
       cx="605.71429"
       cy="486.64789"
       r="117.14286"
       fx="605.71429"
       fy="486.64789"
       id="radialGradient3330"
       xlink:href="#linearGradient5060"
       gradientUnits="userSpaceOnUse"
       gradientTransform="matrix(-0.02303994,0,0,0.01470022,21.62311,37.040176)" />
    <linearGradient
       id="linearGradient5048">
      <stop
         id="stop5050"
         style="stop-color:#000000;stop-opacity:0"
         offset="0" />
      <stop
         id="stop5056"
         style="stop-color:#000000;stop-opacity:1"
         offset="0.5" />
      <stop
         id="stop5052"
         style="stop-color:#000000;stop-opacity:0"
         offset="1" />
    </linearGradient>
    <linearGradient
       x1="302.85715"
       y1="366.64789"
       x2="302.85715"
       y2="609.50507"
       id="linearGradient4091"
       xlink:href="#linearGradient5048"
       gradientUnits="userSpaceOnUse"
       gradientTransform="matrix(0.06732488,0,0,0.01470022,-0.3411391,37.040146)" />
    <radialGradient
       inkscape:collect="always"
       xlink:href="#linearGradient4114-3"
       id="radialGradient3065"
       gradientUnits="userSpaceOnUse"
       gradientTransform="matrix(1.139227,0,0,0.4068666,6.7800002,-4.0263839)"
       cx="15.115514"
       cy="63.965389"
       fx="15.115514"
       fy="63.965389"
       r="12.289036" />
    <linearGradient
       x1="23.06352"
       y1="13.213603"
       x2="23.06352"
       y2="30.077967"
       id="linearGradient4326"
       xlink:href="#linearGradient4311"
       gradientUnits="userSpaceOnUse"
       gradientTransform="matrix(1,0,0,-1,-38.675325,43.012147)" />
    <linearGradient
       id="linearGradient4311">
      <stop
         id="stop4313"
         style="stop-color:#000000;stop-opacity:1"
         offset="0" />
      <stop
         id="stop4315"
         style="stop-color:#000000;stop-opacity:0"
         offset="1" />
    </linearGradient>
    <linearGradient
       x1="23.06352"
       y1="12.978221"
       x2="23.06352"
       y2="36.949589"
       id="linearGradient4320"
       xlink:href="#linearGradient4311"
       gradientUnits="userSpaceOnUse"
       gradientTransform="translate(-44.597403,-7.2597403)" />
    <linearGradient
       id="linearGradient3101">
      <stop
         id="stop3103"
         style="stop-color:#000000;stop-opacity:1"
         offset="0" />
      <stop
         id="stop3105"
         style="stop-color:#000000;stop-opacity:0"
         offset="1" />
    </linearGradient>
    <linearGradient
       x1="19.927404"
       y1="44.949184"
       x2="19.927404"
       y2="4.9969058"
       id="linearGradient4273"
       xlink:href="#linearGradient3104-59"
       gradientUnits="userSpaceOnUse"
       gradientTransform="translate(-36.337662,8.6363636)" />
    <linearGradient
       id="linearGradient3104-59">
      <stop
         id="stop3106-5"
         style="stop-color:#a0a0a0;stop-opacity:1"
         offset="0" />
      <stop
         id="stop3108-6"
         style="stop-color:#bebebe;stop-opacity:1"
         offset="1" />
    </linearGradient>
    <linearGradient
       inkscape:collect="always"
       xlink:href="#linearGradient3104-59"
       id="linearGradient3926"
       x1="25"
       y1="25"
       x2="25"
       y2="5"
       gradientUnits="userSpaceOnUse" />
    <linearGradient
       inkscape:collect="always"
       xlink:href="#linearGradient3104-59"
       id="linearGradient3928"
       x1="25"
       y1="25"
       x2="25"
       y2="5"
       gradientUnits="userSpaceOnUse" />
  </defs>
  <metadata
     id="metadata4098">
    <rdf:RDF>
      <cc:Work
         rdf:about="">
        <dc:format>image/svg+xml</dc:format>
        <dc:type
           rdf:resource="http://purl.org/dc/dcmitype/StillImage" />
        <dc:title />
      </cc:Work>
    </rdf:RDF>
  </metadata>
  <g
     id="layer1">
    <rect
       width="32.508301"
       height="3.5700529"
       x="7.7378473"
       y="42.429947"
       id="rect2879"
       style="opacity:0.3;fill:url(#linearGradient4091);fill-opacity:1;fill-rule:nonzero;stroke:none;stroke-width:1;marker:none;visibility:visible;display:inline;overflow:visible" />
    <path
       d="m 7.7378475,42.430102 c 0,0 0,3.569856 0,3.569856 -1.1865002,0.0067 -2.8683795,-0.799823 -2.8683795,-1.785158 0,-0.985333 1.3240446,-1.784697 2.8683795,-1.784698 z"
       inkscape:connector-curvature="0"
       id="path2881"
       style="opacity:0.3;fill:url(#radialGradient3330);fill-opacity:1;fill-rule:nonzero;stroke:none;stroke-width:1;marker:none;visibility:visible;display:inline;overflow:visible" />
    <path
       d="m 40.246148,42.430102 c 0,0 0,3.569856 0,3.569856 1.1865,0.0067 2.86838,-0.799823 2.86838,-1.785158 0,-0.985333 -1.324045,-1.784697 -2.86838,-1.784698 z"
       inkscape:connector-curvature="0"
       id="path2883"
       style="opacity:0.3;fill:url(#radialGradient3327);fill-opacity:1;fill-rule:nonzero;stroke:none;stroke-width:1;marker:none;visibility:visible;display:inline;overflow:visible" />
    <path
       d="M 6.4999609,0.497199 C 14.520256,0.497199 41.5,0.5 41.5,0.5 l 4.2e-5,44.002803 c 0,0 -23.333387,0 -35.0000811,0 0,-14.668535 0,-29.33707 0,-44.00560407 z"
       inkscape:connector-curvature="0"
       id="path4160"
       style="fill:url(#linearGradient3322);fill-opacity:1;stroke:url(#linearGradient3324);stroke-width:0.99992186;stroke-linecap:butt;stroke-linejoin:round;stroke-miterlimit:4;stroke-opacity:1;stroke-dasharray:none;stroke-dashoffset:0;display:inline" />
    <path
       d="m 40.5,43.5 -33,0 0,-41.9999998 33,0 z"
       inkscape:connector-curvature="0"
       id="rect6741-1"
       style="fill:none;stroke:url(#linearGradient3988);stroke-width:1;stroke-linecap:round;stroke-linejoin:round;stroke-miterlimit:4;stroke-opacity:1;stroke-dasharray:none;stroke-dashoffset:0" />
    <path
       style="opacity:0.5;color:#bebebe;fill:#ffffff;fill-opacity:1;fill-rule:nonzero;stroke:none;stroke-width:1;marker:none;visibility:visible;display:inline;overflow:visible;enable-background:accumulate"
       id="path3950"
       inkscape:connector-curvature="0"
       d="m 24,8 c -4.418278,0 -8,3.581722 -8,8 0,4.418278 3.581722,8 8,8 4.418278,0 8,-3.581722 8,-8 0,-4.418278 -3.581722,-8 -8,-8 z m 0,1.9999999 c 3.313708,0 6,2.6862921 6,6.0000001 0,3.313708 -2.686292,6 -6,6 -3.313709,0 -6,-2.686292 -6,-6 0,-3.313708 2.686291,-6.0000001 6,-6.0000001 z" />
    <path
       d="m 24,7 c -4.418278,0 -8,3.581722 -8,8 0,4.418278 3.581722,8 8,8 4.418278,0 8,-3.581722 8,-8 0,-4.418278 -3.581722,-8 -8,-8 z m 0,1.9999999 c 3.313708,0 6,2.6862921 6,6.0000001 0,3.313708 -2.686292,6 -6,6 -3.313709,0 -6,-2.686292 -6,-6 0,-3.313708 2.686291,-6.0000001 6,-6.0000001 z"
       inkscape:connector-curvature="0"
       id="path2991"
       style="color:#bebebe;fill:#747474;fill-opacity:1;fill-rule:nonzero;stroke:none;stroke-width:1;marker:none;visibility:visible;display:inline;overflow:visible;enable-background:accumulate;opacity:1" />
    <path
       sodipodi:nodetypes="cccscc"
       inkscape:connector-curvature="0"
       d="m 21.631327,11.810288 c -0.02868,0.0026 -0.05297,0.01 -0.07052,0.02074 -0.561445,0.344456 -0.561445,8.267257 0,8.611726 0.561445,0.344455 7.018807,-3.616925 7.018807,-4.305863 0,-0.667367 -6.059139,-4.406748 -6.948453,-4.326638 z"
       style="text-indent:0;text-transform:none;block-progression:tb;opacity:0.5;color:#000000;fill:#ffffff;fill-opacity:1"
       id="path3952" />
    <path
       id="path4029"
       style="text-indent:0;text-transform:none;block-progression:tb;opacity:1;color:#000000;fill:#747474;fill-opacity:1"
       d="m 21.631327,10.810288 c -0.02868,0.0026 -0.05297,0.01 -0.07052,0.02074 -0.561445,0.344456 -0.561445,8.267257 0,8.611726 0.561445,0.344455 7.018807,-3.616925 7.018807,-4.305863 0,-0.667367 -6.059139,-4.406748 -6.948453,-4.326638 z"
       inkscape:connector-curvature="0"
       sodipodi:nodetypes="cccscc" />
    <path
       sodipodi:nodetypes="ccccccccccccccccc"
       inkscape:connector-curvature="0"
       id="path3954"
       d="m 19,33.2187 c -0.486117,0 -0.972233,0 -1.458349,0 0,0.294858 0,0.589715 0,0.884572 -0.618932,-0.927011 -1.832595,-1.194567 -2.871309,-0.972847 -1.426854,0.238361 -2.523171,1.537144 -2.637825,2.96038 -0.197724,1.440111 0.515145,3.035956 1.896503,3.616271 1.141066,0.501625 2.642437,0.394167 3.493769,-0.597101 0.222861,-0.295002 0.07736,0.354684 0.118862,0.525543 -0.101786,0.337291 0.306265,0.164743 0.500996,0.205517 0.319117,0 0.638234,0 0.957353,0 0,-2.207445 0,-4.414891 0,-6.622335 z m -3.454613,1.302949 c 1.016095,-0.04864 1.904488,0.831537 1.939044,1.833983 0.1044,0.94087 -0.475276,2.010618 -1.477333,2.142857 -0.952073,0.215057 -2.076384,-0.304757 -2.316652,-1.298473 -0.313445,-1.040164 0.224703,-2.366654 1.348922,-2.61729 0.165222,-0.04159 0.335731,-0.06111 0.506019,-0.06107 z"
       style="font-size:12px;font-style:normal;font-variant:normal;font-weight:bold;font-stretch:normal;text-align:start;line-height:100%;writing-mode:lr-tb;text-anchor:start;fill:#ffffff;fill-opacity:1;stroke:none;display:inline;font-family:URW Gothic L;-inkscape-font-specification:URW Gothic L Semi-Bold;opacity:0.5" />
    <path
       style="font-size:12px;font-style:normal;font-variant:normal;font-weight:bold;font-stretch:normal;text-align:start;line-height:100%;writing-mode:lr-tb;text-anchor:start;opacity:1;fill:#747474;fill-opacity:1;stroke:none;display:inline;font-family:URW Gothic L;-inkscape-font-specification:URW Gothic L Semi-Bold"
       d="m 19,32.2187 c -0.486117,0 -0.972233,0 -1.458349,0 0,0.294858 0,0.589715 0,0.884572 -0.618932,-0.927011 -1.832595,-1.194567 -2.871309,-0.972847 -1.426854,0.238361 -2.523171,1.537144 -2.637825,2.96038 -0.197724,1.440111 0.515145,3.035956 1.896503,3.616271 1.141066,0.501625 2.642437,0.394167 3.493769,-0.597101 0.222861,-0.295002 0.07736,0.354684 0.118862,0.525543 -0.101786,0.337291 0.306265,0.164743 0.500996,0.205517 0.319117,0 0.638234,0 0.957353,0 0,-2.207445 0,-4.414891 0,-6.622335 z m -3.454613,1.302949 c 1.016095,-0.04864 1.904488,0.831537 1.939044,1.833983 0.1044,0.94087 -0.475276,2.010618 -1.477333,2.142857 -0.952073,0.215057 -2.076384,-0.304757 -2.316652,-1.298473 -0.313445,-1.040164 0.224703,-2.366654 1.348922,-2.61729 0.165222,-0.04159 0.335731,-0.06111 0.506019,-0.06107 z"
       id="text3329"
       inkscape:connector-curvature="0"
       sodipodi:nodetypes="ccccccccccccccccc" />
    <path
       sodipodi:nodetypes="cccccccccccccc"
       inkscape:connector-curvature="0"
       id="path3956"
       d="m 21.200004,30.974209 c 0.532,0 1.063999,0 1.595999,0 0,0.948001 0,1.896001 0,2.844002 1.457684,-1.412828 4.162499,-0.814539 4.979771,1.017984 0.832227,1.655121 0.31225,4.021925 -1.45229,4.837471 -1.180319,0.562008 -2.778174,0.422974 -3.659481,-0.611456 -0.02924,0.245332 0.05846,0.607607 -0.04372,0.779999 -0.473428,0 -0.946856,0 -1.420283,0 0,-2.956 0,-5.912 4e-6,-8.868 z m 3.443999,7.560002 c 1.198389,0.0437 2.099006,-1.203095 1.886663,-2.338092 -0.102474,-1.112461 -1.284034,-1.960654 -2.368213,-1.632778 -1.324547,0.28504 -1.87034,2.023696 -1.138449,3.101924 0.344079,0.545901 0.976963,0.877247 1.619999,0.868946 z"
       style="font-size:12px;font-style:normal;font-variant:normal;font-weight:bold;font-stretch:normal;text-align:start;line-height:100%;writing-mode:lr-tb;text-anchor:start;fill:#ffffff;fill-opacity:1;stroke:none;display:inline;font-family:URW Gothic L;-inkscape-font-specification:URW Gothic L Semi-Bold;opacity:0.5" />
    <path
       style="font-size:12px;font-style:normal;font-variant:normal;font-weight:bold;font-stretch:normal;text-align:start;line-height:100%;writing-mode:lr-tb;text-anchor:start;fill:#747474;fill-opacity:1;stroke:none;display:inline;font-family:URW Gothic L;-inkscape-font-specification:URW Gothic L Semi-Bold"
       d="m 21.200004,29.974209 c 0.532,0 1.063999,0 1.595999,0 0,0.948001 0,1.896001 0,2.844002 1.457684,-1.412828 4.162499,-0.814539 4.979771,1.017984 0.832227,1.655121 0.31225,4.021925 -1.45229,4.837471 -1.180319,0.562008 -2.778174,0.422974 -3.659481,-0.611456 -0.02924,0.245332 0.05846,0.607607 -0.04372,0.779999 -0.473428,0 -0.946856,0 -1.420283,0 0,-2.956 0,-5.912 4e-6,-8.868 z m 3.443999,7.560002 c 1.198389,0.0437 2.099006,-1.203095 1.886663,-2.338092 -0.102474,-1.112461 -1.284034,-1.960654 -2.368213,-1.632778 -1.324547,0.28504 -1.87034,2.023696 -1.138449,3.101924 0.344079,0.545901 0.976963,0.877247 1.619999,0.868946 z"
       id="text3329-6-1"
       inkscape:connector-curvature="0"
       sodipodi:nodetypes="cccccccccccccc" />
    <path
       style="fill:#ffffff;fill-opacity:1;fill-rule:nonzero;stroke:none;stroke-width:0.27940208000000000;marker:none;visibility:visible;display:inline;overflow:visible;enable-background:accumulate;opacity:0.5"
       id="path3958"
       inkscape:connector-curvature="0"
       d="M 33.429855,33.140292 C 31.536577,33.140292 30,34.676867 30,36.570145 30,38.463423 31.536576,40 33.429855,40 34.836215,40 36.173739,39.039642 36.6,37.804892 l -1.519016,0 c -0.365331,0.48035 -1.041019,0.823167 -1.651129,0.823167 -1.135969,0 -2.057914,-0.921945 -2.057914,-2.057914 0,-1.135968 0.921945,-2.057912 2.057914,-2.057912 0.731904,0 1.422291,0.521454 1.787157,1.097552 l 1.357986,0 C 36.448126,34.37504 34.939524,33.140292 33.429855,33.140292 z" />
    <path
       d="M 33.429855,32.140292 C 31.536577,32.140292 30,33.676867 30,35.570145 30,37.463423 31.536576,39 33.429855,39 34.836215,39 36.173739,38.039642 36.6,36.804892 l -1.519016,0 c -0.365331,0.48035 -1.041019,0.823167 -1.651129,0.823167 -1.135969,0 -2.057914,-0.921945 -2.057914,-2.057914 0,-1.135968 0.921945,-2.057912 2.057914,-2.057912 0.731904,0 1.422291,0.521454 1.787157,1.097552 l 1.357986,0 C 36.448126,33.37504 34.939524,32.140292 33.429855,32.140292 z"
       inkscape:connector-curvature="0"
       id="path3737"
       style="opacity:1;fill:#747474;fill-opacity:1;fill-rule:nonzero;stroke:none;stroke-width:0.27940208000000000;marker:none;visibility:visible;display:inline;overflow:visible;enable-background:accumulate" />
    <path
       inkscape:connector-curvature="0"
       id="path3962"
       d="m 20,29 0,13 9,0 0,-13 z"
       style="fill:none;stroke:#ffffff;stroke-width:1px;stroke-linecap:butt;stroke-linejoin:miter;stroke-opacity:1;opacity:0.5" />
    <path
       style="fill:none;stroke:#9c3030;stroke-width:1px;stroke-linecap:butt;stroke-linejoin:miter;stroke-opacity:1"
       d="m 20,28 0,13 9,0 0,-13 z"
       id="path3960"
       inkscape:connector-curvature="0" />
  </g>
</svg>
