<?xml version="1.0" encoding="UTF-8" standalone="no"?>
<!-- Created with Inkscape (http://www.inkscape.org/) -->

<svg
   xmlns:dc="http://purl.org/dc/elements/1.1/"
   xmlns:cc="http://creativecommons.org/ns#"
   xmlns:rdf="http://www.w3.org/1999/02/22-rdf-syntax-ns#"
   xmlns:svg="http://www.w3.org/2000/svg"
   xmlns="http://www.w3.org/2000/svg"
   xmlns:xlink="http://www.w3.org/1999/xlink"
   xmlns:sodipodi="http://sodipodi.sourceforge.net/DTD/sodipodi-0.dtd"
   xmlns:inkscape="http://www.inkscape.org/namespaces/inkscape"
   version="1.0"
   width="48"
   height="48"
   id="svg4486"
   inkscape:version="0.48.2 r9819"
   sodipodi:docname="text-x-c++.svg">
  <metadata
     id="metadata51">
    <rdf:RDF>
      <cc:Work
         rdf:about="">
        <dc:format>image/svg+xml</dc:format>
        <dc:type
           rdf:resource="http://purl.org/dc/dcmitype/StillImage" />
        <dc:title></dc:title>
      </cc:Work>
    </rdf:RDF>
  </metadata>
  <sodipodi:namedview
     pagecolor="#ffffff"
     bordercolor="#666666"
     borderopacity="1"
     objecttolerance="10"
     gridtolerance="10"
     guidetolerance="10"
     inkscape:pageopacity="0"
     inkscape:pageshadow="2"
     inkscape:window-width="1920"
     inkscape:window-height="1056"
     id="namedview49"
     showgrid="false"
     inkscape:zoom="18.125"
     inkscape:cx="24"
     inkscape:cy="24"
     inkscape:window-x="0"
     inkscape:window-y="24"
     inkscape:window-maximized="1"
     inkscape:current-layer="svg4486" />
  <defs
     id="defs4488">
    <linearGradient
       id="linearGradient5048">
      <stop
         id="stop5050"
         style="stop-color:black;stop-opacity:0"
         offset="0" />
      <stop
         id="stop5056"
         style="stop-color:black;stop-opacity:1"
         offset="0.5" />
      <stop
         id="stop5052"
         style="stop-color:black;stop-opacity:0"
         offset="1" />
    </linearGradient>
    <linearGradient
       id="linearGradient5060">
      <stop
         id="stop5062"
         style="stop-color:black;stop-opacity:1"
         offset="0" />
      <stop
         id="stop5064"
         style="stop-color:black;stop-opacity:0"
         offset="1" />
    </linearGradient>
    <linearGradient
       id="linearGradient3104">
      <stop
         id="stop3106"
         style="stop-color:#aaa;stop-opacity:1"
         offset="0" />
      <stop
         id="stop3108"
         style="stop-color:#c8c8c8;stop-opacity:1"
         offset="1" />
    </linearGradient>
    <linearGradient
       id="linearGradient3600">
      <stop
         id="stop3602"
         style="stop-color:#f4f4f4;stop-opacity:1"
         offset="0" />
      <stop
         id="stop3604"
         style="stop-color:#dbdbdb;stop-opacity:1"
         offset="1" />
    </linearGradient>
    <radialGradient
       cx="102"
       cy="112.3047"
       r="139.55859"
       id="XMLID_8_"
       gradientUnits="userSpaceOnUse">
      <stop
         id="stop41"
         style="stop-color:#b7b8b9;stop-opacity:1"
         offset="0" />
      <stop
         id="stop47"
         style="stop-color:#ececec;stop-opacity:1"
         offset="0.18851049" />
      <stop
         id="stop49"
         style="stop-color:#fafafa;stop-opacity:0"
         offset="0.25718147" />
      <stop
         id="stop51"
         style="stop-color:white;stop-opacity:0"
         offset="0.30111277" />
      <stop
         id="stop53"
         style="stop-color:#fafafa;stop-opacity:0"
         offset="0.53130001" />
      <stop
         id="stop55"
         style="stop-color:#ebecec;stop-opacity:0"
         offset="0.84490001" />
      <stop
         id="stop57"
         style="stop-color:#e1e2e3;stop-opacity:0"
         offset="1" />
    </radialGradient>
    <linearGradient
       id="linearGradient3211">
      <stop
         id="stop3213"
         style="stop-color:white;stop-opacity:1"
         offset="0" />
      <stop
         id="stop3215"
         style="stop-color:white;stop-opacity:0"
         offset="1" />
    </linearGradient>
    <linearGradient
       id="linearGradient8589">
      <stop
         id="stop8591"
         style="stop-color:#fefefe;stop-opacity:1"
         offset="0" />
      <stop
         id="stop8593"
         style="stop-color:#cbcbcb;stop-opacity:1"
         offset="1" />
    </linearGradient>
    <linearGradient
       x1="32.892288"
       y1="8.0590115"
       x2="36.358372"
       y2="5.4565363"
       id="linearGradient3312"
       xlink:href="#linearGradient8589"
       gradientUnits="userSpaceOnUse"
       gradientTransform="matrix(0.9976985,0,0,1.0406866,0.1638029,-1.1057939)" />
    <linearGradient
       x1="24"
       y1="1.9999999"
       x2="24"
       y2="46.01725"
       id="linearGradient3316"
       xlink:href="#linearGradient3211"
       gradientUnits="userSpaceOnUse"
       gradientTransform="matrix(1,0,0,0.9777778,0,-0.9666693)" />
    <radialGradient
       cx="102"
       cy="112.3047"
       r="139.55859"
       id="radialGradient3319"
       xlink:href="#XMLID_8_"
       gradientUnits="userSpaceOnUse"
       gradientTransform="matrix(0.3617022,0,0,-0.3907784,0.8510637,47.517004)" />
    <linearGradient
       x1="25.132275"
       y1="0.98520643"
       x2="25.132275"
       y2="47.013336"
       id="linearGradient3322"
       xlink:href="#linearGradient3600"
       gradientUnits="userSpaceOnUse"
       gradientTransform="matrix(1,0,0,0.9561695,-1.0064697e-7,-1.914922)" />
    <linearGradient
       x1="-51.786404"
       y1="50.786446"
       x2="-51.786404"
       y2="2.9062471"
       id="linearGradient3324"
       xlink:href="#linearGradient3104"
       gradientUnits="userSpaceOnUse"
       gradientTransform="matrix(0.8074968,0,0,0.8948322,59.410232,-2.9805533)" />
    <radialGradient
       cx="605.71429"
       cy="486.64789"
       r="117.14286"
       fx="605.71429"
       fy="486.64789"
       id="radialGradient3327"
       xlink:href="#linearGradient5060"
       gradientUnits="userSpaceOnUse"
       gradientTransform="matrix(0.02303995,0,0,0.01470022,26.360882,37.040176)" />
    <radialGradient
       cx="605.71429"
       cy="486.64789"
       r="117.14286"
       fx="605.71429"
       fy="486.64789"
       id="radialGradient3330"
       xlink:href="#linearGradient5060"
       gradientUnits="userSpaceOnUse"
       gradientTransform="matrix(-0.02303994,0,0,0.01470022,21.62311,37.040176)" />
    <linearGradient
       x1="302.85715"
       y1="366.64789"
       x2="302.85715"
       y2="609.50507"
       id="linearGradient3333"
       xlink:href="#linearGradient5048"
       gradientUnits="userSpaceOnUse"
       gradientTransform="matrix(0.06732488,0,0,0.01470022,-0.3411391,37.040146)" />
    <filter
       x="-0.14846256"
       y="-0.16434373"
       width="1.2969251"
       height="1.3286875"
       color-interpolation-filters="sRGB"
       id="filter3212">
      <feGaussianBlur
         stdDeviation="0.77391625"
         id="feGaussianBlur3214" />
    </filter>
    <radialGradient
       cx="416.80206"
       cy="399.14209"
       r="20.131355"
       fx="416.80206"
       fy="399.14209"
       id="radialGradient7057"
       xlink:href="#linearGradient9162"
       gradientUnits="userSpaceOnUse"
       gradientTransform="matrix(-0.3550367,-0.06113843,0.0269881,-0.1567226,167.77602,114.26817)" />
    <linearGradient
       id="linearGradient9162">
      <stop
         id="stop9170"
         style="stop-color:#8ae234;stop-opacity:1"
         offset="0" />
      <stop
         id="stop9166"
         style="stop-color:#4db07d;stop-opacity:0.88235295"
         offset="1" />
    </linearGradient>
    <radialGradient
       cx="416.65488"
       cy="392.0784"
       r="27.076788"
       fx="416.65488"
       fy="392.0784"
       id="radialGradient7065"
       xlink:href="#linearGradient7192"
       gradientUnits="userSpaceOnUse"
       gradientTransform="matrix(0.2619729,-0.285608,0.2957879,0.2713093,-196.5256,36.963766)" />
    <linearGradient
       id="linearGradient7192">
      <stop
         id="stop7210"
         style="stop-color:#fce94f;stop-opacity:1"
         offset="0" />
      <stop
         id="stop8189"
         style="stop-color:#66d09a;stop-opacity:1"
         offset="0.5" />
      <stop
         id="stop8187"
         style="stop-color:#66c6d0;stop-opacity:1"
         offset="1" />
    </linearGradient>
    <linearGradient
       x1="32.027035"
       y1="21.986458"
       x2="27.560297"
       y2="15.298627"
       id="linearGradient7067"
       xlink:href="#linearGradient7605"
       gradientUnits="userSpaceOnUse"
       gradientTransform="translate(-0.3305347,-2.7771291)" />
    <linearGradient
       id="linearGradient7605">
      <stop
         id="stop7607"
         style="stop-color:#bcae3e;stop-opacity:1"
         offset="0" />
      <stop
         id="stop7609"
         style="stop-color:#3b9a6a;stop-opacity:1"
         offset="0.5" />
      <stop
         id="stop7611"
         style="stop-color:#3d8891;stop-opacity:1"
         offset="1" />
    </linearGradient>
    <linearGradient
       x1="375.62509"
       y1="311.79102"
       x2="393.43311"
       y2="374.92462"
       id="linearGradient7060"
       xlink:href="#linearGradient7176"
       gradientUnits="userSpaceOnUse"
       gradientTransform="matrix(0.2297578,-0.0383763,0.0383763,0.2297578,-83.017091,-52.600841)" />
    <linearGradient
       id="linearGradient7176">
      <stop
         id="stop7178"
         style="stop-color:#204a87;stop-opacity:1"
         offset="0" />
      <stop
         id="stop7180"
         style="stop-color:#97bcd4;stop-opacity:1"
         offset="1" />
    </linearGradient>
    <linearGradient
       x1="13.112816"
       y1="7.2513928"
       x2="20.403833"
       y2="21.766705"
       id="linearGradient7062"
       xlink:href="#linearGradient7613"
       gradientUnits="userSpaceOnUse"
       gradientTransform="translate(-0.3305347,-2.7771291)" />
    <linearGradient
       id="linearGradient7613">
      <stop
         id="stop7615"
         style="stop-color:#304456;stop-opacity:1"
         offset="0" />
      <stop
         id="stop7617"
         style="stop-color:#6394be;stop-opacity:1"
         offset="1" />
    </linearGradient>
  </defs>
  <rect
     width="32.508301"
     height="3.5700529"
     x="7.7378473"
     y="42.429947"
     id="rect2879"
     style="opacity:0.3;fill:url(#linearGradient3333);fill-opacity:1;fill-rule:nonzero;stroke:none;stroke-width:1;marker:none;visibility:visible;display:inline;overflow:visible" />
  <path
     d="m 7.7378475,42.430102 c 0,0 0,3.569856 0,3.569856 -1.1865002,0.0067 -2.8683795,-0.799823 -2.8683795,-1.785158 0,-0.985333 1.3240446,-1.784697 2.8683795,-1.784698 z"
     id="path2881"
     style="opacity:0.3;fill:url(#radialGradient3330);fill-opacity:1;fill-rule:nonzero;stroke:none;stroke-width:1;marker:none;visibility:visible;display:inline;overflow:visible" />
  <path
     d="m 40.246148,42.430102 c 0,0 0,3.569856 0,3.569856 1.1865,0.0067 2.86838,-0.799823 2.86838,-1.785158 0,-0.985333 -1.324045,-1.784697 -2.86838,-1.784698 z"
     id="path2883"
     style="opacity:0.3;fill:url(#radialGradient3327);fill-opacity:1;fill-rule:nonzero;stroke:none;stroke-width:1;marker:none;visibility:visible;display:inline;overflow:visible" />
  <path
     d="m 6.4999609,0.49719878 c 8.0202951,0 26.9909281,-0.003347 35.0112241,-0.003347 0.02762,1.6884462 -0.05384,5.4441721 -0.01114,9.629753 0,11.459733 0,22.919465 0,34.379198 -11.666694,0 -23.333387,0 -35.0000811,0 0,-14.668535 0,-29.33707 0,-44.00560422 z"
     id="path4160"
     style="fill:url(#linearGradient3322);fill-opacity:1;stroke:url(#linearGradient3324);stroke-width:0.99992186;stroke-linecap:butt;stroke-linejoin:round;stroke-miterlimit:4;stroke-opacity:1;stroke-dasharray:none;stroke-dashoffset:0;display:inline"
     inkscape:connector-curvature="0"
     sodipodi:nodetypes="cccccc" />
  <path
     d="m 40.514669,1.1346952 c 0,10.9490368 -0.01463,31.4385258 -0.01463,42.3875628 -11.000026,0 -22.000052,0 -33.0000781,0 0,-14.014841 0.048766,-28.044311 0.048766,-42.0591511 7.5619931,0 25.8963061,0.039013 33.4583001,0.039013"
     id="path2435"
     style="opacity:0.6;fill:none;stroke:url(#linearGradient3316);stroke-width:0.9999218;stroke-linecap:butt;stroke-linejoin:round;stroke-miterlimit:4;stroke-opacity:1;stroke-dasharray:none;stroke-dashoffset:0;display:inline"
     inkscape:connector-curvature="0"
     sodipodi:nodetypes="ccccc" />
  <path
     inkscape:connector-curvature="0"
     d="m 16.802716,38.20186 c 0,0.93271 0,1.86543 0,2.79814 -0.56787,0 -1.13575,0 -1.70362,0 0,-2.45234 0,-4.90467 0,-7.35701 0.56787,0 1.13575,0 1.70362,0 0,0.26015 0,0.52029 0,0.78044 0.7308,-1.13977 2.5831,-1.23167 3.38347,-0.12373 0.80156,1.04098 0.83031,2.5841 0.21508,3.72047 -0.56324,1.11531 -2.16099,1.4478 -3.12862,0.66983 -0.17809,-0.14021 -0.33354,-0.30754 -0.46993,-0.48814 l 0,0 z m 1.13258,-3.45008 c -0.8685,-0.04447 -1.20045,0.93634 -1.13144,1.65407 -0.07898,0.77908 0.52088,1.68412 1.38871,1.44267 0.85387,-0.20203 0.92991,-1.25579 0.83744,-1.97643 -0.04748,-0.57902 -0.45656,-1.16278 -1.09471,-1.12031 l 0,0 z m 8.31352,-0.94223 c 0,0.43145 0,0.86291 0,1.29437 -0.8531,-0.32936 -1.83916,-0.64051 -2.74104,-0.33311 -0.67278,0.52034 0.28871,0.92636 0.78765,0.87596 0.78705,0.13346 1.85102,0.18667 2.19727,1.05014 0.29066,0.77122 0.05678,1.80761 -0.77244,2.13113 -1.23267,0.49298 -2.62065,0.27141 -3.86852,-0.05037 0,-0.43146 0,-0.86292 0,-1.29438 0.84159,0.394 1.82088,0.62441 2.74222,0.41728 0.91075,-0.38239 0.0053,-1.14719 -0.6345,-1.00417 -0.80336,-0.10136 -1.88454,-0.25419 -2.12437,-1.18365 -0.21485,-0.7451 0.05056,-1.69823 0.84527,-1.96804 1.14108,-0.41397 2.4198,-0.20756 3.56846,0.06484 l 0,0 z m 5.26792,0.61388 c 0,-0.95175 0,-1.9035 0,-2.85525 0.57105,0 1.1421,0 1.71314,0 0,2.4682 0,4.9364 0,7.4046 -0.57104,0 -1.14209,0 -1.71314,0 0,-0.25698 0,-0.51395 0,-0.77092 -0.72144,1.14658 -2.57369,1.22637 -3.37395,0.12849 -0.79883,-1.04255 -0.83258,-2.58546 -0.21509,-3.7221 0.54485,-1.07078 2.03989,-1.43491 3.01799,-0.74516 0.22119,0.15174 0.40987,0.34688 0.57105,0.56033 l 0,1e-5 z m -1.12306,3.45008 c 0.82722,0.0485 1.17062,-0.86947 1.12306,-1.56087 0.04756,-0.69139 -0.29584,-1.60936 -1.12306,-1.56086 -0.8279,-0.04762 -1.16668,0.86992 -1.11831,1.56086 -0.03176,0.69659 0.26856,1.60612 1.11831,1.56087 l 0,0 z"
     id="text2019"
     style="font-size:11.69507122px;font-style:normal;font-weight:normal;line-height:125%;fill:#808080;fill-opacity:1;stroke:none;display:inline;font-family:Bitstream Vera Sans" />
  <path
     inkscape:connector-curvature="0"
     d="m 22.438552,23.726407 c 1.490765,1.913587 3.406608,2.20814 5.734418,2.179895 -0.159682,0.368602 -0.319362,0.737202 -0.479043,1.105804 0.446093,-0.532851 0.778633,-1.111828 1.516212,-1.037679 -0.45631,0.656609 -0.531242,1.081481 -0.703923,1.56575 0.882679,-0.796538 2.266515,-1.069984 3.382759,-1.389335 -0.296953,-0.453239 -0.748263,-0.780467 -1.045216,-1.233706 0.51655,-0.880837 0.736895,-2.074322 0.779404,-3.131368 -0.199831,0.550713 -0.493151,0.991749 -0.770238,1.379962 0.56501,-1.403227 0.136239,-2.331688 -0.343689,-3.502689 0.05238,0.554429 0.104757,1.10886 0.157136,1.663288 -0.445391,1.633045 -0.956351,1.826857 -1.940103,2.819481 -1.623569,0.403516 -4.111506,0.767958 -6.287717,-0.419403 z"
     id="path8191"
     style="fill:url(#radialGradient7057);fill-opacity:1;fill-rule:evenodd;stroke:#4b8748;stroke-width:0.75;stroke-linecap:butt;stroke-linejoin:miter;stroke-miterlimit:4;stroke-opacity:1;stroke-dasharray:none;display:inline" />
  <path
     inkscape:connector-curvature="0"
     d="m 16.027188,15.084412 c 0.107938,4.33908 3.816028,6.908865 7.252821,8.906909 1.943192,0.728948 3.695033,0.52947 5.694913,0.284164 1.235524,-2.527198 0.719072,-4.618429 -0.364996,-7.116001 -0.67554,-0.974332 -0.844216,-1.987415 -0.993165,-3.128459 -0.779439,0.727002 -0.371674,1.921205 -0.39006,2.947705 -0.466098,-1.743826 -1.547289,-3.188825 -2.491351,-4.701873 -0.701689,-2.635743 -3.307593,-4.2483481 -5.382073,-5.8073811 3.403989,5.3189411 4.212841,5.5905931 2.761002,11.9514531 -3.128514,1.134923 -5.124683,-0.446259 -6.087091,-3.336517 z"
     id="path27337"
     style="fill:url(#radialGradient7065);fill-opacity:1;fill-rule:evenodd;stroke:url(#linearGradient7067);stroke-width:0.75;stroke-linecap:butt;stroke-linejoin:miter;stroke-miterlimit:4;stroke-opacity:1;stroke-dasharray:none;display:inline" />
  <path
     inkscape:connector-curvature="0"
     d="m 12.859,11.613314 c 0.776784,2.957732 2.890643,5.366451 5.735267,6.513148 1.273654,0.269885 2.542932,0.529718 3.567683,0.227678 -0.242747,-1.880937 0.165015,-3.676631 0.327252,-5.733818 C 22.573042,10.847097 22.663952,9.27433 21.62141,7.8203379 20.016031,5.6543474 17.936929,4.8389693 15.518057,4.9922761 14.929039,5.814438 14.338877,6.5013369 13.891451,7.2082819 13.14654,8.385266 12.570929,10.354374 13.507657,11.622626 c 0.921654,0.861731 2.129325,1.772433 2.843301,1.878187 -1.082879,0.07372 -1.815803,-0.477379 -2.699912,-1.019725 C 13.38703,12.191831 13.123016,11.902571 12.859,11.613314 z"
     id="path24402"
     style="fill:url(#linearGradient7060);fill-opacity:1;fill-rule:evenodd;stroke:url(#linearGradient7062);stroke-width:0.75;stroke-linecap:butt;stroke-linejoin:miter;stroke-miterlimit:4;stroke-opacity:1;stroke-dasharray:none;display:inline" />
  <path
     inkscape:connector-curvature="0"
     d="m 35.947479,28.133122 c -1.578727,-0.648216 -5.226572,-2.45115 -6.243142,-3.085651 -0.759762,-0.474208 -1.21733,-0.587733 -1.971022,-0.489015 -0.689714,0.09034 -0.798449,0.06873 -0.365713,-0.07269 0.338716,-0.110688 0.606696,-0.256037 0.595512,-0.322998 -0.01119,-0.06696 -0.683049,-0.66504 -1.493034,-1.329066 -5.246732,-4.301271 -9.201449,-10.041967 -10.308747,-14.9642541 -0.211216,-0.938913 -0.284661,-1.404885 -0.163214,-1.035494 1.73131,5.2659121 3.616163,8.4896441 7.146532,12.2229871 2.083019,2.202781 5.355786,4.726836 5.79433,4.468761 0.208337,-0.122603 0.28557,-0.06399 0.236055,0.17915 -0.09005,0.44215 2.347092,1.922687 5.305137,3.222821 1.141034,0.501513 2.160535,1.057855 2.265556,1.236319 0.238275,0.404893 0.26562,0.405951 -0.79825,-0.03087 z"
     id="path24368"
     style="fill:#2a6a28;display:inline" />
</svg>
