<?xml version="1.0" encoding="UTF-8" standalone="no"?>
<!-- Created with Inkscape (http://www.inkscape.org/) -->

<svg
   xmlns:dc="http://purl.org/dc/elements/1.1/"
   xmlns:cc="http://creativecommons.org/ns#"
   xmlns:rdf="http://www.w3.org/1999/02/22-rdf-syntax-ns#"
   xmlns:svg="http://www.w3.org/2000/svg"
   xmlns="http://www.w3.org/2000/svg"
   xmlns:xlink="http://www.w3.org/1999/xlink"
   xmlns:sodipodi="http://sodipodi.sourceforge.net/DTD/sodipodi-0.dtd"
   xmlns:inkscape="http://www.inkscape.org/namespaces/inkscape"
   version="1.1"
   width="48"
   height="48"
   id="svg3933"
   inkscape:version="0.48.4 r9939"
   sodipodi:docname="application-vnd.oasis.opendocument.spreadsheet.svg">
  <sodipodi:namedview
     pagecolor="#ffffff"
     bordercolor="#666666"
     borderopacity="1"
     objecttolerance="10"
     gridtolerance="10"
     guidetolerance="10"
     inkscape:pageopacity="0"
     inkscape:pageshadow="2"
     inkscape:window-width="927"
     inkscape:window-height="1028"
     id="namedview37"
     showgrid="true"
     showguides="true"
     inkscape:guide-bbox="true"
     inkscape:zoom="18.666667"
     inkscape:cx="24"
     inkscape:cy="24"
     inkscape:window-x="65"
     inkscape:window-y="24"
     inkscape:window-maximized="0"
     inkscape:current-layer="layer1">
    <inkscape:grid
       type="xygrid"
       id="grid3053" />
  </sodipodi:namedview>
  <defs
     id="defs3935">
    <linearGradient
       x1="23.99999"
       y1="5.9417009"
       x2="23.99999"
       y2="42.093876"
       id="linearGradient3034"
       xlink:href="#linearGradient3874"
       gradientUnits="userSpaceOnUse"
       gradientTransform="matrix(0.89189189,0,0,1.1351351,2.5945999,-4.7432313)" />
    <linearGradient
       id="linearGradient3874">
      <stop
         id="stop3876"
         style="stop-color:#ffffff;stop-opacity:1"
         offset="0" />
      <stop
         id="stop3878"
         style="stop-color:#ffffff;stop-opacity:0.23529412"
         offset="0.00366048" />
      <stop
         id="stop3880"
         style="stop-color:#ffffff;stop-opacity:0.15686275"
         offset="0.99442554" />
      <stop
         id="stop3882"
         style="stop-color:#ffffff;stop-opacity:0.39215687"
         offset="1" />
    </linearGradient>
    <radialGradient
       cx="7.8060555"
       cy="9.9571075"
       r="12.671875"
       fx="7.2758255"
       fy="9.9571075"
       id="radialGradient3037"
       xlink:href="#linearGradient2867-449-88-871-390-598-476-591-434-148-57-177-8-3"
       gradientUnits="userSpaceOnUse"
       gradientTransform="matrix(-1.6167311e-7,6.6018651,-8.0922115,-1.9817022e-7,161.50629,-59.988587)" />
    <linearGradient
       id="linearGradient2867-449-88-871-390-598-476-591-434-148-57-177-8-3">
      <stop
         id="stop3750-1-0"
         style="stop-color:#90dbec;stop-opacity:1"
         offset="0" />
      <stop
         id="stop3752-3-7"
         style="stop-color:#55c1ec;stop-opacity:1"
         offset="0.26238" />
      <stop
         id="stop3754-1-8"
         style="stop-color:#3689e6;stop-opacity:1"
         offset="0.704952" />
      <stop
         id="stop3756-1-6"
         style="stop-color:#2b63a0;stop-opacity:1"
         offset="1" />
    </linearGradient>
    <radialGradient
       cx="605.71429"
       cy="486.64789"
       r="117.14286"
       fx="605.71429"
       fy="486.64789"
       id="radialGradient3042"
       xlink:href="#linearGradient5060"
       gradientUnits="userSpaceOnUse"
       gradientTransform="matrix(0.02303995,0,0,0.01470022,25.61283,44.645371)" />
    <linearGradient
       id="linearGradient5060">
      <stop
         id="stop5062"
         style="stop-color:#000000;stop-opacity:1"
         offset="0" />
      <stop
         id="stop5064"
         style="stop-color:#000000;stop-opacity:0"
         offset="1" />
    </linearGradient>
    <radialGradient
       cx="605.71429"
       cy="486.64789"
       r="117.14286"
       fx="605.71429"
       fy="486.64789"
       id="radialGradient3045"
       xlink:href="#linearGradient5060"
       gradientUnits="userSpaceOnUse"
       gradientTransform="matrix(-0.02303994,0,0,0.01470022,20.875058,44.645371)" />
    <linearGradient
       id="linearGradient5048">
      <stop
         id="stop5050"
         style="stop-color:#000000;stop-opacity:0"
         offset="0" />
      <stop
         id="stop5056"
         style="stop-color:#000000;stop-opacity:1"
         offset="0.5" />
      <stop
         id="stop5052"
         style="stop-color:#000000;stop-opacity:0"
         offset="1" />
    </linearGradient>
    <linearGradient
       x1="302.85715"
       y1="366.64789"
       x2="302.85715"
       y2="609.50507"
       id="linearGradient3931"
       xlink:href="#linearGradient5048"
       gradientUnits="userSpaceOnUse"
       gradientTransform="matrix(0.06732488,0,0,0.01470022,-1.089191,44.645341)" />
    <linearGradient
       y2="43"
       x2="23.99999"
       y1="5.5641499"
       x1="23.99999"
       gradientTransform="matrix(0.87240719,0,0,1.105499,-74.736116,-18.883562)"
       gradientUnits="userSpaceOnUse"
       id="linearGradient4059-0"
       xlink:href="#linearGradient3977-6-8-7"
       inkscape:collect="always" />
    <linearGradient
       id="linearGradient3977-6-8-7">
      <stop
         id="stop3979-6-9-8"
         style="stop-color:#ffffff;stop-opacity:1"
         offset="0" />
      <stop
         id="stop3981-0-0-9"
         style="stop-color:#ffffff;stop-opacity:0.23529412"
         offset="0.03626217" />
      <stop
         id="stop3983-6-7-3"
         style="stop-color:#ffffff;stop-opacity:0.15686275"
         offset="0.95056331" />
      <stop
         id="stop3985-0-4-3"
         style="stop-color:#ffffff;stop-opacity:0.39215687"
         offset="1" />
    </linearGradient>
    <radialGradient
       inkscape:collect="always"
       xlink:href="#linearGradient4032-5"
       id="radialGradient4257"
       gradientUnits="userSpaceOnUse"
       gradientTransform="matrix(7.0126162e-8,4.4377892,-4.3316226,5.1553379e-8,2.9041138,-93.325255)"
       cx="19.556362"
       cy="-3.8301377"
       fx="19.556362"
       fy="-3.8301377"
       r="18.246725" />
    <linearGradient
       id="linearGradient4032-5">
      <stop
         offset="0"
         style="stop-color:#bdff69;stop-opacity:1;"
         id="stop4034-1" />
      <stop
         offset="0.32352942"
         style="stop-color:#8ed451;stop-opacity:1;"
         id="stop4036-2" />
      <stop
         offset="0.83823526"
         style="stop-color:#58aa30;stop-opacity:1;"
         id="stop4038-2" />
      <stop
         offset="1"
         style="stop-color:#2a6c1f;stop-opacity:1;"
         id="stop4040-7" />
    </linearGradient>
    <radialGradient
       r="18.246725"
       fy="-3.8301377"
       fx="19.556362"
       cy="-3.8301377"
       cx="19.556362"
       gradientTransform="matrix(7.275981e-8,4.5375131,-4.4943004,5.2711862e-8,2.7856673,-96.849685)"
       gradientUnits="userSpaceOnUse"
       id="radialGradient3244"
       xlink:href="#linearGradient4032-5"
       inkscape:collect="always" />
    <linearGradient
       x1="23.99999"
       y1="5.9417009"
       x2="23.99999"
       y2="42.093876"
       id="linearGradient3034-5"
       xlink:href="#linearGradient3874-3"
       gradientUnits="userSpaceOnUse"
       gradientTransform="matrix(0.89189189,0,0,1.1351351,2.5945999,-4.7432313)" />
    <linearGradient
       id="linearGradient3874-3">
      <stop
         id="stop3876-0"
         style="stop-color:#ffffff;stop-opacity:1"
         offset="0" />
      <stop
         id="stop3878-2"
         style="stop-color:#ffffff;stop-opacity:0.23529412"
         offset="0.00366048" />
      <stop
         id="stop3880-5"
         style="stop-color:#ffffff;stop-opacity:0.15686275"
         offset="0.99442554" />
      <stop
         id="stop3882-2"
         style="stop-color:#ffffff;stop-opacity:0.39215687"
         offset="1" />
    </linearGradient>
    <radialGradient
       inkscape:collect="always"
       xlink:href="#linearGradient2867-449-88-871-390-598-476-591-434-148-57-177-8-3-7"
       id="radialGradient4367"
       gradientUnits="userSpaceOnUse"
       gradientTransform="matrix(7.2759681e-8,4.5321663,-4.4942924,5.2649749e-8,2.7853768,-96.778535)"
       cx="19.556362"
       cy="-3.8301377"
       fx="19.556362"
       fy="-3.8301377"
       r="18.246725" />
    <linearGradient
       x1="23.99999"
       y1="5.5641499"
       x2="23.99999"
       y2="43"
       id="linearGradient3988"
       xlink:href="#linearGradient3977"
       gradientUnits="userSpaceOnUse"
       gradientTransform="matrix(0.89189189,0,0,1.1351351,2.5945999,-4.7432314)" />
    <linearGradient
       id="linearGradient3977">
      <stop
         id="stop3979"
         style="stop-color:#ffffff;stop-opacity:1"
         offset="0" />
      <stop
         id="stop3981"
         style="stop-color:#ffffff;stop-opacity:0.23529412"
         offset="0.03626217" />
      <stop
         id="stop3983"
         style="stop-color:#ffffff;stop-opacity:0.15686275"
         offset="0.95056331" />
      <stop
         id="stop3985"
         style="stop-color:#ffffff;stop-opacity:0.39215687"
         offset="1" />
    </linearGradient>
    <linearGradient
       y2="43"
       x2="23.99999"
       y1="5.5641499"
       x1="23.99999"
       gradientTransform="matrix(0.89189031,0,0,1.1337975,2.5943098,-4.6837307)"
       gradientUnits="userSpaceOnUse"
       id="linearGradient4386"
       xlink:href="#linearGradient3977"
       inkscape:collect="always" />
    <radialGradient
       cx="605.71429"
       cy="486.64789"
       r="117.14286"
       fx="605.71429"
       fy="486.64789"
       id="radialGradient3327"
       xlink:href="#linearGradient5060-4"
       gradientUnits="userSpaceOnUse"
       gradientTransform="matrix(0.02303991,0,0,0.01468289,26.360081,37.050442)" />
    <linearGradient
       id="linearGradient5060-4">
      <stop
         id="stop5062-5"
         style="stop-color:#000000;stop-opacity:1"
         offset="0" />
      <stop
         id="stop5064-7"
         style="stop-color:#000000;stop-opacity:0"
         offset="1" />
    </linearGradient>
    <radialGradient
       cx="605.71429"
       cy="486.64789"
       r="117.14286"
       fx="605.71429"
       fy="486.64789"
       id="radialGradient3330"
       xlink:href="#linearGradient5060-4"
       gradientUnits="userSpaceOnUse"
       gradientTransform="matrix(-0.0230399,0,0,0.01468289,21.622318,37.050442)" />
    <linearGradient
       id="linearGradient4424">
      <stop
         id="stop4426"
         style="stop-color:#000000;stop-opacity:1"
         offset="0" />
      <stop
         id="stop4428"
         style="stop-color:#000000;stop-opacity:0"
         offset="1" />
    </linearGradient>
    <linearGradient
       x1="302.85715"
       y1="366.64789"
       x2="302.85715"
       y2="609.50507"
       id="linearGradient3100"
       xlink:href="#linearGradient5048-9"
       gradientUnits="userSpaceOnUse"
       gradientTransform="matrix(0.06732488,0,0,0.01470022,-0.3411391,37.040146)" />
    <linearGradient
       id="linearGradient5048-9">
      <stop
         id="stop5050-4"
         style="stop-color:#000000;stop-opacity:0"
         offset="0" />
      <stop
         id="stop5056-8"
         style="stop-color:#000000;stop-opacity:1"
         offset="0.5" />
      <stop
         id="stop5052-3"
         style="stop-color:#000000;stop-opacity:0"
         offset="1" />
    </linearGradient>
    <linearGradient
       y2="609.50507"
       x2="302.85715"
       y1="366.64789"
       x1="302.85715"
       gradientTransform="matrix(0.06732476,0,0,0.01468289,-0.34189201,37.050412)"
       gradientUnits="userSpaceOnUse"
       id="linearGradient4438"
       xlink:href="#linearGradient5048-9"
       inkscape:collect="always" />
    <linearGradient
       x1="23.99999"
       y1="5.5641499"
       x2="23.99999"
       y2="43"
       id="linearGradient3988-3"
       xlink:href="#linearGradient3977-9"
       gradientUnits="userSpaceOnUse"
       gradientTransform="matrix(0.89189189,0,0,1.1351351,2.5920025,-4.7068674)" />
    <linearGradient
       id="linearGradient3977-9">
      <stop
         id="stop3979-1"
         style="stop-color:#ffffff;stop-opacity:1"
         offset="0" />
      <stop
         id="stop3981-8"
         style="stop-color:#ffffff;stop-opacity:0.23529412"
         offset="0.03626217" />
      <stop
         id="stop3983-5"
         style="stop-color:#ffffff;stop-opacity:0.15686275"
         offset="0.95056331" />
      <stop
         id="stop3985-4"
         style="stop-color:#ffffff;stop-opacity:0.39215687"
         offset="1" />
    </linearGradient>
    <radialGradient
       cx="7.8060555"
       cy="9.9571075"
       r="12.671875"
       fx="7.2758255"
       fy="9.9571075"
       id="radialGradient4304"
       xlink:href="#linearGradient2867-449-88-871-390-598-476-591-434-148-57-177-8-3-0"
       gradientUnits="userSpaceOnUse"
       gradientTransform="matrix(-1.6167311e-7,6.6018651,-8.0922115,-1.9817022e-7,197.43864,-60.072946)" />
    <linearGradient
       id="linearGradient2867-449-88-871-390-598-476-591-434-148-57-177-8-3-0">
      <stop
         id="stop3750-1-0-7"
         style="stop-color:#bdff69;stop-opacity:1;"
         offset="0" />
      <stop
         id="stop3752-3-7-5"
         style="stop-color:#8ed451;stop-opacity:1;"
         offset="0.26238" />
      <stop
         id="stop3754-1-8-3"
         style="stop-color:#58aa30;stop-opacity:1;"
         offset="0.704952" />
      <stop
         id="stop3756-1-6-5"
         style="stop-color:#2a6c1f;stop-opacity:1;"
         offset="1" />
    </linearGradient>
    <linearGradient
       x1="25"
       y1="44.2915"
       x2="25"
       y2="0.57054341"
       id="linearGradient4306"
       xlink:href="#linearGradient4039"
       gradientUnits="userSpaceOnUse"
       gradientTransform="translate(92.874353,-4.6076e-4)" />
    <linearGradient
       id="linearGradient4039">
      <stop
         id="stop4041"
         style="stop-color:#126400;stop-opacity:1;"
         offset="0" />
      <stop
         id="stop4043"
         style="stop-color:#48bc2e;stop-opacity:1;"
         offset="1" />
    </linearGradient>
    <radialGradient
       cx="605.71429"
       cy="486.64789"
       r="117.14286"
       fx="605.71429"
       fy="486.64789"
       id="radialGradient3327-6"
       xlink:href="#linearGradient5060-0"
       gradientUnits="userSpaceOnUse"
       gradientTransform="matrix(0.02303995,0,0,0.01470022,26.358285,37.07654)" />
    <linearGradient
       id="linearGradient5060-0">
      <stop
         id="stop5062-2"
         style="stop-color:#000000;stop-opacity:1"
         offset="0" />
      <stop
         id="stop5064-1"
         style="stop-color:#000000;stop-opacity:0"
         offset="1" />
    </linearGradient>
    <radialGradient
       cx="605.71429"
       cy="486.64789"
       r="117.14286"
       fx="605.71429"
       fy="486.64789"
       id="radialGradient3330-2"
       xlink:href="#linearGradient5060-0"
       gradientUnits="userSpaceOnUse"
       gradientTransform="matrix(-0.02303994,0,0,0.01470022,21.620513,37.07654)" />
    <linearGradient
       id="linearGradient4547">
      <stop
         id="stop4549"
         style="stop-color:#000000;stop-opacity:1"
         offset="0" />
      <stop
         id="stop4551"
         style="stop-color:#000000;stop-opacity:0"
         offset="1" />
    </linearGradient>
    <linearGradient
       x1="302.85715"
       y1="366.64789"
       x2="302.85715"
       y2="609.50507"
       id="linearGradient3100-9"
       xlink:href="#linearGradient5048-8"
       gradientUnits="userSpaceOnUse"
       gradientTransform="matrix(0.06732488,0,0,0.01470022,-0.3411391,37.040146)" />
    <linearGradient
       id="linearGradient5048-8">
      <stop
         id="stop5050-0"
         style="stop-color:#000000;stop-opacity:0"
         offset="0" />
      <stop
         id="stop5056-3"
         style="stop-color:#000000;stop-opacity:1"
         offset="0.5" />
      <stop
         id="stop5052-2"
         style="stop-color:#000000;stop-opacity:0"
         offset="1" />
    </linearGradient>
    <linearGradient
       y2="609.50507"
       x2="302.85715"
       y1="366.64789"
       x1="302.85715"
       gradientTransform="matrix(0.06732488,0,0,0.01470022,-0.3437365,37.07651)"
       gradientUnits="userSpaceOnUse"
       id="linearGradient4567"
       xlink:href="#linearGradient5048-8"
       inkscape:collect="always" />
    <radialGradient
       cx="7.8060555"
       cy="9.9571075"
       r="12.671875"
       fx="7.2758255"
       fy="9.9571075"
       id="radialGradient4304-9"
       xlink:href="#linearGradient2867-449-88-871-390-598-476-591-434-148-57-177-8-3-4"
       gradientUnits="userSpaceOnUse"
       gradientTransform="matrix(-1.6167311e-7,6.6018651,-8.0922115,-1.9817022e-7,197.43864,-60.072946)" />
    <linearGradient
       id="linearGradient2867-449-88-871-390-598-476-591-434-148-57-177-8-3-4">
      <stop
         id="stop3750-1-0-0"
         style="stop-color:#bdff69;stop-opacity:1;"
         offset="0" />
      <stop
         id="stop3752-3-7-4"
         style="stop-color:#8ed451;stop-opacity:1;"
         offset="0.26238" />
      <stop
         id="stop3754-1-8-33"
         style="stop-color:#58aa30;stop-opacity:1;"
         offset="0.704952" />
      <stop
         id="stop3756-1-6-3"
         style="stop-color:#2a6c1f;stop-opacity:1;"
         offset="1" />
    </linearGradient>
    <linearGradient
       x1="25"
       y1="44.2915"
       x2="25"
       y2="0.57054341"
       id="linearGradient4306-1"
       xlink:href="#linearGradient4039-9"
       gradientUnits="userSpaceOnUse"
       gradientTransform="translate(92.874353,-4.6076e-4)" />
    <linearGradient
       id="linearGradient4039-9">
      <stop
         id="stop4041-5"
         style="stop-color:#126400;stop-opacity:1;"
         offset="0" />
      <stop
         id="stop4043-8"
         style="stop-color:#48bc2e;stop-opacity:1;"
         offset="1" />
    </linearGradient>
    <linearGradient
       inkscape:collect="always"
       xlink:href="#linearGradient3707-319-631-407-324-3-8"
       id="linearGradient4771"
       x1="25"
       y1="43"
       x2="25"
       y2="0.11503056"
       gradientUnits="userSpaceOnUse" />
    <radialGradient
       cx="7.8060555"
       cy="9.9571075"
       r="12.671875"
       fx="7.2758255"
       fy="9.9571075"
       id="radialGradient3060-0-4"
       xlink:href="#linearGradient2867-449-88-871-390-598-476-591-434-148-57-177-8-3-7"
       gradientUnits="userSpaceOnUse"
       gradientTransform="matrix(-1.6167311e-7,6.6018651,-8.0922115,-1.9817022e-7,104.56429,-60.072946)" />
    <linearGradient
       id="linearGradient2867-449-88-871-390-598-476-591-434-148-57-177-8-3-7">
      <stop
         id="stop3750-1-0-5"
         style="stop-color:#90dbec;stop-opacity:1"
         offset="0" />
      <stop
         id="stop3752-3-7-3"
         style="stop-color:#55c1ec;stop-opacity:1"
         offset="0.26238" />
      <stop
         id="stop3754-1-8-9"
         style="stop-color:#3689e6;stop-opacity:1"
         offset="0.704952" />
      <stop
         id="stop3756-1-6-2"
         style="stop-color:#2b63a0;stop-opacity:1"
         offset="1" />
    </linearGradient>
    <linearGradient
       x1="25"
       y1="47.935162"
       x2="25"
       y2="0.91790956"
       id="linearGradient3062-0-8"
       xlink:href="#linearGradient3707-319-631-407-324-3-8"
       gradientUnits="userSpaceOnUse"
       gradientTransform="translate(0,-4.6076e-4)" />
    <linearGradient
       id="linearGradient3707-319-631-407-324-3-8">
      <stop
         id="stop3760-4-4"
         style="stop-color:#185f9a;stop-opacity:1"
         offset="0" />
      <stop
         id="stop3762-0-3"
         style="stop-color:#599ec9;stop-opacity:1"
         offset="1" />
    </linearGradient>
    <radialGradient
       r="12.671875"
       fy="9.9571075"
       fx="7.2758255"
       cy="9.9571075"
       cx="7.8060555"
       gradientTransform="matrix(-1.6167311e-7,6.6018651,-8.0922115,-1.9817022e-7,152.13572,-63.251517)"
       gradientUnits="userSpaceOnUse"
       id="radialGradient3037-1"
       xlink:href="#linearGradient2867-449-88-871-390-598-476-591-434-148-57-177-8-3-7"
       inkscape:collect="always" />
    <linearGradient
       y2="0.91790956"
       x2="25"
       y1="47.935162"
       x1="25"
       gradientTransform="translate(47.571428,-3.1790322)"
       gradientUnits="userSpaceOnUse"
       id="linearGradient3039"
       xlink:href="#linearGradient3707-319-631-407-324-3-8"
       inkscape:collect="always" />
  </defs>
  <metadata
     id="metadata3938">
    <rdf:RDF>
      <cc:Work
         rdf:about="">
        <dc:format>image/svg+xml</dc:format>
        <dc:type
           rdf:resource="http://purl.org/dc/dcmitype/StillImage" />
        <dc:title></dc:title>
      </cc:Work>
    </rdf:RDF>
  </metadata>
  <g
     id="layer1">
    <rect
       width="32.508247"
       height="3.565846"
       x="7.7370806"
       y="42.433853"
       id="rect2879"
       style="opacity:0.3;fill:url(#linearGradient4438);fill-opacity:1;fill-rule:nonzero;stroke:none;stroke-width:1;marker:none;visibility:visible;display:inline;overflow:visible" />
    <path
       d="m 7.7370802,42.434016 c 0,0 0,3.565649 0,3.565649 -1.1864981,0.0067 -2.8683744,-0.798881 -2.8683744,-1.783054 0,-0.984172 1.3240423,-1.782594 2.8683744,-1.782595 z"
       inkscape:connector-curvature="0"
       id="path2881"
       style="opacity:0.3;fill:url(#radialGradient3330);fill-opacity:1;fill-rule:nonzero;stroke:none;stroke-width:1;marker:none;visibility:visible;display:inline;overflow:visible" />
    <path
       d="m 40.245323,42.434016 c 0,0 0,3.565649 0,3.565649 1.186498,0.0067 2.868374,-0.798881 2.868374,-1.783054 0,-0.984172 -1.324042,-1.782594 -2.868374,-1.782595 z"
       inkscape:connector-curvature="0"
       id="path2883"
       style="opacity:0.3;fill:url(#radialGradient3327);fill-opacity:1;fill-rule:nonzero;stroke:none;stroke-width:1;marker:none;visibility:visible;display:inline;overflow:visible" />
    <path
       d="m 6.5258981,0.49639648 c 3.5068989,0 9.4737529,0.0307401 9.4737529,0.0307401 l 9.000171,-0.0153292 7.271233,7.31354382 9.173597,9.2480608 0.05499,27.431058 c 0,0 -23.333291,0 -34.9999382,0 0,-14.643672 0.02623,-29.364406 0.02623,-44.00807966 z"
       id="path4160-3"
       style="fill:url(#radialGradient4367);fill-opacity:1.0;stroke:url(#linearGradient4771);stroke-width:0.99940974000000005;stroke-linecap:round;stroke-linejoin:round;stroke-miterlimit:4;stroke-opacity:1;stroke-dasharray:none;display:inline"
       inkscape:connector-curvature="0"
       sodipodi:nodetypes="cccccccc" />
    <path
       sodipodi:nodetypes="ccccccc"
       id="path4572"
       d="m 31.522991,0.53848558 7.164051,7.26424022 2.760359,2.7989552 0,-2.2362581 -0.01558,-5.6218017 c -0.0089,-2.019363 0.0014,-2.21792902 0.0014,-2.21792902 z"
       style="color:#000000;fill:#185f9a;fill-opacity:1;stroke:#185f9a;stroke-width:0.99898480999999995;stroke-linecap:round;stroke-linejoin:round;stroke-miterlimit:4;stroke-opacity:1;stroke-dasharray:none;stroke-dashoffset:0;marker:none;visibility:visible;display:inline;overflow:visible;enable-background:accumulate"
       inkscape:connector-curvature="0" />
    <path
       d="m 40.499642,43.502652 -32.9999409,0 0,-41.9505075 17.1287719,0.01894 6.939738,7.0122272 8.89355,8.8889539 z"
       inkscape:connector-curvature="0"
       id="rect6741-1"
       style="opacity:0.5;fill:none;stroke:url(#linearGradient4386);stroke-width:0.99940974;stroke-linecap:round;stroke-linejoin:round;stroke-miterlimit:4;stroke-opacity:1;stroke-dasharray:none;stroke-dashoffset:0"
       sodipodi:nodetypes="ccccccc" />
    <path
       inkscape:connector-curvature="0"
       d="m 25.154618,14.244701 -10.64577,1.878666 a 0.60759511,0.60759511 0 0 0 -0.508806,0.606652 l 0,13.77688 a 0.60759511,0.60759511 0 0 0 0.508806,0.606652 l 10.64577,1.878665 a 0.60759511,0.60759511 0 0 0 0.7045,-0.606651 l 0,-1.272014 a 0.60759511,0.60759511 0 0 0 0.01957,0 l 7.514662,0 a 0.60759511,0.60759511 0 0 0 0.606653,-0.606652 l 0,-13.77688 A 0.60759511,0.60759511 0 0 0 33.39335,16.123367 l -7.514662,0 a 0.60759511,0.60759511 0 0 0 -0.01957,0 l 0,-1.272014 a 0.60759511,0.60759511 0 0 0 -0.7045,-0.606652 z m -5.283747,6.947148 c 0.04643,-0.0094 0.03526,0.0023 0.09785,0 0.02394,0.108495 0.04565,0.234382 0.07828,0.391389 0.04676,0.225019 0.09984,0.550242 0.156556,0.841485 -0.03487,-0.07072 -0.04544,-0.162996 -0.332681,-0.215264 -0.09866,-0.01795 -0.18855,0.04042 -0.293542,0.07828 0.06112,-0.264017 0.142021,-0.564755 0.195695,-0.763208 0.03944,-0.145834 0.06817,-0.240743 0.09785,-0.33268 z m 1.135028,4.16829 c 0.04464,0.06015 0.0695,0.117068 0.234833,0.176125 0.146958,0.05249 0.313451,-0.04404 0.469666,-0.117418 l -0.195694,0.919764 -0.156555,0 c -0.06235,0 -0.100243,0.0013 -0.156556,0 -0.01467,-0.06978 -0.02151,-0.11141 -0.03914,-0.195695 -0.04221,-0.201822 -0.101285,-0.516496 -0.156555,-0.782776 z m -2.876707,0.07827 c 0.04439,0.02488 0.09778,0.0587 0.09785,0.05871 1.83e-4,4.4e-5 0.332472,-0.0195 0.33268,-0.01957 2.5e-5,-8e-6 0.01488,-0.01699 0.01957,-0.01957 l -0.136986,0.72407 -0.05871,0 -0.117417,0 -0.136986,-0.743639 z"
       id="path4138"
       style="opacity:0.15;color:#000000;fill:#0974ae;fill-opacity:1;fill-rule:nonzero;stroke:none;stroke-width:1;marker:none;visibility:visible;display:inline;overflow:visible;enable-background:accumulate" />
    <path
       inkscape:connector-curvature="0"
       d="m 25.252466,14.851353 -10.645772,1.878666 0,13.77688 10.645772,1.878666 0,-17.534212 z m 0.626221,1.878666 0,1.878666 5.635996,0 0,0.626221 -5.635996,0 0,1.252444 5.635996,0 0,0.626222 -5.635996,0 0,1.252443 5.635996,0 0,0.626222 -5.635996,0 0,1.252444 5.635996,0 0,0.626221 -5.635996,0 0,1.252444 5.635996,0 0,0.626222 -5.635996,0 0,1.252444 5.635996,0 0,0.626221 -5.635996,0 0,1.878666 7.514662,0 0,-13.77688 -7.514662,0 z m -3.679053,3.698622 0.606653,0 c 0.556408,0 0.591633,0.03721 0.528374,0.313112 -0.03766,0.164264 -0.35632,1.624134 -0.704499,3.248525 l -0.626223,2.954985 -0.64579,0 c -0.352137,0 -0.639044,-0.02089 -0.645791,-0.03914 -0.0068,-0.01826 -0.20902,-0.984537 -0.450098,-2.152638 -0.241077,-1.168103 -0.469728,-2.046883 -0.508805,-1.937374 -0.03908,0.10951 -0.244661,1.069885 -0.450097,2.113499 l -0.371819,1.898234 -0.587083,-0.03914 -0.606653,-0.03914 -0.489235,-2.602734 c -0.272966,-1.423624 -0.530619,-2.742244 -0.567514,-2.935414 -0.06105,-0.319598 -0.01922,-0.360738 0.410958,-0.410959 0.599373,-0.06997 0.625033,-0.0081 0.978472,2.289624 0.150993,0.981609 0.273058,1.799476 0.293542,1.819957 0.02048,0.02048 0.235678,-0.910341 0.469666,-2.054791 0.233988,-1.144449 0.496881,-2.114914 0.587083,-2.172206 0.259604,-0.164889 0.988844,-0.124004 1.056749,0.05871 0.03392,0.09126 0.24437,1.078429 0.450097,2.191776 0.344195,1.862702 0.58604,2.541129 0.587083,1.643832 3.99e-4,-0.358371 0.27525,-2.069486 0.547944,-3.44422 l 0.136986,-0.7045 z"
       id="rect3139-6"
       style="opacity:0.3;color:#000000;fill:#0935ae;fill-opacity:1;fill-rule:nonzero;stroke:none;stroke-width:1;marker:none;visibility:visible;display:inline;overflow:visible;enable-background:accumulate" />
    <path
       inkscape:connector-curvature="0"
       d="m 25.252466,14.225132 -10.645772,1.878665 0,13.77688 10.645772,1.878665 0,-17.53421 z m 0.626221,1.878665 0,1.878665 5.635996,0 0,0.626223 -5.635996,0 0,1.252443 5.635996,0 0,0.626222 -5.635996,0 0,1.252443 5.635996,0 0,0.626222 -5.635996,0 0,1.252444 5.635996,0 0,0.626222 -5.635996,0 0,1.252444 5.635996,0 0,0.626221 -5.635996,0 0,1.252444 5.635996,0 0,0.626222 -5.635996,0 0,1.878665 7.514662,0 0,-13.77688 -7.514662,0 z m -3.679053,3.698623 0.606653,0 c 0.556408,0 0.591633,0.03721 0.528374,0.31311 -0.03766,0.164265 -0.35632,1.624134 -0.704499,3.248526 l -0.626223,2.954984 -0.64579,0 c -0.352137,0 -0.639044,-0.02089 -0.645791,-0.03914 -0.0068,-0.01825 -0.20902,-0.984535 -0.450098,-2.152637 -0.241077,-1.168102 -0.469728,-2.046883 -0.508805,-1.937374 -0.03908,0.10951 -0.244661,1.069885 -0.450097,2.113498 l -0.371819,1.898236 -0.587083,-0.03914 -0.606653,-0.03914 -0.489235,-2.602734 c -0.272966,-1.423625 -0.530619,-2.742245 -0.567514,-2.935416 -0.06105,-0.319596 -0.01922,-0.360737 0.410958,-0.410958 0.599373,-0.06997 0.625033,-0.0081 0.978472,2.289624 0.150993,0.981609 0.273058,1.799476 0.293542,1.819957 0.02048,0.02048 0.235678,-0.910341 0.469666,-2.05479 0.233988,-1.144449 0.496881,-2.114914 0.587083,-2.172207 0.259604,-0.164889 0.988844,-0.124005 1.056749,0.05871 0.03392,0.09126 0.24437,1.078429 0.450097,2.191777 0.344195,1.862701 0.58604,2.541129 0.587083,1.643832 3.99e-4,-0.358371 0.27525,-2.069487 0.547944,-3.44422 l 0.136986,-0.704499 z"
       id="rect3139"
       style="color:#000000;fill:#ffffff;fill-opacity:1;fill-rule:nonzero;stroke:none;stroke-width:0.99999994;marker:none;visibility:visible;display:inline;overflow:visible;enable-background:accumulate" />
  </g>
</svg>
