<?xml version="1.0" encoding="UTF-8" standalone="no"?>
<!-- Created with Inkscape (http://www.inkscape.org/) -->

<svg
   xmlns:dc="http://purl.org/dc/elements/1.1/"
   xmlns:cc="http://creativecommons.org/ns#"
   xmlns:rdf="http://www.w3.org/1999/02/22-rdf-syntax-ns#"
   xmlns:svg="http://www.w3.org/2000/svg"
   xmlns="http://www.w3.org/2000/svg"
   xmlns:xlink="http://www.w3.org/1999/xlink"
   xmlns:sodipodi="http://sodipodi.sourceforge.net/DTD/sodipodi-0.dtd"
   xmlns:inkscape="http://www.inkscape.org/namespaces/inkscape"
   version="1.1"
   width="48"
   height="48"
   id="svg3933"
   inkscape:version="0.48.4 r9939"
   sodipodi:docname="libreoffice-oasis-formula.svg">
  <sodipodi:namedview
     pagecolor="#ffffff"
     bordercolor="#666666"
     borderopacity="1"
     objecttolerance="10"
     gridtolerance="10"
     guidetolerance="10"
     inkscape:pageopacity="0"
     inkscape:pageshadow="2"
     inkscape:window-width="1670"
     inkscape:window-height="1028"
     id="namedview37"
     showgrid="true"
     showguides="true"
     inkscape:guide-bbox="true"
     inkscape:zoom="19.477068"
     inkscape:cx="12.842083"
     inkscape:cy="25.001702"
     inkscape:window-x="65"
     inkscape:window-y="24"
     inkscape:window-maximized="0"
     inkscape:current-layer="layer1"
     inkscape:snap-global="false">
    <inkscape:grid
       type="xygrid"
       id="grid3053" />
  </sodipodi:namedview>
  <defs
     id="defs3935">
    <linearGradient
       x1="23.99999"
       y1="5.9417009"
       x2="23.99999"
       y2="42.093876"
       id="linearGradient3034"
       xlink:href="#linearGradient3874"
       gradientUnits="userSpaceOnUse"
       gradientTransform="matrix(0.89189189,0,0,1.1351351,2.5945999,-4.7432313)" />
    <linearGradient
       id="linearGradient3874">
      <stop
         id="stop3876"
         style="stop-color:#ffffff;stop-opacity:1"
         offset="0" />
      <stop
         id="stop3878"
         style="stop-color:#ffffff;stop-opacity:0.23529412"
         offset="0.00366048" />
      <stop
         id="stop3880"
         style="stop-color:#ffffff;stop-opacity:0.15686275"
         offset="0.99442554" />
      <stop
         id="stop3882"
         style="stop-color:#ffffff;stop-opacity:0.39215687"
         offset="1" />
    </linearGradient>
    <radialGradient
       cx="7.8060555"
       cy="9.9571075"
       r="12.671875"
       fx="7.2758255"
       fy="9.9571075"
       id="radialGradient3037"
       xlink:href="#linearGradient2867-449-88-871-390-598-476-591-434-148-57-177-8-3"
       gradientUnits="userSpaceOnUse"
       gradientTransform="matrix(-1.6167311e-7,6.6018651,-8.0922115,-1.9817022e-7,161.50629,-59.988587)" />
    <linearGradient
       id="linearGradient2867-449-88-871-390-598-476-591-434-148-57-177-8-3">
      <stop
         id="stop3750-1-0"
         style="stop-color:#90dbec;stop-opacity:1"
         offset="0" />
      <stop
         id="stop3752-3-7"
         style="stop-color:#55c1ec;stop-opacity:1"
         offset="0.26238" />
      <stop
         id="stop3754-1-8"
         style="stop-color:#3689e6;stop-opacity:1"
         offset="0.704952" />
      <stop
         id="stop3756-1-6"
         style="stop-color:#2b63a0;stop-opacity:1"
         offset="1" />
    </linearGradient>
    <radialGradient
       cx="605.71429"
       cy="486.64789"
       r="117.14286"
       fx="605.71429"
       fy="486.64789"
       id="radialGradient3042"
       xlink:href="#linearGradient5060"
       gradientUnits="userSpaceOnUse"
       gradientTransform="matrix(0.02303995,0,0,0.01470022,25.61283,44.645371)" />
    <linearGradient
       id="linearGradient5060">
      <stop
         id="stop5062"
         style="stop-color:#000000;stop-opacity:1"
         offset="0" />
      <stop
         id="stop5064"
         style="stop-color:#000000;stop-opacity:0"
         offset="1" />
    </linearGradient>
    <radialGradient
       cx="605.71429"
       cy="486.64789"
       r="117.14286"
       fx="605.71429"
       fy="486.64789"
       id="radialGradient3045"
       xlink:href="#linearGradient5060"
       gradientUnits="userSpaceOnUse"
       gradientTransform="matrix(-0.02303994,0,0,0.01470022,20.875058,44.645371)" />
    <linearGradient
       id="linearGradient5048">
      <stop
         id="stop5050"
         style="stop-color:#000000;stop-opacity:0"
         offset="0" />
      <stop
         id="stop5056"
         style="stop-color:#000000;stop-opacity:1"
         offset="0.5" />
      <stop
         id="stop5052"
         style="stop-color:#000000;stop-opacity:0"
         offset="1" />
    </linearGradient>
    <linearGradient
       x1="302.85715"
       y1="366.64789"
       x2="302.85715"
       y2="609.50507"
       id="linearGradient3931"
       xlink:href="#linearGradient5048"
       gradientUnits="userSpaceOnUse"
       gradientTransform="matrix(0.06732488,0,0,0.01470022,-1.089191,44.645341)" />
    <linearGradient
       y2="43"
       x2="23.99999"
       y1="5.5641499"
       x1="23.99999"
       gradientTransform="matrix(0.87240719,0,0,1.105499,-74.736116,-18.883562)"
       gradientUnits="userSpaceOnUse"
       id="linearGradient4059-0"
       xlink:href="#linearGradient3977-6-8-7"
       inkscape:collect="always" />
    <linearGradient
       id="linearGradient3977-6-8-7">
      <stop
         id="stop3979-6-9-8"
         style="stop-color:#ffffff;stop-opacity:1"
         offset="0" />
      <stop
         id="stop3981-0-0-9"
         style="stop-color:#ffffff;stop-opacity:0.23529412"
         offset="0.03626217" />
      <stop
         id="stop3983-6-7-3"
         style="stop-color:#ffffff;stop-opacity:0.15686275"
         offset="0.95056331" />
      <stop
         id="stop3985-0-4-3"
         style="stop-color:#ffffff;stop-opacity:0.39215687"
         offset="1" />
    </linearGradient>
    <radialGradient
       inkscape:collect="always"
       xlink:href="#linearGradient4032-5"
       id="radialGradient4257"
       gradientUnits="userSpaceOnUse"
       gradientTransform="matrix(7.0126162e-8,4.4377892,-4.3316226,5.1553379e-8,2.9041138,-93.325255)"
       cx="19.556362"
       cy="-3.8301377"
       fx="19.556362"
       fy="-3.8301377"
       r="18.246725" />
    <linearGradient
       id="linearGradient4032-5">
      <stop
         offset="0"
         style="stop-color:#bdff69;stop-opacity:1;"
         id="stop4034-1" />
      <stop
         offset="0.32352942"
         style="stop-color:#8ed451;stop-opacity:1;"
         id="stop4036-2" />
      <stop
         offset="0.83823526"
         style="stop-color:#58aa30;stop-opacity:1;"
         id="stop4038-2" />
      <stop
         offset="1"
         style="stop-color:#2a6c1f;stop-opacity:1;"
         id="stop4040-7" />
    </linearGradient>
    <radialGradient
       r="18.246725"
       fy="-3.8301377"
       fx="19.556362"
       cy="-3.8301377"
       cx="19.556362"
       gradientTransform="matrix(7.275981e-8,4.5375131,-4.4943004,5.2711862e-8,2.7856673,-96.849685)"
       gradientUnits="userSpaceOnUse"
       id="radialGradient3244"
       xlink:href="#linearGradient4032-5"
       inkscape:collect="always" />
    <linearGradient
       x1="23.99999"
       y1="5.9417009"
       x2="23.99999"
       y2="42.093876"
       id="linearGradient3034-5"
       xlink:href="#linearGradient3874-3"
       gradientUnits="userSpaceOnUse"
       gradientTransform="matrix(0.89189189,0,0,1.1351351,2.5945999,-4.7432313)" />
    <linearGradient
       id="linearGradient3874-3">
      <stop
         id="stop3876-0"
         style="stop-color:#ffffff;stop-opacity:1"
         offset="0" />
      <stop
         id="stop3878-2"
         style="stop-color:#ffffff;stop-opacity:0.23529412"
         offset="0.00366048" />
      <stop
         id="stop3880-5"
         style="stop-color:#ffffff;stop-opacity:0.15686275"
         offset="0.99442554" />
      <stop
         id="stop3882-2"
         style="stop-color:#ffffff;stop-opacity:0.39215687"
         offset="1" />
    </linearGradient>
    <radialGradient
       inkscape:collect="always"
       xlink:href="#linearGradient2867-449-88-871-390-598-476-591-434-148-57-177-8-3-7"
       id="radialGradient4367"
       gradientUnits="userSpaceOnUse"
       gradientTransform="matrix(7.2759681e-8,4.5321663,-4.4942924,5.2649749e-8,2.7853768,-96.778535)"
       cx="19.556362"
       cy="-3.8301377"
       fx="19.556362"
       fy="-3.8301377"
       r="18.246725" />
    <linearGradient
       x1="23.99999"
       y1="5.5641499"
       x2="23.99999"
       y2="43"
       id="linearGradient3988"
       xlink:href="#linearGradient3977"
       gradientUnits="userSpaceOnUse"
       gradientTransform="matrix(0.89189189,0,0,1.1351351,2.5945999,-4.7432314)" />
    <linearGradient
       id="linearGradient3977">
      <stop
         id="stop3979"
         style="stop-color:#ffffff;stop-opacity:1"
         offset="0" />
      <stop
         id="stop3981"
         style="stop-color:#ffffff;stop-opacity:0.23529412"
         offset="0.03626217" />
      <stop
         id="stop3983"
         style="stop-color:#ffffff;stop-opacity:0.15686275"
         offset="0.95056331" />
      <stop
         id="stop3985"
         style="stop-color:#ffffff;stop-opacity:0.39215687"
         offset="1" />
    </linearGradient>
    <linearGradient
       y2="43"
       x2="23.99999"
       y1="5.5641499"
       x1="23.99999"
       gradientTransform="matrix(0.89189031,0,0,1.1337975,2.5943098,-4.6837307)"
       gradientUnits="userSpaceOnUse"
       id="linearGradient4386"
       xlink:href="#linearGradient3977"
       inkscape:collect="always" />
    <radialGradient
       cx="605.71429"
       cy="486.64789"
       r="117.14286"
       fx="605.71429"
       fy="486.64789"
       id="radialGradient3327"
       xlink:href="#linearGradient5060-4"
       gradientUnits="userSpaceOnUse"
       gradientTransform="matrix(0.02303991,0,0,0.01468289,26.360081,37.050442)" />
    <linearGradient
       id="linearGradient5060-4">
      <stop
         id="stop5062-5"
         style="stop-color:#000000;stop-opacity:1"
         offset="0" />
      <stop
         id="stop5064-7"
         style="stop-color:#000000;stop-opacity:0"
         offset="1" />
    </linearGradient>
    <radialGradient
       cx="605.71429"
       cy="486.64789"
       r="117.14286"
       fx="605.71429"
       fy="486.64789"
       id="radialGradient3330"
       xlink:href="#linearGradient5060-4"
       gradientUnits="userSpaceOnUse"
       gradientTransform="matrix(-0.0230399,0,0,0.01468289,21.622318,37.050442)" />
    <linearGradient
       id="linearGradient4424">
      <stop
         id="stop4426"
         style="stop-color:#000000;stop-opacity:1"
         offset="0" />
      <stop
         id="stop4428"
         style="stop-color:#000000;stop-opacity:0"
         offset="1" />
    </linearGradient>
    <linearGradient
       x1="302.85715"
       y1="366.64789"
       x2="302.85715"
       y2="609.50507"
       id="linearGradient3100"
       xlink:href="#linearGradient5048-9"
       gradientUnits="userSpaceOnUse"
       gradientTransform="matrix(0.06732488,0,0,0.01470022,-0.3411391,37.040146)" />
    <linearGradient
       id="linearGradient5048-9">
      <stop
         id="stop5050-4"
         style="stop-color:#000000;stop-opacity:0"
         offset="0" />
      <stop
         id="stop5056-8"
         style="stop-color:#000000;stop-opacity:1"
         offset="0.5" />
      <stop
         id="stop5052-3"
         style="stop-color:#000000;stop-opacity:0"
         offset="1" />
    </linearGradient>
    <linearGradient
       y2="609.50507"
       x2="302.85715"
       y1="366.64789"
       x1="302.85715"
       gradientTransform="matrix(0.06732476,0,0,0.01468289,-0.34189201,37.050412)"
       gradientUnits="userSpaceOnUse"
       id="linearGradient4438"
       xlink:href="#linearGradient5048-9"
       inkscape:collect="always" />
    <linearGradient
       x1="23.99999"
       y1="5.5641499"
       x2="23.99999"
       y2="43"
       id="linearGradient3988-3"
       xlink:href="#linearGradient3977-9"
       gradientUnits="userSpaceOnUse"
       gradientTransform="matrix(0.89189189,0,0,1.1351351,2.5920025,-4.7068674)" />
    <linearGradient
       id="linearGradient3977-9">
      <stop
         id="stop3979-1"
         style="stop-color:#ffffff;stop-opacity:1"
         offset="0" />
      <stop
         id="stop3981-8"
         style="stop-color:#ffffff;stop-opacity:0.23529412"
         offset="0.03626217" />
      <stop
         id="stop3983-5"
         style="stop-color:#ffffff;stop-opacity:0.15686275"
         offset="0.95056331" />
      <stop
         id="stop3985-4"
         style="stop-color:#ffffff;stop-opacity:0.39215687"
         offset="1" />
    </linearGradient>
    <radialGradient
       cx="7.8060555"
       cy="9.9571075"
       r="12.671875"
       fx="7.2758255"
       fy="9.9571075"
       id="radialGradient4304"
       xlink:href="#linearGradient2867-449-88-871-390-598-476-591-434-148-57-177-8-3-0"
       gradientUnits="userSpaceOnUse"
       gradientTransform="matrix(-1.6167311e-7,6.6018651,-8.0922115,-1.9817022e-7,197.43864,-60.072946)" />
    <linearGradient
       id="linearGradient2867-449-88-871-390-598-476-591-434-148-57-177-8-3-0">
      <stop
         id="stop3750-1-0-7"
         style="stop-color:#bdff69;stop-opacity:1;"
         offset="0" />
      <stop
         id="stop3752-3-7-5"
         style="stop-color:#8ed451;stop-opacity:1;"
         offset="0.26238" />
      <stop
         id="stop3754-1-8-3"
         style="stop-color:#58aa30;stop-opacity:1;"
         offset="0.704952" />
      <stop
         id="stop3756-1-6-5"
         style="stop-color:#2a6c1f;stop-opacity:1;"
         offset="1" />
    </linearGradient>
    <linearGradient
       x1="25"
       y1="44.2915"
       x2="25"
       y2="0.57054341"
       id="linearGradient4306"
       xlink:href="#linearGradient4039"
       gradientUnits="userSpaceOnUse"
       gradientTransform="translate(92.874353,-4.6076e-4)" />
    <linearGradient
       id="linearGradient4039">
      <stop
         id="stop4041"
         style="stop-color:#126400;stop-opacity:1;"
         offset="0" />
      <stop
         id="stop4043"
         style="stop-color:#48bc2e;stop-opacity:1;"
         offset="1" />
    </linearGradient>
    <radialGradient
       cx="605.71429"
       cy="486.64789"
       r="117.14286"
       fx="605.71429"
       fy="486.64789"
       id="radialGradient3327-6"
       xlink:href="#linearGradient5060-0"
       gradientUnits="userSpaceOnUse"
       gradientTransform="matrix(0.02303995,0,0,0.01470022,26.358285,37.07654)" />
    <linearGradient
       id="linearGradient5060-0">
      <stop
         id="stop5062-2"
         style="stop-color:#000000;stop-opacity:1"
         offset="0" />
      <stop
         id="stop5064-1"
         style="stop-color:#000000;stop-opacity:0"
         offset="1" />
    </linearGradient>
    <radialGradient
       cx="605.71429"
       cy="486.64789"
       r="117.14286"
       fx="605.71429"
       fy="486.64789"
       id="radialGradient3330-2"
       xlink:href="#linearGradient5060-0"
       gradientUnits="userSpaceOnUse"
       gradientTransform="matrix(-0.02303994,0,0,0.01470022,21.620513,37.07654)" />
    <linearGradient
       id="linearGradient4547">
      <stop
         id="stop4549"
         style="stop-color:#000000;stop-opacity:1"
         offset="0" />
      <stop
         id="stop4551"
         style="stop-color:#000000;stop-opacity:0"
         offset="1" />
    </linearGradient>
    <linearGradient
       x1="302.85715"
       y1="366.64789"
       x2="302.85715"
       y2="609.50507"
       id="linearGradient3100-9"
       xlink:href="#linearGradient5048-8"
       gradientUnits="userSpaceOnUse"
       gradientTransform="matrix(0.06732488,0,0,0.01470022,-0.3411391,37.040146)" />
    <linearGradient
       id="linearGradient5048-8">
      <stop
         id="stop5050-0"
         style="stop-color:#000000;stop-opacity:0"
         offset="0" />
      <stop
         id="stop5056-3"
         style="stop-color:#000000;stop-opacity:1"
         offset="0.5" />
      <stop
         id="stop5052-2"
         style="stop-color:#000000;stop-opacity:0"
         offset="1" />
    </linearGradient>
    <linearGradient
       y2="609.50507"
       x2="302.85715"
       y1="366.64789"
       x1="302.85715"
       gradientTransform="matrix(0.06732488,0,0,0.01470022,-0.3437365,37.07651)"
       gradientUnits="userSpaceOnUse"
       id="linearGradient4567"
       xlink:href="#linearGradient5048-8"
       inkscape:collect="always" />
    <radialGradient
       cx="7.8060555"
       cy="9.9571075"
       r="12.671875"
       fx="7.2758255"
       fy="9.9571075"
       id="radialGradient4304-9"
       xlink:href="#linearGradient2867-449-88-871-390-598-476-591-434-148-57-177-8-3-4"
       gradientUnits="userSpaceOnUse"
       gradientTransform="matrix(-1.6167311e-7,6.6018651,-8.0922115,-1.9817022e-7,197.43864,-60.072946)" />
    <linearGradient
       id="linearGradient2867-449-88-871-390-598-476-591-434-148-57-177-8-3-4">
      <stop
         id="stop3750-1-0-0"
         style="stop-color:#bdff69;stop-opacity:1;"
         offset="0" />
      <stop
         id="stop3752-3-7-4"
         style="stop-color:#8ed451;stop-opacity:1;"
         offset="0.26238" />
      <stop
         id="stop3754-1-8-33"
         style="stop-color:#58aa30;stop-opacity:1;"
         offset="0.704952" />
      <stop
         id="stop3756-1-6-3"
         style="stop-color:#2a6c1f;stop-opacity:1;"
         offset="1" />
    </linearGradient>
    <linearGradient
       x1="25"
       y1="44.2915"
       x2="25"
       y2="0.57054341"
       id="linearGradient4306-1"
       xlink:href="#linearGradient4039-9"
       gradientUnits="userSpaceOnUse"
       gradientTransform="translate(92.874353,-4.6076e-4)" />
    <linearGradient
       id="linearGradient4039-9">
      <stop
         id="stop4041-5"
         style="stop-color:#126400;stop-opacity:1;"
         offset="0" />
      <stop
         id="stop4043-8"
         style="stop-color:#48bc2e;stop-opacity:1;"
         offset="1" />
    </linearGradient>
    <linearGradient
       inkscape:collect="always"
       xlink:href="#linearGradient2490-3-9-0-3"
       id="linearGradient4771"
       x1="25"
       y1="43"
       x2="25"
       y2="0.11503056"
       gradientUnits="userSpaceOnUse" />
    <radialGradient
       cx="7.4956832"
       cy="8.4497671"
       r="19.99999"
       fx="7.4956832"
       fy="8.4497671"
       id="radialGradient4023-5"
       xlink:href="#linearGradient3242-7-5-0-3"
       gradientUnits="userSpaceOnUse"
       gradientTransform="matrix(0,2.8679067,-3.4313694,-1.6296548e-7,52.994372,-20.339697)" />
    <linearGradient
       id="linearGradient3242-7-5-0-3">
      <stop
         id="stop3244-6-7-3-3"
         style="stop-color:#f89b7e;stop-opacity:1"
         offset="0" />
      <stop
         id="stop3246-5-0-7-8"
         style="stop-color:#e35d4f;stop-opacity:1"
         offset="0.26238" />
      <stop
         id="stop3248-6-8-8-3"
         style="stop-color:#c6262e;stop-opacity:1"
         offset="0.66093999" />
      <stop
         id="stop3250-9-1-8-7"
         style="stop-color:#690b2c;stop-opacity:1"
         offset="1" />
    </linearGradient>
    <linearGradient
       x1="24"
       y1="44"
       x2="24"
       y2="3.8990016"
       id="linearGradient4025-9"
       xlink:href="#linearGradient2490-3-9-0-3"
       gradientUnits="userSpaceOnUse"
       gradientTransform="matrix(0.8974359,0,0,1.1282051,2.461538,-4.5769228)" />
    <linearGradient
       id="linearGradient2490-3-9-0-3">
      <stop
         id="stop2492-7-7-4-7"
         style="stop-color:#313131;stop-opacity:1;"
         offset="0" />
      <stop
         id="stop2494-4-8-6-8"
         style="stop-color:#6e6e6e;stop-opacity:1;"
         offset="1" />
    </linearGradient>
    <radialGradient
       r="19.99999"
       fy="8.4497671"
       fx="7.4956832"
       cy="8.4497671"
       cx="7.4956832"
       gradientTransform="matrix(0,2.8679067,-3.4313694,-1.6296548e-7,7.4229437,-27.125411)"
       gradientUnits="userSpaceOnUse"
       id="radialGradient3160"
       xlink:href="#linearGradient3242-7-5-0-3"
       inkscape:collect="always" />
    <linearGradient
       y2="3.8990016"
       x2="24"
       y1="44"
       x1="24"
       gradientTransform="matrix(0.8974359,0,0,1.1282051,-43.10989,-11.362637)"
       gradientUnits="userSpaceOnUse"
       id="linearGradient3162"
       xlink:href="#linearGradient2490-3-9-0-3"
       inkscape:collect="always" />
    <radialGradient
       inkscape:collect="always"
       xlink:href="#linearGradient2867-449-88-871-390-598-476-591-434-148-57-177-8-3-7"
       id="radialGradient4367-5"
       gradientUnits="userSpaceOnUse"
       gradientTransform="matrix(9.7706036e-8,6.0761069,-6.0352037,7.0585561e-8,3.51222,-129.91288)"
       cx="19.556362"
       cy="-3.8301377"
       fx="19.556362"
       fy="-3.8301377"
       r="18.246725" />
    <linearGradient
       id="linearGradient2867-449-88-871-390-598-476-591-434-148-57-177-8-3-7">
      <stop
         id="stop3750-1-0-5"
         style="stop-color:#bfbfbf;stop-opacity:1;"
         offset="0" />
      <stop
         id="stop3752-3-7-3"
         style="stop-color:#9e9e9e;stop-opacity:1;"
         offset="0.26238" />
      <stop
         id="stop3754-1-8-9"
         style="stop-color:#565656;stop-opacity:1;"
         offset="0.704952" />
      <stop
         id="stop3756-1-6-2"
         style="stop-color:#313131;stop-opacity:1;"
         offset="1" />
    </linearGradient>
    <radialGradient
       r="18.246725"
       fy="-3.8301377"
       fx="19.556362"
       cy="-3.8301377"
       cx="19.556362"
       gradientTransform="matrix(9.7706036e-8,6.0761069,-6.0352037,7.0585561e-8,-49.969923,-146.25217)"
       gradientUnits="userSpaceOnUse"
       id="radialGradient3308"
       xlink:href="#linearGradient2867-449-88-871-390-598-476-591-434-148-57-177-8-3-7"
       inkscape:collect="always" />
  </defs>
  <metadata
     id="metadata3938">
    <rdf:RDF>
      <cc:Work
         rdf:about="">
        <dc:format>image/svg+xml</dc:format>
        <dc:type
           rdf:resource="http://purl.org/dc/dcmitype/StillImage" />
        <dc:title />
      </cc:Work>
    </rdf:RDF>
  </metadata>
  <g
     id="layer1">
    <rect
       width="32.508247"
       height="3.565846"
       x="7.7370806"
       y="42.433853"
       id="rect2879"
       style="opacity:0.3;fill:url(#linearGradient4438);fill-opacity:1;fill-rule:nonzero;stroke:none;stroke-width:1;marker:none;visibility:visible;display:inline;overflow:visible" />
    <path
       d="m 7.7370802,42.434016 c 0,0 0,3.565649 0,3.565649 -1.1864981,0.0067 -2.8683744,-0.798881 -2.8683744,-1.783054 0,-0.984172 1.3240423,-1.782594 2.8683744,-1.782595 z"
       inkscape:connector-curvature="0"
       id="path2881"
       style="opacity:0.3;fill:url(#radialGradient3330);fill-opacity:1;fill-rule:nonzero;stroke:none;stroke-width:1;marker:none;visibility:visible;display:inline;overflow:visible" />
    <path
       d="m 40.245323,42.434016 c 0,0 0,3.565649 0,3.565649 1.186498,0.0067 2.868374,-0.798881 2.868374,-1.783054 0,-0.984172 -1.324042,-1.782594 -2.868374,-1.782595 z"
       inkscape:connector-curvature="0"
       id="path2883"
       style="opacity:0.3;fill:url(#radialGradient3327);fill-opacity:1;fill-rule:nonzero;stroke:none;stroke-width:1;marker:none;visibility:visible;display:inline;overflow:visible" />
    <path
       d="m 6.5258981,0.49639648 c 3.5068989,0 9.4737529,0.0307401 9.4737529,0.0307401 l 9.000171,-0.0153292 7.271233,7.31354382 9.173597,9.2480608 0.05499,27.431058 c 0,0 -23.333291,0 -34.9999382,0 0,-14.643672 0.02623,-29.364406 0.02623,-44.00807966 z"
       id="path4160-3"
       style="fill:url(#radialGradient4367);fill-opacity:1;stroke:url(#linearGradient4771);stroke-width:0.999;stroke-linecap:round;stroke-linejoin:round;stroke-miterlimit:4;stroke-opacity:1;stroke-dasharray:none;display:inline"
       inkscape:connector-curvature="0"
       sodipodi:nodetypes="cccccccc" />
    <path
       sodipodi:nodetypes="ccccccccccccccccccccccccccccccccccccccccccccccscccccccccccccc"
       inkscape:connector-curvature="0"
       id="path4063"
       d="m 22.25374,15.402144 c -3.599892,0.563765 -4.570875,0.713903 -8.170772,1.267345 0,4.815769 -0.0025,9.633502 0,14.451343 3.58111,0.55137 7.201618,1.168075 10.775681,1.742167 l 0.973496,0.16487 -0.03994,-1.944958 c 2.350614,0 5.202473,0.02769 7.553087,0.03793 0.399203,-0.01652 0.83279,0.01024 1.175629,-0.204498 0.274754,-0.36967 0.209065,-0.832587 0.232548,-1.249729 -0.03286,-4.068191 0.01413,-8.133616 -0.02584,-12.201843 0.04934,-0.470842 -0.368932,-0.842795 -0.904336,-0.795278 -2.510301,-0.03526 -5.487607,9.85e-4 -8.00025,-0.01136 l -0.01655,-1.898612 z m 3.560993,1.736326 8.17651,0.05363 0,13.212982 -8.170832,-0.01895 0,-6.941492 0.492223,-0.01582 0.586037,2.908981 1.123961,-0.02272 1.175635,-4.942087 4.457072,-0.05681 0,-1.204278 -5.632707,-0.01136 -0.633035,4.214975 -0.478005,-1.465584 -0.671792,0.01136 c 0,0.54148 9.17e-4,0.541189 -0.01292,0 l -0.366536,0 z m -5.03969,4.893467 c 0.09153,0.0063 0.181983,0.02179 0.258382,0.05681 0.451972,1.549657 0.813767,3.121454 1.227309,4.680781 -0.364125,-0.01919 -0.732159,-0.03381 -1.09812,-0.04544 -0.221413,-1.115205 -0.452116,-2.223361 -0.658872,-3.340167 -0.263518,1.081434 -0.505921,2.163048 -0.749305,3.24928 -0.347664,-0.01612 -0.698782,-0.02763 -1.046445,-0.04544 -0.256172,-1.052422 -0.517135,-2.105971 -0.775145,-3.158391 -0.16468,1.026644 -0.379948,2.042419 -0.568436,3.067501 -0.312904,-0.0094 -0.630189,-0.02136 -0.943092,-0.03408 0.283619,-1.419286 0.639336,-2.821574 0.943092,-4.237698 0.353169,-0.02107 0.707995,-0.04044 1.059362,-0.05681 0.245189,1.033114 0.522286,2.062033 0.736387,3.101585 0.217739,-1.070091 0.505955,-2.127185 0.749305,-3.192476 0.271742,0.01717 0.591004,-0.06437 0.865578,-0.04544 z m 11.717584,0.238584 -0.852654,1.12475 -0.865582,-1.113388 -0.762224,0.02272 0.800983,1.442862 -0.852656,1.079307 0.852656,0.01136 0.826823,-0.738472 0.839735,0.761194 0.826823,-0.03409 -0.865576,-1.079306 0.904335,-1.465585 z"
       style="opacity:0.15;fill:#000000;fill-opacity:1" />
    <path
       sodipodi:nodetypes="ccccccc"
       id="path4572"
       d="m 31.522991,0.53848558 7.164051,7.26424022 2.760359,2.7989552 0,-2.2362581 -0.01558,-5.6218017 c -0.0089,-2.019363 0.0014,-2.21792902 0.0014,-2.21792902 z"
       style="color:#000000;fill:#313131;fill-opacity:1;stroke:#313131;stroke-width:0.99898480999999995;stroke-linecap:round;stroke-linejoin:round;stroke-miterlimit:4;stroke-opacity:1;stroke-dasharray:none;stroke-dashoffset:0;marker:none;visibility:visible;display:inline;overflow:visible;enable-background:accumulate"
       inkscape:connector-curvature="0" />
    <path
       d="m 40.499642,43.502652 -32.9999409,0 0,-41.9505075 17.1287719,0.01894 6.939738,7.0122272 8.89355,8.8889539 z"
       inkscape:connector-curvature="0"
       id="rect6741-1"
       style="opacity:0.5;fill:none;stroke:url(#linearGradient4386);stroke-width:0.99940974;stroke-linecap:round;stroke-linejoin:round;stroke-miterlimit:4;stroke-opacity:1;stroke-dasharray:none;stroke-dashoffset:0"
       sodipodi:nodetypes="ccccccc" />
    <path
       style="opacity:0.3;fill:#000000;fill-opacity:1"
       d="m 22.625598,15.374745 c -3.272032,0.53973 -4.154583,0.683467 -7.42662,1.213312 0,4.61045 -0.0022,9.222779 0,13.835213 3.254961,0.527862 6.545732,1.118274 9.794289,1.667889 l 0.884834,0.157841 -0.0363,-1.862035 c 2.136532,0 4.728659,0.02651 6.865191,0.03631 0.362847,-0.01581 0.756944,0.0098 1.068559,-0.195781 0.249731,-0.353908 0.190025,-0.797088 0.21137,-1.196446 -0.02987,-3.894744 0.01284,-7.78684 -0.02349,-11.681619 0.04485,-0.450767 -0.335332,-0.806862 -0.821973,-0.761372 -2.281677,-0.03376 -4.987825,9.43e-4 -7.271631,-0.01087 l -0.01504,-1.817665 z m 3.236678,1.6623 7.431836,0.05134 0,12.649648 -7.426676,-0.01815 0,-6.645542 0.447394,-0.01514 0.532665,2.784958 1.021595,-0.02176 1.068565,-4.731383 4.051145,-0.05439 0,-1.152934 -5.11971,-0.01087 -0.575381,4.03527 -0.434471,-1.403099 -0.610608,0.01087 c 0,0.518394 8.34e-4,0.518116 -0.01174,0 l -0.333154,0 z m -4.580703,4.684834 c 0.08319,0.006 0.16541,0.02087 0.23485,0.05439 0.41081,1.483588 0.739654,2.988371 1.115533,4.481216 -0.330962,-0.01837 -0.665478,-0.03236 -0.998109,-0.0435 -0.201248,-1.06766 -0.41094,-2.128569 -0.598866,-3.19776 -0.239517,1.035326 -0.459844,2.070826 -0.681062,3.110747 -0.316001,-0.01543 -0.63514,-0.02645 -0.95114,-0.0435 -0.232841,-1.007552 -0.470037,-2.016183 -0.704548,-3.023733 -0.149683,0.982873 -0.345345,1.955341 -0.516667,2.936719 -0.284406,-0.009 -0.572795,-0.02045 -0.8572,-0.03263 0.257788,-1.358775 0.581109,-2.701278 0.8572,-4.057025 0.321005,-0.02018 0.643514,-0.03872 0.962881,-0.05439 0.222858,0.989068 0.474719,1.974119 0.669321,2.969349 0.197909,-1.024467 0.459874,-2.036492 0.681062,-3.056364 0.246993,0.01644 0.537179,-0.06162 0.786745,-0.0435 z m 10.65041,0.228412 -0.775,1.076796 -0.786749,-1.06592 -0.692805,0.02176 0.728034,1.381345 -0.775,1.033291 0.775,0.01087 0.75152,-0.706988 0.763257,0.728741 0.75152,-0.03264 -0.786744,-1.033291 0.821972,-1.403099 z"
       id="path4061"
       inkscape:connector-curvature="0"
       sodipodi:nodetypes="ccccccccccccccccccccccccccccccccccccccccccccccscccccccccccccc" />
    <path
       sodipodi:nodetypes="ccccccccccccccccccccccccccccccccccccccccccccccscccccccccccccc"
       inkscape:connector-curvature="0"
       id="path3853-1"
       d="m 22.125598,14.874745 c -3.272032,0.53973 -4.154583,0.683467 -7.42662,1.213312 0,4.61045 -0.0022,9.222779 0,13.835213 3.254961,0.527862 6.545732,1.118274 9.794289,1.667889 l 0.884834,0.157841 -0.0363,-1.862035 c 2.136532,0 4.728659,0.02651 6.865191,0.03631 0.362847,-0.01581 0.756944,0.0098 1.068559,-0.195781 0.249731,-0.353908 0.190025,-0.797088 0.21137,-1.196446 -0.02987,-3.894744 0.01284,-7.78684 -0.02349,-11.681619 0.04485,-0.450767 -0.335332,-0.806862 -0.821973,-0.761372 -2.281677,-0.03376 -4.987825,9.43e-4 -7.271631,-0.01087 l -0.01504,-1.817665 z m 3.236678,1.6623 7.431836,0.05134 0,12.649648 -7.426676,-0.01815 0,-6.645542 0.447394,-0.01514 0.532665,2.784958 1.021595,-0.02176 1.068565,-4.731383 4.051145,-0.05439 0,-1.152934 -5.11971,-0.01087 -0.575381,4.03527 -0.434471,-1.403099 -0.610608,0.01087 c 0,0.518394 8.34e-4,0.518116 -0.01174,0 l -0.333154,0 z m -4.580703,4.684834 c 0.08319,0.006 0.16541,0.02087 0.23485,0.05439 0.41081,1.483588 0.739654,2.988371 1.115533,4.481216 -0.330962,-0.01837 -0.665478,-0.03236 -0.998109,-0.0435 -0.201248,-1.06766 -0.41094,-2.128569 -0.598866,-3.19776 -0.239517,1.035326 -0.459844,2.070826 -0.681062,3.110747 -0.316001,-0.01543 -0.63514,-0.02645 -0.95114,-0.0435 -0.232841,-1.007552 -0.470037,-2.016183 -0.704548,-3.023733 -0.149683,0.982873 -0.345345,1.955341 -0.516667,2.936719 -0.284406,-0.009 -0.572795,-0.02045 -0.8572,-0.03263 0.257788,-1.358775 0.581109,-2.701278 0.8572,-4.057025 0.321005,-0.02018 0.643514,-0.03872 0.962881,-0.05439 0.222858,0.989068 0.474719,1.974119 0.669321,2.969349 0.197909,-1.024467 0.459874,-2.036492 0.681062,-3.056364 0.246993,0.01644 0.537179,-0.06162 0.786745,-0.0435 z m 10.65041,0.228412 -0.775,1.076796 -0.786749,-1.06592 -0.692805,0.02176 0.728034,1.381345 -0.775,1.033291 0.775,0.01087 0.75152,-0.706988 0.763257,0.728741 0.75152,-0.03264 -0.786744,-1.033291 0.821972,-1.403099 z"
       style="fill:#ffffff;fill-opacity:1" />
  </g>
</svg>
