<?xml version="1.0" encoding="UTF-8" standalone="no"?>
<!-- Created with Inkscape (http://www.inkscape.org/) -->

<svg
   xmlns:dc="http://purl.org/dc/elements/1.1/"
   xmlns:cc="http://creativecommons.org/ns#"
   xmlns:rdf="http://www.w3.org/1999/02/22-rdf-syntax-ns#"
   xmlns:svg="http://www.w3.org/2000/svg"
   xmlns="http://www.w3.org/2000/svg"
   xmlns:xlink="http://www.w3.org/1999/xlink"
   xmlns:sodipodi="http://sodipodi.sourceforge.net/DTD/sodipodi-0.dtd"
   xmlns:inkscape="http://www.inkscape.org/namespaces/inkscape"
   version="1.1"
   width="48"
   height="48"
   id="svg4000"
   inkscape:version="0.48.4 r9939"
   sodipodi:docname="text-x-c++hdr.svg">
  <sodipodi:namedview
     pagecolor="#ffffff"
     bordercolor="#666666"
     borderopacity="1"
     objecttolerance="10"
     gridtolerance="10"
     guidetolerance="10"
     inkscape:pageopacity="0"
     inkscape:pageshadow="2"
     inkscape:window-width="640"
     inkscape:window-height="480"
     id="namedview38"
     showgrid="false"
     inkscape:zoom="4.9166667"
     inkscape:cx="24"
     inkscape:cy="24"
     inkscape:window-x="161"
     inkscape:window-y="379"
     inkscape:window-maximized="0"
     inkscape:current-layer="layer1" />
  <defs
     id="defs4002">
    <linearGradient
       x1="11.703956"
       y1="20.16507"
       x2="11.703956"
       y2="9.1650686"
       id="linearGradient3178"
       xlink:href="#linearGradient4299-652-5"
       gradientUnits="userSpaceOnUse"
       gradientTransform="translate(8.621297,13.834931)" />
    <linearGradient
       id="linearGradient4299-652-5">
      <stop
         id="stop3618-8"
         style="stop-color:#ffffff;stop-opacity:1"
         offset="0" />
      <stop
         id="stop3620-9"
         style="stop-color:#ffffff;stop-opacity:0"
         offset="1" />
    </linearGradient>
    <linearGradient
       x1="23.99999"
       y1="5.5641499"
       x2="23.99999"
       y2="42.110645"
       id="linearGradient3110"
       xlink:href="#linearGradient3029"
       gradientUnits="userSpaceOnUse"
       gradientTransform="matrix(0.89189189,0,0,1.1351351,2.5945999,-4.7432314)" />
    <linearGradient
       id="linearGradient3029">
      <stop
         id="stop3031"
         style="stop-color:#ffffff;stop-opacity:1"
         offset="0" />
      <stop
         id="stop3033"
         style="stop-color:#ffffff;stop-opacity:0.23529412"
         offset="0.01487851" />
      <stop
         id="stop3035"
         style="stop-color:#ffffff;stop-opacity:0.15686275"
         offset="0.98463625" />
      <stop
         id="stop3037"
         style="stop-color:#ffffff;stop-opacity:0.39215687"
         offset="1" />
    </linearGradient>
    <linearGradient
       x1="25.132275"
       y1="0.98520643"
       x2="25.132275"
       y2="47.013336"
       id="linearGradient3113"
       xlink:href="#linearGradient3600"
       gradientUnits="userSpaceOnUse"
       gradientTransform="matrix(1,0,0,0.9561695,-9.9999999e-8,-1.9149218)" />
    <linearGradient
       id="linearGradient3600">
      <stop
         id="stop3602"
         style="stop-color:#f4f4f4;stop-opacity:1"
         offset="0" />
      <stop
         id="stop3604"
         style="stop-color:#dbdbdb;stop-opacity:1"
         offset="1" />
    </linearGradient>
    <radialGradient
       cx="605.71429"
       cy="486.64789"
       r="117.14286"
       fx="605.71429"
       fy="486.64789"
       id="radialGradient3116"
       xlink:href="#linearGradient5060"
       gradientUnits="userSpaceOnUse"
       gradientTransform="matrix(0.02303995,0,0,0.01470022,26.360882,37.040176)" />
    <linearGradient
       id="linearGradient5060">
      <stop
         id="stop5062"
         style="stop-color:#000000;stop-opacity:1"
         offset="0" />
      <stop
         id="stop5064"
         style="stop-color:#000000;stop-opacity:0"
         offset="1" />
    </linearGradient>
    <radialGradient
       cx="605.71429"
       cy="486.64789"
       r="117.14286"
       fx="605.71429"
       fy="486.64789"
       id="radialGradient3119"
       xlink:href="#linearGradient5060"
       gradientUnits="userSpaceOnUse"
       gradientTransform="matrix(-0.02303994,0,0,0.01470022,21.62311,37.040176)" />
    <linearGradient
       id="linearGradient5048">
      <stop
         id="stop5050"
         style="stop-color:#000000;stop-opacity:0"
         offset="0" />
      <stop
         id="stop5056"
         style="stop-color:#000000;stop-opacity:1"
         offset="0.5" />
      <stop
         id="stop5052"
         style="stop-color:#000000;stop-opacity:0"
         offset="1" />
    </linearGradient>
    <linearGradient
       x1="302.85715"
       y1="366.64789"
       x2="302.85715"
       y2="609.50507"
       id="linearGradient3998"
       xlink:href="#linearGradient5048"
       gradientUnits="userSpaceOnUse"
       gradientTransform="matrix(0.06732488,0,0,0.01470022,-0.3411391,37.040146)" />
    <linearGradient
       x1="22.104254"
       y1="40.124432"
       x2="22.104254"
       y2="10.035408"
       id="linearGradient6065"
       xlink:href="#linearGradient5031"
       gradientUnits="userSpaceOnUse"
       gradientTransform="matrix(1.7828362,0,0,1.4407913,-37.938893,-29.447781)" />
    <linearGradient
       id="linearGradient5031">
      <stop
         id="stop5033"
         style="stop-color:#a3a3a3;stop-opacity:1"
         offset="0" />
      <stop
         id="stop5035"
         style="stop-color:#bababa;stop-opacity:1"
         offset="1" />
    </linearGradient>
    <linearGradient
       x1="22.104254"
       y1="40.124432"
       x2="22.104254"
       y2="10.035408"
       id="linearGradient6143"
       xlink:href="#linearGradient5031"
       gradientUnits="userSpaceOnUse"
       gradientTransform="matrix(0.4063605,0,0,1.4407893,8.314394,-6.6004301)" />
    <linearGradient
       id="linearGradient3114">
      <stop
         id="stop3116"
         style="stop-color:#a3a3a3;stop-opacity:1"
         offset="0" />
      <stop
         id="stop3118"
         style="stop-color:#bababa;stop-opacity:1"
         offset="1" />
    </linearGradient>
    <linearGradient
       x1="22.104254"
       y1="40.124432"
       x2="22.104254"
       y2="10.035408"
       id="linearGradient6073"
       xlink:href="#linearGradient5031"
       gradientUnits="userSpaceOnUse"
       gradientTransform="matrix(0.3814643,0,0,1.4009103,8.478931,4.2519738)" />
    <linearGradient
       id="linearGradient3121">
      <stop
         id="stop3123"
         style="stop-color:#a3a3a3;stop-opacity:1"
         offset="0" />
      <stop
         id="stop3125"
         style="stop-color:#bababa;stop-opacity:1"
         offset="1" />
    </linearGradient>
    <linearGradient
       x1="22.104254"
       y1="40.124432"
       x2="22.104254"
       y2="10.035408"
       id="linearGradient5980"
       xlink:href="#linearGradient5031"
       gradientUnits="userSpaceOnUse"
       gradientTransform="matrix(0.369496,0,0,1.4205132,9.01162,1.7738242)" />
    <linearGradient
       id="linearGradient3128">
      <stop
         id="stop3130"
         style="stop-color:#a3a3a3;stop-opacity:1"
         offset="0" />
      <stop
         id="stop3132"
         style="stop-color:#bababa;stop-opacity:1"
         offset="1" />
    </linearGradient>
    <linearGradient
       x1="22.104254"
       y1="40.124432"
       x2="22.104254"
       y2="10.035408"
       id="linearGradient5984"
       xlink:href="#linearGradient5031"
       gradientUnits="userSpaceOnUse"
       gradientTransform="matrix(0.4876325,0,0,1.4406684,7.777273,-0.59819861)" />
    <linearGradient
       id="linearGradient3135">
      <stop
         id="stop3137"
         style="stop-color:#a3a3a3;stop-opacity:1"
         offset="0" />
      <stop
         id="stop3139"
         style="stop-color:#bababa;stop-opacity:1"
         offset="1" />
    </linearGradient>
    <linearGradient
       x1="22.104254"
       y1="40.124432"
       x2="22.104254"
       y2="10.035408"
       id="linearGradient5988"
       xlink:href="#linearGradient5031"
       gradientUnits="userSpaceOnUse"
       gradientTransform="matrix(0.3342091,0,0,1.4207463,9.679012,-2.2443897)" />
    <linearGradient
       id="linearGradient3142">
      <stop
         id="stop3144"
         style="stop-color:#a3a3a3;stop-opacity:1"
         offset="0" />
      <stop
         id="stop3146"
         style="stop-color:#bababa;stop-opacity:1"
         offset="1" />
    </linearGradient>
    <linearGradient
       x1="22.104254"
       y1="40.124432"
       x2="22.104254"
       y2="10.035408"
       id="linearGradient6065-4"
       xlink:href="#linearGradient5031-0"
       gradientUnits="userSpaceOnUse"
       gradientTransform="matrix(1.7828362,0,0,1.4407913,-37.938893,-28.910041)" />
    <linearGradient
       id="linearGradient5031-0">
      <stop
         id="stop5033-6"
         style="stop-color:#a3a3a3;stop-opacity:1"
         offset="0" />
      <stop
         id="stop5035-5"
         style="stop-color:#bababa;stop-opacity:1"
         offset="1" />
    </linearGradient>
    <linearGradient
       x1="22.104254"
       y1="40.124432"
       x2="22.104254"
       y2="10.035408"
       id="linearGradient6143-7"
       xlink:href="#linearGradient5031-0"
       gradientUnits="userSpaceOnUse"
       gradientTransform="matrix(0.4063605,0,0,1.4407893,8.314394,-6.0626892)" />
    <linearGradient
       id="linearGradient3249">
      <stop
         id="stop3251"
         style="stop-color:#a3a3a3;stop-opacity:1"
         offset="0" />
      <stop
         id="stop3253"
         style="stop-color:#bababa;stop-opacity:1"
         offset="1" />
    </linearGradient>
    <linearGradient
       x1="22.104254"
       y1="40.124432"
       x2="22.104254"
       y2="10.035408"
       id="linearGradient6073-6"
       xlink:href="#linearGradient5031-0"
       gradientUnits="userSpaceOnUse"
       gradientTransform="matrix(0.3814643,0,0,1.4009103,8.47893,4.7897145)" />
    <linearGradient
       id="linearGradient3256">
      <stop
         id="stop3258"
         style="stop-color:#a3a3a3;stop-opacity:1"
         offset="0" />
      <stop
         id="stop3260"
         style="stop-color:#bababa;stop-opacity:1"
         offset="1" />
    </linearGradient>
    <linearGradient
       x1="22.104254"
       y1="40.124432"
       x2="22.104254"
       y2="10.035408"
       id="linearGradient5980-2"
       xlink:href="#linearGradient5031-0"
       gradientUnits="userSpaceOnUse"
       gradientTransform="matrix(0.369496,0,0,1.4205132,9.011619,2.3115655)" />
    <linearGradient
       id="linearGradient3263">
      <stop
         id="stop3265"
         style="stop-color:#a3a3a3;stop-opacity:1"
         offset="0" />
      <stop
         id="stop3267"
         style="stop-color:#bababa;stop-opacity:1"
         offset="1" />
    </linearGradient>
    <linearGradient
       x1="22.104254"
       y1="40.124432"
       x2="22.104254"
       y2="10.035408"
       id="linearGradient5984-9"
       xlink:href="#linearGradient5031-0"
       gradientUnits="userSpaceOnUse"
       gradientTransform="matrix(0.4876325,0,0,1.4406684,7.777273,-0.06045771)" />
    <linearGradient
       id="linearGradient3270">
      <stop
         id="stop3272"
         style="stop-color:#a3a3a3;stop-opacity:1"
         offset="0" />
      <stop
         id="stop3274"
         style="stop-color:#bababa;stop-opacity:1"
         offset="1" />
    </linearGradient>
    <linearGradient
       x1="22.104254"
       y1="40.124432"
       x2="22.104254"
       y2="10.035408"
       id="linearGradient5988-3"
       xlink:href="#linearGradient5031-0"
       gradientUnits="userSpaceOnUse"
       gradientTransform="matrix(0.3342091,0,0,1.4207463,9.679012,-1.7066488)" />
    <linearGradient
       id="linearGradient3277">
      <stop
         id="stop3279"
         style="stop-color:#a3a3a3;stop-opacity:1"
         offset="0" />
      <stop
         id="stop3281"
         style="stop-color:#bababa;stop-opacity:1"
         offset="1" />
    </linearGradient>
  </defs>
  <metadata
     id="metadata4005">
    <rdf:RDF>
      <cc:Work
         rdf:about="">
        <dc:format>image/svg+xml</dc:format>
        <dc:type
           rdf:resource="http://purl.org/dc/dcmitype/StillImage" />
        <dc:title></dc:title>
      </cc:Work>
    </rdf:RDF>
  </metadata>
  <g
     id="layer1">
    <rect
       width="32.508301"
       height="3.5700529"
       x="7.7378473"
       y="42.429947"
       id="rect2879"
       style="opacity:0.3;fill:url(#linearGradient3998);fill-opacity:1;fill-rule:nonzero;stroke:none;stroke-width:1;marker:none;visibility:visible;display:inline;overflow:visible" />
    <path
       d="m 7.7378475,42.430102 c 0,0 0,3.569856 0,3.569856 -1.1865002,0.0067 -2.8683795,-0.799823 -2.8683795,-1.785158 0,-0.985333 1.3240446,-1.784697 2.8683795,-1.784698 z"
       id="path2881"
       style="opacity:0.3;fill:url(#radialGradient3119);fill-opacity:1;fill-rule:nonzero;stroke:none;stroke-width:1;marker:none;visibility:visible;display:inline;overflow:visible" />
    <path
       d="m 40.246148,42.430102 c 0,0 0,3.569856 0,3.569856 1.1865,0.0067 2.86838,-0.799823 2.86838,-1.785158 0,-0.985333 -1.324045,-1.784697 -2.86838,-1.784698 z"
       id="path2883"
       style="opacity:0.3;fill:url(#radialGradient3116);fill-opacity:1;fill-rule:nonzero;stroke:none;stroke-width:1;marker:none;visibility:visible;display:inline;overflow:visible" />
    <path
       d="M 6.4999609,0.497199 C 14.520256,0.497199 41.5,0.5 41.5,0.5 l 4.2e-5,44.002803 c 0,0 -23.333387,0 -35.0000811,0 0,-14.668535 0,-29.33707 0,-44.00560407 z"
       id="path4160"
       style="fill:url(#linearGradient3113);fill-opacity:1;stroke:none;display:inline" />
    <path
       d="m 40.5,43.5 -33,0 0,-41.9999998 33,0 z"
       id="rect6741-1"
       style="fill:none;stroke:url(#linearGradient3110);stroke-width:1;stroke-linecap:round;stroke-linejoin:miter;stroke-miterlimit:4;stroke-opacity:1;stroke-dasharray:none;stroke-dashoffset:0" />
    <path
       d="M 6.4999609,0.497199 C 14.520256,0.497199 41.5,0.5 41.5,0.5 l 4.2e-5,44.002803 c 0,0 -23.333387,0 -35.0000811,0 0,-14.668535 0,-29.33707 0,-44.00560407 z"
       id="path4160-9"
       style="opacity:0.3;fill:none;stroke:#000000;stroke-width:0.99992186;stroke-linecap:butt;stroke-linejoin:round;stroke-miterlimit:4;stroke-opacity:1;stroke-dasharray:none;stroke-dashoffset:0;display:inline" />
    <path
       inkscape:connector-curvature="0"
       d="m 11,5.5313025 2.369787,0 0,1 -2.369787,0 0,-1 z"
       id="path4149"
       style="fill:#89adc2;fill-opacity:1;stroke:none;display:inline" />
    <path
       inkscape:connector-curvature="0"
       d="m 13.692593,5.5313025 2.235993,0 0,1 -2.235993,0 0,-1 z"
       id="path4147"
       style="fill:#89adc2;fill-opacity:1;stroke:none;display:inline" />
    <path
       inkscape:connector-curvature="0"
       d="m 16.251394,5.5313025 1.968407,0 0,1 -1.968407,0 0,-1 z"
       id="path4145"
       style="fill:#89adc2;fill-opacity:1;stroke:none;display:inline" />
    <path
       inkscape:connector-curvature="0"
       d="m 18.54261,5.5313025 0.864609,0 0,1 -0.864609,0 0,-1 z"
       id="path4143"
       style="fill:#89adc2;fill-opacity:1;stroke:none;display:inline" />
    <path
       inkscape:connector-curvature="0"
       d="m 19.730027,5.5313025 1.934957,0 0,1 -1.934957,0 0,-1 z"
       id="path4141"
       style="fill:#89adc2;fill-opacity:1;stroke:none;display:inline" />
    <path
       inkscape:connector-curvature="0"
       d="m 21.987791,5.5313025 5.012209,0 0,1 -5.012209,0 0,-1 z"
       id="path4139"
       style="fill:#89adc2;fill-opacity:1;stroke:none;display:inline" />
    <path
       inkscape:connector-curvature="0"
       d="m 11,11.531302 2.29764,0 0,1 -2.29764,0 0,-1 z"
       id="path4131"
       style="fill:#89adc2;fill-opacity:1;stroke:none;display:inline" />
    <path
       inkscape:connector-curvature="0"
       d="m 13.610621,11.531302 2.167919,0 0,1 -2.167919,0 0,-1 z"
       id="path4129"
       style="fill:#89adc2;fill-opacity:1;stroke:none;display:inline" />
    <path
       inkscape:connector-curvature="0"
       d="m 16.09152,11.531302 1.90848,0 0,1 -1.90848,0 0,-1 z"
       id="path4127"
       style="fill:#89adc2;fill-opacity:1;stroke:none;display:inline" />
    <path
       inkscape:connector-curvature="0"
       d="m 11,7.5313025 3.794449,0 0,1 -3.794449,0 0,-1 z"
       id="path4113"
       style="fill:#89adc2;fill-opacity:1;stroke:none;display:inline" />
    <path
       inkscape:connector-curvature="0"
       d="m 15.140767,7.5313025 1.825534,0 0,1 -1.825534,0 0,-1 z"
       id="path4111"
       style="fill:#89adc2;fill-opacity:1;stroke:none;display:inline" />
    <path
       inkscape:connector-curvature="0"
       d="m 17.312621,7.5313025 0.858347,0 0,1 -0.858347,0 0,-1 z"
       id="path4109"
       style="fill:#89adc2;fill-opacity:1;stroke:none;display:inline" />
    <path
       inkscape:connector-curvature="0"
       d="m 18.517286,7.5313025 1.652821,0 0,1 -1.652821,0 0,-1 z"
       id="path4107"
       style="fill:#89adc2;fill-opacity:1;stroke:none;display:inline" />
    <path
       inkscape:connector-curvature="0"
       d="m 20.516425,7.5313025 1.652821,0 0,1 -1.652821,0 0,-1 z"
       id="path4105"
       style="fill:#89adc2;fill-opacity:1;stroke:none;display:inline" />
    <path
       inkscape:connector-curvature="0"
       d="m 22.515565,7.5313025 2.654549,0 0,1 -2.654549,0 0,-1 z"
       id="path4103"
       style="fill:#89adc2;fill-opacity:1;stroke:none;display:inline" />
    <path
       inkscape:connector-curvature="0"
       d="m 25.516433,7.5313025 3.483567,0 0,1 -3.483567,0 0,-1 z"
       id="path4101"
       style="fill:#89adc2;fill-opacity:1;stroke:none;display:inline" />
    <path
       inkscape:connector-curvature="0"
       d="m 11,9.5313025 4.186235,0 0,0.9999995 -4.186235,0 0,-0.9999995 z"
       id="path4095"
       style="fill:#89adc2;fill-opacity:1;stroke:none;display:inline" />
    <path
       inkscape:connector-curvature="0"
       d="m 15.514391,9.5313025 4.485609,0 0,0.9999995 -4.485609,0 0,-0.9999995 z"
       id="path4093"
       style="fill:#89adc2;fill-opacity:1;stroke:none;display:inline" />
    <path
       inkscape:connector-curvature="0"
       d="m 11,14.531302 3.066842,0 0,1 -3.066842,0 0,-1 z"
       id="path4063"
       style="fill:#b78ed4;fill-opacity:1;stroke:none;display:inline" />
    <path
       inkscape:connector-curvature="0"
       d="m 14.392634,14.531302 5.607366,0 0,1 -5.607366,0 0,-1 z"
       id="path4061"
       style="fill:#d48eb3;fill-opacity:1;stroke:none;display:inline" />
    <path
       inkscape:connector-curvature="0"
       d="m 11,16.531301 3.085091,0 0,1 -3.085091,0 0,-1 z"
       id="path4049"
       style="fill:#b78ed4;fill-opacity:1;stroke:none;display:inline" />
    <path
       inkscape:connector-curvature="0"
       d="m 14.4348,16.531301 5.100985,0 0,1 -5.100985,0 0,-1 z"
       id="path4045"
       style="fill:#d48eb3;fill-opacity:1;stroke:none;display:inline" />
    <path
       inkscape:connector-curvature="0"
       d="m 19.898933,16.531301 1.904204,0 0,1 -1.904204,0 0,-1 z"
       id="path4043"
       style="fill:#89adc2;fill-opacity:1;stroke:none;display:inline" />
    <path
       inkscape:connector-curvature="0"
       d="m 22.123666,16.531301 1.904205,0 0,1 -1.904205,0 0,-1 z"
       id="path4041"
       style="fill:#89adc2;fill-opacity:1;stroke:none;display:inline" />
    <path
       inkscape:connector-curvature="0"
       d="m 24.348401,16.531301 2.756592,0 0,1 -2.756592,0 0,-1 z"
       id="path4039"
       style="fill:#89adc2;fill-opacity:1;stroke:none;display:inline" />
    <path
       inkscape:connector-curvature="0"
       d="m 27.425522,16.531301 0.574478,0 0,1 -0.574478,0 0,-1 z"
       id="path4037"
       style="fill:#89adc2;fill-opacity:1;stroke:none;display:inline" />
    <path
       inkscape:connector-curvature="0"
       d="m 19.999794,25.531301 1.866925,0 0,0.999916 -1.866925,0 0,-0.999916 z"
       id="path4241"
       style="fill:#89adc2;fill-opacity:1;stroke:none;display:inline" />
    <path
       inkscape:connector-curvature="0"
       d="m 22.178177,25.531301 4.835982,0 0,0.999916 -4.835982,0 0,-0.999916 z"
       id="path4239"
       style="fill:#89adc2;fill-opacity:1;stroke:none;display:inline" />
    <path
       inkscape:connector-curvature="0"
       d="m 27.325618,25.531301 3.674176,0 0,0.999916 -3.674176,0 0,-0.999916 z"
       id="path4237"
       style="fill:#89adc2;fill-opacity:1;stroke:none;display:inline" />
    <path
       inkscape:connector-curvature="0"
       d="m 20,27.531301 2.444613,0 0,0.985927 -2.444613,0 0,-0.985927 z"
       id="path4209"
       style="fill:#89adc2;fill-opacity:1;stroke:none;display:inline" />
    <path
       inkscape:connector-curvature="0"
       d="m 22.777067,27.531301 4.274761,0 0,0.985927 -4.274761,0 0,-0.985927 z"
       id="path4207"
       style="fill:#89adc2;fill-opacity:1;stroke:none;display:inline" />
    <path
       inkscape:connector-curvature="0"
       d="m 27.384282,27.531301 2.926777,0 0,0.985927 -2.926777,0 0,-0.985927 z"
       id="path4203"
       style="fill:#89adc2;fill-opacity:1;stroke:none;display:inline" />
    <path
       inkscape:connector-curvature="0"
       d="m 20,23.531301 2.340812,0 0,1 -2.340812,0 0,-1 z"
       id="path4177"
       style="fill:#89adc2;fill-opacity:1;stroke:none;display:inline" />
    <path
       inkscape:connector-curvature="0"
       d="m 25.141173,23.531301 1.858827,0 0,1 -1.858827,0 0,-1 z"
       id="path4175"
       style="fill:#89adc2;fill-opacity:1;stroke:none;display:inline" />
    <path
       inkscape:connector-curvature="0"
       d="m 22.650919,23.531301 2.180148,0 0,1 -2.180148,0 0,-1 z"
       id="path4169"
       style="fill:#89adc2;fill-opacity:1;stroke:none;display:inline" />
    <path
       inkscape:connector-curvature="0"
       d="m 20,29.647622 1.88209,0 0,0.972321 -1.88209,0 0,-0.972321 z"
       id="path4161"
       style="fill:#89adc2;fill-opacity:1;stroke:none;display:inline" />
    <path
       inkscape:connector-curvature="0"
       d="m 22.198897,29.647622 1.882091,0 0,0.972321 -1.882091,0 0,-0.972321 z"
       id="path4159"
       style="fill:#89adc2;fill-opacity:1;stroke:none;display:inline" />
    <path
       inkscape:connector-curvature="0"
       d="m 24.397795,29.647622 2.72458,0 0,0.972321 -2.72458,0 0,-0.972321 z"
       id="path4157"
       style="fill:#89adc2;fill-opacity:1;stroke:none;display:inline" />
    <path
       inkscape:connector-curvature="0"
       d="m 27.439181,29.647622 0.567807,0 0,0.972321 -0.567807,0 0,-0.972321 z"
       id="path4155"
       style="fill:#89adc2;fill-opacity:1;stroke:none;display:inline" />
    <path
       inkscape:connector-curvature="0"
       d="m 28.323796,29.647622 3.533369,0 0,0.972321 -3.533369,0 0,-0.972321 z"
       id="path4153"
       style="fill:#89adc2;fill-opacity:1;stroke:none;display:inline" />
    <path
       inkscape:connector-curvature="0"
       d="m 11,23.531301 2.759665,0 0,0.986089 -2.759665,0 0,-0.986089 z"
       id="path5302"
       style="fill:#94d48e;fill-opacity:1;stroke:none;display:inline" />
    <path
       inkscape:connector-curvature="0"
       d="m 14.143674,23.531301 1.856326,0 0,0.986089 -1.856326,0 0,-0.986089 z"
       id="path5304"
       style="fill:url(#linearGradient5988-3);fill-opacity:1;stroke:none;display:inline" />
    <path
       inkscape:connector-curvature="0"
       d="m 11,25.531385 2.941725,0 0,0.999916 -2.941725,0 0,-0.999916 z"
       id="path5310"
       style="fill:#94d48e;fill-opacity:1;stroke:none;display:inline" />
    <path
       inkscape:connector-curvature="0"
       d="m 14.2915,25.531385 2.7085,0 0,0.999916 -2.7085,0 0,-0.999916 z"
       id="path5312"
       style="fill:url(#linearGradient5984-9);fill-opacity:1;stroke:none;display:inline" />
    <path
       inkscape:connector-curvature="0"
       d="m 11,27.545374 2.535,0 0,0.985927 -2.535,0 0,-0.985927 z"
       id="path5318"
       style="fill:#94d48e;fill-opacity:1;stroke:none;display:inline" />
    <path
       inkscape:connector-curvature="0"
       d="m 13.947676,27.545374 2.052324,0 0,0.985927 -2.052324,0 0,-0.985927 z"
       id="path5320"
       style="fill:url(#linearGradient5980-2);fill-opacity:1;stroke:none;display:inline" />
    <path
       inkscape:connector-curvature="0"
       d="m 11,29.675302 2.214387,0 0,0.97232 -2.214387,0 0,-0.97232 z"
       id="path5326"
       style="fill:#94d48e;fill-opacity:1;stroke:none;display:inline" />
    <path
       inkscape:connector-curvature="0"
       d="m 13.57487,29.675302 2.118799,0 0,0.97232 -2.118799,0 0,-0.97232 z"
       id="path5328"
       style="fill:url(#linearGradient6073-6);fill-opacity:1;stroke:none;display:inline" />
    <path
       inkscape:connector-curvature="0"
       d="m 11,19.531301 2.358908,0 0,1 -2.358908,0 0,-1 z"
       id="path4031"
       style="fill:#94d48e;fill-opacity:1;stroke:none;display:inline" />
    <path
       inkscape:connector-curvature="0"
       d="m 13.742918,19.531301 2.257082,0 0,1 -2.257082,0 0,-1 z"
       id="path4029"
       style="fill:url(#linearGradient6143-7);fill-opacity:1;stroke:none;display:inline" />
    <path
       inkscape:connector-curvature="0"
       d="m 11,21.531301 1,0 0,1 -1,0 0,-1 z"
       id="path5685"
       style="fill:url(#linearGradient6065-4);fill-opacity:1;stroke:none;display:inline" />
    <path
       inkscape:connector-curvature="0"
       d="m 18.372793,35.094678 c 0,0.463185 0,0.926369 0,1.389553 -0.775706,-0.570632 -2.124096,-0.740642 -2.70921,0.180239 -0.454198,0.826099 -0.25243,2.209104 0.795154,2.454987 0.656285,0.154146 1.379893,-7.22e-4 1.914056,-0.412896 0,0.46477 0,0.929539 0,1.394309 -1.331386,0.471363 -3.063449,0.473005 -4.083368,-0.637149 -0.84621,-1.028463 -0.848824,-2.700571 -10e-7,-3.728246 1.005305,-1.115979 2.7634,-1.108545 4.083369,-0.640795 l 0,-2e-6 z m 5.310751,-0.946987 c 0,0.831192 0,1.662384 0,2.493576 0.82802,0 1.65604,0 2.48406,0 0,0.374354 0,0.748708 0,1.123062 -0.82802,0 -1.65604,0 -2.48406,0 0,0.831194 0,1.662387 0,2.49358 -0.377526,0 -0.755053,0 -1.13258,0 0,-0.831193 0,-1.662386 0,-2.49358 -0.82802,0 -1.65604,0 -2.48406,0 0,-0.374354 0,-0.748708 0,-1.123062 0.82802,0 1.65604,0 2.48406,0 0,-0.831192 0,-1.662384 0,-2.493576 0.377527,0 0.755054,0 1.13258,0 z m 8.165993,0 c 0,0.831192 0,1.662384 0,2.493576 0.828021,0 1.656041,0 2.484062,0 0,0.374354 0,0.748708 0,1.123062 -0.828021,0 -1.656041,0 -2.484062,0 0,0.831194 0,1.662387 0,2.49358 -0.377527,0 -0.755053,0 -1.13258,0 0,-0.831193 0,-1.662386 0,-2.49358 -0.82802,0 -1.65604,0 -2.48406,0 0,-0.374354 0,-0.748708 0,-1.123062 0.82802,0 1.65604,0 2.48406,0 0,-0.831192 0,-1.662384 0,-2.493576 0.377527,0 0.755053,0 1.13258,0 z"
       id="text2019"
       style="font-size:11.69507122px;font-style:normal;font-weight:normal;line-height:125%;fill:#808080;fill-opacity:1;stroke:none;display:inline;font-family:Bitstream Vera Sans" />
  </g>
</svg>
