<?xml version="1.0" encoding="UTF-8" standalone="no"?>
<!-- Created with Inkscape (http://www.inkscape.org/) -->

<svg
   xmlns:dc="http://purl.org/dc/elements/1.1/"
   xmlns:cc="http://creativecommons.org/ns#"
   xmlns:rdf="http://www.w3.org/1999/02/22-rdf-syntax-ns#"
   xmlns:svg="http://www.w3.org/2000/svg"
   xmlns="http://www.w3.org/2000/svg"
   xmlns:xlink="http://www.w3.org/1999/xlink"
   xmlns:sodipodi="http://sodipodi.sourceforge.net/DTD/sodipodi-0.dtd"
   xmlns:inkscape="http://www.inkscape.org/namespaces/inkscape"
   version="1.1"
   width="48"
   height="48"
   id="svg3901"
   inkscape:version="0.48.4 r9939"
   sodipodi:docname="text-x-python.svg">
  <sodipodi:namedview
     pagecolor="#ffffff"
     bordercolor="#666666"
     borderopacity="1"
     objecttolerance="10"
     gridtolerance="10"
     guidetolerance="10"
     inkscape:pageopacity="0"
     inkscape:pageshadow="2"
     inkscape:window-width="1778"
     inkscape:window-height="858"
     id="namedview37"
     showgrid="true"
     inkscape:zoom="15.781661"
     inkscape:cx="-7.1834282"
     inkscape:cy="25.001381"
     inkscape:window-x="142"
     inkscape:window-y="143"
     inkscape:window-maximized="0"
     inkscape:current-layer="svg3901">
    <inkscape:grid
       type="xygrid"
       id="grid3059" />
  </sodipodi:namedview>
  <defs
     id="defs3903">
    <linearGradient
       x1="23.99999"
       y1="5.5641499"
       x2="23.99999"
       y2="42.110645"
       id="linearGradient3013"
       xlink:href="#linearGradient3029"
       gradientUnits="userSpaceOnUse"
       gradientTransform="matrix(0.89189189,0,0,1.1351351,2.5945999,-4.7432314)" />
    <linearGradient
       id="linearGradient3029">
      <stop
         id="stop3031"
         style="stop-color:#ffffff;stop-opacity:1"
         offset="0" />
      <stop
         id="stop3033"
         style="stop-color:#ffffff;stop-opacity:0.23529412"
         offset="0.01487851" />
      <stop
         id="stop3035"
         style="stop-color:#ffffff;stop-opacity:0.15686275"
         offset="0.98463625" />
      <stop
         id="stop3037"
         style="stop-color:#ffffff;stop-opacity:0.39215687"
         offset="1" />
    </linearGradient>
    <linearGradient
       x1="25.132275"
       y1="0.98520643"
       x2="25.132275"
       y2="47.013336"
       id="linearGradient3016"
       xlink:href="#linearGradient3600"
       gradientUnits="userSpaceOnUse"
       gradientTransform="matrix(1,0,0,0.9561695,-9.9999999e-8,-1.9149218)" />
    <linearGradient
       id="linearGradient3600">
      <stop
         id="stop3602"
         style="stop-color:#f4f4f4;stop-opacity:1"
         offset="0" />
      <stop
         id="stop3604"
         style="stop-color:#dbdbdb;stop-opacity:1"
         offset="1" />
    </linearGradient>
    <radialGradient
       cx="605.71429"
       cy="486.64789"
       r="117.14286"
       fx="605.71429"
       fy="486.64789"
       id="radialGradient3021"
       xlink:href="#linearGradient5060"
       gradientUnits="userSpaceOnUse"
       gradientTransform="matrix(0.02303995,0,0,0.01470022,26.360882,37.040176)" />
    <linearGradient
       id="linearGradient5060">
      <stop
         id="stop5062"
         style="stop-color:#000000;stop-opacity:1"
         offset="0" />
      <stop
         id="stop5064"
         style="stop-color:#000000;stop-opacity:0"
         offset="1" />
    </linearGradient>
    <radialGradient
       cx="605.71429"
       cy="486.64789"
       r="117.14286"
       fx="605.71429"
       fy="486.64789"
       id="radialGradient3024"
       xlink:href="#linearGradient5060"
       gradientUnits="userSpaceOnUse"
       gradientTransform="matrix(-0.02303994,0,0,0.01470022,21.62311,37.040176)" />
    <linearGradient
       id="linearGradient5048">
      <stop
         id="stop5050"
         style="stop-color:#000000;stop-opacity:0"
         offset="0" />
      <stop
         id="stop5056"
         style="stop-color:#000000;stop-opacity:1"
         offset="0.5" />
      <stop
         id="stop5052"
         style="stop-color:#000000;stop-opacity:0"
         offset="1" />
    </linearGradient>
    <linearGradient
       x1="302.85715"
       y1="366.64789"
       x2="302.85715"
       y2="609.50507"
       id="linearGradient3899"
       xlink:href="#linearGradient5048"
       gradientUnits="userSpaceOnUse"
       gradientTransform="matrix(0.06732488,0,0,0.01470022,-0.3411391,37.040146)" />
    <linearGradient
       id="linearGradient3104-5">
      <stop
         id="stop3106-2"
         style="stop-color:#aaaaaa;stop-opacity:1"
         offset="0" />
      <stop
         id="stop3108-5"
         style="stop-color:#c8c8c8;stop-opacity:1"
         offset="1" />
    </linearGradient>
    <linearGradient
       x1="22.004084"
       y1="47.813133"
       x2="22.004084"
       y2="3.3638515"
       id="linearGradient3052"
       xlink:href="#linearGradient3104-5"
       gradientUnits="userSpaceOnUse"
       gradientTransform="translate(-1.982096,-3.047074)" />
    <radialGradient
       cx="11.227573"
       cy="10.190869"
       r="12.671875"
       fx="10.697345"
       fy="10.190869"
       id="radialGradient3842"
       xlink:href="#linearGradient3671-580"
       gradientUnits="userSpaceOnUse"
       gradientTransform="matrix(0,3.6779651,-3.8474058,0,98.678498,-36.375229)" />
    <linearGradient
       id="linearGradient3671-580">
      <stop
         id="stop4088"
         style="stop-color:#fc93dc;stop-opacity:1"
         offset="0" />
      <stop
         id="stop4090"
         style="stop-color:#da72d3;stop-opacity:1"
         offset="0.26238" />
      <stop
         id="stop4092"
         style="stop-color:#a33fab;stop-opacity:1"
         offset="0.704952" />
      <stop
         id="stop4094"
         style="stop-color:#502b58;stop-opacity:1"
         offset="1" />
    </linearGradient>
    <linearGradient
       x1="25"
       y1="73.14209"
       x2="25"
       y2="12.114751"
       id="linearGradient3815"
       xlink:href="#linearGradient3707-662"
       gradientUnits="userSpaceOnUse"
       gradientTransform="matrix(0.99999997,0,0,1.0068399,37.157594,-8.5047676)" />
    <linearGradient
       id="linearGradient3707-662">
      <stop
         id="stop4098"
         style="stop-color:#542f57;stop-opacity:1"
         offset="0" />
      <stop
         id="stop4100"
         style="stop-color:#bb5ca4;stop-opacity:1"
         offset="1" />
    </linearGradient>
    <linearGradient
       x1="-10.106312"
       y1="15.035473"
       x2="-10.106312"
       y2="37.037334"
       id="linearGradient4596-3"
       xlink:href="#linearGradient4141"
       gradientUnits="userSpaceOnUse"
       gradientTransform="matrix(1,0,0,0.99408284,34.731051,-3.452419)" />
    <linearGradient
       id="linearGradient4141">
      <stop
         id="stop4143"
         style="stop-color:#ffffff;stop-opacity:1"
         offset="0" />
      <stop
         id="stop4145"
         style="stop-color:#ffffff;stop-opacity:0.23529412"
         offset="0.05959737" />
      <stop
         id="stop4147"
         style="stop-color:#ffffff;stop-opacity:0.15686275"
         offset="0.85599428" />
      <stop
         id="stop4149"
         style="stop-color:#ffffff;stop-opacity:0.39215687"
         offset="1" />
    </linearGradient>
    <radialGradient
       r="12.671875"
       fy="10.190869"
       fx="10.697345"
       cy="10.190869"
       cx="11.227573"
       gradientTransform="matrix(0,3.6779651,-3.8474058,0,63.402624,-29.693407)"
       gradientUnits="userSpaceOnUse"
       id="radialGradient3132"
       xlink:href="#linearGradient3671-580"
       inkscape:collect="always" />
    <linearGradient
       y2="12.114751"
       x2="25"
       y1="73.14209"
       x1="25"
       gradientTransform="matrix(0.99999997,0,0,1.0068399,1.8817199,-1.8229458)"
       gradientUnits="userSpaceOnUse"
       id="linearGradient3134"
       xlink:href="#linearGradient3707-662"
       inkscape:collect="always" />
    <radialGradient
       cx="8.9035845"
       cy="23.841639"
       r="13.931416"
       fx="8.9035845"
       fy="23.841639"
       id="radialGradient3352"
       xlink:href="#linearGradient3846-5"
       gradientUnits="userSpaceOnUse"
       gradientTransform="matrix(0,3.4561718,-4.1186673,0,121.20805,-33.840698)" />
    <linearGradient
       id="linearGradient3846-5">
      <stop
         id="stop3848-48"
         style="stop-color:#ffd74f;stop-opacity:1;"
         offset="0" />
      <stop
         id="stop3850-1"
         style="stop-color:#ffc73b;stop-opacity:1;"
         offset="0.26238" />
      <stop
         id="stop3852-28"
         style="stop-color:#f9ac40;stop-opacity:1;"
         offset="0.66093999" />
      <stop
         id="stop3854-9"
         style="stop-color:#e46f20;stop-opacity:1;"
         offset="1" />
    </linearGradient>
    <linearGradient
       x1="21.483376"
       y1="35.375534"
       x2="21.483376"
       y2="8.404891"
       id="linearGradient3354"
       xlink:href="#linearGradient3856-6"
       gradientUnits="userSpaceOnUse"
       gradientTransform="matrix(1.6508808,0,0,1.6568311,-9.7968269,-13.801098)" />
    <linearGradient
       id="linearGradient3856-6">
      <stop
         id="stop3858-8"
         style="stop-color:#b67926;stop-opacity:1"
         offset="0" />
      <stop
         id="stop3860-0"
         style="stop-color:#eab41a;stop-opacity:1"
         offset="1" />
    </linearGradient>
    <radialGradient
       cx="9.9660025"
       cy="23.403069"
       r="13.931416"
       fx="9.9660025"
       fy="23.403069"
       id="radialGradient4476"
       xlink:href="#linearGradient3846-5"
       gradientUnits="userSpaceOnUse"
       gradientTransform="matrix(0,3.4561718,-4.1186673,0,121.20805,-33.840698)" />
    <linearGradient
       id="linearGradient3146">
      <stop
         id="stop3148"
         style="stop-color:#fff3cb;stop-opacity:1"
         offset="0" />
      <stop
         id="stop3150"
         style="stop-color:#fdde76;stop-opacity:1"
         offset="0.26238" />
      <stop
         id="stop3152"
         style="stop-color:#f9c440;stop-opacity:1"
         offset="0.66093999" />
      <stop
         id="stop3154"
         style="stop-color:#e48b20;stop-opacity:1"
         offset="1" />
    </linearGradient>
    <linearGradient
       x1="21.483376"
       y1="35.375534"
       x2="21.483376"
       y2="8.404891"
       id="linearGradient4478"
       xlink:href="#linearGradient3856-6"
       gradientUnits="userSpaceOnUse"
       gradientTransform="matrix(1.6508808,0,0,1.6568311,-9.7968269,-13.801098)" />
    <linearGradient
       id="linearGradient3157">
      <stop
         id="stop3159"
         style="stop-color:#b67926;stop-opacity:1"
         offset="0" />
      <stop
         id="stop3161"
         style="stop-color:#eab41a;stop-opacity:1"
         offset="1" />
    </linearGradient>
    <linearGradient
       inkscape:collect="always"
       xlink:href="#linearGradient4340"
       id="linearGradient4056"
       gradientUnits="userSpaceOnUse"
       gradientTransform="matrix(0.92775804,0,0,0.92775804,-14.086239,-0.64410237)"
       x1="29.465117"
       y1="13.120115"
       x2="29.465117"
       y2="35.641857" />
    <linearGradient
       id="linearGradient4340">
      <stop
         id="stop4342"
         style="stop-color:#ffffff;stop-opacity:1"
         offset="0" />
      <stop
         id="stop4344"
         style="stop-color:#ffffff;stop-opacity:0.23529412"
         offset="0.27889803" />
      <stop
         id="stop4346"
         style="stop-color:#ffffff;stop-opacity:0.15686275"
         offset="0.95056331" />
      <stop
         id="stop4348"
         style="stop-color:#ffffff;stop-opacity:0.39215687"
         offset="1" />
    </linearGradient>
    <linearGradient
       inkscape:collect="always"
       xlink:href="#linearGradient4354"
       id="linearGradient4058"
       gradientUnits="userSpaceOnUse"
       gradientTransform="matrix(0.92775804,0,0,0.92775804,-14.086239,-0.64410237)"
       x1="33.715347"
       y1="26.954983"
       x2="33.715347"
       y2="14.147835" />
    <linearGradient
       id="linearGradient4354">
      <stop
         id="stop4356"
         style="stop-color:#ffffff;stop-opacity:1"
         offset="0" />
      <stop
         id="stop4358"
         style="stop-color:#ffffff;stop-opacity:0.23529412"
         offset="0.38322371" />
      <stop
         id="stop4360"
         style="stop-color:#ffffff;stop-opacity:0.15686275"
         offset="0.95056331" />
      <stop
         id="stop4362"
         style="stop-color:#ffffff;stop-opacity:0.39215687"
         offset="1" />
    </linearGradient>
    <linearGradient
       inkscape:collect="always"
       xlink:href="#linearGradient4328"
       id="linearGradient4060"
       gradientUnits="userSpaceOnUse"
       gradientTransform="matrix(0.92775804,0,0,0.92775804,-14.086239,-0.64410237)"
       x1="49.883904"
       y1="20.606901"
       x2="49.883904"
       y2="41.606899" />
    <linearGradient
       id="linearGradient4328">
      <stop
         id="stop4330"
         style="stop-color:#ffffff;stop-opacity:1"
         offset="0" />
      <stop
         id="stop4332"
         style="stop-color:#ffffff;stop-opacity:0.23529412"
         offset="0.03626217" />
      <stop
         id="stop4334"
         style="stop-color:#ffffff;stop-opacity:0.15686275"
         offset="0.66666669" />
      <stop
         id="stop4336"
         style="stop-color:#ffffff;stop-opacity:0.39215687"
         offset="1" />
    </linearGradient>
  </defs>
  <metadata
     id="metadata3906">
    <rdf:RDF>
      <cc:Work
         rdf:about="">
        <dc:format>image/svg+xml</dc:format>
        <dc:type
           rdf:resource="http://purl.org/dc/dcmitype/StillImage" />
        <dc:title />
      </cc:Work>
    </rdf:RDF>
  </metadata>
  <g
     id="layer1">
    <rect
       width="32.508301"
       height="3.5700529"
       x="7.7378473"
       y="42.429947"
       id="rect2879"
       style="opacity:0.3;fill:url(#linearGradient3899);fill-opacity:1;fill-rule:nonzero;stroke:none;stroke-width:1;marker:none;visibility:visible;display:inline;overflow:visible" />
    <path
       d="m 7.7378475,42.430102 c 0,0 0,3.569856 0,3.569856 -1.1865002,0.0067 -2.8683795,-0.799823 -2.8683795,-1.785158 0,-0.985333 1.3240446,-1.784697 2.8683795,-1.784698 z"
       inkscape:connector-curvature="0"
       id="path2881"
       style="opacity:0.3;fill:url(#radialGradient3024);fill-opacity:1;fill-rule:nonzero;stroke:none;stroke-width:1;marker:none;visibility:visible;display:inline;overflow:visible" />
    <path
       d="m 40.246148,42.430102 c 0,0 0,3.569856 0,3.569856 1.1865,0.0067 2.86838,-0.799823 2.86838,-1.785158 0,-0.985333 -1.324045,-1.784697 -2.86838,-1.784698 z"
       inkscape:connector-curvature="0"
       id="path2883"
       style="opacity:0.3;fill:url(#radialGradient3021);fill-opacity:1;fill-rule:nonzero;stroke:none;stroke-width:1;marker:none;visibility:visible;display:inline;overflow:visible" />
    <path
       d="M 6.4999609,0.497199 C 14.520256,0.497199 41.5,0.5 41.5,0.5 l 4.2e-5,44.002803 c 0,0 -23.333387,0 -35.0000811,0 0,-14.668535 0,-29.33707 0,-44.00560407 z"
       inkscape:connector-curvature="0"
       id="path4160"
       style="fill:url(#linearGradient3016);fill-opacity:1;stroke:none;display:inline" />
    <path
       d="m 40.5,43.5 -33,0 0,-41.9999998 33,0 z"
       inkscape:connector-curvature="0"
       id="rect6741-1"
       style="fill:none;stroke:url(#linearGradient3013);stroke-width:1;stroke-linecap:round;stroke-linejoin:miter;stroke-miterlimit:4;stroke-opacity:1;stroke-dasharray:none;stroke-dashoffset:0" />
    <path
       d="M 6.4999609,0.497199 C 14.520256,0.497199 41.5,0.5 41.5,0.5 l 4.2e-5,44.002803 c 0,0 -23.333387,0 -35.0000811,0 0,-14.668535 0,-29.33707 0,-44.00560407 z"
       inkscape:connector-curvature="0"
       id="path4160-9"
       style="opacity:0.3;fill:none;stroke:#000000;stroke-width:0.99992186;stroke-linecap:butt;stroke-linejoin:round;stroke-miterlimit:4;stroke-opacity:1;stroke-dasharray:none;stroke-dashoffset:0;display:inline" />
    <path
       d="m 11,8.5 2.34375,0 z m 2.6875,0 2.1875,0 z m 2.53125,0 1.9375,0 z m 2.25,0 0.84375,0 z m 1.1875,0 1.875,0 z m 2.25,0 4.9375,0 z m 5.25,0 3.78125,0 z m 4.09375,0 1.15625,0 z m -20.25,2 3.65625,0 z m 4.0625,0 1.75,0 z m 2.0625,0 0.875,0 z m 1.21875,0 1.59375,0 z m 1.9375,0 1.625,0 z m 1.9375,0 2.59375,0 z m 2.9375,0 3.375,0 z m 3.6875,0 2.25,0 z m 2.5625,0 0.5625,0 z M 11,12.484375 l 3.09375,0 z m 3.40625,0 5.0625,0 z m 5.375,0 2.46875,0 z m 2.78125,0 2.3125,0 z m 2.625,0 1.96875,0 z m 2.28125,0 3.09375,0.03125 z m 3.375,0.03125 5.03125,0 z M 11,14.5 l 4.28125,0 z m 4.625,0 4.625,0 z m 4.9375,0 1.84375,0 z m 2.15625,0 4.34375,0 z m 4.625,0 2.96875,0 z m 3.3125,0 1.1875,0 z m 1.5,0 0.65625,0 z m 1,0 L 35,14.5 z M 11,16.5 l 1.59375,0 z m 2.09375,0 L 19,16.5 z M 11,20.484375 l 3.09375,0 z m 3.40625,0 5.0625,0 z m 5.375,0 2.46875,0 z m 2.78125,0 2.3125,0 z m 2.625,0 1.96875,0 z m 2.28125,0 3.09375,0.03125 z m 3.375,0.03125 5.03125,0 z M 11,22.5 l 2.34375,0 z m 2.6875,0 2.15625,0 z m 2.53125,0 1.9375,0 z m 2.25,0 0.84375,0 z m 1.1875,0 1.875,0 z m 2.25,0 4.90625,0 z m 5.25,0 3.75,0 z m 4.0625,0 1.1875,0 z m 1.5,0 2.8125,0 z M 11,24.5 l 3.9375,0 z m 4.25,0 4.21875,0 z m 4.53125,0 1.625,0 z m 1.9375,0 3.96875,0 z m 4.28125,0 5,0 z m 5.34375,0 1.84375,0 z M 11,26.5 l 4.28125,0 z m 4.625,0 4.625,0 z m 4.9375,0 1.84375,0 z m 2.15625,0 4.34375,0 z m 4.625,0 2.96875,0 z m 3.3125,0 1.1875,0 z m 1.5,0 0.65625,0 z m 1,0 L 35,26.5 z M 11,28.5 l 3.65625,0 z m 4.0625,0 1.75,0 z m 2.0625,0 0.875,0 z m 1.21875,0 1.59375,0 z m 1.9375,0 1.625,0 z m 1.9375,0 2.59375,0 z m 2.9375,0 3.375,0 z m 3.6875,0 2.25,0 z m 2.5625,0 0.5625,0 z M 11,32.484375 l 3.09375,0 z m 3.40625,0 5.0625,0 z m 5.375,0 2.46875,0 z m 2.78125,0 2.3125,0 z m 2.625,0 1.96875,0 z m 2.28125,0 3.09375,0.03125 z m 3.375,0.03125 5.03125,0 z M 11,34.5 l 3.65625,0 z m 4.0625,0 1.75,0 z m 2.0625,0 0.875,0 z m 1.21875,0 1.59375,0 z m 1.9375,0 1.625,0 z m 1.9375,0 2.59375,0 z m 2.9375,0 3.375,0 z m 3.6875,0 2.25,0 z m 2.5625,0 0.5625,0 z M 11,36.5 l 3.875,0 z m 4.21875,0 1.21875,0 z m 1.53125,0 2.78125,0 z m 3.09375,0 4.09375,0 z m 4.4375,0 2.78125,0 z m 3.0625,0 0.59375,0 z m 0.90625,0 3.53125,0 z m 3.90625,0 L 34,36.5 z M 11,38.5 l 3.875,0 z m 4.21875,0 1.75,0 z m 2.0625,0 2.75,0 z m 3.0625,0 2.96875,0 z m 3.3125,0 1.1875,0 z m 1.5,0 0.65625,0 z m 1,0 1.84375,0 z"
       inkscape:connector-curvature="0"
       id="path3475"
       style="fill:none;stroke:url(#linearGradient3052);stroke-width:1px;stroke-linecap:butt;stroke-linejoin:miter;stroke-opacity:1" />
  </g>
  <g
     transform="matrix(0.92775794,0,0,0.92775794,0.6501785,0.84671283)"
     id="text3106"
     style="font-size:32px;font-style:normal;font-variant:normal;font-weight:bold;font-stretch:normal;line-height:125%;letter-spacing:0px;word-spacing:0px;color:#000000;fill:#e4a520;fill-opacity:1;fill-rule:nonzero;stroke:none;stroke-width:0.99227129999999997;stroke-linecap:butt;stroke-linejoin:round;stroke-miterlimit:4;stroke-opacity:1;stroke-dashoffset:0;marker:none;visibility:visible;display:inline;overflow:visible;enable-background:accumulate;font-family:Droid Sans;-inkscape-font-specification:Droid Sans Bold">
    <path
       d="m 25.746136,18.292969 4.566406,0 2.460937,8.599609 0.601562,2.269531 c 0.03645,-0.255203 0.07747,-0.514969 0.123047,-0.779297 0.04556,-0.264317 0.09569,-0.524082 0.15039,-0.779296 0.06379,-0.264317 0.127597,-0.501296 0.191407,-0.710938 l 2.40625,-8.599609 4.59375,0 -6.042969,17.240234 c -0.565113,1.613278 -1.335294,2.811844 -2.310547,3.595703 -0.975266,0.783848 -2.196619,1.175775 -3.664062,1.175781 -0.473961,-6e-6 -0.884117,-0.02735 -1.230469,-0.08203 -0.346356,-0.04558 -0.642579,-0.09571 -0.888672,-0.15039 l 0,-3.308594 c 0.191405,0.04557 0.432941,0.08658 0.724609,0.123047 0.291665,0.03646 0.597003,0.05468 0.916016,0.05469 0.437497,-3e-6 0.811194,-0.05925 1.121094,-0.177734 0.309892,-0.118493 0.574214,-0.287112 0.792968,-0.50586 0.22786,-0.209637 0.419266,-0.464845 0.574219,-0.765625 0.164057,-0.300782 0.305333,-0.638022 0.423828,-1.011718 l 0.259766,-0.765625 -5.769531,-15.421875 m -11.406249,3.191402 0.953125,0 c 1.364573,1.2e-5 2.390614,-0.270821 3.078125,-0.8125 0.697904,-0.541653 1.046862,-1.421861 1.046875,-2.640625 -1.3e-5,-1.1354 -0.312513,-1.973941 -0.9375,-2.515625 -0.614595,-0.541648 -1.583344,-0.812481 -2.90625,-0.8125 l -1.234375,0 0,6.78125 m 9.984375,-3.625 c -1.8e-5,1.000015 -0.15106,1.958347 -0.453125,2.875 -0.302101,0.916679 -0.8021,1.723969 -1.5,2.421875 -0.687515,0.697926 -1.598973,1.255217 -2.734375,1.671875 -1.125012,0.416675 -2.520844,0.625008 -4.1875,0.625 l -1.109375,0 0,8.125 -4.8437503,0 0,-22.84375 6.3437503,0 c 1.468739,2.3e-5 2.734363,0.166689 3.796875,0.5 1.072902,0.322939 1.95311,0.791688 2.640625,1.40625 0.6979,0.604187 1.213525,1.348978 1.546875,2.234375 0.333316,0.875018 0.499982,1.869809 0.5,2.984375"
       inkscape:connector-curvature="0"
       id="path4367"
       style="font-size:28px;fill:#e4a520;stroke:none;marker:none;fill-opacity:1" />
  </g>
</svg>
