<?xml version="1.0" encoding="UTF-8" standalone="no"?>
<svg
   xmlns:dc="http://purl.org/dc/elements/1.1/"
   xmlns:cc="http://creativecommons.org/ns#"
   xmlns:rdf="http://www.w3.org/1999/02/22-rdf-syntax-ns#"
   xmlns:svg="http://www.w3.org/2000/svg"
   xmlns="http://www.w3.org/2000/svg"
   xmlns:sodipodi="http://sodipodi.sourceforge.net/DTD/sodipodi-0.dtd"
   xmlns:inkscape="http://www.inkscape.org/namespaces/inkscape"
   width="50pt"
   height="50pt"
   viewBox="0 0 50 50"
   xml:space="preserve"
   id="svg2"
   version="1.1"
   inkscape:version="0.91 r13725"
   sodipodi:docname="ascii.svg"><metadata
     id="metadata58"><rdf:RDF><cc:Work
         rdf:about=""><dc:format>image/svg+xml</dc:format><dc:type
           rdf:resource="http://purl.org/dc/dcmitype/StillImage" /></cc:Work></rdf:RDF></metadata><defs
     id="defs56" /><sodipodi:namedview
     pagecolor="#ffffff"
     bordercolor="#666666"
     borderopacity="1"
     objecttolerance="10"
     gridtolerance="10"
     guidetolerance="10"
     inkscape:pageopacity="0"
     inkscape:pageshadow="2"
     inkscape:window-width="836"
     inkscape:window-height="1009"
     id="namedview54"
     showgrid="false"
     inkscape:zoom="3.776"
     inkscape:cx="31.25"
     inkscape:cy="31.25"
     inkscape:window-x="2440"
     inkscape:window-y="39"
     inkscape:window-maximized="0"
     inkscape:current-layer="svg2" /><g
     transform="matrix(0.62291434,0,0,0.62291434,-14.922715,2.5803555)"
     id="g4"><g
       id="Pad Back Sheet"
       style="clip-rule:nonzero;fill:#ffffff;fill-opacity:1;stroke:#000000;stroke-miterlimit:4"><path
         d="m 34,69 0,-51 35,-17.5 0,51 z"
         id="path7"
         inkscape:connector-curvature="0" /></g><g
       id="Path_1"
       style="clip-rule:nonzero;fill:#ffffff;fill-opacity:1;stroke:#000000;stroke-miterlimit:4"><path
         d="m 38,71 0,-51 35,-17.5 0,51 z"
         id="path10"
         inkscape:connector-curvature="0" /></g><g
       id="Path_2"
       style="clip-rule:nonzero;fill:#ffffff;fill-opacity:1;stroke:#000000;stroke-miterlimit:4"><path
         d="m 42,73 0,-51 35,-17.5 0,51 z"
         id="path13"
         inkscape:connector-curvature="0" /></g><g
       id="Holes in Paper"
       style="clip-rule:nonzero;fill:#c0c0c0;fill-opacity:1;fill-rule:nonzero;stroke:none;stroke-miterlimit:4"><path
         d="m 50,24 0,-1 1,0 0,1 z"
         id="path16"
         inkscape:connector-curvature="0" /></g><g
       id="Path_4"
       style="clip-rule:nonzero;fill:#c0c0c0;fill-opacity:1;fill-rule:nonzero;stroke:none;stroke-miterlimit:4"><path
         d="m 60,20 0,-1 1,0 0,1 z"
         id="path19"
         inkscape:connector-curvature="0" /></g><g
       id="Path_5"
       style="clip-rule:nonzero;fill:#c0c0c0;fill-opacity:1;fill-rule:nonzero;stroke:none;stroke-miterlimit:4"><path
         d="m 69,15 0,-1 1,0 0,1 z"
         id="path22"
         inkscape:connector-curvature="0" /></g><g
       id="Wires Right to Left"
       style="clip-rule:nonzero;fill:none;fill-opacity:1;stroke:#000000;stroke-miterlimit:4"><path
         d="M 69.9,12.5 70.8,10.2 70.5,6.6 68.6,3 65.8,1.1 61.2,0.3 59,1.7 l -0.7,2"
         id="path25"
         inkscape:connector-curvature="0" /></g><g
       id="Path_7"
       style="clip-rule:nonzero;fill:none;fill-opacity:1;stroke:#000000;stroke-miterlimit:4"><path
         d="M 61.4,16.5 62.1,14 61,9.8 58.7,6 54.9,3.8 50.8,4 48.5,6.5 48.2,9.2"
         id="path28"
         inkscape:connector-curvature="0" /></g><g
       id="Path_8"
       style="clip-rule:nonzero;fill:none;fill-opacity:1;stroke:#000000;stroke-miterlimit:4"><path
         d="M 50.5,22.2 51.5,20 51,15.7 48.8,12.2 44.9,9.6 40.5,9.9 38.8,12 38.5,14.4"
         id="path31"
         inkscape:connector-curvature="0" /></g><g
       id="Pencil Mark"
       style="clip-rule:nonzero;fill:none;fill-opacity:1;stroke:#000000;stroke-miterlimit:4"><path
         d="M 52,50 52,30"
         id="path34"
         inkscape:connector-curvature="0" /></g><g
       id="Pencil Body"
       style="clip-rule:nonzero;fill:#ffffff;fill-opacity:1;stroke:#000000;stroke-miterlimit:4"><path
         d="m 52,50 2.95,-2.38 4.35,-9.92 24.19,-26.24 4.75,-5.25 2.71,-3.2 1.64,-0.98 1.97,0.16 1.88,0.99 1.4,1.88 0.24,1.81 -0.65,1.88 -2.3,2.87 -4.34,5.25 -25.18,26.08 -9.76,5.41 z"
         id="path37"
         inkscape:connector-curvature="0" /></g><g
       id="Bottom of Pencil Shaft"
       style="clip-rule:nonzero;fill:none;fill-opacity:1;stroke:#000000;stroke-miterlimit:4"><path
         d="m 65.69,42.95 -3.28,0.08 -2.95,-2.3 -0.24,-3.03"
         id="path40"
         inkscape:connector-curvature="0" /></g><g
       id="draw(70.6, 65.6);"
       style="clip-rule:nonzero;fill:none;fill-opacity:1;stroke:#000000;stroke-miterlimit:4"><path
         d="M 59.54,40.9 78.98,21.79"
         id="path43"
         inkscape:connector-curvature="0" /></g><g
       id="Top of Pencil Shaft"
       style="clip-rule:nonzero;fill:none;fill-opacity:1;stroke:#000000;stroke-miterlimit:4"><path
         d="m 90.05,16.79 -2.22,0.82 -1.8,-0.33 -1.64,-0.98 -0.82,-1.64 -0.25,-1.72 0.25,-1.56"
         id="path46"
         inkscape:connector-curvature="0" /></g><g
       id="Base of Pencil Eraser"
       style="clip-rule:nonzero;fill:none;fill-opacity:1;stroke:#000000;stroke-miterlimit:4"><path
         d="M 94.64,11.62 92.67,12.36 90.7,12.28 88.82,11.21 87.92,9.57 87.67,7.77 88.16,6.21"
         id="path49"
         inkscape:connector-curvature="0" /></g><g
       id="Top of Pencil Eraser"
       style="clip-rule:nonzero;fill:none;fill-opacity:1;stroke:#000000;stroke-miterlimit:4"><path
         d="M 97.43,8.67 95.46,9.41 93.41,9.25 91.77,8.26 90.95,6.62 90.46,4.82 90.95,3.01"
         id="path52"
         inkscape:connector-curvature="0" /></g></g></svg>