<?xml version="1.0" encoding="UTF-8" standalone="no"?>
<svg
   xmlns:dc="http://purl.org/dc/elements/1.1/"
   xmlns:cc="http://creativecommons.org/ns#"
   xmlns:rdf="http://www.w3.org/1999/02/22-rdf-syntax-ns#"
   xmlns:svg="http://www.w3.org/2000/svg"
   xmlns="http://www.w3.org/2000/svg"
   xmlns:sodipodi="http://sodipodi.sourceforge.net/DTD/sodipodi-0.dtd"
   xmlns:inkscape="http://www.inkscape.org/namespaces/inkscape"
   width="50pt"
   height="50pt"
   viewBox="0 0 50 50"
   xml:space="preserve"
   id="svg2"
   version="1.1"
   inkscape:version="0.91 r13725"
   sodipodi:docname="text-x-c++src.svg"><metadata
     id="metadata53"><rdf:RDF><cc:Work
         rdf:about=""><dc:format>image/svg+xml</dc:format><dc:type
           rdf:resource="http://purl.org/dc/dcmitype/StillImage" /></cc:Work></rdf:RDF></metadata><defs
     id="defs51" /><sodipodi:namedview
     pagecolor="#ffffff"
     bordercolor="#666666"
     borderopacity="1"
     objecttolerance="10"
     gridtolerance="10"
     guidetolerance="10"
     inkscape:pageopacity="0"
     inkscape:pageshadow="2"
     inkscape:window-width="1600"
     inkscape:window-height="900"
     id="namedview49"
     showgrid="false"
     inkscape:zoom="15.104"
     inkscape:cx="39.40506"
     inkscape:cy="31.97313"
     inkscape:window-x="0"
     inkscape:window-y="0"
     inkscape:window-maximized="0"
     inkscape:current-layer="g4" /><g
     transform="scale(0.5)"
     id="g4"><g
       id="Icon Shadow"
       style="fill-rule:nonzero;clip-rule:nonzero;fill:#C0C0C0;stroke:none;stroke-miterlimit:4;fill-opacity:50%;"><path
         d="M39.00 100L15.00 87L52.00 68.5L76.00 81.5z"
         id="path7" /></g><g
       id="Always Draw Back Three Pages"
       style="fill-rule:none;clip-rule:nonzero;fill:#FFFFFF;stroke:#000000;stroke-miterlimit:4;fill-opacity:100%;"><path
         d="M15.00 76.85L18.60 18.61L55.65 0.0799999999999983L51.32 59.15z"
         id="path10" /></g><g
       id="Path_2"
       style="fill-rule:none;clip-rule:nonzero;fill:#FFFFFF;stroke:#000000;stroke-miterlimit:4;fill-opacity:100%;"><path
         d="M26.83 82.92L18.60 18.61L55.65 0.0799999999999983L63.57 64.5z"
         id="path13" /></g><g
       id="Path_3"
       style="fill-rule:none;clip-rule:nonzero;fill:#FFFFFF;stroke:#000000;stroke-miterlimit:4;fill-opacity:100%;"><path
         d="M26.83 82.92L29.10 23.65L65.42 5.43000000000001L63.57 64.5z"
         id="path16" /></g><g
       id="Top Two Pages When Closed"
       style="fill-rule:none;clip-rule:nonzero;fill:#FFFFFF;stroke:#000000;stroke-miterlimit:4;fill-opacity:100%;"><path
         d="M38.98 89.71L29.10 23.65L65.42 5.43000000000001L76.12 70.78z"
         id="path19" /></g><g
       id="Path_1"
       style="fill-rule:none;clip-rule:nonzero;fill:#FFFFFF;stroke:#000000;stroke-miterlimit:4;fill-opacity:100%;"><path
         d="M38.98 89.71L38.98 28.69L76.12 10.37L76.12 70.78z"
         id="path22" /></g><g
       id="Line 6"
       style="fill-rule:none;clip-rule:nonzero;fill:none;stroke:#000000;stroke-miterlimit:4;fill-opacity:100%;"><path
         d="M47.21 68.1L70.57 56.99"
         id="path25" /></g><g
       id="Line 7"
       style="fill-rule:none;clip-rule:nonzero;fill:none;stroke:#000000;stroke-miterlimit:4;fill-opacity:100%;"><path
         d="M47.41 75.2L70.67 64.5"
         id="path28" /></g><g
       id="C"
       style="fill-rule:none;clip-rule:nonzero;fill:none;stroke:#000000;stroke-miterlimit:4;fill-opacity:100%;"><path
         d="M63.00 47.5L62.90 47.5L61.80 50.7L60.00 53.1L56.50 55.3L54.00 55.8L51.40 55.5L48.90 53.1L47.50 48.9L47.30 44.8L47.50 41L48.90 35.7L50.90 32.4L53.90 29.7L56.70 28.8L59.00 28.9L61.20 30L63.00 33.1"
         id="path31" /></g><g
       id="C Extra Outline"
       style="fill-rule:none;clip-rule:nonzero;fill:none;stroke:#000000;stroke-miterlimit:4;fill-opacity:100%;"><path
         d="M50.90 53.1L49.50 48.9L49.50 44.8L49.50 41L50.50 35.7"
         id="path34" /></g><g
       id="g39"
       style="clip-rule:nonzero;fill:none;fill-opacity:1;stroke:#000000;stroke-miterlimit:4"
       transform="matrix(1,0,0,1.623823,7.309322,-26.377118)"><path
         d="m 59,45 0,-9"
         id="path41"
         inkscape:connector-curvature="0" /></g><g
       id="Path_4"
       style="clip-rule:nonzero;fill:none;fill-opacity:1;stroke:#000000;stroke-miterlimit:4"
       transform="matrix(1.5990649,0,0,1.4869892,-41.035948,-17.759292)"><path
         d="m 65,38 7,-3.5"
         id="path44"
         inkscape:connector-curvature="0" /></g><g
       id="Path_5"
       style="clip-rule:nonzero;fill:none;fill-opacity:1;stroke:#000000;stroke-miterlimit:4"
       transform="matrix(1,0,0,1.5352364,2.8601695,-18.292819)"><path
         d="M 68,41.5 68,32"
         id="path47"
         inkscape:connector-curvature="0" /></g><g
       id="Path_4-7"
       style="clip-rule:nonzero;fill:none;fill-opacity:1;stroke:#000000;stroke-miterlimit:4"
       transform="matrix(1.4086056,0,0,1.4497419,-27.686519,-10.921785)"><path
         d="m 65,38 7,-3.5"
         id="path44-7"
         inkscape:connector-curvature="0" /></g></g></svg>